<mxfile host="app.diagrams.net" modified="2022-01-14T07:07:02.155Z" agent="5.0 (X11; Linux x86_64) AppleWebKit/537.36 (KHTML, like Gecko) Chrome/96.0.4664.110 Safari/537.36" etag="yMFAj-IT3ULd42jmJRjY" version="16.2.6" type="github">
  <diagram id="vOU0LY69Rb7OwTn-ueEu" name="Page-1">
    <mxGraphModel dx="874" dy="1394" grid="1" gridSize="10" guides="1" tooltips="1" connect="1" arrows="1" fold="1" page="1" pageScale="1" pageWidth="827" pageHeight="1169" math="0" shadow="0">
      <root>
        <mxCell id="0" />
        <mxCell id="1" parent="0" />
        <mxCell id="3CZfS8LkYhQUTR-pmk5H-7" value="" style="shape=image;verticalLabelPosition=bottom;labelBackgroundColor=default;verticalAlign=top;aspect=fixed;imageAspect=0;image=data:image/jpeg,/9j/4AAQSkZJRgABAQAAAQABAAD//gAYTUFUTEFCIEhhbmRsZSBHcmFwaGljc//+AB1NQVRMQUIsIFRoZSBNYXRoV29ya3MsIEluYy7/2wBDAAgGBgcGBQgHBwcJCQgKDBQNDAsLDBkSEw8UHRofHh0aHBwgJC4nICIsIxwcKDcpLDAxNDQ0Hyc5PTgyPC4zNDL/2wBDAQkJCQwLDBgNDRgyIRwhMjIyMjIyMjIyMjIyMjIyMjIyMjIyMjIyMjIyMjIyMjIyMjIyMjIyMjIyMjIyMjIyMjL/wAARCAMgBLoDASIAAhEBAxEB/8QAHwAAAQUBAQEBAQEAAAAAAAAAAAECAwQFBgcICQoL/8QAtRAAAgEDAwIEAwUFBAQAAAF9AQIDAAQRBRIhMUEGE1FhByJxFDKBkaEII0KxwRVS0fAkM2JyggkKFhcYGRolJicoKSo0NTY3ODk6Q0RFRkdISUpTVFVWV1hZWmNkZWZnaGlqc3R1dnd4eXqDhIWGh4iJipKTlJWWl5iZmqKjpKWmp6ipqrKztLW2t7i5usLDxMXGx8jJytLT1NXW19jZ2uHi4+Tl5ufo6erx8vP09fb3+Pn6/8QAHwEAAwEBAQEBAQEBAQAAAAAAAAECAwQFBgcICQoL/8QAtREAAgECBAQDBAcFBAQAAQJ3AAECAxEEBSExBhJBUQdhcRMiMoEIFEKRobHBCSMzUvAVYnLRChYkNOEl8RcYGRomJygpKjU2Nzg5OkNERUZHSElKU1RVVldYWVpjZGVmZ2hpanN0dXZ3eHl6goOEhYaHiImKkpOUlZaXmJmaoqOkpaanqKmqsrO0tba3uLm6wsPExcbHyMnK0tPU1dbX2Nna4uPk5ebn6Onq8vP09fb3+Pn6/9oADAMBAAIRAxEAPwD3+iiigAooooAKKKKACiiigAooooAKKKKACiiigAooooAKKKKACiiigAooooAKKKKACiiigAooooAKKKKACiiigAooooAKKKKACiiigAooooAKKKKACiiigAooooAKKKKACiiigAooooAKKKKACiiigAooooAKKKKACiiigAooooAKKKKACiiigAooooAKKKKACiiigAooooAKKKKACiiigAooooAKKKKACiiigAooooAKKKKACiiigAooooAKKKKACiiigAooooAKKKKACiiigAooooAKKKKACiiigAooooAKKKKACiiigAooooAKKKKACiiigAooooAKKKKACiiigAooooAKKKKACiiigAooooAKKKKACiiigAooooAKKKKACiiigAooooAKKKKACiiigAooooAKKKKACiiigAooooAKKKKACiiigAooooAKKKKACiiigAooooAKKKKACiiigAooooAKKKKACiiigAooooAKKKKACiiigAooooAKKKKACiiigAooooAKKKKACiiigAooooAKKKKACiiigAooooAKKKKACiiigAooooAKKKKACiiigAooooAKKKKACiiigAooooAKKKKACiiigAooooAKKKKACiiigAooooAKKKKACiiigAooooAKKKKACiiigAooooAKKKKACiiigAooooAKKKKACiiigAooooAKKKKACiiigAooooAKKKKACiiigAooooAKKKKACiiigAooooAKKKKACiiigAooooAKKKKACiiigAooooAKKKKACiiigAooooAKKKKACiiigAooooAKKKKACiiigAooooAKKKKACiiigAooooAKKKKACiiigAooooAKKKKACiiigAoqG5u7ayhM11cRQRA4LyuFUfiaqR6/o00qRRavYPI7BVRblCWJ6ADPJoA0aKKKACiiigAooqK4uYLO3e4uZo4IYxl5JWCqo9STwKAJaKQEMAQQQeQRS0AFFMmmit4XmnkSKJBlndgqqPUk9KIZoriFJoJElicZV0YMrD1BHWgB9FFFABRRUFveWt20q21zDM0TbZBG4Yo3ocdDQBPRRUc08Vum+aVI0JC7nYAZJwBz6mgCSiiigAooooAKKKKACiiigAooooAKKKKACiikZgqlmICgZJPagBaKzP8AhJNC/wCg1p3/AIFJ/jWjFLHNEksTrJG6hldDkMD0IPcUAOooooAKKKKACiiora6t7yHzrWeKeLJXfE4YZBwRkeh4oAlooooAKKgt7y1u/M+zXMM3ltsfynDbW9DjoanoAKKKKACioDeWovBaG5hFyV3CEuN5X129cVPQAUVFcXMFpA89zNHDCgy0krhVX6k8ClgnhuYEnt5UlicZSSNgysPUEdaAJKKKKACiiigAooooAKKKKACiiigAooooAKKKzX8Q6JG7I+saerqcMrXKAg+h5oA0qKit7mC8gWe2njnhbO2SJwynBwcEe9S0AFFFFABRRRQAUVFDdW9w8qQTxStC/lyhHDFG64OOh5HBqWgAooqCO8tZriW3iuYXnix5kauCyfUdRQBPRRRQAUUVBLeWtvPFBNcwxzTHEUbuAzn2B6/hQBPRRTXdY0Z3YKijLMxwAPU0AOoqC0vbS/g8+zuYbmHJHmQyB1yO2RU9ABRRRQAUUUUAFFFFABRRRQAUUUUAFFFFABRVK61jTLGbybvUbO3lxnZLOqNj1wTT7PUrDUN/2K9trnZjf5Mqvtz0zg8dD+VAFqiiigAooooAKKKiN1brdLameIXLIZFhLjeVBwSB1xnvQBLRRRQAUVBLeWsNxFby3MMc8ufLjZwGf6DqanoAKKKKACiorm6t7OBp7qeKCJeskrhVH4mpEdZEV0YMrDIYHII9aAFoopjTRJMkLSossgJRCwDMBjJA74yPzoAfRRRQAUUUUAFFFFABRRRQAUUUUAFFFFABRRRQAUUUUAFFFFABRRRQAUUUUAFFFFABRRRQAUUUUAFFFFABRRRQAUUUUAFFFFABRRRQAUUUUAQXNnb3giFxEsgikEqBhkBh0P4dfrXl3wxtLe98S/EGO5iWRE8QmVQwzh0kdlP1BANesEZBFY2jeFtH8P3l/d6ZbSQzX8pmuma4kk8xySSxDMQDknpQByuga94p8QeLNesIruwhsdI1NYW325aSWEg5UHOA3A5wc+2OcXSPiLr95D4Tkma1J1TV7ixuQIsDYjYBXng16TpfhzS9GvtQvbC3aK41CXzrpjM7+Y/rhiQOvbFZUHw68L215BdRafIslvdNeQAXU22GVuWKru2gE9RjFAHCap8RvEtjda5LHLZNbaXrsNgsTW53SxOTnLbuDx1ArqB4k17WvFut6Zob2UX9i3NrG8NyD+/jcEysSMkEDG3Hoc5yANS5+Hnhe7F6J9OkcXt0t5cf6XMN8y5w3D8YyeBx+VWrjwdodz4hGuvayLqJjEckkc8iCZRjAkVWAccD7wPbPQUAchdeO9YtfF1jZFrSS3m119MkjhG9Fi2goS/GJepZeQOMgcZ53VdV1SXw78Sry+uYL6Kxvxbpa3NuGiKKyBRjPAGSeO/Oc16Ovw68Krefa00spP8Abf7QDrcyjbP3cYbjPcDg8ccCpbvwJ4cvl1VZ7BymqsHvUS5lRZWBBzhWAB+UZIxnHNAHDal8SNUsbTxNd2cNvHbeG47BVtjHxcGYgPk9VABwuPqc9KTxP8QPEVlqviaPTZ7WK20zTbe/hWa23uxcrlSdwGPmPb/Gu8uPBHh66eRprEuJUhSdDM+2cQnMfmDPz7f9rPvkUmoeBfDuq3mo3d5YPJNqUKwXbfaZV8yNSCFwGAH3R0x+tABqt22o/Di9vXQK1zpEkrKOgLQk4/WuF8OeJr6w8NeAfD2nJifUtNklMmFLfu48qqhiBknrnsDjk5HpzaRZNoh0cxP9hMH2by/NcHy9u3G7O7pxnOaybjwF4cuNM0zT2spUh0tt1i8d1Kktv/uyBt4/PsPQUAcfqfjLxfb6zpmlyx2mm3dxok17dRPGJvKmjDcKQ2MHaO5xnvU1h461rUtL8G3E3kWFrq0E73uoCPKRyRoSqDPC7ipPPUAgc812Fz4L0C8vor2eydrmK1e0SQXMoIicEMOG5J3HJPOTnOa53Wvh8GbQ7PRbjUdN0vTYp0X+zb5o7hTIVIAaTIKcNnJyOMd6AOebX/FmpJ8PW1G4/s+41W7me4t1ttuNinZkE5Ix82OOoz0FYkfiLVfCmteMtTsJbdo/+EkhgnhlhJMqvuBw2fl/KvTdL8FibSrOLxLcz6ndWN1JPZ3Ek7CaFTwqtIm3ccdex6cgCp7n4eeF7sXon06RxfXS3lx/pcw3zLnDcPxjJ4GB+VAGjF/bX/CV3Hm3NgdF+yr5UChvtCy7uWbttxn/ACDnifjJbwmDwlcGNfOXxDaxiTHIUhyRn0yB+Vd1D4e0uDxFNr8dtjU5rcW0k+9jmMHIGM46gc4zxUeueGdJ8SC1Gq28k4tZluIQtxJGEkXOGwjDJGT1oA16KRQFUKM4Axyc0tABRRRQAUUUUAFFFFABRRRQAUUUUAFMmiSeCSGQZSRSrD1BGDT6KAPKdQt4YP2itAt4okSBNAZFjVQFC7pRgD0rT1rVtb0zxvo/g/w89ja2txpkjRmeEuITGCFwARkYAGPx56HqpvCuj3HiaHxHJbSHVoY/Jjn+0SDanPy7Q23HzHt3qWfw5pdz4httelt2bU7aIwwzCZwFQ5yNoO09T1FAHnuu+OfEeiz+LbUzWkkujaba3MTiDAaR8B8jP3c5wOo9TUus+NPEMetaTYWVxawreaA+oyPJb7ysioW+X5hwcd8112r+BPDuu39zeajYvJLdQC3uNlxJGsyA5UMqsAcHoT/QU+bwT4fuLq2uZbKRprazNjE/2qUbYCCpThueCeTz70Acfp3j/Vdas/B1lE1vaajr1pcTSXBTKK0SnaFBz95gCeuACBych/inxf4n8P6cVuH02O/g0Y3siW2ZS06uA25T92Hb/FkHccAnoemm+H3hmbSNO0w2Dpb6Y5ksmjuZVkgJOTtkDbxn6+noKdf+APDGp3JubzTPNma0NmzGeQF4iScNhvmOTnccnPOc0Acv/bOr6v8AEvwzCl99mtLnQzfmBIwVDtgHr1OOAT0/E1i+CPF928Xhjw9ZWtnp51S6v2mmtYAqosW4jYpJGWIGSc4HT29LXwfoaXWm3S2ki3GmwfZ7WVbmUMkf90nd8w4/izVe08B+HbC1tLezspIBZzSTW0iXMpkieQYcq5YsAwJyM4NAHC2XxK13WNL8FXFsLS2n1i8ms7vdCXQFDjcg3AjPXGfauv8Aht4kv/E/heS71PyjdQXk1szxJtDhDw2Oxwav/wDCEeHRFpESacI49HYvYrHNIghY9Tww3E9y2c8+tXNC8PaX4aspLTSbdoIJJWmZDK8mXbqcuSecUAeV2niaTwjYfEbVoI0eddf8qPzPuKzlV3NyOBknqM47da2/FPivxb4b0Sa4e2iiI1WC2tJ7hUfz4JByWVG4YMCM8ZGOK63/AIQjw6bTV7V9P8yDV5DLfJJPI4lfOd3LHac4+7jGB6VHL4D8PXGjQaTc2txcWkMiSoJbyZnDJwvz792Bnhc4HYUAcc/jzxNbaN402QW99e6JfJDFKkDACJj8zsgJJ2jJ4P16VB4m8T+JY/DXjmW21AfYdNSGOx1BIADPvC+ZhwcZXJXIHfsRXUeIPAdrNousQ6JE9teatcQz3cv2uVWfZIGLISSFfAOOMZxniotI8EXQ/tKx1nVNT1XQry3ERtNWuRNLv3ElgyAbRjGMHOeeMCgDjdbbUrL4geHpre9jF5D4buJVmeDI4ViBtyPpmu08P674i8S+FPCusWs2mW5upA2opMrfvEGQRFjoxwTg/wBOdV/A3h6S5t7iSzmea3tGs4pGvJiRCwIZfv8AOdx5PPvxSx+B/DsVno9omnkQaPN59ihnkPlPnOclsnnnByKALfiKy0e70p31y0iu7OD955MsfmKzYwMJ/E3OAMZyRjmsT4ZeHZvC/g2LTblwLjzXmktw+77NvO4R59gRn3J+tbXiLwxpHivT1sNatnubVXEnlCeSMFh0zsYZ/Gl8O+GdH8J6a2n6JZi0tWkMpQSM+XIAJyxJ6Ad+1AGtRRRQAUUUUAFFFFABRRRQAUUUUAFFFFABXk/xAs7ex+IPwzt7aJYolvrjCqMckxEn6k8k16xWNq3hXR9c1Ow1LULaSW709i9rItxInlMcZICsB2HUdqAOc8XaxqHhfVvDGl6ClpDHq1/LFKssRZVLHeWABB+8zEjPPt1qnfeJfEujeIoNEvbuzuJf7Dub6SWK32gzIW24BPTAGR9a7TVPDml61e6feX9u0txp8nm2riZ08t+OcKQD075qDWfCOi6/fwXuoWrvcQxPArxzyRExuPmRtjDcp9DQBwcXjzxDdaP4Bnils459fleK6LQFlXB4KjcCPzpNK+JWqXHhjSGvDAt9fa8dIa6WPCqgbl9ucbiOB2yc9sV20fgXw5FBpEKWDrHo7l7AC6l/csTkn73P45qJvh54Xbw/LoZ0wnT5bg3RjaeRmWX++rFiyn6H19TQBj6prfinRrTTbXUZ9OF3cNdq0tqC0sgRS0JSMjBzwX7KOcjtzzeK9c8Q23w3uReJZnVp5WuY4Y8qzxg4OCemedvr64Fd9ceBvDt49hJdWLzy2G8QSy3MrP8AOAG3MWy+QAPmzxxSR+A/DkWnabYR2Drb6ZKZbMC6l3Qsc5w27dg56Zx7UAeeWnjC60fVtUsLS0s4rq/8WJppuo4Np2tjdIwzhnx07ZOcdjZ1L4la3b6Bqb24txe6b4i/skyyRZSaLcQGKgjDY644/PA7seBvDo+1kWL77q8W/kc3EpYXCnKyKS3ysP8AZx6dKLjwL4cutL/s2ewL2xuzfOPPkVpJycmRmDAs2T3Pp6CgDP8ABHiLU9X1fxPpmpvBK2k33kRTRReXuQjOCuT0x61zU2sDw98SPiFrHk+abPSLaYR5xvKoSAT9cV6Hpfh3S9FvtQvbC3aK41CQS3TmZ38x+ecMSB17YqIeFdF/tXUdSazL3WpQiC7LyuyyxgY2lCduMccD1oA4e/8AGHiyw8D6hrzW8JgGmW17a3bBNrSuR5kexWJKYYFSefUmjTfHHiVtR16yaC21G4ttEh1K0ihhKEyMgPl4ySwyfr+ddXD8P/DkGgT6GLOd9NnG1oJLyZgq7t21SXyi5wcKQD3zUOo+BdNWw1aXR7URareaY2nrLNdTFSmzaqn5jgDA5AzQBzNn4s8TXsd08N5FJaR+GxqUl2tqMRXbKT5PXAxjcAQSAOc1zLvqV3p3wouJr8S3dzdNIs0se7aWUEluRuOcnqK7rw94K1TTNQiE2t6zdaU1s8N3Z6rdpcLISoACBVGAOcknPbHJrah8BeG4ItLjjsZQmlSGWyBu5j5LHHTL8jgcHIFAHO+GvEvijxR4Clu7O50uDV7fUWtWnukZYnRHAJwM4Yg4+vpnjvr2zgvrR7e5gjnibkxS8o+OQCO4z7GsA/D3wwdBl0T+zWOnS3P2t4WuJTmXIO7JbI6dM4rW1nRLLX7EWd+spjWRZUaKZ4nR1OVYMpBBFAHC/CuBtN1vxlpU+lLp13FqC3LxQSbrfy5VJjEfAwAF547jp0HpdVLHTbXThL9nRt8rBpZJHLvIQAAWZiSeAB7VboAKKKKACiiigAooooAKKKKACiiigAooooA86+M1nbw/CzxJcpEonnFv5kmOWCzRgDPoPT3NWNWvpPDXwsfxHpscKalFpVr+8dNwcKBgMO4G9vzrq9d0HTfEulS6Xq0DXFlKQZIhK8YbBBGSpB6gH8KZd+G9Kv8Aw6dAurd5NMMaxGEzyZKLjA3bt3Yd6AOI1bxN4s0Xw3pms3N1p0n9pXllHHDHbkeVHKvzgktyc4weO/HOBXvfH2uW+j+P7hHt/N0C6WO0Ji4Kk9H55/DFd5qPhbR9V0GLRLy2aSxh2eUvnOGjKfdIfO4EY65qiPAHhkWOqWf2CQwaqyveq13MTMwOQSS+c+pB575oA5Gz+Ims2N54gXUxbXcdjokOqxCGIxEMyAlDycjJ6/8A6q0v+Eg8U23g+58QtdaNNazafbXVrLOxhEcj48xW7bQD8vJOcA5rpLbwZoFpe3F5FYEzXFotlMZJ5JFeAAKEKsxBGAB0z+dU4/hz4XTQZtDNhLJpspBMEt3M4QBtwCEtlBkA4XGe+aAOI1nxvrk3g/x8kVy0E2kSRpbXJh8uYxSY4Yfwtg9cAj0Bp2p6/N4Y8T2d3cW1rfS23heW6WYwBZflPCBgeF6Z79T3xXeJ4D8NRwapANNzFqiKl6jTyMJQowCctw3+0MHPOc09fBPh9b2C7aykkmhtGskM1zLIDA2cowZiGByeoNAHHWfj3WFuIbK5aGWW88LjW45Vj2+TNgkpjunAxnn3OeI/B3jzxBqviDwzbalJZyW+s6XLdMsUBQxOjMODuOcgV21r4L0GzjlSKzciSyGn7nnkZlthnESsWyq8noR+gpmn+BvDulXmnXdlYvFPpsLQWjfaZWEcbEkrgsQfvHrn9KAOf8ef8lB+H3/X9cf+ixS6D4u8QeItUlnsbFZNNh1ibT7hAUUwwouBJktuL7sEjBGDgDIzXW6l4e0zVtS0/UL2B5LrTnMlq4mdPLY9ThWAPTuDVa18H6JY63dava2skN1dv5s6pcSCKST++Y92wt74znnrzQB5xoPxG8S3lz4dmu5bKS31HV59OliS3KnauMPu3HnnpitT/hMPFVzqi28UccN03iE6c9h9n3GGzC7vtB5BPGDuztIIxzXUW3w88L2YshBp0iCxumvLf/S5jsmbGW5fnOBwcj865pPAfiGLUbq8tNf1ayuptRkuRHFehrERtLuOYmXcWK9V6bu4FAHMa9e6pqPhL4ovfagZ47a8+zRxmMAKqlNuPQDnjuST1rqvBXiLWptduvDU0tpKlvo1tdWknklNjMija3zHcMkc9etdRdeBvDt4NVWawYpqxDXqLcyqspBBzgMADwMkYz3qS18G6DZ3097BZOLie0WylZriVt0IAAXBYjoBz196AJtHuNRtfC8Vzr09rcXsULSXEtipMbYyfkB5Py4/GvLtH8WWGt/GzSbxbyeRrjTJYhE1vKiwuXyIwGUfwjluhOeegHrWi6NYeHtHt9K0uDyLK3BEce4tjJJPJJJ5JNJJoenS6/Drj2+dShgNsk29uIycldudvXvjNAGhRRRQAUUUUAFFFFABRRRQAUUUUAFFFFABRRRQAUUUUAFFFFABRRRQAUUUUAFFFFABRRRQAUUUUAFFFFABRRRQAUUUUAFFFFABWB4kjNzd6DaGe5ihuNQZJfs9w8LOotp2A3IQcblU4z2rfrE1z/kMeGf+wk//AKSXFAB/wimnf8/Osf8Ag5u//jtH/CKad/z86x/4Obv/AOO1t0UAYn/CKad/z86x/wCDm7/+O0f8Ipp3/PzrH/g5u/8A47W3RQBif8Ipp3/PzrH/AIObv/47R/wimnf8/Osf+Dm7/wDjtbE00VvEZZpEjjXq7sAB+JrGj8QNqFwItJs5LiPO17pxtjTpzg4LYzyvB449axqV6dNpSer6dfuMKuJpUmoyer2W7fyWv6C/8Ipp3/PzrH/g5u//AI7VK70zw7Y7xc6rqSMmNyf23dlxnp8olz39Kvw6VfXI3arflzv3CG3+WMLk5Rv76kY6jPHXk5s2uhaXZYMFjCGDbwzDewPsTkjpWbnXmrwil67/AHL/AD/4GTqYmor04qP+Lf7l/n/wObMGiyIJLQeJb2IkqZLfU7xgGGMggygjqO2OfrTE0yaYb4dH1wxknaZfENzGxGe6mTIrt6zdY8QaXoEUUuqXi26ysVQFSxYjrgKCcD16cj1FUqFebtzv5JfrcU6Va3NOtZeSS/Pm/rqc5/Y93/0B9Y/8Ka4/+OUf2Pd/9AfWP/CmuP8A45V5/iH4VRY2OrKQ67hiGQkDJHIC8HjoecYPQis25+LHh2C4aONL64QYxLFEArcdtzA+3IraOXYqW0p/dH/5EwlKMd8S/wDyT/5Ek/se7/6A+sf+FNcf/HKf9k0tJWWe38VQImd8r6jeFFA6nKynjjqKpf8AC3dA/wCfPU/+/Uf/AMXVLUfi1HMscGg6XPNdysFX7SvGcjACoSWJ5HUc461pHLMZfST+ajb8EiHiIwV412/VJ/konQWtj4avcCDVtSLFtgVtbu0Yn2BlBPWsnxDqXhXw3erZ3Vzr89wV3Olvq90xjHbdmYYJ6464+oziLpvi7x5rCvqSTaPb28W0t5Uka5ySNqM3zMe5yBgDPYHo7L4cJDvkvNRivLgY8p5LFCFHcMpJDe3TB9abpzw7/e2n5Rdn+N1/5MhfWcdOP7uCa77f+St/r/wOHsE8WeKr17jQpdStbNHEZJ1WdkTJPLGSQliARnaPQ4GeX+I/CV/4DW11G01OaaOZ/KlaItbHswQlH3ENtPQj7vXpXq8Fxf6biC40+N7SMBY5LFeEXIAHl9eBz8ucCqnia1s/E3g2/WAi6KxGWHyQGcSqNygDBIJ6EdcMR3rpoZlCVRU1FRj1VtWv19UT7GM4NuT9otVfRq3ZdvS6GaZoOnalpNnfebrEf2mBJtn9t3Z27lBxnzOetW/+EU07/n51j/wc3f8A8drlvhJqcMug3OmvdbrmGdpFhZjlYiF5XPbduzjoTz159ErHEUvZVXDsenhqvtaUZ9zE/wCEU07/AJ+dY/8ABzd//HaP+EU07/n51j/wc3f/AMdrborE3MT/AIRTTv8An51j/wAHN3/8dqPSIzYeI9S0yKe5ktI7S2uEW4uHnZXd51Y75CWwRGnGcDGQMk536xLX/kedV/7Btl/6NuqANuiiigAooooAKKKKAMfxZNLbeDdcngleKaPT53SRGKsjCNiCCOhB70z/AIRTTv8An51j/wAHN3/8do8Zf8iN4g/7Btz/AOimrboAxP8AhFNO/wCfnWP/AAc3f/x2j/hFNO/5+dY/8HN3/wDHa26KAMT/AIRTTv8An51j/wAHN3/8do/4RTTv+fnWP/Bzd/8Ax2tuigDE/wCEU07/AJ+dY/8ABzd//HaP+EU07/n51j/wc3f/AMdq5NqsKy+RbqbmfO3bHyFOQDubtglc4yQDnGKpfYtV1REe9u5NPUOxNvasN23+HL+vXPUEY4BrnlXV+WC5n5bfft+pyzxSvy005Py2+b2/XyKN7p3hzTyVutU1RHBAKDWrxmGRnlRISKqPYQyyqmn2HiG4Urv82TW7qJGU4IKsZTnIPTgj0646i10jTrKUy29nDHIWLbwuSCeuD2HsOKu1PJiJ/FJR9Ff8X/kT7PFT+Kaj/hV3970/8lOKl8JalcYEd7dWsb7ST/a960kY4JH+tKsRyPf27H/CBXf/AENOsf8AgZcf/Ha62+vrbTbKW8vJlht4l3O7dAP6nsB1JrC/4T/wt9k+0/2vF5e/y8eW+/OM/cxux74x2zWkcA6mvvP5y/SxnPD0Yv8AeVHf/G1+CaM//hArv/oadY/8DLj/AOO0f8IPfQ/vI/EOpXDDpFNqF0iN9SsuR60t78UvDNrs8mW5vN2c+RCRt+u/b19s9Kqf8Ld0D/nz1P8A79R//F1qspqNXSl/4FL9WYtYNP8AiP8A8Dk/1aLaaDc2pxeW2qXCAFmlstdu+BjoEaUEnjt61csNK0LUdywXusCZPvwvrF4siEYyCpl7E4z0zWDffF7TBZS/YLG8a72/uhcKqpn1bDE4HXA69MjrXP3l9408bPYW7aSLeFiWScWrJEVYdWd8/LjnA68cE4rWGW4qCu5af3v81/kyXi3TdqM3U8mv1S0+aZ13iU+HfC0Vu9/Pr7tcMRGkOrXZJAxk8zAYGR3zz9a4d7vWvFOpMnhJNaggtgWfdrE7F8n5SxeTaOBwo/2uSBx0sXw707Rtagv9RL3dgqs7rHCdiyDkFkGTs4J7jOAeOvoVhaWNnbBdPt7eCCQ+YBboqqxIHzccHgDmtaWJw0F7sbzW9+ny6+ppB18TJxm+RLdLf7+3p6HjXiDwHqvh7SP7fm1Pz71Jw85izmMljiQSEhmO7b2zlvbNdz4S0q01vwrp+oXE+sCaRCsh/tq7+ZlYqW4kAGSucds4rrb6xttSspbO8hWa3lXa6N0I/oe4PUGvLvhJcw2Wp6tpt0/kXsvl7IZAVYlN+8c9xnp16+hrplUeJw8nL4ov8GOFOOFxMYw+Gatv1XU77/hFNO/5+dY/8HN3/wDHaP8AhFNO/wCfnWP/AAc3f/x2tuivNPTMT/hFNO/5+dY/8HN3/wDHaP8AhFNO/wCfnWP/AAc3f/x2tuigDnba1Gk+K7Oytbi8a3urG4llS5u5bjLxvAFIMjMVwJH6YzkZzgY6KsS6/wCR50r/ALBt7/6Nta26ACiiigAooooAKKKKAOQ8M6Ba6h4U0e9urzWJLi4sYZZX/ti7G52QEnAkwOT2rU/4RTTv+fnWP/Bzd/8Ax2jwb/yI3h//ALBtt/6KWtugDE/4RTTv+fnWP/Bzd/8Ax2j/AIRTTv8An51j/wAHN3/8drbooAxP+EU07/n51j/wc3f/AMdo/wCEU07/AJ+dY/8ABzd//Ha26KAMT/hFNO/5+dY/8HN3/wDHaP8AhFNO/wCfnWP/AAc3f/x2tus+613TLLPnXafK2xtgL7W9G2g4PB4PofSonUhTV5tJeZnUq06S5qkkl5uxU/4RTTv+fnWP/Bzd/wDx2j/hFNO/5+dY/wDBzd//AB2pP7d8yVY4NNv5BJjy5vKxEwboxYZwvIzxkemeKjlu9dNs1z5FhYpGGMi3cpYKoGd25eAOvXpj34y+tQfwXfomYPG0n8F5eif57B/wimnf8/Osf+Dm7/8AjtH/AAimnf8APzrH/g5u/wD47XOL4v0ad5vN8YyNaqpJjW0aKTBOBhgoJIJB4HODkYzVO88U+B47ZGmub7V5Q+ASr+YoI9W2DaMdMnlj6mtlSxktI0X89PyuYPMLq8Ypeskv/SeY6WbR9At5TFNq1/HIvVH166BH4GWqUyeFoJTHJqmsBh/1FL4gjqCDv5BHII61iR/EPwbHDHENFu2SMEJ5lvG5AyTjLOT1J/OrTfFvQYbYrbaff7kTEcZREXIHAyGOB+Bx6Vf1HMH9lL5N/qvv/AzeNm/+XkF8m/1j9/4F97TT43ZDp/i4lSQduo3ZH4ETYNUtYSLQrV7rULLVIrdX2CT/AISW6O8nptG/J9emcZPY1z994r8YeLNNls7PQ2SyvW8tJoIZM7d2MGTO3HG1jgDGelXrX4Of6lrvWv7pljit/wAwrFvrglfw7Vr/AGc4f7xXcfJJN/k/yMnVxVW6oSb87RX5p3+VjKuddh1ia3sNCOtLczts/d6xdvJ65Xe4UDg5yDwc5GKt3fw313UrSO7uby4kulXYI7u586UKCeM5x3z97v616hp2kadpEXlafZQWylVVjGgBcL03Hqx5PJyeTVi5uYbS3e4uJBHEgyzHtWLfsfepVJK3V8v+VvwNJZdKcXLE1W/uSXna1vwPMfBt3p+qRPbajqWsXFwJFVblNRvI1YuTtVgJMA8HGMDA9snuP+EU07/n51j/AMHN3/8AHa80tH0bR/iPBM8MtpY3Unnq1ynlrErAlduONvmAYPQAAHvXs1HLK/Om3CWsW0k332SW+2i0+TdZVWqVKclOV7OyfVrv/kYn/CKad/z86x/4Obv/AOO0f8Ipp3/PzrH/AIObv/47W3RQeqYn/CKad/z86x/4Obv/AOO1R1TS4tEt7a+sbrUhOL61i/fajcTIUknjjcFJHZTlXYcjjqMEA11NYniv/kDwf9hKw/8ASuGgDbooooAKKKKACiiigArlrXS4tX1zX3u7rUv3F8kUSw6jcQoifZoGwFRwPvMx6d66msTQ/wDkMeJv+wkn/pJb0AH/AAimnf8APzrH/g5u/wD47R/wimnf8/Osf+Dm7/8AjtbdFAGJ/wAIpp3/AD86x/4Obv8A+O0f8Ipp3/PzrH/g5u//AI7W3RQBif8ACKad/wA/Osf+Dm7/APjtH/CKad/z86x/4Obv/wCO1t0UAYn/AAimnf8APzrH/g5u/wD47R/wimnf8/Osf+Dm7/8Ajtac9/Z2rhLi7ghcjIWSQKSPXk1QPiOxZpI7ZLm6mi+/DFC29RnBOGx0JAx1/WsZ4ilB2lJXMKmKo03aU0n66/cR/wDCKad/z86x/wCDm7/+O0f8Ipp3/PzrH/g5u/8A47Tjq+oTIJLPRJ3TJUi4kELgjHY9Rz1z2P44beM8awdNudU0i0kD7ZFJk3QjGSPMI8veBx1xuGPalGvzu1OMpekX+exhLMKUbWTd/Jpfe7J/Jm1/wimnf8/Osf8Ag5u//jtH/CKad/z86x/4Obv/AOO1yr+M9FMEv2rxZdXKhCUS1s3gk3DkYbGOeRg8c9sZrNPjfwhKgF5aa1eOpJElwVLgHHGQ444zj3PrWyo42fw0WvV2/K5jLMv5Ypesl/7bzHZTaPoFvKYptWv45F6o+vXQI/Ay1Unh8L2zhJdV1fkZBXVr1lYeoIkIPccdwawo/iH4NjhjiGi3bJGCE8y3jcgZJxlnJ6k/nVD/AIWF4gv3uoPDOhoLKPKx+VatJJEDnDHadoJOTjBH1xk6RwGPluox9bv9V/XQzlj6nSUfknL9Y/f+B006aJFAblE8TTWgQv8AaI9Tu/L2jOSSZhjGDnOOnpXNavrujSwLbaNca0bq4PlpIdYupGjY4xiNZTuJ5H1xweah0r4V6jq9kL/VNSa0up2MhikhMj4POXJYYY8nHX15yB6VpHhfRtEit1s7CATQLhbl41MpJzkl8Zycn25wMDinPDKk9a3M/KKX53/XzuKEcwr7y5E/JX+Xb5nmN18PvFV8sa3t5d3Qjzs+0XAlK564LSH0H5U/wiLOy1W40bVdU1ApExiVYb+e3S3cMdw2o4BBJOW7EDscj1e/1O201EM7HfIdscaKWeRvQAfgPTkV5P4jeXRfHGm6heafFpyXM8dxPJEC2VWT5gSMjdgAtt65BIyTnOFTEV39WjVcn2tCy9bRT22Sd36XOTEUXhKqnRqOUr63s0k+9kvlrr02PSP+EU07/n51j/wc3f8A8do/4RTTv+fnWP8Awc3f/wAdrYiljniSWKRZI3UMjochgeQQe4p9B9IYn/CKad/z86x/4Obv/wCO0f8ACKad/wA/Osf+Dm7/APjtbdFAHJ6/otvpHhzVNTsrvVUu7O0luIWfVbmRQ6IWUlGkKsMgcMCD0IIrrKxPGX/IjeIP+wbc/wDopq26ACiiigAooooAKKKKACiiigAooooAKKKKACiiigAooooAKKKKACiiigAooooAKKKKACiiigAooooAKKKKACiiigArE1z/AJDHhn/sJP8A+klxW3WJrn/IY8M/9hJ//SS4oA26KK4PxN8S4/D2uzaWmltctCq75DP5YywDYA2nIwRzxznjudaVGdWXLBXZlWrU6Meao7I7ysXW/E1jooWN5YXumYAQmZU2jjlieFHI5PqPrXn1hqHjnxFdRQzXUtrbXaieNIkWI+Xu4IYDeq8dSckY65q9H8Mb/VNSe51/U0EWSVjtGLM2c5yzgYOcHODnnpxWcqd6roqaSXxNa2fZd336LrroeZPHV8R7mFg/OT6enn/VmaV1r3hdbtH13XLe9nRmeJbdXeJULcDCAjPy9Cc84OcA1hXfxfKQvDpmixxBTtheaXICg8ZRQMcdg3HvXQ2fwq8N20peUXl2pXGyabAB9fkCnP445rrdP0yy0m0W1sLWK3hH8Ma4ycAZJ6k4A5PJropwwOH1hFyb3b/q7+ZdLC4hXaahfdrVv1bPNv8AhN/H3/Qr/wDkhP8A/FVDFpfxF8TO99Lfy6Wh4jieZ7cYyeAiAnj1bkjHJr1mitPrij8FNJ/eb/UpS+Oo2vuPKYvg3IYkMuuKkhUb1S13AHuAd4yPfA+lXdP+EFlBdrJf6nLdwrz5UcXlbjkdTuJxjI4weeor0mik8fiHpzfkNZdhk78v4s4iz+FXhu2lLyi8u1K42TTYAPr8gU5/HHNaEXw88KwypKukqWRgwDzSMMj1BbBHseK6eisniqz3m/vNY4ShHaC+4yv+EY0D/oB6Z/4CR/4VYs9H0zT5TLZabZ20hXaXhgVCR1xkDpwPyq7RWbqTejZqqcE7pIKKK5XxN480rw9bkRyRX17vKfZoZRlSD828jO3HoRknt1IKdOdSXLBXYqlWFOPNN2R1Vc34lvtE0mOa8ub1LPUEi3oYXHnycgAbMjeCVAweODyOSOKj8U+OfFdxNdeHbX7NZRbUKDymG7GT88gG4+w6DHHOTb0n4Trc25uvEGoXJvZ/ndIWXKMSSdzkNuPTJGOc8nrXTPA0krYmS9Fq/wDgepwVa7xMeSlTuu70Xqv6TOd8Gar9l8aJfWNvCY75xBNbKCpgWRxymONqkD8OOOte4VVGm2g0xNN8gG0SJYljJJwoGAMnnjA561SSaXStRitJ5HltLpiIJZGJaJ+uxmPUH+Hv2561xYjEPnvL4dk+vlf/AD379ww1OeCjy1JXi3v2b7+V+v3rqa9FFFM9MKxLX/kedV/7Btl/6Nuq26xLX/kedV/7Btl/6NuqANuiiigAooooAKKKKAMTxl/yI3iD/sG3P/opq26xPGX/ACI3iD/sG3P/AKKatugAormPGPjGPwlFaE2TXUlyzbVEmwALjJJwefmHGPXn14u18XeM/EmqIdOQ2Vo4yiRW6vldxGdzg5OflLcKMdBWrouNF15u0e/6JLVs4sRmFGg+WV2+yR6dqmr2OjWjXN9cJEgGQCwBbpwAevUfnXJy+LtNu4Y7nVNWtbO0EqlbW2mE7yrtJIkCZO32IHcEZwayG+H/AIh1i5t/7X1JUsSQZEM7yzquM7MkEZznuQCf4sCte2+E/h2C4WSR764QZzFLKArcd9qg+/BqIYelUSliJNL+Vf8Atz7+SdvNnHL65iXdx5Y9m9/W2vyWne5m3vxU0rS7gWuj6Ybu1RFHnGUxbiAB0KknAAGTzx6AE0bb4geN7y3W4tfD0U8L52yRWUzKcHBwQ2Oor0TSPDej6DvOm2EUDvndJyzkHHG5iTjgcZxWrXWq2Gprlp0/vf6HTHDYhr3qlvJLQ8kd/iH4uvYwI59HjhXBI8y1TJycnJLMeMcZA46ZJLoPhFqF15k2pa3Ety7lmMcbTbs87izFTknPb8a9Zop/X6kdKaUV5If9n05a1W5PzZ5dF8G4xKhl1xnjDDeqWu0kdwDvOD74P0rd/wCFW+Gft/2nyrnyv+fXzj5fTHX7/v8Ae6+3FdpRWcsbiJby/Q0jgMNHaC/P8zmE+HnhVFkUaSpDrtOZpCQMg8EtweOo5xkdCa0IvCnh6GJIl0TTyqKFBe2RjgepIyT7nmteisnXqveT+82VClHaK+5GbF4d0SCVJYtG0+ORGDI6WqAqRyCDjg1pUUVm5OW7LjGMdkFYzo2hO00KltLYlpYlGTbnu6j+56r26juKj13xfo3h6Jzd3SvOjKptYWVpcnn7ueBjnJwPzGeD/wCE28XeLLvy/DNj9lSBMzAGOTJJ4yzgAewHPU89tFgKlePOvdt1f9apnFi61JNJP31tbV/8N3X62Z6Vfa1pemWy3F7f28EToXQvIMyADJ2jq3UdM9RXh174oubvx+2v6Rbss7yqIIXXeXG0R4IHdh2HIzwe9dLaeA5b7UIJPFO6ye5RlH2VkAaXd8oJAKqSM8Dg8YxgivS9G0ay0HTI7Cwi2RJySeWdu7Me5P8A9YYAArfC4mjRi7rmns10X+aejXl2OVe3x1ub3OV/O/4eqNCiiiuM9kKKKKAMS6/5HnSv+wbe/wDo21rbrEuv+R50r/sG3v8A6Nta26ACiiigAooooAKKKKAMTwb/AMiN4f8A+wbbf+ilrbrE8G/8iN4f/wCwbbf+ilpvizxLH4W0cX72zXDPKsSRhtoJIJ5POBhT2POPrVQhKclGO7JnOMIuUtkbtVr3UbPTojLeXUUCBS2ZGAyB1wO/4VwLeLvEuuXgi0TT9jww7p4UkRgrEjG6RwB06Ac8HqORlL4A8X6xtm1PUIIPOYecskrPIAPlJ4BB4GcbsfTtNOMqqvFpR7t7+iWr9dE9LNo8uWYzqr/ZKbku70Xy6v8AA6zVfiLpGnkrGGmYYPJ2Ag9wOWPPHT1rltT+KdykSpatBI7KG3wIyhD3VvMBz+A7j5uCDsRfCHRBEglvtQeQKN7IyKCe5A2nA9sn610+k+EtB0S4Nxp+mxRTHpIxZ2Xgj5SxJXgnOMZq44fDx1q1JTfZe6vw978TL6tmFZ/vanKvLT8tfvZ5TD4k8Sas1zNbaPPqNgzlVikWedYjkEDcpHzAYGeOCfWtFLnx5rZTT7PSm0dCqrJNHA9vlVKhd0jksdo7KckZ4Nev0VrCph6UualRin33NaeVRg787/L8dzykfCzW9UlaXW/ECvIqhY3G+4JHJwSxXA59+p6U/wD4U1/1Hv8AyT/+zr1Oitf7QxHR2+SOj+zcN1jf5s4N/hL4eZYwJ9QQquCRKmXOScnK9eccYGAO+SdL/hXHhP8A6BX/AJMS/wDxVdVRWTxVd/bf3mqwdBbQX3GLbeEPDtrbrDHotiyLnBlhEjcnPLNkn8TUv/CMaB/0A9M/8BI/8K1aKzdWo9XJ/eaqlTWiivuCiq97fW2nW5nu5hFGCBk5OSewA5NYN/rREfnX96mi6eyOVEzBbqXaOdqnOBz2BbgY6iuaVVKXs4q8uy3/AOAZVsVCm+XeXb9X2XmzUvdZhtrg2kEUl3e4B8iEZ256Fj0UdOe2QcVW+y+SRqmv3sI8kghN+y2iOcK3zdW56n+9gdBXnp+IV5ehdG8J6MLSeWULDJlXdlHcqRgEgDJJOBnnuJ4vBXirxXqCS+LLtoILdQECmNiwJ5ChDtU4HLHn7vBxx1Ry2V+fFzSXb/gdf60PP9u68r2c+yWkU/Nvdrz07JGL8S/EOna5rEEWnosgtFaN7pcYlJI4B7quDg9CWOOOT634b1O41nw7ZajdW32eadNzR846kBhnnBA3D2I5PWq/hrwnp3haK4Swad2uGBkeZwSQM4HAAwMntnn6Vu1viK9OUI0qa0j1/M68Nh6kJyq1HrLdL8AooorjO4KxPFf/ACB4P+wlYf8ApXDW3WJ4r/5A8H/YSsP/AErhoA26KKKACiiigAooooAKxND/AOQx4m/7CSf+klvW3WJof/IY8Tf9hJP/AEkt6ANuiq99eR6fp9zeyhmjt4mlcIMkhQSce/FeaX/jnXNce3stG06aO4miEhjgfdgE4DM+AVAO3PQcnJpS57Lkjdvbb9endnHi8bDDWTTcnsluz0m61Gzssi4uERgu/Z1fb6hRyRwecdj6Vzlx4+04XRt7UwSsuSzTXkcK44xgk9eehwR6dccVZ+CvHVzKZDdDTTEcxg3ZUfNwdvl7scAAk8njrW5Y/CHTBZRfb768a72/vTbsqpn0XKk4HTJ69cDpWv1XT97VUfKKv+L0/A4XVzCuvdjyfn97X6FfV/iQkdlI9lqsM1wsgEUdtbOodecl/MX5cYGNpPJx7jnT4y1jW7to7PSpL8GEGW2kaScBgRmRQm3ZzjgdNxHQ4r0mx+HvhixaJ10xZpI1xuuHaQOcYJZSdpPfpjPTFdPVeywMfsOf+Jv8tvwD+zatXWtP5atfjoeLNeeLbuwbS4PCYtxO2FlFlLujLYBIeRiFyABnt1461eHw28U6w1s2ta0pjCk4lmed4iRyADxnIAOGxx3r1uitYYpUVahCMPRG8MrpR0k7rtsvwPLP+FNf9R7/AMk//s61Lb4S6IumLb3Vxcy3Qcu11EQhI7KFO4Afmc98cV39FEsdiJby/I3jl+GjtD8zk4vhr4VjiRG05pGVQC73EmWPqcMBk+wAq/b+DPDdtLNLHotmWmbcwkj8wA8/dDZCjnouB09BW7RWTxFV7yf3myw9GO0F9yMr/hGNA/6Aemf+Akf+FaFta29nbrb2sEUEKZ2xxIFUZOTgDjqalqrfahb6fEHnf5m4jiXl5DwMKvc5I/OsalW0bzei7lP2dJObskWqxn1WbUXa30dQ6glJL1vuRH/ZB++cenHK9jVS733C+f4jubfT9NYhUtWuAoZ+fvvxnpkAHsPTnk9W+Katu03w3p7vIwENvOy4w2cDZEAc8YxnHJ5XjBijQxGM/hpxj32f/AX4+S3OCtiuZe8+SP8A5M/RfZXm9f8ADud/a6fa6Ws17PKHuGTdcXcxxkDkn0VR6DjAHpXmvxQ8V6dqdtBo9hItyY5RPJcRuCgO0gKCPvH5skjgdOTnBceF/HvimWG1164WG0ibfudo8A8A4WP7zYJxnA68jNdp4e8B6N4bvWvLXz57grtR7hlYxjvtwBgnpnrj6nPo0KWHwVne7XRbfNkclStD2NKHJDq3v56fr1K/w11C91DwfCb1cCBzBA+zbviUAA+hwcrkf3fXNdfRRXLVmpzckrXPSpQdOCg3ewUUUVmaGJ4y/wCRG8Qf9g25/wDRTVt1ieMv+RG8Qf8AYNuf/RTVt0AFFFFABRRRQAUUUUAFFFFABRRRQAUUUUAFFFFABRRRQAUUUUAFFFFABRRRQAUUUUAFFFFABRRRQAUUUUAFFFFABWJrn/IY8M/9hJ//AEkuK26xNc/5DHhn/sJP/wCklxQBt15V8UNKVPEGlahaube5mVzLMvy7fK2kPkc7vmxknsvTFeq1538Tf9Ksbjy+DYW4d5F55kkRdh/u8DPuO1VCtOlOKpv3pPlXz0v8t/kebmz/ANlaW+lv68ldna6VYNZW5a4cTXkx33EwH327D6AcAcD2Gav1zHw8lkm8CaW0sjOwWRQWOTgSMAPoAAB7Ct+8vrPT4hLe3cFtGW2h5pAgJ64ye/B/Kl7BUX7KPTQ68PyRoxcdFb+tfzfUsUV53qfxb0qK3uE021uZ7lcrC8qBYmOcbj827HfGAT047ZH9s/EHxasNta2jafBIoc3EUbQKykrhvMYk4HX5Dkgng11xwNVq8/dXmYyx9JO0Lyfket0V5NH8KNX1C4muNY1yLzm24kUPOz8Y+YttIwAMdfwxWVrOjXvwz1PTr+w1T7RLP5gIMOxSq7cqw3HcDu9sYyOcEXHCUpvkhUvLtZ/mZyxlWC550rR73X5Ht1FV7G+ttSsoryzmWa3lXcjr0I/oexHUGrFcLTTsz0E01dHmeqfErU7jWJrDw1pK3qwMwaTY0xkAIG5Qh4XOecnII6dKg/4Tfx9/0K//AJIT/wDxVZlvcL8PviVNbtLPDpErZZQhIaNlJQ4JJYIxxuHPyt6kV7HFLHPEksUiyRuoZHQ5DA8gg9xXp1nSoqPLTTTWj1PKoKrXcuao1JOzSseUy+KviLcuksWiy26QfPJGli4EoyBg78k/RcHBJ7ZB/bvxL1e722mnS2W1MlPsixoeeu6bPPI4B7dOtes0Vh9bgtqcTf6nN71ZHky+A/Ffii4a48S6n9m2ZEatiUg4X7qIQig45wc5HI5zXQaN8LNE0545r15dQmTnEgCxE5yDsHPQYwSQeePTuaKmeNrSXKnZdloXDAUIvmau+71CiiiuQ7AqK5tobu3e3uIxJE4wynvUtFJpNWYpRUlZ7GVpFzNG8ul3khkurYAiVv8AltGejDvx0PXnuc1q1i67/oU9nqyfL5EgjuG7eSxwcgcnBwQPU9K2qwoNxbpP7P5Pb/L5HLhZOLlRlvHb0e36q/WwViWv/I86r/2DbL/0bdVt1iWv/I86r/2DbL/0bdV0HWbdFFFABRRRQAUUUUAYnjL/AJEbxB/2Dbn/ANFNW3WJ4y/5EbxB/wBg25/9FNWnfXsOnWUt3OSI4xk7RknnAA/EilKSinKWyJnOMIuUnZI4r4ow6RPo8LXski3kDb4fKOSFJAbI6YOAAfUDtmtb4fMkvg2zuEiWMzNIzKvThyo/RQPwq7Bokd9YTnW4I7i4vE2zoTlUTOQi/wB0Dg8c7ucng1xHwblkMWsxGRjGrQsqE8AneCQPU4H5CtaEHWw7q1N4vRdk/wBW9X9y638mnGX1yNaovjTSXVW118+/bbpr6jRTJZY4InllkWONFLO7nAUDkknsK47UPij4dsLtrdGubzbw0ltGCmckYBZhnp1GRyOaKdGpU0grnp1K1OkrzdjtKK8m/wCE48ca1F/xKdF8qG4fEFxHbO+0bsffb5O2CSAOvTs0fDbxTrDWza1rSmMKTiWZ53iJHIAPGcgA4bHHeur6mo/xZqP4s5frzn/Bg5fgj1uivEfE/gC48JaZFq1vqctw8c6jMcBjMXUh9wY45AH1Ir1Hwn4gttf0S3ljvFuLuKKNbsBdpWQqM5GBwTnkccHHSs62GUYKpTlzL0sXRxUp1HSqR5ZetzdrhvFvjq60vV49F0Ox+26kPmlVomcAbdwVVUgscck9APXnHc15D8S7SbQPFVl4gsLuWO6usngD5GjVV49QQQCD79QcB4KnCpV5Zdnb1Fj6k6dHmhpqr+nkW/8AhN/H3/Qr/wDkhP8A/FVXvPF3xDuYgkWiT2jBs74dOkJI9Pn3DH4Z4r1HT9TstWtFurC6iuIT/FG2cHAOCOoOCODyKtVf1mEXrSRH1WpJaVXY8mXxH8SNQSCyg0qW3mGM3BsihfAOdxk+QZ69Bz09KJPC3jnxXcQ2viK6+zWUW5w58phuxgfJGRuPuegzzzg+s0UvrvL/AA4RXnbUf1Hm0qTk12voefaV8JNItWD6jdT3zBj8gHlIRjABAJbIPOQw7cevfRRRwRJFFGscaKFREGAoHAAHYU+iuerXqVXebudNKhToq1NWKuoWKahZvA52t96OQdY3HRhjHINQ6RfPdQSQ3AxeWreVOP7xA4cDj5W6jgd60KxdU/4lN8msJ/qW2w3a9BtJ4k46sCQOh4OOK4a37uSrLbr6d/l+VzHEfuZKutvtenf5flc2qKKK6TsCiiigDEuv+R50r/sG3v8A6Nta26xLr/kedK/7Bt7/AOjbWtugAooooAKKKKACiiigDE8G/wDIjeH/APsG23/opaj8bafb6j4P1NLhc+TA9xGwAyroCwIyOOmD7EjvUng3/kRvD/8A2Dbb/wBFLWxLFHPE8UsayRupV0cZDA8EEdxV05cklJdCKkFODi+p5/4I8SeXpCNLFM9rNcmJSm5zFLhcrjptIORt5zu4ya7u0v7S/Tfa3EcwABOxslc9MjqPxrzH4fRrY/EfX7C2LR2kazKsQYkYSZQuc9SASMnnk+td7L4Y0172O7hWS1kQ5P2Z/LDcYxx049MdTXPiMLUwk+Sg+aGlk90u19b28+nU8jArE0qMVTtKKdrPRq3Z9fRryubNFecXnjn/AIR+8jtjrFnq0DKDvQbiqjjBZcjceepY8ZOM80tQ+IfiG5N02jWlk1qq43qGkki4HOchTy3HBHQHNOnNyajVi6f+LRf+Bbfiaf2zh4+7UvF9mv1V1+J6pRXkCeCfF/iaCKfU9bia3llMjRvdNKEOSCVVcpnGcAEDnHFLqfwn/s3Sby+/tvzPs0DzbPsuN21ScZ38dK9FYag7J1Vd9lf8Tb65WkuaNLT1SPXqK4j4beJ5Nb0d7S/u1l1C1bADffeLAwx/vHJIJ+meTk9vXNVpSpTcJdDro1Y1YKcdmcn418ax+FIoYooFuL24ViiM+BGBwGYdSM9BxnDcjFcx/wAJv4+/6Ff/AMkJ/wD4qrXxY0llt7HxBamVLm2cRO8e7KrksjZB+XDcZ7lxzwK6rwf4it/EWgwTLP5l5EipdqwCsJMcnA4wSCQRx+IIHdFU6eHjUUObvc4ZOpUxMqTm49rdTiJfGnxAkidF8NtGzKQHTT5sqfUZJGR7gim23irxzJbXNnLbMZrZzHJPBZGWbcGJwAuU7EZ24+p5ruZL2fXbqSz06QxWMZAnvUJDFgQdsZH6nkYP0zsWtnb2MAhtYUijHZRjJxjJ9Tx1Nec8aq65aUEo/wA3X5X0+eq7dzCFKtiJP2dV8u1+/p/n9x5VqHh74geIb8C7U2sTKy7nuk2KCuCDsJOGHBAGD37mtCz+DtmkpN7q880e3hYYREQfXJLcdeMfjXplFdFPFTpQ5KKUV5dfNt3bfnc6qeWYeGrvJ+b/AKv8ylpWkWGiWQs9Otlt4AxbaCSST1JJ5J+vYAdqu0UVztuTuzvUVFWWwUUUUhhRRRQAVieK/wDkDwf9hKw/9K4a26xPFf8AyB4P+wlYf+lcNAG3RRRQAUUUUAFFFFABWJof/IY8Tf8AYST/ANJLetusTQ/+Qx4m/wCwkn/pJb0Aa11bQ3lpNa3Cb4ZkaORckZUjBGRz0NeW+Fb6bTfFWo6dp1rJctaM9uYzJgyRJJsViemQSOccbmxgE49XrybxTbQ6b8XNFksU+zvcvBJMYyV3s0rKx/EDB9cnPU1pDCxxKcG2mtU10a/RrRnlZnR5vZ1U7OL3W+v3r5M9KstZsb8IIpwsrgEQyfK/Khvunrwc5GR71frPvtD07UHaSe2QzFWXzVGG5GM+5A6ZziuX13xIPCkvlf23b3EhZz9knVneNSVKjK5bIBPLsMjoOK4oyxEbqUOb/Dq/u/yuazxNbDRcq8bpdY/qn+jZ3FFeaX3xJ1S5t459C0yGSNELXPnEuUPGANpXsR68nHGOcuHTPHnjSCS+k1AWdpMpRYmmaKN1JYFdiAkgcj5+SMcmu+hThVV3NLyvqvluSs0pVHy0E5Py/wCCev0V5TF8G5DEhl1xUkKjeqWu4A9wDvGR74H0o+F/iBdPlutB1S8aFzKqWlvMpG1/m3rkj5TkL8pI5PHJNbywsHCU6U+a2+jNI4uaqRhWhy82zumerVkeJfENt4Z0d7+5RpDu8uKJesjkEgZ7Dgkn0Hc4B165jx/o8eseEbvfK0bWatdoQMglFbg+xBI9jg+x56Ki6kVPa5013ONKThvY5CLx346niSWLw2skbqGR0sZyGB5BB3cin/8ACb+Pv+hX/wDJCf8A+KrS+FviCO60Q6Xeagr3kMpW3hkbD+VtBAXP3gMP64AHQYrqtX1K4jnj03To99/Mu4Mw+SFM43n/AD/QHpxmJpYVtTpLT117W9Ty037BVnVforN37LzPPNI8W+OY5p0u7VrlkwWhlsm81R/sqgU85HJ46e9Ne1+JF1JJd29tLB9pi2ktLCJFU84BY7k69Btxx3Fen6bpkGmQFYxumkw00xyWlbHLHJPfJx7mrtcdOq3U9tUhHm6Lov8AN9391tb1Sy6pNKWIqO62Se3z6vz+48usfg7GGie/1dmXb+9it4dpzjorkngHuV5HYV3mheHdM8OWjW+nQbN+DJIx3PIQMZJ/PgYAycAZrVorariq1VWnLQ7qOEo0XeEdQooornOkKKKKACiiigDE8Zf8iN4g/wCwbc/+imrbrE8Zf8iN4g/7Btz/AOimrboAKKKKACiiigAooooAKKKKACiiigAooooAKKKKACiiigAooooAKKKKACiiigAooooAKKKKACiiigAooooAKKKKACsTXP8AkMeGf+wk/wD6SXFbdYmuf8hjwz/2En/9JLigDbrlX0mHxGviWCQ7YLp1t1JzlJI1+9gEZAbBAzzjmuqrB0NXt9a1y1Mm+MTrMo24wZASf6D8K5qsnGtSa7v7+V2/U4cUlKrSjJaNv7+WX6XPPLPw38RdPtTo1pK0NiZcCRLhAFG77ytnzFXjOBg8njJNaFr8LtT1G98/xLrbTqihV8qVpXYc8bnHygEg9DnJ6V6jRXrSx9V/Ckn5IUcupK3M20ujehi6Z4S0LSre3jg0y2aS3wVnliVpSwOdxYjOc8+3bFbVFFckpyk7ydztjCMFaKsFZXiPRode0G6sJIonkdCYDJkBJcHa2RyMH07ZHOcVq0URk4tSW6CUVKLi9meY/CvUJrO71DwzcWuyaF5LiSTzAcMCkZTAGOo65r06vJPH+lXPhrxRbeKdNCpHJKpYBsATYOQQMHa6g55OTuzjIr0vRNWh1zRbTUoRtSdNxXk7WHDLkgZwQRnHOK7MZFTtXjtLf1OHBTcL4eW8dvQoeL/DMPifRXtsRJeR/NbTOD8jcZHHOCBg9exwSBXF/DTxT9jdvDOqt5Do5W1EibSHJO6Nj65PAI65Gegr1OvNvip4ZhmsP+EgtxFHNBhbnggzKSFU+mQTj3B6/KBRhakZx+r1Nnt5MMXTlTl9Zp7rdd1/wD0miud8Fa82v+G7a4uLiCS+VSLhYyMqdzBSyj7pIXPYdccV0VclSDhJxlujtpzVSCnHZhRRRUFhRUVzdW9nbtcXU8UEKY3SSuFUZOBknjqa4i++LOgW7Spaw3l2yr+7dUCI5xkDLHcBngnb+BrWnQqVfgVzKrXp0vjlY7yqV5rGmafKIr3UrO2kK7gk06oSOmcE9OD+VeXW0njjx8ikzfYtHnco7xARoFAw2Bne4PIxkgnjjHGlZ/B2zSUm91eeaPbwsMIiIPrkluOvGPxrpeGpU9K09ey1OVYqtU1o09O70O21WS01PwzeSwyxXNu0DukkThlJXJGCDzhh+lXNNme40qzmlbdJJAjscYySoJrx3wrq8nhhdb8P6pb3i3NyPLjiGCsb7WDMcsOCCpyM5AHXivYdKRo9HsUdSrrbxhlYYIO0cGvPxFH2ONcU7rlXzV9P1/EywuIVbEc2z5dV83b9bFusS1/5HnVf+wbZf+jbqtusS1/5HnVf+wbZf+jbqqPUNuiiigAooooAKKKKAMTxl/yI3iD/ALBtz/6Kalu/+Jj4jtrM8wWSi6kxyDJ0RTj7pHLe/pSeMv8AkRvEH/YNuf8A0U1Lof7+/wBYvG4ka7MBA6bYwAv4881zYj3pQp93r6LX87HHivflTpdG9fRa/nb5G1Xkh8HeMPC2sXJ8LytLaTKMSF4gSM8KyvwWHqB0PbJFet0V6FHESo3sk0+jNK+HjWs22mtmtzyZfh34s1ZII9Z17/Rjh2jkuJJ2jbBx8p+UnnGQ3c4J79lo/gDw9o8UqfY1vWkYEveokpAHYfLgDr2ye/QY6eirqYyrNWvZeWhFPBUab5rXfnqMiijgiSKKNY40UKiIMBQOAAOwp9FFcp1jJYo54niljWSN1KujjIYHggjuK8h0UL4K+Kc1jLat9nvG+z2+wnCpI6lCC33gMBTz1B5OOfYa4D4neFv7U0z+2LVc3lmh83L4DQDLHg8ZBOe3GepwK7MHUipOnPaWn+Rw46nJxVWC96Ov+Z39VdQ0yy1a0a1v7WK4hP8ADIucHBGQeoOCeRyKxPBPiZfE2gpLIcXtviK5BK5ZsffwOgbnsOQR2zXS1zzjKlNxejR1QnCrBSWqZ5D4X1NvAfjG88O6hdRPYyuoM5ZlWNiuVbHQZBUN6cc4Xn1uKWOeJJYpFkjdQyOhyGB5BB7iuY+IGhW+s+F7mWRvLmsUe5ikCgn5VJK+uCB27gHnGKzfhd4gbU9EksLq8WS7tGCxRFQpWAKoXGAMgHIzyemeorrrpV6ft1utH/mcVBvD1fq72esf8jvKKKK4D0QoopksscETyyyLHGilndzgKByST2FAD6iuYFurWa3ckJKjIxXqARjiuQ1D4o+HbC7a3Rrm828NJbRgpnJGAWYZ6dRkcjmuY/t7xr45ll/sONrDTgyROUkVdh6kmTAYnuQvbAxzz1RwNSavP3Y93ocVXGUfgj7zfRand6Zrdlp9gllqt7aWdzakwFZpVj3hcYZdxyQQRzWxZ31nqERlsruC5jDbS8MgcA9cZHfkfnXmK/DaOG40fTdS1BpfOMrMbdNhjwmSqk5yN3cjoOgrN0e+X4ceM9Tg1CG++xOjLCibWMi7wY3PIU/KGGexJHHNZYPDwnTlThK84O3qun/krTfmcWGxlWklTrRsovlvfyTV/k0e0UVFa3MN5aQ3Vu++GZFkjbBGVIyDg89DUtZNWPaTvqjEuv8AkedK/wCwbe/+jbWtusS6/wCR50r/ALBt7/6Nta26ACiiigAooooAKKKKAMTwb/yI3h//ALBtt/6KWtusTwb/AMiN4f8A+wbbf+ilrboA8x1/wj4j03xbLrfhQ/8AH1uZwsigox+8GDnDAn5h6HsMA1U/4QfxxrUX/E21ryobh8z28ly77Ruz9xfk7ZABA6dO3rNFdqx1RJKyuuttTheX0m27uz6X0OQ0L4caFo26SaL+0JnQKxu0VkB7lVxgZPrkjpnrnp00+yishZx2lulqOkCxgIOc/dxjrz9asUVy1ak6vxu50woU4R5YxVjDv/D7NK11pd5JZXJO5gp+SVss3zDvy3fIxxioYdbvtNPla9bCOMHaLyLlWODjKjnnax46ZHAzXRUyaGK4iMU0aSRt1R1BB/A1wSwvK+ei+V9uj9V/lY5Z4Lll7TDy5X2+y/Vf5WZ45raReCvHltr9jaW82mT73to4JgFJ2bHGcHbhmzgDGCAPQezV5f458KiCzSK1LPHLKWgVyFWF+OC57MM91+6pJO2rnws8TNqFg+iXJzNZpuhcliXizgg54G0lQOehAA4NepCtLF4fnkrVKekl5dH6P/PsceAxDhXnQqLlbe3S/l5NarttuegyxRzxPFLGskbqVdHGQwPBBHcV4zfaXfeCPGzJYTGK0vopPKdFPEZ5MeWz8ykLyDnGDxnFe01R1fS4NY06S1mVdx+aJ2Uny3xwwwQeM9MjIyOhNYupNUalOP2otfNrR/I7cwwrxFJqDtJbMNGexk0a0fTJVlszGPLdf4h3J6c5znjOc5q9Xk/g/wAQ23hjWNQ0e7nCQfaGVoggISYMFLK3GUwMYxn5RgDnPpdpq+nX2wW15C7Pnam7DnHX5Tz29Kyc6dOSp/D2T0f/AAfVaE4LHUasFC6jJacv4aeRdoooqz0AoormNc8faBoMpgluGubgNteG1Acp1B3HIAIIwRnPI4q4U51HaCuRUqQpq83ZHT1Fc3VvZ27XF1PFBCmN0krhVGTgZJ46mvLrzx/r/iXVRYeEbVolC79zohkIA+bduJRVyQPXIHPOKIvhRqOpxJeatrrLfSqDKrxGYqegBcuMkDA9PTI5rqWEjCzrz5fLdnG8bKd1h4OXnsv+Cek2esaZqEpistSs7mQLuKQzq5A6ZwD05H51drxfX/D6+AfFGkalZ/bm01XRpJiyliwY704x1TseuT749T8P+ILLxLpn26x80RhzGySrtZWGDg4yOhB4J61NfDqEVUpu8WXh8S5ydOorSXQ1axPFf/IHg/7CVh/6Vw1t1ieK/wDkDwf9hKw/9K4a5DsNuiiigAooooAKKKKACsTQ/wDkMeJv+wkn/pJb1t1iaH/yGPE3/YST/wBJLegDbrg/H/g6/wBaubbWNHlb+0LZVjEQcISAxIZW4wwJJ5PTpgjnvKK1o1ZUp88TKtRjWg4S2PKRoHxK1iVpbvVWsWRQqg3Xlhxz0EORkep55HXHGroPwp06waC51Sdr24Rg5hAAhzjoQRlgDn0B4yOoPoNFbSxtVrljaK8lY544CknzSvJ+buUYNG0u1ilit9Ns4o5ceYkcCqHx0yAOcVRl8PC2Tfo05sZ1AA6sj43cMD1yW6nOMDFblFefVowrO81r36/fua1cLRqfFHVbNaNejWqOZTxBfaU6wa7ZlUyFW7hGUbtkj8CeOf8AZrj/AIpaTb3ljZ+I9PjjdGPl3M0YOWBxsLdhjBUk4OSo+nqjosiMjqGRgQysMgj0Ncl4s0PNhezJ58tpcspubVG2qB1Mgx/FlUOcHoc5BIqcPWq4Coqsm5QW/dLr6/dc83F0a1KhJSlzw817y879V8rm74f1iPX9CtdUiiaJZ1OY2OSpBKkZ7jIOD6dh0rSryH4a68dF1ebw7fYEd1JuhfcoVZNvfPJ3AKBz1AGOTXr1dtenGErwd4vVPunsd+CxKxFFTT16nlPj3RV8Larp/ifRlgtVWVY2t41KAuATnCkDaygqwGPx3Gu18LXUV+L++M0LXc8oaSNJAzRIBhFYduhwccjmt6WKOeJ4pY1kjdSro4yGB4II7ivKtPvY/CHj+bTvt7LaKyJcb0UtOvlkxknruUuM464zjtWdeTrck57QT1+6zforr566XZwYiKwmJhWf8Nt38m1ZP7r37XPWKKgtby3voBNazJLGe6nODjOD6HnoanqIyUldO6PZjJSXNF3QUUUUxhRWBr3jPRPDuUvLnzLkf8u0GHk7dRnC8EH5iMjpmuN1L4mXusyw6Z4VsZ1u52ULLMqlweSQF5XGAMsTgDPA6100sJVqK6Wnd7HNVxlGk7N3fZbnp0sscETyyyLHGilndzgKByST2FUrbXdIvLhbe11WxnmfO2OK4RmOBk4AOegrzaL4beIPEDvfeItW8i5b7qMPPZRkkjhgqjuApI57Vm+MfA7eE7Kw1HTJbyYo3+k3GQBE427GUDlQTnnJwcDOcZ3hhaEpcntLyfZafec08XiIx9p7O0V3ev3HtdFYXhrxZp3imK4ewWdGt2AkSZACAc4PBIwcHvnj6Vu1wzhKEuWSsz0ITjOPNF3RieMv+RG8Qf8AYNuf/RTVt1ieMv8AkRvEH/YNuf8A0U1bdSUFFFFABRRRQAUUUUAFFFFABRRRQAUUUUAFFFFABRRRQAUUUUAFFFFABRRRQAUUUUAFFFFABRRRQAUUUUAFFFFABWJrn/IY8M/9hJ//AEkuK26xNc/5DHhn/sJP/wCklxQBt1zd0yaZ42t7ho8R38Hkl93/AC0BHb8EHYc59a6SsvxBpn9raRLAozMv7yL/AHh26jqMjn1zXLjKcpU+aHxRd18unzWhxY+lOdLmpq8otSXm10+auvmalFZWgaqdTsP3ylLuA+XOjYB3DvjtnnsOQR2rVralVjVgpx2Z0Ua0K1NVIbMKKKK0NQooooAq6np9vq2mXFhdLuhnQo3AJGehGQRkHkHsQK8m0m9vfhp4tOlalc79JuPnZlXcCpyFlC5ypyMMOeAfvYU16ze6np+m7Pt19bWvmZ2efKqbsdcZPPUfnXL+LJ/C2v6JcRSajpVxdxRSNaE3qKVkKnGDuHBOODxwM9K7cLNq8Jq8Jf1c4cXTTaqQklOP9WOviljniSWKRZI3UMjochgeQQe4ptza295btb3UEU8L43RyoGU4ORkHjqK8++EOoyT6Pf6e+4rayrIjF8gBwflA7AFCfqx/H0asK9J0arhfY3oVVXpKdtzx7TEtvCfxhawtZGhspWEG1vnOJEDKmcZxvKgHrgcnrXsNcb448HSa8sWp6bK0Wr2ijyiH2iQAlguf4WBJIPr17EcnbWPxF151sZLq508WCGMzSyPCJTnuy5MhwOoyMDOcnLdk4wxMY1OZJpWd/wAzipynhZSp8jaburfl5WPR9Y8U6LoEsUWp3ywSSqWVAjOcdMkKDgfXrg+hrhbj4l63qV7J/wAI1obXFpGq7jJbvI4JzydjYUcEAc9M57CxpPw1vLnUzd+LNQ/tFETZHGtxI5br95jggDOQB1J/A95pWkWGiWQs9Otlt4AxbaCSST1JJ5J+vYAdqzbw1FaLnl+Boliq7u3yR/E8xtvBPirxZdW994lvWht92THI37xVKj7iAbUJwAc4IIJIPfvLLwR4ZsN/k6NbNvxnzwZunpvJx17Vv0VlVxdWppey7LRG1LB0qerV33erGRRRwRJFFGscaKFREGAoHAAHYU+uQ8RfETSNEt42tZItTmlztS2nQquCM72BJXg8cHODXLp8Q/GN5G11ZeH4msmLFJPs0rqFBPVwwBxjk8Dg9KccJVlHnei7t2JqY6hTfLe9uxrfExbCBbS/YD+0IUcIQBjYeBuxz97p25atrwFry674XtjLcLLe26+VcDJLAgkKzZ5JZQDnoTn0IHEzaP44vLFbq0aS5N9DJFcNJKm5kbGQA+NqHJ27cfQcE9j4F8HyeFLK5+03CzXd0y+YI/uKFztAyASfmJJ/DHGThQjCVCVaUryk1y/4Ve3pe7l80edgXVq4qWIUWoy7q2i29b/qdZWJa/8AI86r/wBg2y/9G3VbdYlr/wAjzqv/AGDbL/0bdVB7pt0UUUAFFFFABRRRQBieMv8AkRvEH/YNuf8A0U1J4cdS+roGG8ahKSueQDjB/Q/lS+Mv+RG8Qf8AYNuf/RTVGsR0nxS0xYLaakNuFUALMo4yff5sepJ44zXJiLxnTn0Ts/np+djixTcKlKp0Ts/K6sn99l8zfooorrO0KKKKACiiigApksUc8TxSxrJG6lXRxkMDwQR3FPqK5urezt2uLqeKCFMbpJXCqMnAyTx1NNXvoJ2tqeQ65Zar8OvEsmt6cLZ7O9eVETyjsRSQ3lsBgLg/dwednYZFes6fqdlq1ot1YXUVxCf4o2zg4BwR1BwRweRWZfaz4W1Kyls7zVtKmt5V2ujXaYI/Pg9weoNed/DDUY9J8UX2iPtna7bYlxA+5MxBzkeqkZwfpxzx6M4vEUXOStKP4r/gHmQlHDVlCLvCf4P/AIJ7DXjPiezsPCfxL0y4sy1pas0VzMEJxGDIyuFA52lQfl9yBxxXs1c74y8LR+KdH+zh1iu4W8y3lZcgHHKk4yFPfHcA84xXPg6yp1Pe2ejOnG0XVp+58S1RvxSxzxJLFIskbqGR0OQwPIIPcVV1XV7DRLI3mo3K28AYLuIJJJ6AAck/TsCe1eUx6f8AEP8AdeGoWuYYbN/lu0cxoU4A/e8FlAOQo55Ix8oAuj4aeI9Tvbb+3tcW4tI2O4i4kldQeoXeuATgDP44OMVr9UpRd51Fby3sY/XKslanTd/Pa5a1j4n3E2qxWXhayW/BU5eSGRjIcZwiAg4AByT78YGTmx6J448bvNJqdzLp9kXVGgmDxKVzu+WID5tvGC3XgbuOPTNH8P6XoEUsWl2a26ysGchixYjpksScD06cn1NaVL61Tp6UYW83qx/VKlXWvO/ktEcxpXw+8N6Uoxp63Um0qZLv96WBOfun5Qe2QAcfjXRW1rb2dutvawRQQpnbHEgVRk5OAOOpqWud17xpo2hWU8pu4Lm6jYxi1hlUuX9CBnaBjknp7nAPPerXlbVs6bUaEb2UUWPE37uwtrw/6u0u4p5AOpUHHHvyKpeO/DsfiDw5NhW+12itPbmOPczEKcp64bpgdwp5xiuJuPHGueKIbm2ttKEdo6kxLHG0ru6AMU3dD1BwADjH4xiz+JWqStrEbXluzShktTP5QAGekTHG0bQMNycg/NkmjC4adPF1JOSjbl3fXXT7rHk/WoVa1VQi5RaWy663/Cx0Xwq1v7doMmnXF55t1aufLic/MsGFxj1AOR3xwOBiu/rg/h/4HufDksuo6hKv2uaLylgjOQinDHce7ZAHHAweTnjvKvGODrSdN6Hp4JVFQiqiszEuv+R50r/sG3v/AKNta26xLr/kedK/7Bt7/wCjbWtuuY6gooooAKKKKACiiigDE8G/8iN4f/7Btt/6KWtusTwb/wAiN4f/AOwbbf8Aopa26ACiiigAooooAKKKKAMPxaiyeHpU2hpWdBCuMsX3DhffGenbNcR4/wDDd3oupnxfo0/klXVp1XCmNzhdw7MGJwwOeSc5BOOzF1Bq2rtdGVf7M0xSxlY4Rpcctk8EKOc8YJz0NWZfEXhyeJ4pdZ0qSN1Kuj3UZDA8EEZ5FTl9WSryrwV4u0fVK9/zt8jyXTp4mU6t7Xsk/wDDfX7218iHwp4ltvE2jx3MTqLpFVbqEDBjfHPGT8p5wfT3BA3a8XtZbLw/8V7UaK0T6bO8cKLb3XmKyyKFOSCej5bafQdODXtFdmLoqnJOO0lf/gHXg68qsWpbxdn5+Z5d8V9B0620+31e3t1hu5LnypTGAokDBmLMO7ZHXryc54x2WifYvEvhrT7+7ihu5ZrZUllaIBt4GHwcAj5t3T8K0tX0q21vSrjTrwMYJ1w2xsEEEEEH1BAPpxzmvKW0nx34WefSNNNzc2V1mKCWH5lQEg7hz+5PzEEnA5JycBhoowxdBUZtXT67WOavBUarm4c0JLVJX19D0O90fR9I06e6+03GmQRgPLNDcMuQOgOc55PAxnPA61xWp+O4bNoLXw3qeo6lNK4yJowwJPAVSy7s5A4xg7uueKST4feM75RbX/iNZLR2Hmq13NIMZBztIAJHUAkcjqK7fRvBeg6DcR3NlZf6UibPPkdnY8YJwTgE+oA6kdDiub6jgKS11f8Adbivwt+Bh9UlVdqUPZryun8rNHFRHxn4vR9PvLe+sLX/AJaSviAEEEbT8oLKeQQAe2at6f8ADRrDaz2umXkivvV7mWU+nBVcKRx0IPU16TRWLTXu0pSjHspN/i7v8TZZTT3nOTfm7/nc5qyS+0reln4Us4mbAke1mjiWQjocYzjk4z0zVv8Atq+g/wCP3QrxN33PsxWfPrnGMdvr+FWNV1/TNFila9vYI5EiMogMqiSQDP3VJGScED3rz6b4pavqV2YfD2hebs3MQ6vM7JkANtTG335PUc+pTwGKq+9Go/ny2/JP8QqtYf3fbO/a0X+UU/xOw1LVNM1LSbqz1a1vbS2nXyi1xbEZJBwV4YbhjIz3APauG+HWpDQ/Et5os91/oNyzC1klRkEsithSoPA3Kfxwoz0Br6hqPjjXmea4kfREtoWZY90loJz1woJy7foPbPOr4Y8O6/q+rprutXBP7yOTDrgNtwQVUAD+FRkcd+a1c6mEg6U6kZt/ZXxevVfekvM4JYmtLEQ5Peafazt1vr+i9T0+sTxX/wAgeD/sJWH/AKVw1t1ieK/+QPB/2ErD/wBK4azPpDbooooAKKKKACiiigArE0P/AJDHib/sJJ/6SW9bdYmh/wDIY8Tf9hJP/SS3oA26KKKACiiigAooooAKKKxtV1JnuBpFjlryYYkdf+XdD1c8jnB4GfT2Bzq1Y0o8z/4d9jGvWjRhzS+S7vokcFr3g2TXdIm1TSo4FMdzcSoix4aeHA2hdozkFCApH8Xbv0XgLxn/AMJDYtb6lc2y6mj7FjX5GlQKDuwTgnIbO3pjoK24NX8P6XCtgNX0+I2/7so9zGrAjg7hkc5zn3zXmHjefStP8Z6drukzWNzGXWeaK1nDFpUcMS2MhdwK89yGOPX0MBSnPDxw1VapaPz3a9Ox5UYLBQjUi1fRSX+Xoe0Vw3xR0ayuvDE2qyRYvbPYI5V4JVnClW9R8xI9D9TnsbG8j1DT7a9iDLHcRLKgcYIDAEZ9+allijnieKWNZI3Uq6OMhgeCCO4rClUdGopdj1a1NVqTj3Rwfw9tdH1fwpZhwkl/ZswlKOySIS5KZIIJ+XGD7EDoa6X+w7qD5rPXL9ZDwTcETLj/AHTjB6c153deGvFHgS/muvDzS3lnc7ogscZkdRj5S6AYyCThhxxzgNtL4/BPj6+siLrXGjWVSslvcX8rHHIIbaGUgj3PBrWvluFqzdVSSUnfTR/hZ6HkQhFRUHRfOt2tPR3Rp3/j+30kSGHxAmqzK3l+QtjtXry28EAjjsTnP4iF9d8UeKfs1pbWepafDcYP2iCAxIVOCGMhyQMDPykZzjnIFbnhj4eaXokVrcXcS3eqRN5hmJOxG9FXoQOxIznnjgDsq56lDDU3ai5adXJ/rc1p4CtNfvKjiuybf3ttv9DzK1+F8qXzXN8bfUPMJMiz3MgLEnJbcoB3deTnr0NdNZw3GnymWy8G2dtIV2l4ZokJHXGQOnA/Kunqre6np+m7Pt19bWvmZ2efKqbsdcZPPUfnWUo16mntZfg/zTNo5fCirwm4/wDgL/FxZn/2nrn/AEL3/k6n+FMl1ifynt9R0C8IkUho4kW4RkPGCRx68f41x2ofFS6ub9rLw5pP2p9+I5JFZzKoBziNcEevXoOQO2RqviLxvrBgt7iGTRUVt5kRJLbcMhckklmA3Z2rk98HHGry2vTjz1K3Kv73Lp+C/M5KuKVOLlGtJ27qNvv5V+Ynh3zPCHjra09za6NK3lym6UKcFSU8wDOMMQN3HXPAJFezV5ZpXgnXNY8ubXLqT/V+Q0szEyiHcxIXIyTk9W6ZGMgYPqdEsRKu7zd7aXta672/XS/RJWvtlHtfZy51aN9Lq34dvzMTxl/yI3iD/sG3P/opq26xPGX/ACI3iD/sG3P/AKKatupPXCiiigAooooAKKKKACiiigAooooAKKKKACiiigAooooAKKKKACiiigAooooAKKKKACiiigAooooAKKKKACiiigArE1z/AJDHhn/sJP8A+klxW3WJrn/IY8M/9hJ//SS4oA26KKKAMG+0N4tTGraW/l3I5lgHCzjIyM9iRnt1weDzVbV/Hmi6LawTXBneSZiv2eNB5sZH3twJG3B4689sjmunrzD4ipaaRremXcltBJBcuXkjePK70IO4jPIO4ZHoD13VjSoOnV5qUOZPWUVvtvHz8uvqeTi1PBQlWw60b95fql37rr673pfi9ogicxWOoPIFOxXVFBPYE7jge+D9Kx7n4t3t7bta6bo3lXs2EhfzvNIYnHCbBuPoPXHB6V0uhHwxqtrbm48P6faTyorKJbONVkJAPyEjk4ZTjr8w69a7SvQp4rByV4Qv6vb1X+Y6LrYmHNGqreS1+d9UzymKT4rzRJKoYK6hgHW2U4PqDyD7Hmg6N8TdYlVLvUGsljUlXFwkQJOOD5PJP1GBz68+rUVf11raEV8jf6in8VST+Z5jZfC/UNQu3m8UaxLc7UCRGCdnfrnlpF4A54A79sc3/wDhUWgf8/mp/wDf2P8A+Irv6Kl42u3pK3oVHAYdLWN/UyPD3hrTvDNk1tYIxLtukmkILyHtkgDgdgOPxJJ16z9W1vTNDtxNqV5Fbofuhjlm5AO1RycZGcDiuWufix4dguGjjS+uEGMSxRAK3HbcwPtyKzVKtXfMk35mjrUKCUG0vI7mivLJPiZr+p3cv/CPaD51tFwd0Mkz8k4J2EBcgdOeh5NQz+KviLf+Xb2+iy2cjOAJI7Fx7YJkyoHPXjp161ssBV+00vVmLzGl9lN+iPWaytZ8R6VoNvJJf3kSSIm8QBgZXGcDaucnJ4z09SMGvO18B+K/FFw1x4l1P7NsyI1bEpBwv3UQhFBxzg5yORzmtPTvhDp0Eu/UNRnu1DKVSNBECB1DcsSDx0IPX8H7DDw+OpfyS/UX1jEz/h07ebf6FS++MUYaVLDSGZdv7qW4m2nOOrIAeAewbkdxVVtN+Ini1WN1M1haSK+I5H8hSCcFCijeRjpvB4788+o2Wmafpu/7DY21r5mN/kRKm7HTOBz1P50l/qdtpqIZ2O+Q7Y40Us8jegA/AenIqZ42jQXNTglbq9f+GInh5crliavu+Wi/4JyWl/DLRNGurXUZbu6mltCJSZHVI9y87sAZAB5xu7c5rU/e+KZ/44tFjb3Vrpgf0UH/ADn7tgWF9rDk6sogssDFlHJkswzy7jGfUAHHT052kRY0VEUKigBVUYAHoK8utOrjWnVvydnu/l0Xlu+tlvMMMq3uqPLT7bOXr2Xk9X1SW7qKKK6D1ArEtf8AkedV/wCwbZf+jbqtusS1/wCR51X/ALBtl/6NuqANuiiigAooooAKKKKAMTxl/wAiN4g/7Btz/wCimq5rGmR6rp0lu6hnwWiLMQFfBAJx9ap+Mv8AkRvEH/YNuf8A0U1bdRUhGpFwkrpkVKcasHCaumYOh649zK2m6knk6lDwyngSAdx7454+o46b1ZuqaLbaoUlfMdzED5UyEgqcHHTrg8j3Huc0I9XvNIcQ62u6HgC+RflLEZ27R6EMMj0GQM5rkhVnh/cru66S/wDku3rt3scFOtUwq5MS7x6S/wDkuz89n1saOs6zZaDpkl/fy7Ik4AHLO3ZVHcn/AOucAE1yH/C3dA/589T/AO/Uf/xdP+JiLqvgRL20ljeCG4jnLZPzKcpge+XHBx0P0pnw+tdI17wukt1oOmedbP8AZmk+zIxl2qpDHIzkhufUgnvge5Rp0fq/tpK+vRhUr1Z11TpSSTV11uZsvxkjEriLQ2eMMdjPdbSR2JGw4Ptk/Wq9tqHxP1W3W/s1221xl4hsgUBSeMB/mx6E9Rg5PWvVLa1t7O3W3tYIoIUztjiQKoycnAHHU1LS+s0o/wAOmvnqX9VrT/iVX8tDyaew+KWpeXb3E8sEZcEyRzwxbe2SYzuI56c/TpU0fwz1/U7uL/hIde862i5G2aSZ+SMgbwAuQOvPQcGvU6KPr1RfAlH0Q/7Ppv45OXqzgP8AhUWgf8/mp/8Af2P/AOIrY8PeA9G8N3rXlr589wV2o9wysYx324AwT0z1x9Tnp6r319babZS3l5MsNvEu53boB/U9gOpNZSxNea5XJu5rHC0Kb51FKxYori734peGbXZ5Mtzebs58iEjb9d+3r7Z6Vi3vxQ1DULtIfC+jy3O1C8ongZ3644WNuAOOSe/bHNRwVeX2beuhM8dQj9q/pqenUV5TL40+IEkTovhto2ZSA6afNlT6jJIyPcEUyTwt458V3ENr4iuvs1lFucOfKYbsYHyRkbj7noM884N/UuXWpNJet/wM/r3NpTg2/Sy+89M1HV9O0iLzdQvYLZSrMokcAuF67R1Y8jgZPIrgLz4xWaSgWWkTzR7eWmmERB9MANx05z+FFn8HbNJSb3V55o9vCwwiIg+uSW468Y/Gu60rw/pGiKBp2nwW7BSvmBcuQTkgufmIz6nsPSn/ALJTXWb+5f5h/tlV9IL73/kebRS/ETxgElikbTrKRgyOh+zoPkyCDzIynPuMn240LL4V6Rp1iLvXNQmkaMh5REQkWOMp0LHnIyCCcjABru77WrOxlEBZ57o9LeBd8h6HoOnBzzjiqY0q71S4huNYaMQxndHZR8rnsXP8RHIx0/AkHlrZpU1p4ZJPy6er/TdnLOjTbcY/vJ+b0Xr29NxumJLq+ojWbmF4oUXbZRsxztOcuR6kH8vXg1vUUVzUaXs42vdvVvu/6/A9LD0fYxte7erfd/1t5aBRRRWpuYl1/wAjzpX/AGDb3/0ba1t1iXX/ACPOlf8AYNvf/RtrW3QAUUUUAFFFFABRRRQBieDf+RG8P/8AYNtv/RS1t1ieDf8AkRvD/wD2Dbb/ANFLW3QAVXvr6202ylvLyZYbeJdzu3QD+p7AdSasVgeN7L7f4K1aHzNm2AzZxn/VkPj8duPxq6cVKai9myKsnGDlHdI5/wD4W7oH/Pnqf/fqP/4uqFz8Y7dbhltdFllhGNry3ARjxzlQrAc+5pnwvi0zWdKurO90XT5ZLJlxcPArPIHLHDZHUYPPpgY459ItrSx0u2dbW3t7OAEyOIkWNc45Y4wOg6+1d1b6tQm4ODdvM86i8TWpqoqiSfl/meW2/iD4h+JJZr3RoGhsmb92nlxBAORgPIPnPByR37DgVYsrj4j3lvcP5pmwu1FTyFV88ZEg4OOfunOR2rtWnuvEMUZ0+d7Ww8wiSflZZAP7nHCn1znrxwQduGGK3iEUMaRxr0RFAA/AVwTxqxK5acEoaa21fkn27vR9n1MqeGliHdVJcve9r+nl5/d3PKv+Fc+LriIWd1r0P2F2HmRLcSsoG7JITaFPPOOOfStn/hUWgf8AP5qf/f2P/wCIrv6K6PrlVJRg+VLsrHZDLsPFW5b+pyGjfDfQtF1OO/jNzcyxcxi5dWVG7MAFHI7Z6deoBHX0yWWOCJ5ZZFjjRSzu5wFA5JJ7CuT1D4l+GbDcqXUt5Ir7GS2iJ9eQzYUjjqCeoqP32IlfWTNf3GGjbSKOvorzPUfi1HMscGg6XPNdysFX7SvGcjACoSWJ5HUc461Um8e+ObeIyzeHEjjXq72M4A/EtWv1GqleVl6sxlmNBXs727I9XqK5urezt2uLqeKCFMbpJXCqMnAyTx1NeIvqnjnxLAbJ7i5kicEukcaoSuCCGCAMVOcYPHIq9b/CrUJ7gETMlsV3K06CNjx0wGYg89/TtWL+qw0lVTfaKcvxWifqcn9r+0/gU3L+vK/5nTaz8V9K0+4kt7C1lv5I32mQOEiYY5KtyTzx0weoPTPPXXjXxb4mEh0eBdPscNGXDquSQMqZnwN3OQFwcHvjNdXpPw5sbC2jSabMqOsqyRRqHRwOokILY6YxgZ5xXS2+haZbTtPHaIZmYOZJCZG3ZzkFicHPehYuMf4NH5zf/tquvxQlDMK/xe6vXX8L/mjyux8FPqZluNTm1HVbuYjyprZisZA4O+WVc54xjGOAMnPHfaXoWo2emW+nQXK6dYwpgRxHzZW3cvucgANkk5UYGfYV01Fc9aVfEK1eo2uy91fhr+JvRy2MNZyb9NPx+L/yaxn2Oi2djKZwrz3R63E7b5D1HU9ODjjHFaFFFKFOFNcsFZHfTpQpR5YKyCsTxX/yB4P+wlYf+lcNbdYniv8A5A8H/YSsP/SuGrNDbooooAKKKKACiiigArE0P/kMeJv+wkn/AKSW9bdYmh/8hjxN/wBhJP8A0kt6ANuiiigAriL74qeHrK9ltlS8uRG23zrdEKMe+0lhke/Q9sjmu3rxHwLBb2fjW48P6lptjfeY8kLSSxh/LeIMcruHQ4I6Dse2D2YWjTnGcpq/KtvzOHGVqlOUIQduZ2v+R0t78YdPTZ9h0q5nznf58ixY9MY3Z7+lZ/8Awm3i7xZd+X4ZsfsqQJmYAxyZJPGWcAD2A56nnt6VbaVpOls9za2FlZsEIeWKFIzt6nJAHHGfwqg0914hijOnzva2HmEST8rLIB/c44U+uc9eOCDnVxuHo6U6V5dE3f8ADa3mc9ZV17s6l29oxSTfz6LuziNNvviJc38sElyXa3P72ONLc4PYFsbevHXPXpgkRf8ACD+Nb9Jpn1CGyF0CJrZrt8sMkYfYCGzknqev4V6na2dvZRGK2hSJCxcqgwMnr/n8KnrGlVmqnt5xjzdLLRenn3e+nRaBTyvmanXm5S9dF6fq+vY87tvhBpC26rdahfSzDO54tiKeeMKQxHHuasRfCXw9HKjtPqEiqwJR5Uww9DhQcH2INd5RXQ8biH9pnWsDh19hDIoo4IkiijWONFCoiDAUDgADsKfXNan498OaVcXFtPf7rm3yGiijZiWA+6CBtz268Hriuevvi9pgspfsFjeNd7f3QuFVUz6thicDrgdemR1qYYWvPVRZU8ZQp6OSPRqK8s/4Tfx9/wBCv/5IT/8AxVVrjVPiVqdvcXIhbT7Vv3bKyx2+zgDgyEOM5656ng8cafUpLWcopebMZZhTSuoyfyPWZZY4InllkWONFLO7nAUDkknsK4vXfifo2kyvb2itqM6qpDQuvlZPbfzyBzwCO3rjjE+HNvIFjh1qS7uBsWVLOyMiIWH98uFx78fQc46nRvAENorEaXbRs+5Wk1BxduoIGCiABOCOp55Pbg4+2wMHpJ1H2inb5vb8TlePr1fdpRt5r3vxWi+bRjt488V+KLhbfw1pn2bZgyMuJSDhvvO4CKDjjIzkcHnFUrPwdPq17HJr+tTX0/lLtgs5DcShSTwZG+RNrEZ5I69Mgn1EaFDMQ+oXE98+VbbK+IwwGMhFwOfQ5/nnShhit4hFDGkca9ERQAPwFL67X2owVNf+BS/y/MawVes71pffr+C0X3teRzHhzw/e6Npq2NoEsLZmMkhd/PnZ8jPOAgyoA4Bxjpkmtqx0WzsZTOFee6PW4nbfIeo6npwccY4rQorl9kpS56jcpd3/AFZfJHdTwdKFm/ea2v09FsvkkFFFFanUYnjL/kRvEH/YNuf/AEU1bdYnjL/kRvEH/YNuf/RTVt0AFFFFABRRRQAUUUUAFFFFABRRRQAUUUUAFFFFABRRRQAUUUUAFFFFABRRRQAUUUUAFFFFABRRRQAUUUUAFFFFABWJrn/IY8M/9hJ//SS4rbrE1z/kMeGf+wk//pJcUAbdFFFABXn3xcsVm8OWl4sLPJb3IUuMkIjKc57YLBBk98eteg1XvrOPUNPubKUssdxE0TlDggMCDj35rahV9lUU+xjiKXtaUodzndAt9K8SeCtLQss4gtkhLIcNFIqBWHsfY8Hg8jFUodWi0YuLPxNpd9aKB5dvNdxh/vAbQ27Awo69P9mubn+GHiONbqysdWgXS5JSywSXMgDDPyl1CbS2Av4itqL4Q6IIkEt9qDyBRvZGRQT3IG04Htk/WnXwGCnUdVzak+sd/n3+Z5MqFWo1KNPlmlbmTs/+D87mvp/j/RbuBnnlNu6naQAZAxxnClRzxz0/PFYWqfFy1s754LPSZriNODJNJ5JJyei7ScEYIzg89BW1Z/DbwzZxIv2SaaVc/vnuHVzn/cIHtwKvDwdpUJhNl9psmiG1WgmOcYx1bJ6fzrnTdB6L2q8/dfrpdP8AA0cc0UEuaL/B/lb8jiE+I/ivU2kn0jw6sloG2jEEs5U4GQWUgZ5z0HBFRL4f8feKYp7651BrCO5ZlNnNNLENvTHlgHC9ueT1Oc5PdHR9btopBZa875bKJcxhjj0LnJ6eg/AZqV28UKjME0lyASFXzMn2GeK0WauHw0HF/KX6mVqstMQp/K1vwb+45LT/AIQWUF2sl/qct3CvPlRxeVuOR1O4nGMjjB56iuqsvBHhmw3+To1s2/GfPBm6em8nHXtT01LXgih9ADPgbit2gBPsOcU7+09c/wChe/8AJ1P8Kynm06nxOX/gMv0R0U54On8NOX/gE3/7aatta29nbrb2sEUEKZ2xxIFUZOTgDjqalrGd/Ech3xQ6ZCjAERyu7MvHIJAAP4U4WetzNHJNqkNvjh4ra3DAjPZnyc49vwrH6w5PSEn+H5tf5nUsS9oU5P5Jfm1/ma9ZU/iPTYnEUUpu5yMrFar5jN9McdievSov+EXsZf8Aj9mvL7H3PtM7HZ64xjrx+VasFtBaoUt4I4UJyVjQKCfXilfET6KP4v8ARfixXxU+igv/AAJ/dol979DNik1jUG3BE061ONu8b52GQc4+6uRxg5INXLPTLayJeNS87DDzysXkfgDljz2HHT2q3RVwoJPmk7vu/wBOi+RpDDxi1Kb5n3f6LZfJBRRRWx0BRRRQAViWv/I86r/2DbL/ANG3VbdYlr/yPOq/9g2y/wDRt1QBt0UUUAFFFFABRRRQBieMv+RG8Qf9g25/9FNW3WJ4y/5EbxB/2Dbn/wBFNW3QAU10WRGR1DIwIZWGQR6GnUUA1c5XxH4Vs59M1S5ghme4kgdjCjFhKwO/GOuSRgdhwQMiuW8CeJJYLG4stNs3u4IT5v2dpP3iBsD5BkkrnJIA4LZOM16nXm2tfDzV/wDhIbjUvDuq/ZPtW55mkuHjfezlmA2L937vBPalSwdGUZRjN029dHpfzjqvna/meLisA4VFWw14vry2/J6fgdefFOmRO0d201pMuMxTRHdggEH5c44PTrUF9448OadcGG51IK47rDI6ngHhlUg9exrmdL+EdlDbo9/qd2bvqWtCI1XgZAyCTznnjI7Ct7TfAOjaeJQ73d55hDZuZslTjHBUL7dc9KJU50pO01Neji/v95fgaRlmfaPzuvvtf8F8jJ1f4saPZ7F02GXUXOCx5hQDnuwzngdsc9e1Yv8AwtLX9Tu/L0XQon2puaLbJcP15b5duByB0/Hmu0XwPpcd6LyCW7hnXOx43UMgOeA2M4wSOtT/ANg38E/mWev3iqVwVuAJuc9eSAO3b8auOMUEv9mu/wDEn/kvyMpPMW7zWnaNv1aOEWD4i+Lbhpmll0iGPIVSz2y5wuRgZds9cnI64I6U+x+DshWJ7/V1Vt372K3h3DGeiuSOSO5Xg9jXef2Zrn/Qw/8Akkn+NH9ma5/0MP8A5JJ/jVPNsQlanScV5cn/AMkCoXd6lGcn5uP/AMmV7PwJ4YsZTLFo8DMV24mLSjH0ckZ469a2LLTNP03f9hsba18zG/yIlTdjpnA56n86oLpOpShku9dneNh0ghSJgc/3hk0J4eCurHVtWcAglWujg+xwM1zSxWJnvF/Nr/NnZCU425KFvVxX5XNaaaK3iMs0iRxr1d2AA/E1nXHiPR7bb5moQndnHlnzPz25xTIfC+iwSiRLBCw6B2Zx+RJBrSgtoLVClvBHChOSsaBQT68Vn/tMv5Y/fL/5Ev8A2uX8sfvl/wDImV/bF/dfJYaNcq3RnvMRKhPQ45LDrnH9aVNN1O6dX1HUyiAhvs9mDGoI/wBv7xBHUccn2rZoo+ruX8STf4L7l+twWEctas3Ly2X3K1/m2VbHTrPTYjHaW6RKepHJbr1J5PU9atUUVvGMYLlirI6oQjCKjBWS7BRRRVFBRRRQBiXX/I86V/2Db3/0ba1t1iXX/I86V/2Db3/0ba1t0AFFFFABRRRQAUUUUAYng3/kRvD/AP2Dbb/0UtbdYng3/kRvD/8A2Dbb/wBFLW3QAVFdW0N5aTWtwm+GZGjkXJGVIwRkc9DUtFCdtUDV9GeQ/CzUrTR7rWbXUpxazkIRHMCrHZv3DH94ZHy9evHBrshqtre3y3OsX9rY2JTNvY3MyKZlPAkdWPIyOPccdMmn4k8CS6lrc2q2FwEmuYikwmkKgEKipswpI4U5zntiuXh+G1/JPcTalbXly8jbgyXcSNkkkliwbcTxzx39aeMqUa+J567ahZOyi5XfnZbLs9/wPm5vEUZKhKDcI7WTafXWye3bq972O/uvGnhfTEiRtXtNhGEW2/ehQMcfIDt9s4/SsfVvipoNnbhtP83UJm6IqtEo5H3mYZ6E4wD07Vj2fwqe2lLyizu1K42TTSAA+vyBTn8cc1sWXwy0+y1JLxLgoUYsqxococHG0szYI7HkjGc55q1Xwq+GnOX3Jfi0/uudSxOPmrQpW/T73Ywn+LGp6g0dtpGgqbtm4Uu05YAEkBVCnPfOegPFUbzxF4y8Q3K2EzpofkhpZHHmW3bgEklj14Veuc4OMj0seGrSRCl5cXt6mQQtxcMQpGeRjHrV620rT7Qo1vZQRugwriMbhxj73WmsZP8A5d0Yx9W5P7rL8x/VsdV+Odl/XRJfmeNr4LuNUDXl3q13fXDvtaS1tJLjgAY3O5Q59ueAK6y08AWkSqIdBh8yGTcs+o3bSGUZJGUj+X04PGPXk16HRWc6+Lqq06rS7RSj/m/xLp5VFazl9y/z5n9zObtvCMMEski3CWzN906fax2xA7qWALEdOCe3er8HhvSoHMhtRPKww8k5Mhc9yQeMn1xWrRXO8NSb5pK789fzudccDh4u/Lf11/O41EWNFRFCooAVVGAB6CnUUVudaVgooooAKKKKACiiigArE8V/8geD/sJWH/pXDW3WJ4r/AOQPB/2ErD/0rhoA26KKKACiiigAooooAKxND/5DHib/ALCSf+klvW3WJof/ACGPE3/YST/0kt6ANuiiigArySWSLw78aJJX861s5yzuQHIkDx5J4ySPMz7Ajtjj1uub8W+Fh4jhtpI5Wju7UnysyFEIYrv3EDP3QcYxz14ralWdKM/OLXz6ficWOpzlT5qSvKLuvO3QJZIbp7TWNYvYbKwVw9rBLKEBbGVZ2JwWwCdo6D8cz3njPw3YxCWXWrNlLbcQyeac/RMnHHXpXns3w+12/wBQSfU2vbyNV24e7QyY5wA7E4GTnp6/WrMXw3ijlR20bUJFVgSj6lDhh6HCA4PsQa5qE8BTjeUpuT1fuS3+78tOx5dLGVYJuNOV3u3Gd2/kvwWx09z8TfC0Fu0kd7LcOMYiigcM3PbcAPfk1ytz8Y7hrdltdFiimONry3BdRzzlQqk8e4rZi8DWjsskHheytZY3Vgbu+kmVvbapwe3Xj2NdHFp+uGJEGo2likahEhtLYMgUdPvdPTA44Fb/AF3Cx/h0Zz9fd/O34m7r4ypsmvSNv/S3Gxwdx4i+IusoLGDRpbJ5Mgyx2rxHGDkb5DhfrwcgYNQ3Hw61W4u1k8R+JrVMoVjlkmaZzg/dG/bxyT179Oa9I/sLzn33mpX9xuXbJH5vlxvxg/KuMD2z9c1LB4f0i2QomnwEE5/eLvP5tk0/7QxK/g04w/F/k/zB4OvV+NX/AMUv0S/U4PTfCPhK1smhlgu9dukkIkkt0kUKDnGArBccepJOe3TpYtNgldJtM8KafaOuHjnu4EjKOG/uqCwPcHI/x6miuec8VVd6lV/LT87nTDAuKs5JLyil+L5n+JkHTdTut32zV3jR1GYrOMR7W46Octjg+mf0p8Xh7TEl86S3+0zFQrSXLGUt05O7jPHYVqUVksLSveSv66/mbrB0b3kuZ+ev53t8hqIsaKiKFRQAqqMAD0FOooroOpKwUUUUAFFFFABRRRQBieMv+RG8Qf8AYNuf/RTVt1ieMv8AkRvEH/YNuf8A0U1bdABRRRQAUUUUAFFFFABRRRQAUUUUAFFFFABRRRQAUUUUAFFFFABRRRQAUUUUAFFFFABRRRQAUUUUAFFFFABRRRQAVia5/wAhjwz/ANhJ/wD0kuK26ztW0kaqLQi9ubOa0n8+Ka3CFg2x0Iw6sCNrt2oA0aKxP7D1H/oa9Y/79Wn/AMYo/sPUf+hr1j/v1af/ABigDborE/sPUf8Aoa9Y/wC/Vp/8Yo/sPUf+hr1j/v1af/GKANuisT+w9R/6GvWP+/Vp/wDGKP7D1H/oa9Y/79Wn/wAYoA26KxP7D1H/AKGvWP8Av1af/GKP7D1H/oa9Y/79Wn/xigDborE/sPUf+hr1j/v1af8Axij+w9R/6GvWP+/Vp/8AGKANuisT+w9R/wChr1j/AL9Wn/xij+w9R/6GvWP+/Vp/8YoA26KxP7D1H/oa9Y/79Wn/AMYo/sPUf+hr1j/v1af/ABigDborE/sPUf8Aoa9Y/wC/Vp/8Yo/sPUf+hr1j/v1af/GKANuisT+w9R/6GvWP+/Vp/wDGKP7D1H/oa9Y/79Wn/wAYoA26KxP7D1H/AKGvWP8Av1af/GKP7D1H/oa9Y/79Wn/xigDborE/sPUf+hr1j/v1af8Axij+w9R/6GvWP+/Vp/8AGKANusS1/wCR51X/ALBtl/6NuqP7D1H/AKGvWP8Av1af/GKn0zRTp99dXs2pXl9cXEUcTPciIbUQuVAEaKOsjdc9qANSiiigAooooAKKKKAMTxl/yI3iD/sG3P8A6Katuqup2EWq6VeadOzrDdwPA7IQGCspUkZB5wazv7D1H/oa9Y/79Wn/AMYoA26KxP7D1H/oa9Y/79Wn/wAYo/sPUf8Aoa9Y/wC/Vp/8YoA26KxP7D1H/oa9Y/79Wn/xij+w9R/6GvWP+/Vp/wDGKANuisT+w9R/6GvWP+/Vp/8AGKP7D1H/AKGvWP8Av1af/GKANuisT+w9R/6GvWP+/Vp/8Yo/sPUf+hr1j/v1af8AxigDborE/sPUf+hr1j/v1af/ABij+w9R/wChr1j/AL9Wn/xigDborE/sPUf+hr1j/v1af/GKP7D1H/oa9Y/79Wn/AMYoA26KxP7D1H/oa9Y/79Wn/wAYo/sPUf8Aoa9Y/wC/Vp/8YoA26KxP7D1H/oa9Y/79Wn/xij+w9R/6GvWP+/Vp/wDGKANuisT+w9R/6GvWP+/Vp/8AGKP7D1H/AKGvWP8Av1af/GKANuisT+w9R/6GvWP+/Vp/8Yo/sPUf+hr1j/v1af8AxigDborE/sPUf+hr1j/v1af/ABij+w9R/wChr1j/AL9Wn/xigAuv+R50r/sG3v8A6Nta26x7LQnttVj1G51e/v5o4JII1uFhVUV2RmP7uNcnMa9c1sUAFFFFABRRRQAUUUUAYng3/kRvD/8A2Dbb/wBFLW3XO2Xhe60+xt7K18UaxHb28SxRJ5dodqKMAZMGTwO9T/2HqP8A0Nesf9+rT/4xQBt0Vif2HqP/AENesf8Afq0/+MUf2HqP/Q16x/36tP8A4xQBt0Vif2HqP/Q16x/36tP/AIxR/Yeo/wDQ16x/36tP/jFAG3RWJ/Yeo/8AQ16x/wB+rT/4xR/Yeo/9DXrH/fq0/wDjFAG3RWJ/Yeo/9DXrH/fq0/8AjFH9h6j/ANDXrH/fq0/+MUAbdFYn9h6j/wBDXrH/AH6tP/jFH9h6j/0Nesf9+rT/AOMUAbdFYn9h6j/0Nesf9+rT/wCMUf2HqP8A0Nesf9+rT/4xQBt0Vif2HqP/AENesf8Afq0/+MUf2HqP/Q16x/36tP8A4xQBt0Vif2HqP/Q16x/36tP/AIxR/Yeo/wDQ16x/36tP/jFAG3RWJ/Yeo/8AQ16x/wB+rT/4xR/Yeo/9DXrH/fq0/wDjFAG3RWJ/Yeo/9DXrH/fq0/8AjFH9h6j/ANDXrH/fq0/+MUAbdYniv/kDwf8AYSsP/SuGj+w9R/6GvWP+/Vp/8YqOTw3cXJhF34i1W5hjnin8l0tlV2jdXUErCDjco6EUAb9FFFABRRRQAUUUUAFYmh/8hjxN/wBhJP8A0kt626xJPD0v9oXl3aa7qVl9slWWWKFbdk3iNI8jfEx+6i96ANuisT+w9R/6GvWP+/Vp/wDGKP7D1H/oa9Y/79Wn/wAYoA26KxP7D1H/AKGvWP8Av1af/GKP7D1H/oa9Y/79Wn/xigDborE/sPUf+hr1j/v1af8Axij+w9R/6GvWP+/Vp/8AGKANuisT+w9R/wChr1j/AL9Wn/xij+w9R/6GvWP+/Vp/8YoA26KxP7D1H/oa9Y/79Wn/AMYo/sPUf+hr1j/v1af/ABigDborE/sPUf8Aoa9Y/wC/Vp/8Yo/sPUf+hr1j/v1af/GKANuisT+w9R/6GvWP+/Vp/wDGKP7D1H/oa9Y/79Wn/wAYoA26KxP7D1H/AKGvWP8Av1af/GKP7D1H/oa9Y/79Wn/xigDborE/sPUf+hr1j/v1af8Axij+w9R/6GvWP+/Vp/8AGKANuisT+w9R/wChr1j/AL9Wn/xij+w9R/6GvWP+/Vp/8YoA26KxP7D1H/oa9Y/79Wn/AMYo/sPUf+hr1j/v1af/ABigA8Zf8iN4g/7Btz/6KatuudvfC91qFjcWV14o1iS3uImilTy7QbkYYIyIMjg9q6KgAooooAKKKKACiiigAooooAKKKKACiiigAooooAKKKKACiiigAooooAKKKKACiiigAooooAKKKKACiiigAooooAKKKKACiiigAooooAKKKKACiiigAooooAKKKKACiiigAooooAKKKKACiiigAooooAKKKKACiiigAooooAKKKKACiiigAooooAKKKKACiiigAooooAKKKKACiiigAooooAKKKKACiiigAooooAKKKKACiiigAooooAKKKKACiiigAooooAKKKKACiiigAooooAKKKKACiiigAooooAKKKKACiiigAooooAKKKKACiiigAooooAKKKKACiiigAooooAKKKKACiiigAooooAKKKKACiiigAooooAKKKKACiiigAooooAKKKKACiiigAooooAKKKKACiiigAooooAKKKKACiiigAooooAKKKKACiiigAooooAKKKKACiiigAooooAKKKKACiiigAooooAKKKKACiiigAooooAKKhubu2soTNdXEUEQOC8rhVH4mqkev6NNKkUWr2DyOwVUW5QliegAzyaANGiiigAooooAKKKiuLmCzt3uLmaOCGMZeSVgqqPUk8CgCWikBDAEEEHkEUtABRTJporeF5p5EiiQZZ3YKqj1JPSiGaK4hSaCRJYnGVdGDKw9QR1oAfRRRQAUUVBb3lrdtKttcwzNE22QRuGKN6HHQ0AT0UVWu9QstPVWvby3tlc4UzSqm76ZNAFmimQzRXEKTQyJJE4yrowIYeoI60+gAooooAKKKKACiiigAooooAKKKKACiikZgqlmICgZJPagBaKzP+Ek0L/oNad/4FJ/jWjFLHNEksTrJG6hldDkMD0IPcUAOooooAKKKKACiiora6t7yHzrWeKeLJXfE4YZBwRkeh4oAlooooAKKgt7y1u/M+zXMM3ltsfynDbW9DjoanoAKKKKACioDeWovBaG5hFyV3CEuN5X129cVPQAUUVFDcwXIYwTRyhGKtscNtI6g470AS0UUUAFFFFABRRRQAUUUUAFFFFABRRRQAUUVmv4h0SN2R9Y09XU4ZWuUBB9DzQBpUVFb3MF5As9tPHPC2dskThlODg4I96loAKKKKACiiigAoqKG6t7h5UgnilaF/LlCOGKN1wcdDyODUtABRRUEd5azXEtvFcwvPFjzI1cFk+o6igCeiiigAooqCW8tbeeKCa5hjmmOIo3cBnPsD1/CgCeiio57iG1gaa4mjhiTlnkYKo+pNAElFVLTVNP1B2Syv7W5ZRlhDMrkD3wat0AFFFFABRRRQAUUUUAFFFFABRRRQAUUUUAFFUrrWNMsZvJu9Rs7eXGdks6o2PXBNPs9SsNQ3/Yr22udmN/kyq+3PTODx0P5UAWqKKKACiiigAooqI3Vut0tqZ4hcshkWEuN5UHBIHXGe9AEtFFFABRUEt5aw3EVvLcwxzy58uNnAZ/oOpqegAooooAKKiubq3s4Gnup4oIl6ySuFUfiakR1kRXRgysMhgcgj1oAWiiq0WoWU9y9tFeW8k6Z3RJKpZccHIzkUAWaKKKACiiigAooooAKKKKACiiigAooooAKKKKACiiigAooooAKKKKACiiigAooooAKKKKACiiigAooooAKKKKACiiigAooooAKKKKACiiigCC5s7e8EQuIlkEUglQMMgMOh/Dr9a8u+GNpb3viX4gx3MSyIniEyqGGcOkjsp+oIBr1gjIIrG0bwto/h+8v7vTLaSGa/lM10zXEknmOSSWIZiAck9KAOV0DXvFPiDxZr1hFd2ENjpGprC2+3LSSwkHKg5wG4HODn2xzi6R8RdfvIfCckzWpOqavcWNyBFgbEbAK88GvSdL8OaXo19qF7YW7RXGoS+ddMZnfzH9cMSB17YrKg+HXhe2vILqLT5Fkt7pryAC6m2wytyxVd20AnqMYoA4TVPiN4lsbrXJY5bJrbS9dhsFia3O6WJyc5bdweOoFdQPEmva14t1vTNDeyi/sW5tY3huQf38bgmViRkggY249DnOQBqXPw88L3YvRPp0ji9ulvLj/AEuYb5lzhuH4xk8Dj8qtXHg7Q7nxCNde1kXUTGI5JI55EEyjGBIqsA44H3ge2egoA5C68d6xa+LrGyLWklvNrr6ZJHCN6LFtBQl+MS9Sy8gcZA4zzuq6rqkvh34lXl9cwX0Vjfi3S1ubcNEUVkCjGeAMk8d+c5r0dfh14VW8+1ppZSf7b/aAdbmUbZ+7jDcZ7gcHjjgVLd+BPDl8uqrPYOU1Vg96iXMqLKwIOcKwAPyjJGM45oA4bUviRqljaeJruzht47bw3HYKtsY+LgzEB8nqoAOFx9TnpSeJ/iB4istV8TR6bPaxW2mabb38KzW292LlcqTuAx8x7f413lx4I8PXTyNNYlxKkKToZn2ziE5j8wZ+fb/tZ98ik1DwL4d1W81G7vLB5JtShWC7b7TKvmRqQQuAwA+6OmP1oANVu21H4cXt66BWudIklZR0BaEnH61wvhzxNfWHhrwD4e05MT6lpskpkwpb93HlVUMQMk9c9gccnI9ObSLJtEOjmJ/sJg+zeX5rg+Xt243Z3dOM5zWTceAvDlxpmmae1lKkOltusXjupUlt/wDdkDbx+fYegoA4/U/GXi+31nTNLljtNNu7jRJr26ieMTeVNGG4UhsYO0dzjPeprDx1rWpaX4NuJvIsLXVoJ3vdQEeUjkjQlUGeF3FSeeoBA55rsLnwXoF5fRXs9k7XMVq9okguZQRE4IYcNyTuOSecnOc1zutfD4M2h2ei3Go6bpemxTov9m3zR3CmQqQA0mQU4bOTkcY70Ac82v8AizUk+Hrajcf2fcardzPcW6223GxTsyCckY+bHHUZ6CsSPxFqvhTWvGWp2Etu0f8AwkkME8MsJJlV9wOGz8v5V6bpfgsTaVZxeJbmfU7qxupJ7O4knYTQqeFVpE27jjr2PTkAVPc/Dzwvdi9E+nSOL66W8uP9LmG+Zc4bh+MZPAwPyoA0Yv7a/wCEruPNubA6L9lXyoFDfaFl3cs3bbjP+Qc8X8SfDHiLWNRg1LT9M0TV7GytyBp+oKzSOxJLlMYAJAUdf4fwruIfD2lweIptfjtsanNbi2kn3scxg5AxnHUDnGeKiu/DGmXmtjWJFuUvfKEDPDdyxB0BJCsqsAQCT1FAC+Fb+31PwnpF9aWn2S2ntInitx0iXaMKPYdB7Vr0yKKOCFIokWONFCoiDAUDgADsKfQAUUUUAFFFFABRRRQAUUUUAFFFFABTJokngkhkGUkUqw9QRg0+igDynULeGD9orQLeKJEgTQGRY1UBQu6UYA9K09a1bW9M8b6P4P8ADz2Nra3GmSNGZ4S4hMYIXABGRgAY/Hnoeqm8K6PceJofEcltIdWhj8mOf7RINqc/LtDbcfMe3epZ/Dml3PiG216W3ZtTtojDDMJnAVDnI2g7T1PUUAee67458R6LP4ttTNaSS6NptrcxOIMBpHwHyM/dznA6j1NS6z408Qx61pNhZXFrCt5oD6jI8lvvKyKhb5fmHBx3zXXav4E8O67f3N5qNi8kt1ALe42XEkazIDlQyqwBwehP9BT5vBPh+4ura5lspGmtrM2MT/apRtgIKlOG54J5PPvQBx+neP8AVdas/B1lE1vaajr1pcTSXBTKK0SnaFBz95gCeuACBych/inxf4n8P6cVuH02O/g0Y3siW2ZS06uA25T92Hb/ABZB3HAJ6Hppvh94Zm0jTtMNg6W+mOZLJo7mVZICTk7ZA28Z+vp6CnX/AIA8Mancm5vNM82ZrQ2bMZ5AXiJJw2G+Y5Odxyc85zQBy/8AbOr6v8S/DMKX32a0udDN+YEjBUO2AevU44BPT8TWL4I8X3bxeGPD1la2ennVLq/aaa1gCqixbiNikkZYgZJzgdPb0tfB+hpdabdLaSLcabB9ntZVuZQyR/3Sd3zDj+LNV7TwH4dsLW0t7OykgFnNJNbSJcymSJ5BhyrliwDAnIzg0AcLZfErXdY0vwVcWwtLafWLyazu90JdAUONyDcCM9cZ9q6/4beJL/xP4Xku9T8o3UF5NbM8SbQ4Q8NjscGr/wDwhHh0RaREmnCOPR2L2KxzSIIWPU8MNxPctnPPrVzQvD2l+GrKS00m3aCCSVpmQyvJl26nLknnFAHldp4mk8I2HxG1aCNHnXX/ACo/M+4rOVXc3I4GSeozjt1rb8U+K/FvhvRJrh7aKIjVYLa0nuFR/PgkHJZUbhgwIzxkY4rrf+EI8Om01e1fT/Mg1eQy3ySTyOJXzndyx2nOPu4xgelRy+A/D1xo0Gk3NrcXFpDIkqCW8mZwycL8+/dgZ4XOB2FAHHP488TW2jeNNkFvfXuiXyQxSpAwAiY/M7ICSdoyeD9elQeJvE/iWPw145lttQH2HTUhjsdQSAAz7wvmYcHGVyVyB37EV1HiDwHazaLrEOiRPbXmrXEM93L9rlVn2SBiyEkhXwDjjGcZ4qLSPBF0P7SsdZ1TU9V0K8txEbTVrkTS79xJYMgG0YxjBznnjAoA43W21Ky+IHh6a3vYxeQ+G7iVZngyOFYgbcj6ZrtPD+u+IvEvhTwrrFrNplubqQNqKTK37xBkERY6McE4P9OdV/A3h6S5t7iSzmea3tGs4pGvJiRCwIZfv853Hk8+/FLH4H8OxWej2iaeRBo83n2KGeQ+U+c5yWyeecHIoAwPixqF9Dpmh6PZTNbrrWrQWE8ykjEbHlcgg8+xHGR3rT8Ca/Jq0Gq6ZPYW9nNot69gVtRiF1X7rKP4Rjtzit7V9G0/XbIWmo24mhDrKvzFWR1OVZWBBUj1Bp2maRZaPDNHZQ+WJ5mnmYsWaSRvvMxPJJ/oB0FAF2iiigAooooAKKKKACiiigAooooAKKKKACvJ/iBZ29j8Qfhnb20SxRLfXGFUY5JiJP1J5Jr1isbVvCuj65qdhqWoW0kt3p7F7WRbiRPKY4yQFYDsOo7UAc54u1jUPC+reGNL0FLSGPVr+WKVZYiyqWO8sACD95mJGefbrVO+8S+JdG8RQaJe3dncS/2Hc30ksVvtBmQttwCemAMj612mqeHNL1q90+8v7dpbjT5PNtXEzp5b8c4UgHp3zUGs+EdF1+/gvdQtXe4hieBXjnkiJjcfMjbGG5T6GgDg4vHniG60fwDPFLZxz6/K8V0WgLKuDwVG4EfnSaV8StUuPDGkNeGBb6+146Q10seFVA3L7c43EcDtk57Yrto/AvhyKDSIUsHWPR3L2AF1L+5YnJP3ufxzUTfDzwu3h+XQzphOny3BujG08jMsv99WLFlP0Pr6mgDH1TW/FOjWmm2uoz6cLu4a7VpbUFpZAiloSkZGDngv2Uc5Hbnm8V654htvhvci8SzOrTytcxwx5VnjBwcE9M87fX1wK7648DeHbx7CS6sXnlsN4glluZWf5wA25i2XyAB82eOKSPwH4ci07TbCOwdbfTJTLZgXUu6FjnOG3bsHPTOPagDzy08YXWj6tqlhaWlnFdX/AIsTTTdRwbTtbG6RhnDPjp2yc47GzqXxK1u30DU3txbi903xF/ZJlkiyk0W4gMVBGGx1xx+eB3Y8DeHR9rIsX33V4t/I5uJSwuFOVkUlvlYf7OPTpRceBfDl1pf9mz2Be2N2b5x58itJOTkyMwYFmye59PQUAZ/gjxFqer6v4n0zU3glbSb7yIpoovL3IRnBXJ6Y9a5qbWB4e+JHxC1jyfNNnpFtMI843lUJAJ+uK9D0vw7pei32oXthbtFcahIJbpzM7+Y/POGJA69sVEPCui/2rqOpNZl7rUoRBdl5XZZYwMbShO3GOOB60AcPf+MPFlh4H1DXmt4TANMtr21u2CbWlcjzI9isSUwwKk8+pNGm+OPErajr1k0FtqNxbaJDqVpFDCUJkZAfLxklhk/X866uH4f+HINAn0MWc76bONrQSXkzBV3btqkvlFzg4UgHvmodR8C6athq0uj2oi1W80xtPWWa6mKlNm1VPzHAGByBmgDmbPxZ4mvY7p4byKS0j8NjUpLtbUYiu2UnyeuBjG4AgkAc5rmXfUrvTvhRcTX4lu7m6aRZpY920soJLcjcc5PUV3Xh7wVqmmahEJtb1m60prZ4buz1W7S4WQlQAECqMAc5JOe2OTW1D4C8NwRaXHHYyhNKkMtkDdzHyWOOmX5HA4OQKAOd8NeJfFHijwFLd2dzpcGr2+otatPdIyxOiOATgZwxBx9fTPHb6zo1hr+mvp2pwfaLORlaSEkgPtIYA47ZAP4Vjn4e+GDoMuif2ax06W5+1vC1xKcy5B3ZLZHTpnFdPQBxPgHQtK0++8QalpNhBZ2txefZYFhXAKQfIzfjJ5v4AV21VNM0620jTYLCzQpbwLtQFix9ySeSSckn3q3QAUUUUAFFFFABRRRQAUUUUAFFFFABRRRQB518ZrO3h+FniS5SJRPOLfzJMcsFmjAGfQenuasatfSeGvhY/iPTY4U1KLSrX946bg4UDAYdwN7fnXV67oOm+JdKl0vVoGuLKUgyRCV4w2CCMlSD1AP4Uy78N6Vf+HToF1bvJphjWIwmeTJRcYG7du7DvQBxGreJvFmi+G9M1m5utOk/tK8so44Y7cjyo5V+cEluTnGDx345wK974+1y30fx/cI9v5ugXSx2hMXBUno/PP4YrvNR8LaPqugxaJeWzSWMOzyl85w0ZT7pD53AjHXNUR4A8Mix1Sz+wSGDVWV71Wu5iZmByCSXzn1IPPfNAHI2fxE1mxvPEC6mLa7jsdEh1WIQxGIhmQEoeTkZPX/9VaX/AAkHim28H3PiFrrRprWbT7a6tZZ2MIjkfHmK3baAfl5JzgHNdJbeDNAtL24vIrAma4tFspjJPJIrwABQhVmIIwAOmfzqnH8OfC6aDNoZsJZNNlIJglu5nCANuAQlsoMgHC4z3zQBxGs+N9cm8H+PkiuWgm0iSNLa5MPlzGKTHDD+FsHrgEegNO1PX5vDHiezu7i2tb6W28Ly3SzGALL8p4QMDwvTPfqe+K7xPAfhqODVIBpuYtURUvUaeRhKFGATluG/2hg55zmnr4J8PrewXbWUkk0No1khmuZZAYGzlGDMQwOT1BoA46z8e6wtxDZXLQyy3nhca3HKse3yZsElMd04GM8+5zxH4O8eeINV8QeGbbUpLOS31nS5bpligKGJ0ZhwdxzkCu2tfBeg2ccqRWbkSWQ0/c88jMtsM4iVi2VXk9CP0FM0/wADeHdKvNOu7KxeKfTYWgtG+0ysI42JJXBYg/ePXP6UAc/48/5KD8Pv+v64/wDRYpdB8XeIPEWqSz2Nismmw6xNp9wgKKYYUXAkyW3F92CRgjBwBkZrrdS8PaZq2pafqF7A8l1pzmS1cTOnlsepwrAHp3Bqta+D9EsdbutXtbWSG6u382dUuJBFJJ/fMe7YW98Zzz15oA840H4jeJby58OzXctlJb6jq8+nSxJblTtXGH3bjzz0xWp/wmHiq51RbeKOOG6bxCdOew+z7jDZhd32g8gnjB3Z2kEY5rqLb4eeF7MWQg06RBY3TXlv/pcx2TNjLcvznA4OR+dc0ngPxDFqN1eWmv6tZXU2oyXIjivQ1iI2l3HMTLuLFeq9N3cCgDmNevdU1Hwl8UXvtQM8dtefZo4zGAFVSm3HoBzx3JJ611XgrxFrU2u3XhqaW0lS30a2urSTySmxmRRtb5juGSOevWuouvA3h28GqrNYMU1Yhr1FuZVWUgg5wGAB4GSMZ71Ja+DdBs76e9gsnFxPaLZSs1xK26EAALgsR0A56+9AFjRW1FfDUD69dWkl8ImNxPZEiLqeVzz0x+Oa8U8CTXNn4j8G2GoGaXRBJey6FqCJte4L7gVmGSQPvNjqdy54Bx7jo+iafoGjQaRptuIbGBSscRYvgEknJYknJJ/OqWn+D9D0yazktbQr9i8z7Ijyu6W+/wC9sUkgZ/QHAwOKAN2iiigAooooAKKKKACiiigAooooAKKKKACiiigAooooAKKKKACiiigAooooAKKKKACiiigAooooAKKKKACiiigAooooAKKKKACud8UWVrqF74ctb22hubd9SbfFNGHRsWtwRkHg8gH8K6KsTXP+Qx4Z/wCwk/8A6SXFAB/whvhb/oW9H/8AAGL/AOJo/wCEN8Lf9C3o/wD4Axf/ABNbdFAGJ/whvhb/AKFvR/8AwBi/+Jo/4Q3wt/0Lej/+AMX/AMTW3RQBif8ACG+Fv+hb0f8A8AYv/iaP+EN8Lf8AQt6P/wCAMX/xNbdFAGJ/whvhb/oW9H/8AYv/AImj/hDfC3/Qt6P/AOAMX/xNXrvV7Cx3i4uUVkxvVcsyg9CQMkDkcn1HrVObUdVmG2w0oqd/ls924XYQRk7R95cHgg9jx64TxFON1e77LV/gc1TF0oNq92ui1f3L9f0G/wDCG+Fv+hb0f/wBi/8AiaZN4T8JW8Rlm8P6JHGvV3s4gB+JFZs2oGWWWLUfF+mWZWTbJb20yKVxjI3MQynIPr/SoJ7rwRYAXV9rEN9I0g/eNcG4fOOAVTORx3GO3pQniqmlOk/np+Cu/wAjneNqS+CCXnKSX4K7++3yLU+meAbdA76RobITjdFYxyAH0O1TjoevXB9KqpaeEZRvt/BMU8WSFli0iIq2DjIOKsxeN/Bdiqtb3tvCJl3HybZwSASPmAXg8Hg84OehFVLn4seHYLho40vrhBjEsUQCtx23MD7citVgsdPy/wC3X+bf6ESrz3lWivRX/Fv9CV9A04nMPw+0h42AZWaKBDgjPKlcg9iPX1pP+Efsv+idaP8A982//wATWD/wuX/qA/8Ak5/9hTJPi9eXKiCw0JRdyMFi3TGUEkjjaFBJPQYPWtv7IxnWbX/gH+Ri8TTf/MRL7o//ACB0MfhaB3eZvBXhuOFc4t2t4/MbjswUr19QP61harqXhPRb02d/4L0WK4ChmQRROVB6Z2xnB74POCPWqD6N4p+IesRvrFs2lW9tFt3PA6qCST8qMeWPGSCBhRnsD0vh74XadpF611fzrqZC4jjkgCopPUlSTuPpngfXGG8vp0l+8ryv2XL+bi1+QksXU/gyklfd8v5cv5aHEy6FL4thv7jRNK0tLJWA8uHTIo9mOdok272bAydvr0AIFVr7wpc6JcWl3DZyXyK5LpqWnqkROOAQzMGyN3oRjjnke8RRRwRJFFGscaKFREGAoHAAHYVheMreyvfDd3aXSRyzyRsbSM/faYDCbB1zkgcdjzwTUwxFajoqiUOvNGL8tbcn5r1FXy+pCDqyrNyWt3t8rWsQ6X4b8K6npVpfDwxoyGeJZCn2OJthI5XO3qDkfhVv/hDfC3/Qt6P/AOAMX/xNct8LryN4by0OpedNFgmEtnd6uM9QMhcg9uR92vRKyjzfaVv8uj111Wuup6OBxDxFCNSSs3/X4mJ/whvhb/oW9H/8AYv/AImj/hDfC3/Qt6P/AOAMX/xNbdFUdZif8Ib4W/6FvR//AABi/wDiag0eytdM8V6pY6fbQ2lmLG0mFvbxiOMSM9wGbaMDcQiAnqQo9BXRViWv/I86r/2DbL/0bdUAbdFFFABRRRQAUUUUAYnjL/kRvEH/AGDbn/0U1H/CG+Fv+hb0f/wBi/8AiaPGX/IjeIP+wbc/+imrboAxP+EN8Lf9C3o//gDF/wDE0f8ACG+Fv+hb0f8A8AYv/ia26KAMT/hDfC3/AELej/8AgDF/8TR/whvhb/oW9H/8AYv/AImtuigDE/4Q3wt/0Lej/wDgDF/8TR/whvhb/oW9H/8AAGL/AOJrbooAxP8AhDfC3/Qt6P8A+AMX/wATR/whvhb/AKFvR/8AwBi/+JqzLrtihVIZDdSMCUS3G/fgZIB+7kDnGc9PUZzb3xHNBKYZG07TnaMSxNf3SqXU9imQynrzyMqRz1rH28G7Q95+Sv8Akcs8bRjs7+mv5aL5/qWf+EN8Lf8AQt6P/wCAMX/xNQXHhnwbabftOh6DDuzt8y0hXOOuMis86npzWbPqXjSB2Rd/+hXKIVwDuAC8vnjHGeOOpFQw+JvAEUU8iXFvseRS6PBI2W+bBCFeg+bkDAyB3FVGGLqK8KTXr/kr/n/kY/XJy2Sj/ikr/cr/AJ/5ExsPBLNJHbeGLC6mi+/DFpab1GcE4ZR0JAx1/WmtoWlSBZLX4faXJE4yPNghicckYKleOnvwR9KZefFXw3bShIjeXalc74YcAH0+cqc/hjmsWX4yRiVxFobPGGOxnutpI7EjYcH2yfrW0ctxtTdteiS/9KuYzxK+3Xt/hS/XmN1/B8TndF4Y8KIjAEJLYjcuRyCQMHHTI64zxQfAVpcIGk03QLSQEgrb6VFIhHGD8y5B6+3T3rnZfjJIYnEWhqkhU7Ge63AHsSNgyPbI+tVNRn8d+NVj0ubSmsrfcHkJheBGGRgsXJyB12jnvg4GLWT1L/vptLzl/lYzlVoyvySnN9k2vxVrF/xLo2g+Ford7+HTna4YiNIdBtiSBjJ5wMDI755+tc1YW3/CUS3dnpfhyzeJFO6WLT7WNwp4GSVwpI54bPHHTNdno3wnstP1OO6v777fFHyLcwbFZu275jke3fvxkHvLOxs9PiMVlaQW0ZbcUhjCAnpnA78D8qUsNg6UbU3KUu/NK33N/mEcBVqSvKUoLtzyb/FtfgeMa98NpdD0w3ctxH9jjGJSvzhQSFAxgHqccA/hXaeE9N8I63pMAk0TQZb+KMC4EdnEcsON33AOeDgdN2K7LUbSzvtOnttQjjktHQ+ashwMdc57Y657YzXj3w4gW28TW0c1ysVzLlliAy2FQnB4IGQT1xxnBzWdSpU9lrUcpJq0Wk3Z7tNJPRXbbutloYyi8vxMI0ndT0s/Xdff1v27Hp//AAhvhb/oW9H/APAGL/4mj/hDfC3/AELej/8AgDF/8TW3RQfQGJ/whvhb/oW9H/8AAGL/AOJo/wCEN8Lf9C3o/wD4Axf/ABNbdFAHNW+mWGj+MrGDS7G2sYbjT7p5o7WJYlkZJLcKWCgZIDvgnpuPqa6WsS6/5HnSv+wbe/8Ao21rboAKKKKACiiigAooooA4zwn4T8OXPg3Q55/D+lSzSafA7yPZxszsY1JJJHJJ71sf8Ib4W/6FvR//AABi/wDiaPBv/IjeH/8AsG23/opa26AMT/hDfC3/AELej/8AgDF/8TR/whvhb/oW9H/8AYv/AImtuigDE/4Q3wt/0Lej/wDgDF/8TR/whvhb/oW9H/8AAGL/AOJrbooAxP8AhDfC3/Qt6P8A+AMX/wATR/whvhb/AKFvR/8AwBi/+JrbooAxP+EN8Lf9C3o//gDF/wDE0f8ACG+Fv+hb0f8A8AYv/ia0b3U9P03Z9uvra18zOzz5VTdjrjJ56j86qf8ACT6B/wBBzTP/AALj/wAapQk1dIh1IJ2bIf8AhDfC3/Qt6P8A+AMX/wATR/whvhb/AKFvR/8AwBi/+JqmnxD8KusjDVlARdxzDICRkDgFeTz0HOMnoDVS8+KHhi2iDxXM92xbGyGBgQPX59ox+Oea1WGrN25H9xm8VQSvzr70a/8Awhvhb/oW9H/8AYv/AImj/hDfC3/Qt6P/AOAMX/xNcy3xQFxKp03Q7iaAgZluJlhwcnOAA2Rx1B/D1zdW+KziNYrK3jjkKne6P5uG4IAJAGOvOD9Kwlzc7pQXNNdFZtevb52OOpm+EhdKXM10S/pfezs5/C3g+1QPcaDocKE4DSWcKgn05FYWrDwPpdm1y3hjTGjDmLe2nIiiQclD8m4Nj/Zx78Ejh4r7xRrdnMlrpFxML8iMXoSUttDrgeZnZgFACSPXpXRWvwc/1LXetf3TLHFb/mFYt9cEr+Hato4Spa+ImoeS95/fsvuZzrF4zEL9zCy/rvp+ZiXGp6NrN/DYaL4X0yOWVx5f2fTYHc8HIJkXGO5OBgDr1q6PhRezWslyixWk8hZzb5QYOem1BsGe2DgZHTpXqmnaRp2kReVp9lBbKVVWMaAFwvTcerHk8nJ5NXayt7N3oTkvNtX/ACt8rWNFlcqiviKspP10+639djyz4fWnhvVLRtPvtH0G4uIf9TN9jj8yVOfvgr94Y69SPoSe4/4Q3wt/0Lej/wDgDF/8TXmWoWNjovxXeBz/AGZYSfNHINyohaLhhjHyiX8BjsBx6xod8+o6La3Uo/eOpDH1IJBP44z+NViIunWUW7qS5k7W9U7aXV1tbfYrL8RPmeHqu8lez7pW3+9a9fkVP+EN8Lf9C3o//gDF/wDE0f8ACG+Fv+hb0f8A8AYv/ia26Kg9UxP+EN8Lf9C3o/8A4Axf/E1na1oGjaRaWt7pmkWFldrqFmiz21skbhXuY0YBlAOCrMpHcEjoa6ysTxX/AMgeD/sJWH/pXDQBt0UUUAFFFFABRRRQAVydloGjarr/AIkn1HSLC8mXUEQSXFskjBfstucZYHjJPHvXWViaH/yGPE3/AGEk/wDSS3oAP+EN8Lf9C3o//gDF/wDE0f8ACG+Fv+hb0f8A8AYv/ia26KAMT/hDfC3/AELej/8AgDF/8TR/whvhb/oW9H/8AYv/AImtuigDE/4Q3wt/0Lej/wDgDF/8TR/whvhb/oW9H/8AAGL/AOJrbooAxP8AhDfC3/Qt6P8A+AMX/wATR/whvhb/AKFvR/8AwBi/+JrbqK5urezt2uLqeKCFMbpJXCqMnAyTx1NCV9EDdtWZP/CG+Fv+hb0f/wAAYv8A4mj/AIQ3wt/0Lej/APgDF/8AE1N/wk+gf9BzTP8AwLj/AMapSeO/DEV6LRtYgMhYLuUMyZOMfOBtxzyc4HetFRqPaL+4ydakt5L7yf8A4Q3wt/0Lej/+AMX/AMTR/wAIb4W/6FvR/wDwBi/+JrLufib4Wgt2kjvZbhxjEUUDhm57bgB78msuf4r20nl/2Zot3cAkq7TusKqeMAEbgc5747dc1Tw9SK5pKy89PzsY1MfhqavKa/r0Oo/4Q3wt/wBC3o//AIAxf/E0ybwn4St4jLN4f0SONervZxAD8SK4+8+K4+yssVpFDMQCrJKZuDnplVww68/rXP23inxVqSz3FppUl+rFkWVreSfyWKkMFx8oyG+6Rj7vHFZwo4irK1OFl3ei/wA38lbpc455vTcuWinLztZf5v8ArU7q8sfBVtDPJH4Y02dYBmV49NTbGMEhmO3O0gE7lDcfUZ4i88Q+Grl1t9N8I6R5kw8tBHp0ckgc8ArlQCeRgYPI/CremfCTUL208/U9QFlcsxzCIxMcepYMBk89M9uew9J0jwvo2iRW62dhAJoFwty8amUk5yS+M5OT7c4GBxVzw1KPx1XJ9o2S+93b+T/yIVPH4mznLkXlb/h/x3+5ebRfCy9v/OuXhh0+Zzjy8RIDgDB2wrtx+R6+uaTwPpWjQa7e6PrNhpN67MQj3EEbyRyodrIcqTz25x8vH3q9hrx/x5ZWWlfEPTLx4Db2VwY5bqRFYK58wiQ8d9uMgc856nmqEK1VOlGb20Ts1p+K+T9Uya+ElhHGvSm2768zve/c9F/4Q3wt/wBC3o//AIAxf/E0f8Ib4W/6FvR//AGL/wCJo8Lal/aWj7/PNwsUjRpOwIMqjBViDyOCOvPrW3XLTn7SCltc9ehWjWpxqR2Zif8ACG+Fv+hb0f8A8AYv/iaP+EN8Lf8AQt6P/wCAMX/xNbdFWanIeJvDOg6d4U1i+sdE021vLaxmmguILSNJIpFQlWVgMqwIBBHIIrr6xPGX/IjeIP8AsG3P/opq26ACiiigAooooAKKKKACiiigAooooAKKKKACiiigAooooAKKKKACiiigAooooAKKKKACiiigAooooAKKKKACiiigArE1z/kMeGf+wk//AKSXFbdYmuf8hjwz/wBhJ/8A0kuKANuiivPvFfj3U9M199J0fT4pXgUefJcKSCWUMAMMMDB6nqe3HNRjzXbaSWrbdkvmYYjEU8PDnqOyPQarXuo2enRGW8uooEClsyMBkDrgd/wrz6GLx9fWMazTXMi3GAT+7tfKGRySAJBjnoMkduasQ/CyJ3Vb3WJWgWMoEtIBASSRkkksCDjkY/8Ar5xfO/ddl3af4Lf70l1TZxLG163+70nbvLT7lu/wLuq/EnSLAskTea4ODg7j06gDr7hip7cc44m9+Jt7dCT/AEdid6tEGlxHj+JXRQN6t6E5Hqec95pPw18O6XcGZoJb1/4ReMHVeCD8oAB69wegxiuns7Gz0+IxWVpBbRltxSGMICemcDvwPyrdU8LH471PV2X3L9bmbweLr61qlvJbf8H537nk+n2XxLtreF7S2Ea+XhC6WwcKTuwd3zDk5welSnwv8RNba5N/qTWqyKFaOW72pICMEBIsrjA5yBnPfmvW6K3hi/Zq1OnGPojeOW04xUeaVl0voec2Pwh0wWUX2++vGu9v7027KqZ9FypOB0yevXA6Vai+Evh6OVHafUJFVgSjyphh6HCg4PsQa7yipeNrv7TNlgcOvsI423+F/hiGWZ5LaedZGyqSTsBEOeF24OOf4iTwPetCLwJ4YhiSJdHgKpKJgXLMdw7Ek5K/7J+X2roqKzeJrPeT+80jhaMdoL7gooqC6vLexgM11MkUY7scZOM4HqeOgrCUlFXbsjaUlFc0nZE9QXV5b2MBmupkijHdjjJxnA9Tx0FUReX2poDYRi2t3Hy3U65Zhzykf5EFiOD0NcrqvjXw1oJkmtpjrOqKwAbfuwDk8SY2qAGIwn0x1Iin7XEO1CN/Pp/wfwXmcdTGJR5o6Lu9vkt3+CfRnVSXOp3wK2FuLWMnHn3QIYjJBKx9ewI3Yz6Vl3+raF4Zjlu9QvUvNThC+YvmI1x8x/gQsNo+cnAxx61xttrfxL11nurC3aCBlVlUQRxoQRwVMvLA4zwT1+lXdJ+E63NubrxBqFyb2f53SFlyjEknc5Dbj0yRjnPJ612Ry6lSlz4md2ui1/DZeu/mcanOq+anFyfeWiXmlt+vmc14G1C7f4h/adMsMQ3Tyedbx4CxQM2euMAKdp4xnAHfFe51Fa20NnaQ2tumyGFFjjXJOFAwBk89BUtPFV1XnzJW6HfhMO6EHFyvfUKKKK5jqCsS1/5HnVf+wbZf+jbqtusS1/5HnVf+wbZf+jbqgDbooooAKKKKACiiigDE8Zf8iN4g/wCwbc/+imrbrE8Zf8iN4g/7Btz/AOimrboAKK5bxr4qn8N29pFZWouL68ZhF5n3FC43E4IJ6j07knjB5iG/8f6yZJRHNHbyKuYbeJIVCsCMo8nzH7v8LcbgQelVKKjHmb9F1fy/zsjhr5hTpT9mk5S7JXZ6ZPcQ2sJmuJo4YgQC8jBQCTgcn3IFYWo+NtE06TY9yJiDtYwlSqnAIGSQOh7Zrmbb4c3d5bpLfX6Wj3GGuoY4vMkIPUGUtyxyfmweT36nStfhfoNvqEV5NLe3jI24x3MisjkdNwCgkdOM445yOKzjCU170uX5Xf8AkuvVmDq5hWXuQUPV3f8AX3nO33xakYOLS1CBlBXH3kPuxyDz/s9OM96zWh8deJ7cXcFlMbZm3oZmQE5AOV3kfKc/wgA8dccev2Wmafpu/wCw2Nta+Zjf5ESpux0zgc9T+dWq0UMNHXk53/fd1/4DpH8CHlUqv+8VHLy6f5fgeTJoHxI1KUpNdjT1G6QukyQh2OM58nlj7kdjz63dO+EscyyT69qk813KxZvszcZycks4JYng9BznrXplFdX12olywSivJWOqOXUV8V5erOA/4VFoH/P5qf8A39j/APiKt/8ACrfDP2/7T5Vz5X/Pr5x8vpjr9/3+919uK7SioeMrv7bNFgsOvsI5hPh54VRZFGkqQ67TmaQkDIPBLcHjqOcZHQmt+xsbbTbKKzs4Vht4l2oi9AP6nuT1JqxRWU6tSatKTfzNoUqcHeEUvRBRUF1eW9jAZrqZIox3Y4ycZwPU8dBVFr3U7uVVsbIQQZ+ae8BGQCQcRg7vcZx+Fc060YO277LV/wBepNSvCD5d32Wr/wCB6vQ0pporeIyzSJHGvV3YAD8TWXLrEtw3laTaPdMcj7Q4KQLyQTu/iwey9R0NYWv61oPh6ORtVuRquqKh22z4b5sLxtA2xg8HJGcZxu6VzSeKvH3iVxJomn/Zrb52R0iXa65xgyS/KxHT5cd+OONqeDxNePM2oR7vf/L8/U4a2Lm5cl7eUdZf5L8fU7LUG0u2lE3ibV7YyoglWzMmyNQO6x53OchhnnOcY7V5Pe+JnuPHMet6FZvDNuVIYGAk34XywAoAxlcDaCSCTg9MdZpnw01HWbu41LxZeSpNPzshkUybs4+Y4KgYAwFzwR0xivRtI0q20TSrfTrMMIIFwu9skkkkkn1JJPpzxiu2jHC4K/J78no/+H6mUcJUrO6XIr3vvJvpfr/kXaKKK4T2QooooAxLr/kedK/7Bt7/AOjbWtusS6/5HnSv+wbe/wDo21rboAKKKKACiiigAooooAxPBv8AyI3h/wD7Btt/6KWtusTwb/yI3h//ALBtt/6KWo/GPiT/AIRfQWvlg86aRxDCp+6HIJy3fACnp16cZyKhBzkox3ZFScacXOWyN+qmoala6ZbPPcyBQqM4UfeYKMnA9h17DqcCvNNP8SePPEFw01pCII4olbyIoUQSZ5U7pc4BBHOeQOB1NPT4ca1ryPea1qps7iRj+4K+eQvAG5tw/ug45HTvwG6T9o4cySW73s+yW7f4LvfQ814+pW93C02/N6L/AIL+46SfxxYSWwuYtTsLa2BXd5koknKkkHbGuSGGMjIYEEHjBFcZefEhHRVEup3RzncGSzKe3ybw2ffGMcdTXTRfCXw9HKjtPqEiqwJR5Uww9DhQcH2INdVY+HtG01ons9Ls4ZIl2pKsK7wMY+9jJOOpzk1X1fBLWfNN+tl9y/r5mbweKrfxZW+b/JWXp/nqeQQTeL/FyTSabDNNawy4BlkViuei75MZOMZ247EjpU0Xg/x3JKiNbLGrMAXeWHCj1OCTgewJr2uik1hdlh4W843f3sSyPDPWpq/l/k/zPN9G+G1yZpn8QzWcwIGw2yZcn3LKBgAdMHr1GOdn/hW2gf3Jfyj/APia6+iuedKnJ3tbyWi+5HTHKcHFW5DgY/hTpKXQkNxIYQxITblsdhkkj/x38q1bX4f6FaziVY5G4IKkqoI9yoB/WupopToxqfxG5erb/NvTy2Gsqwa+xf1u/wA3+GxTsdJ0/TQfsdpFCxyC4X5m+rHk9B1PYelXKKKuMYxVoqyO6EIwjywVl5BRRWXq3iPSNEaNNQvo4ZJCNkQBdznODtUE44IzjGatRb0QSnGC5pOyNSq95fWenxCW9u4LaMttDzSBAT1xk9+D+VeY6h478T61eC20DT3s4w3ys8YeVxzzgggDGCQASMdamXwV4j8UzQXHia/YLGo2LhQADknCKByeM52n64qm6UPimm+0dX+Gi+bR5ss0hNuOHi5vy2+b6fOxleNtb03xHrUM0MGLXTi8c12QpE53fKq4zuXIyPZzwO/qHhoznw3YfabE2U3lDdATkr7ngYJ+8R1BODzUeheGdP8AD4l+yeYzSH70mMqvXaoAAAzz0ye5OBjZqJPnlzSW2i12W/3t7vySW2tYPCVY1ZYis/elpZbJBRRRQekFYniv/kDwf9hKw/8ASuGtusTxX/yB4P8AsJWH/pXDQBt0UUUAFFFFABRRRQAViaH/AMhjxN/2Ek/9JLetusTQ/wDkMeJv+wkn/pJb0AbdFV768j0/T7m9lDNHbxNK4QZJCgk49+K8tt/HPi3xJdLb6ZBDZRySsI5Y4DIxx/AWfKkgMpJwPXgcVoqf7uVWTtFbv/htX8jlxOMpYZLnvr21PVZ7mG1QPNIEBO1c9WPoB1J9hzXMyeNrKa8ktbS5sIgi/wDHxd3SKobBIG3OSDgD1GeRxiuYbwj4u8VXLf29dtp8MaYQ71lMhIAI2owUDjnp1HB5xetvhBpC26rdahfSzDO54tiKeeMKQxHHuaSw8ZL97U5fKOr+b1X3fecUquNru8I8kfO13+dvl95j6j8REbev9pXlyVbcEs4xBGc9hIfnwAe6HJH/AAKsyPXfEnied7TQ7e+kjKbZFnn88KTk5LMFReBxkZyODnGPVdM8JaFpVvbxwaZbNJb4KzyxK0pYHO4sRnOefbtitqmqOBh8NNyfeTb/AA2+WxnHKZT1qz9d3+Lf/A8jxNPCvj+N1dLQq6kFWWaAEH1HzV1EfgfX9Tu4v+Eh1CxmtouRt8yZ+SMgb8Bcgdeeg4NeiUVnONCXw0ox/wAKt+RrDJcJHSzt935WOFvfhdo9xs8iRotuc7kBz/3zt/rVX/hUun/8/f8A5Db/AOLr0Sis1TaVozkl5Tkl9yZo8owbd+V/+BSX5M4qz+Gej28YEru7q2VdEVcfmGOc9810dj4f0rTblrm0s0SZgF3kliAM9Mk4+8enWtKilGhBS5rXfd3b+93ZtRy/DUXzQgr99397uwooorU7Aoqtf6jZ6ZbG4vbiOCLOAXPLHBO1R1Y8HAGSa871v4i6tPcTW+gacEhXcgurlSGfI4ZVOAMHPXOeMgdKa5d5yUV3bSX4nLicbQwyvVlY9Iubq3s7dri6nighTG6SVwqjJwMk8dTXmvj/AMQaZr0cejWbfaUhdbia8ilAiiwCMZwQ2VLdCMHHJwQIV8M+LfFyxx+IL+RLWJyQDGIxnjnaFBY4JxkY68jJrtNA8Hab4fm8+AySS7AoL4CocYJUAdTjqST2zycntYpfuHeXfVJel7Nv7l5vZ8FStiMdFwox5Yv7T/Rf16lL4cXbXnhcv9lFvCtw6Q4Tb5iAD5j685HH93HauuoopcsIrlgrJbHp4eiqNKNJPZWCiiig2MTxl/yI3iD/ALBtz/6KatusTxl/yI3iD/sG3P8A6KatugAooooAKKKKACiiigAooooAKKKKACiiigAooooAKKKKACiiigAooooAKKKKACiiigAooooAKKKKACiiigAooooAKxNc/wCQx4Z/7CT/APpJcVt1ia5/yGPDP/YSf/0kuKANuvI/iJaapDrr3tkJYVdwweNtjMyxpyCOTjp9fpx65XIfEm3ibwbdXhXFzbFDDKpIZNzqrDI7EHp04B7CkqUp1Iclrp6XV121Xz+Tszzc1wzr4fR2cfe+5P8AT8TrIZoriISwyJJG3R0YEH8RT64TwdpC6p4NsL4XU9teyCbdPA20v85A3Y6gbRwMd/WtLULq+8OW0T3Ov2LDY/F+NhYKF+6FyzsOc8nORxmsXLEU5unOndrT3Xf8HZ/gOGMqqCnVp6WTummtfWz/ADOporzb/hasclu8dvbwtc7GKSTOYkBzxuXn16Bj0PIrCm1Lxxrd6bWXVBYQmUkyBvs8cLYYhGYDeOhGGzyOema6KfI3arLkf968fuvv+vQzec4bRRu2/K35/pc9cvdT0/Tdn26+trXzM7PPlVN2OuMnnqPzostT0/Ut/wBhvra68vG/yJVfbnpnB46H8q810r4Yz6pcS32v6yLtZFGyW0nMjORxlndegAxjn6jHOR4s0CP4f6xpGoaRdTuzMzhZzzlCuQSuMqwbBHpnnnjuhhqFR8kJ3k/LTuXLGVox9rKHueup7XRVXT9TstWtFurC6iuIT/FG2cHAOCOoOCODyKtVwtNOzPRTTV0eY3vxI1q+1OePwxo/22yhwpka3kkZjz82FI2g44B54z7CL/hN/H3/AEK//khP/wDFVQxH4B+JyQq91Do8xDiNHL70ZWUZUHLBXLYzk4Hc9fRkkn8QGVdslvpYKgEoVe6XBJwc5VD8vbJHccgduLr0cPyRhTUuZaf8Ht5/56HiRqVZtxc3z3asvz8l5/m9DhLbxR451MDUorcpaQEb7a1s9/m4YZGGy2SG5wc4Gcd6y1svHPijVkSRL6y2FpVluRJCkZznhsZznAwo7DgAZHtKIsaKiKFRQAqqMAD0FOrlhUXNz1IJvppovl1fm7vtY2/suVSzr1HLy6Hk3/Crdf1O78zWtdifam1Zd0lw/Xhfm24HJPX8Oa6fQvhtoekxI13Cuo3asxMsynZg8Y8vJXAHrk559MdlRW08bXmuW9l5aHVTwNCD5uW789QooorlOwKKKKACiiigArEtf+R51X/sG2X/AKNuq26xLX/kedV/7Btl/wCjbqgDbooooAKKKKACiiigDE8Zf8iN4g/7Btz/AOimrbrE8Zf8iN4g/wCwbc/+imrboA4L4nQzvYWclv8ALIPMRZDxgsU+XPYnBx9K1fh5M8vgmwSWRnmh3xurtlkw52qe4+UrgemO1dDeWdvqFpJa3UQlhkGGU/oQeoIPII5BGRXlvwy+26nbX8cF6bSS1MO2RU3BlIkGGXOD0GCRxipjTqwp1JwipK6b6NaW0fVeWmrvfc8WpCphsf7WC5lU6bNWS76Pby3PWaKwbi91bSF8y7NnPaB2BnlmEPlqWAQux47kYC9h1zWDN8Tbfdm1077TGkW6VhcqpR8NgdMFcgc5zg528c5xrxfxJx9dF9+3VdTrnmVCnpVbi/NP89vxO8qK5urezt2uLqeKCFMbpJXCqMnAyTx1NeRLr3xA8QSTLZSRQLITH5ETQxMMLyU3nf77gfXB440bf4aa3qV7H/wkuuNcWkattEdw8jgnHA3rhRwCTz0xjuPRhh6VuaVWNvJ3Jhj3WV6EG/PZHolnrGmahKYrLUrO5kC7ikM6uQOmcA9OR+dXa8e8Z+BbPwro8Oq6TPqDTx3KBnZwREMEhsqoIO4KAc9TXf8AgvXrbXfDlqYrhpbq3iSK6Ehy4cLgsfUNgkHv9QQCth4qmqtN3WxrRxMpVHSqq0t9zoq4DxT4+1DTdfbQ9F0v7Vex7SxdWfdldxCovJ4IOc9jx3rv68k+JVhc6F4ktPEun3E8c1w2GcLxE6KABnphlz8p64bqDgPAwhOryzV9NPUWPnUp0uaDtqr+hY/4Tfx9/wBCv/5IT/8AxVOTxV451G0jmj0wxKSZF+yWhYyBVJILOWUDPGPvEjA5rqre8HjAqYGkTRxGjSq8eGlc4bZnsBgZwfzBBrpURY0VEUKigBVUYAHoK5ZYpV21CCjFaX6vvbsvPftbc46dKriLuNV8nfq/TsvPd+W78aMvjnW76KBNPu7KaViDePDJGyrknmRvuAc8JtyDjByBWi/w48V6m0cGr+IlktA245nlnKnBwQrADPOOo4Jr1aiumGK9lHlowUV6fjd9TenllKKtJt/M4PR/hVotlFKNTZtSkZhtY7oQg9AFbk+5PpwOc9zFFHBEkUUaxxooVEQYCgcAAdhT6Kxq1qlV3m7nbSoU6StTVgooorI1CiiigAooooAxLr/kedK/7Bt7/wCjbWtusS6/5HnSv+wbe/8Ao21rboAKKKKACiiigAooooAxPBv/ACI3h/8A7Btt/wCilpnjKwstR8LXkV9kIqh0dQCyuD8uMg4yeD7E0/wb/wAiN4f/AOwbbf8Aopa0NUshqOl3NoQCZEIXcSAG6qTj3AqKkqkYOVL4raevQwxMZSozjDdp29bHI/C+8iutF1BEkQ7L1tsan7sexApx2B2n8Qa7mvIPB00HhbxXepNckQNGYZIEfcY5A45YA8hfmGeTzXoUviq0SJ50s7+a1RSxuUg/d4HU5JHA5zn0qJ4rCRajSlZWWjWq06r+keZl2YYeOGjCUrOOluv3G7RXCXnxT0eBkWCN5SRltzYA9OV3e/pVNPEPifxW0k/hyVbW0hbacQKxJIHBaTAJHX5QMBhntVqot5KSXfknb71FnQ82w17QvJ+UW/0seiSyxwRPLLIscaKWd3OAoHJJPYVQi8RaJPKkUWs6fJI7BURLpCWJ4AAzya8wvPA3i2/gKahqN5PDHmQLNN5oyAei7zz1A4703VPBWgW+l3ckMms217HAZoY7qNWD8kYIVcjJG3JI5YHmt4VcC2lKq033i0v/ACZIweaT/k5V/euvzSPY6K4H4ZeIY7rQ10i8uoxfWsjRxQyMRI0eMjqecfMMDoFHA799RVpunNxZ6lCtGtTU49TkPGnjRvDr2+n6fbfatWudpjjZGKhScDgcsSQQAPr6A8/beNfGs07RS6JDCyKHKNYzlypOMhd2SM96t/FTRs2Fv4htfNS9s3RHlSTbtjydp+ocjBHPzH04vfD+9XVUuL5t7y/Z7eJpJeXLKm1znnqyZ9+M1piJRp4en7Naydm+q0b03Wy0uvM8nE1K8sUqKm48z0t2s3f10sY154y8ZSsn2bw7fxKByVsnBJ/4EG/p1rL1DWfH8l2wOm6mhj+Q+XDIVJBPIKAKfrz9a9jorCNPDL4oX9ZSf4Xt+BrPKnP46sn83b7r2PM5PC/jq/shHc6jYhZFDNFNcSttPBGRgqSDj1GRWnp3w68m636nrEl9b7T+5SHyMnsSytnHsMducZB7mio9lR6U4/cm/k3dr5GkcowifNKPM/PUr2dlbafbLb2sKxRKBwOp4xknqTwOTyasUUU0klZHoxioq0VZBRRRTGFFFFABWJ4r/wCQPB/2ErD/ANK4a26xPFf/ACB4P+wlYf8ApXDQBt0UUUAFFFFABRRRQAViaH/yGPE3/YST/wBJLetusTQ/+Qx4m/7CSf8ApJb0AbEsUc8TxSxrJG6lXRxkMDwQR3FeXeBGsrDx1caZZ3GbZbWURGQ4aVi6kZ4GTsGenTNeqV49qGitoXj3TrhJ0txHIsr4kYyNCJCu449UGCAAMe5NR7SEKi9s7Qs3fpzbK/ycvnY8bNJ+yq0asl7sW7v7rfqew0VjJ4p0mU7LeeSeXBKxRQOWbAzgDFYt/wDErR7ISIY5/tCNsMT4BDA8g4JIxz2rOOJpTdqb5vTX8rnZLMsJFX9on6a/lc7OivM38bav4nvY7Hw3IttJt3tiDzWwM5yzgKq8jqM5xzziqt94X8dai0putVvGWZdskazKiMMYI2K4XBHXjmtlUpJ2qNx9YTv/AOknO82ptXpQlL0i7fkeiS+ItEgleKXWdPjkRiro90gKkcEEZ4NaVeRJ4C0azMMGqxa1HOzJGZICjRMzAHg7M5zngbunU1J8MdaOmXs+j6pPPF9oKrZrKT5QYFtyrk4BYsOnBPvjO8Xha0ZewqXlHo1Z/JPXQVDM1OqqdRJN/evVM9ZrC8WeJY/C2ji/e2a4Z5ViSMNtBJBPJ5wMKex5x9a3a5rx1oX9v+F7iFWlE1vm5hWNdxd1Vvlx1OQSOO5HXoVQUHUip7Ho13NUpOnvbQ4638feNLh4B/YtpGtwN0LyW0yrIDjG07vmzkdM9asXXjHxk0axw+H7wOGO6SOwkTI7YDbuP14qD4ZahLfXcEV/dGT7LG8Vmsj/AHeAdq+vylvXgeijHqtTVkp15xnG0YuySbV/Nta/JNL1PGwlOtjISm6skr2svTW79fwPHdQ1z4gTSIp0zUkAUMPLgf8AiAPJQAdMcHkHI4ORWnBoPj/VNMSSTUYLUTpzDPPLvUHsy4I5HY+vODXp9FS4YfS1JX823+bd/mdCyik3ecpS9Wzz6w+G90Jbd9T1xpohhpreCDy9x/uiQHOM98AkemeOy0vRdP0ZJEsLfy/MILszs7NjoNzEnA54zjk+pq/RUqMI/BFR9El+SR14fA4bD60oJMKKKKZ1hRRRQAUUUUAYnjL/AJEbxB/2Dbn/ANFNW3WJ4y/5EbxB/wBg25/9FNW3QAUUUUAFFFFABRRRQAUUUUAFFFFABRRRQAUUUUAFFFFABRRRQAUUUUAFFFFABRRRQAUUUUAFFFFABRRRQAUUUUAFYmuf8hjwz/2En/8ASS4rbrE1z/kMeGf+wk//AKSXFAG3VLV9Kttb0q4068DGCdcNsbBBBBBB9QQD6cc5q7RTTcXdCklJWex45Y+F/iDplvLpFi32ayln3NNFPGozkDeGH7wDCjgc47c4rXs/g7ZpKTe6vPNHt4WGEREH1yS3HXjH416ZRXZLMKz+Gy72W5wxy6ivivK213sYumeEtC0q3t44NMtmkt8FZ5YlaUsDncWIznPPt2xWrPbQXSBLiCOZAchZEDAH15qWiuObdT49fU7FSgo8qSsZUnh6ya6FzE09tIXZ5GglKmXcQSGPXHHQEdTWbqmj6vPo82mNPFqMNxF5DGdADGSGxJ/wE7DzuJIJGK6eiudYaEZc9P3X5afht96OaWBou7j7rfbT8Nn80eafDe5n0a7vNBvBCkTMZ0kZ9r+YSE2FT3OOPTB69vS68o+JWhTaVfLr2mQlLecgXgjX5RIGyGbn+LODgDkcnLc9J4K8SfboYbW4vVuXnj8yJgSzI3O6NycHIxkZHTvgitq8q0HGpWakpacy017SXRvpbR+RwYTE1MLUWEr/ACl+V/XpbroXPF9m2pmy06BIFu5xMYbiVAxjKpnAOCQCduSOw6HpXJ/D7xWdLuJvDOtyGOWO48q2+TcfMLkMhZc5+Y5B6feyeleg6pZTSzWt9agPc2ZYpExwsgYYYZ7HHQ9M9a4X4jW+l67oDatBN5d/p+FeFkCyFWZVKsDz8pbg8jJYd8isFOn7edGt9trlfWyWy+bennfqFdOjiJ172l0v1jZXXyd33/A9MormPAWvLrvhe2Mtwst7br5VwMksCCQrNnkllAOehOfQgdPVVIOnNwe6PYp1FUgpx2YUUUVBYUVS1XV7DRLI3mo3K28AYLuIJJJ6AAck/TsCe1cHqHxfsoLto7DTJbuFePNkl8rccnoNpOMYPODz0Fb0sNVq/BG5hWxNGj/ElY9JrK1fxJo+g7BqV/FA742x8s5BzztUE44POMV5jDonjD4g4u9RufsthvVkSUMibTk7o4wPmwG4YnnONx5x0Wj/AAm0uyllfVLltRVlARAphCnuTtbJP4gdevGN3h6NP+LPXsv89jmWJr1f4VPTu3+m53ltdW95brcWs8U8L52yROGU4ODgjjqKlrxHwb4g/wCEF1q907WLKWLz3jSZ88wbd2DtA+YHcDkHpyM8V7dWWJw7oTtuns+5thcSq8L7NbrsFYlr/wAjzqv/AGDbL/0bdVt1iWv/ACPOq/8AYNsv/Rt1XMdRt0UUUAFFFFABRRRQBieMv+RG8Qf9g25/9FNW3WJ4y/5EbxB/2Dbn/wBFNW3QAV5JqHgnxLoPiC8l8JxstncRFFdZ0DorYLJlyCCCOCOcY5zmvW6K3oYiVFu2t+j2OfEYaFdLmumuq3PKbH4S3N4sV3q+rslxK3mXMSx72yTkjzC3LepwRn179jpPgPw7pNuY106K7dvvS3iiVjycdRgdccAZwM5rpaKqpjK1TRy08tCaWCoU9Yx189TPn0LS7iAwvYwrGWDkRjy8kAgZ24z1P51VbQHgydO1K5tWMhdVPzxoDuyqpwMZPfPStqivOlhaMnfls/LR/eglgsPJ35Un3Wj+9WZz7ReIIIJY7mO01aF3KGIgIzxkEHOcKB04w2cnmvPvDkM3hXxyLiS1FtZXhaERS5DxRscqQWIyFKjJ54BOM17DXBfErwy+oaeNbsdy31kh8wiTbugGSce4yT2yCevArfC0qsJezp1bKWlpe8vLXRr7/kcGLwVWnFVaM23HWz1/Hf8AE7qGaK4iEsMiSRt0dGBB/EVQ8QW8N14d1GGeJZI2t3JVhkZAJB+oIBB7EVwHg24uNS0oXmjTONUtWVby1biOUHIVhk4OQDkE9d2NvGfR9Ovk1LToLuMYWVckf3T0I/A5FY81WNSVCquWa7bPzT0/zWhvhsU8VB06keWTXqmtrp+T3W6PJtE8R3Pg3xVJBqpk/s29jSXCAlVDKu2UAjJwBtbHcHrtAr2CKWOeJJYpFkjdQyOhyGB5BB7iuD8UaBC3hyXSZ4d7wh5dMulQsxf7xhOP4m5A7NwcZAFRfC7xJDc6SNHvL/ffRu32eKTOfJCrgA4wcHdxnIA9BXbRjGthIygrSglGS9F/XyOfLqjoNYafb7n1X+Xfc9EooorE9oKKKiubq3s7dri6nighTG6SVwqjJwMk8dTQlfRA3bVktFcBq/xY0ez2LpsMuoucFjzCgHPdhnPA7Y569q51X8afEKWeW2law0sqwRWdo4mU/KU3KMyHg5zkDnpkCuyGCqNc1T3V3f8AkcU8fTT5afvS7L/M9R1bW9M0O3E2pXkVuh+6GOWbkA7VHJxkZwOKfp2r6dq8Xm6fewXKhVZhG4JQN03Dqp4PBweDXDaV8IrC1vRLqN+19AFP7gRGIE9iWDE4HoMc457HmoLtfhx8Qb/zbFpLSRSkSo5G2F3VgVLD5iAu3r1B54rSOFo1E40pNyWu1kZyxdam1KtFRi3be7X3HtdFRWtzDeWkN1bvvhmRZI2wRlSMg4PPQ1LXntWPRTvqjEuv+R50r/sG3v8A6Nta26xLr/kedK/7Bt7/AOjbWtugAooooAKKKKACiiigDE8G/wDIjeH/APsG23/opa26xPBv/IjeH/8AsG23/opa26APMfEvg3XLLxauueFIsyS7pHJkTMcrZDHD8YYN7856cVXj+GuueIFN/wCINZaG9diPKZBMVXJIGQwCjJJCrwAfwHq1Fdix1VRSVrrrbU4Xl9Fybd7PW19LnJ6P8OfD2jyyy+Q18zqFAvQkgQew2gZPHPXjjGTnp7a1t7O3W3tYIoIUztjiQKoycnAHHU1LRXPUqzqO83c6qdGnTVoKwU10WQYdQwBBwRnkHIP5jNOorM0aueXeIzH4Q8cabfraQfZJEPkuflKkLsZc5JPDZyeMv3wc+g6PrFvrNmJoTtdeJIieUP8AUeh/+uKzfGnhyPxJ4fmhWJWvYlMlq5HIbrtByOGxjnjoewrznwPrjaVfeRcRulzbZhe3CN5kkfzFyc9Cm1eOOB2wTUVaPsqSr0fhjpKPZN/EvTqlp1SPn5ynl2J93+FLVrt3a9O3bbU9llijnieKWNZI3Uq6OMhgeCCO4rzHWIp/AXiOLVLWNRp0kzAxoFP7hypkUDjBDY244xtznmvT0dZEV0YMjAFWU5BHqKzfEGjprmjzWTEBm5QtnAPTnHqCR+OaJyaSlFXs7279H82m0vU9HH0JVaanS+OOq/y+aLWm6laavYRX1jL5ttLnY+0rnBIPBAPUGrVeR/DnUJPD/iW70G/nEUVwMxCUMuZgQAADwCRkH1KgZ7H1yuirCMWnB3i1dPuma4PErE0VUW/UKKKKyOoKKK4jWvihoemqyWJbUbgMV2xZVAQQDlyOR1wVDA47ZzWlOjOq7QVzKrWp0lebsdvUVzdW9nbtcXU8UEKY3SSuFUZOBknjqa8nv/FvirxcUt9FtJtNt9vzmNyWc4LjD4BHCHAXk89c4FTSvhZqV3EJLqQQboyyqRtwwbG05GRxk/d9KpqhT0qT17RXM/w0R5081UpcuHg5/wBf12PU9I8SaPr28abfxTumd0fKuAMc7WAOORzjFateLeIdCTwhq2n6k+n+VHG6PG1ozPCZFbdht53A8dMgEDjoa9N8N+KLHxLatJbMElQnfETkgeo4GR07fzBOVSdPSUFJJ7cyt8r7XLwuYe0n7GsuWfz19DcrE8V/8geD/sJWH/pXDW3WJ4r/AOQPB/2ErD/0rhpHpm3RRRQAUUUUAFFFFABWJof/ACGPE3/YST/0kt626xND/wCQx4m/7CSf+klvQBt1w3xE8GzeIbeG+02LzNShxGUMgUSRZJxzxkE56jgnrxXc0VpSqypTU47mVajGtBwnszyRPAvi3xTeyS+Jb5rVY1/dlysoJOAQqIwVRgDJ4yccHkjotG+Fmiac8c168uoTJziQBYic5B2DnoMYJIPPHp3NFbzx1aS5U7LstDCGAoRfM1zPu9SrZaZp+m7/ALDY21r5mN/kRKm7HTOBz1P51aoorlbbd2daSSsgrzf4j6HFZ6cup2en27W6HbdruK4yVVWVeg6sCRzlgecGvSKpavpVtrelXGnXgYwTrhtjYIIIIIPqCAfTjnNJQpynF1FdJ/P5NWZy4zCwxNJwktenk/UoeGvEkXiCyjk8sxTGISFTjDjJBK85IBGD6HjJrcrwrSbu78Ha5c6RfcTxTI8JQllEnHfIwjoeeMnCZxg17Xp18mpadBdxjCyrkj+6ehH4HIpVIOhWdCTvpdPuv81s/k+pzZdjHUboVX78V962+9dfkcF470eTR5D4g0qVbWXzBIQgwRMAxZ/Q7lyCCMHvnca63wz4msvFGmC6tTslTAnt2OWib+oPY9/YggaV9ZQ6jZS2k4JjkGDtOCOcgj8QK8f0d5PAPjvyb26NtpsgZZwuZFYBCV4AJ+8VwcZwfrWlBKUpUpbvWPqlrH7ldd/e+eU28Fi7/wDLuo/uf9a/f2PaKKZFLHPEksUiyRuoZHQ5DA8gg9xT6g9kKKKKACiua1nx54f0R5IZ7zz7mPrBbLvbOcEE/dBGDkEg8fSuF1P4ia94gs2h0XT3sVUEzzJJvO04XAYqAnLDkc5xgjvusPPl552jHu3ZficWIzDD0E+aWp65LLHBE8ssixxopZ3c4Cgckk9hWRZeLvD+oXb2ttq1s0yOI9rNt3sTgBCcB+R/Dnt6ivLD8O/EupNJdXskktyZCjmV9zHaAAdzkZHYEZ6VZ8V+CINB0qK8eAeRE4ieW1Z2d89HkD5VeR2wMtj0pKWFvyRcpN9ou342v8vmcM8zr2c40nyre6f+S+e57JRXN+GvGen+JHkiixFOp4jLZ3DHbIHPXjH9cdJXPGSl/wAFNP5p6o9WhXp14c9N3RieMv8AkRvEH/YNuf8A0U1bdYnjL/kRvEH/AGDbn/0U1bdUbBRRRQAUUUUAFFFFABRRRQAUUUUAFFFFABRRRQAUUUUAFFFFABRRRQAUUUUAFFFFABRRRQAUUUUAFFFFABRRRQAVia5/yGPDP/YSf/0kuK26xNc/5DHhn/sJP/6SXFAG3RRRQAUUUUAFFFFABRRRQBV1PT7fVtMuLC6XdDOhRuASM9CMgjIPIPYgV5RHYN8PfEEEd9fvNY+bFLHJGWTG4lXJUbscLyBncABn09K1zxHYaDErXcoDsMhfQf3mxkgZ44BPoDXCapr/AIQvvDmqR3OoLeajdI0oJgmAWYKfLCErwATgEnoSDxxThz4h/V4puF1zW6Waa+b0+XyPFzF0q01CMlzRd277W1S87u3otfX0qxvrbUrKK8s5lmt5V3I69CP6HsR1BqK/0iw1Paby2SRl6NyGxzxkc45PFcN8IdRkn0e/099xW1lWRGL5ADg/KB2AKE/Vj+Po1Xi8PGM5Upq68z0KUoYqgnOKafR7HjsaQaB8UDpVlKbIEpBHcqu4/OgO1kHytliByOOD2r0lx4lDsEOksmTtLCQEj3GTiszxr4Kj8VxQyxTrb3turBHZMiQHkKx6gZ6HnGW4Oa41fB3jbxJcQWviC8lt7KFBh5JUkGVBA+RW+ZuT8x5xnk8A28Fh60YyVRwsrPVvbsn+h5iw08PKUIRlZu6s3b0e6X6nXa343bw3PFbapZwec6bgYrgkMO527SVGcjn0OM4rDTxV4i8WXsieHLhbaOFdzqluHODgfM8nGcg4AAOM9cZq3oXwrs9K1VLy9vV1CNFbFu9qAjEjGWyWyBk8euDniu8trW3s7dbe1gighTO2OJAqjJycAcdTWU6MKf8ACqyb9IW+5wbNYYXGVX+8qyjHsuW/3pHlNz4G8S6repNrU15fRhmbYLhFKluu3JYKM44C4wMcV1ukabe6NG1vo3hy104TPullnuvNBwDgHB3fTsMnjkmuupksscETyyyLHGilndzgKByST2FZVPrFVcsq0rdvdX5RRrDLFTfMqsv/ACW/38t/uZkf8VP/ANQj/wAi0qR+IpTsnn0+BCD+8t1ZnU44wG4POM+2a5zxF8UNL06JotJK6hd7mQkZWOMjuTj5xnH3eCM8jjODo+t+PdeuZ5IZ3SJQX8qOCFcZJwoLjj23HJx35NKpgXSh7SrNrsm9X5JLX+rnNWr4elJQ9pOT7J3v/Xka3jnQfP02KfWNZE0kOfIUQrGeSN3IOMYA5I/nW18P9d/trw4qS3bXN3aOYZXkxucZJRsdcFcDJ5JVuvWuLm8HeN5nhvIphbTySAOBekzR8Fd7ydxjHQk4wMcV2ngnwd/widpceZd/aLm62GTauETaDwO55ZuTjPHArejQ9lRlzz3tyxvzW73eur7J29dxYCnXWJdTlcYtbNt+jbbevSy0SOqrEtf+R51X/sG2X/o26rbrEtf+R51X/sG2X/o26qD3TbooooAKKKKACiiigDE8Zf8AIjeIP+wbc/8Aopq26xPGX/IjeIP+wbc/+imrboAKKKKACiiigAooooAKKKy9Z1+x0WFmuJUEuwukZcLux6k8D8evQZPFTOcYK8mZ1asKUeebsjzvW/DuoeDfFMevaNOkdhNKTIpwqxg/M0ZXgFCAcY6Y7EAnu/B93ZXnhezexn82MLh8/eSQ8spHbBP5YPOc1zNt4w8J31uJdev7e7uGziJ7SRo4lJB2hSpBIx97r2ycVzXwv1ZtO8VS6SginhvsqZl3DBjV2DDIBwRnggHkdMYPZGhWxMXiK0WpRVkmrabu/nt93ds8TD1IQxMakX7s9Er6xvbftd206WPZZoYriIxTRpJG3VHUEH8DXkHjS2sfCfi2wubbTP3WEuY3yQPMVzuGf4uinBP8XuK9irI8S+HrbxNo72Fy7Rnd5kUq9Y3AIBx3HJBHoexwRz0o0nUTqJ+qbT+9a/Lqejj8GsRT0XvLZ9fvGQ6hq+yBjp1veRyKHNxaXI2FSeCobrxg9cH1qpe+NtP03Z9utL618zOzz41TdjrjLc9R+defW/gbxrMseh3EzQ6QsrbnFwrRYyCW2A7mGVBAIHJz8uSa2rH4P20N7FLeas1zbq2XhWDyy49N244Hr3x6da0lgYU/+Yj8E/x0/E4lLHSVqV1/it/km156kup+N9X1iV7TwtHACF3GU/vZcfLyEAIUZyOd2cjoa5u80Pxdrt0P7bn1B7ctuYJA7BSFwCsfyrnt26k89/YbLTNP03f9hsba18zG/wAiJU3Y6ZwOep/OrVZRq16WlKaXnyq5pLLq9XWrWb8raHGeH7DTdDLLo/h3UEu3i2Ga7Urv2jOC5JC5x2ABOOnGNpbvXrgMqaZBZuBlXnnEitz0wuCPXPPTHetmuN134k6HpMTraTLqN2rKBFCx2YPOfMwVwB6ZOePXGccNicRLWcpPyt/l+qNXRVCH7yq0uyUV+jd/RmsbbxJcOBLf2VogB5t4jIWPHUP+PSsbxVolxLoksmp6zHP5QLW8ctsAjS9gQDzkZHtknpkHkoPFPj7V9ThS3JtFuQrRotqoXaR95d4JIOCc5I9wKtXvhPxle209+JJFvllXYstwvnuMkkqynaignhQR/F06GKmAUans41Lz0veTtH1V0vkte9lqeZWnCvGUKMZzfW7lZfJOz7pWuzofh1rtteWdxpKXLySWRBjDsD+6IAwpzkhSD16bgAcYA7euI8D+CrnQbmXV9Tu2l1G6iKyR53BCzBm3Nk7m4HPTOevBrt66qlOFN8kJOSXV7t9dep7OAhUhh4wqbrvv8zEuv+R50r/sG3v/AKNta26xLr/kedK/7Bt7/wCjbWtuszsCiiigAooooAKKKKAMTwb/AMiN4f8A+wbbf+ilrbrE8G/8iN4f/wCwbbf+ilrboAKKKKACiiigAooooAK8v8e+E/7NuLjxZYXPlbXQ3FuBs3bjsYqw/vZGQRzljnnFel3N1b2du1xdTxQQpjdJK4VRk4GSeOprlrzx/okmlXUum3rSzIh2nyJFAPrllxxnOO+KuNV0YSqNXjs/NdvV9OpwZg8P7Fqs7aXXf5d/QteEdctL+wTThdq9/ax/vYiNpVM4XHGCMbeRnGRnk10leH6Vq1pZfFC0m0qZrizmeK2LDdGJN6KjEg84D/Ng9wPY17hR9VnhqVKM9+VX9ba/iTldWU8OoT3jo/ktzzv4qabpw0y21CaMpO9wIDKnYFWOSO+NoH0+gx1fhjUYr/QLMLdi5nit40nfcSS+0ZJJ5OTnnvzV/U9Pt9W0y4sLpd0M6FG4BIz0IyCMg8g9iBXktx4C8W6HdtDori7tyVlWdDHGwYZ7OcqR7HB47jAqFLnhy05JO97S0T80+j76O/k7sxrQrYau61GPNGW68+/+eh65fX1tptlLeXkyw28S7ndugH9T2A6k15trPxWa6thD4dsZxcMDvkuIwSgxgFVUnJyep4GOhzxai+F8hiQy3unpIVG9U0/cAe4B3jI98D6V2Gn+GNJ02BYobRGAQxkuoO5S27kAYPOOcZ4FZwquH/Lu783p9yWo5TzCv7qgqa7t3/I80Nn4+8S4t7y+mSD95GwjKqrDYGw3l4VgwIALHBzxwTXU6P8ADLTNOnhmnkM7RtuIZAdxDkqeRwMYBAH4126IsaKiKFRQAqqMAD0FOoqTqVly1Hp2Wi/DV/Nv0Lp5XBvmrtzfn/WvzILezt7RcQQpH8qoSByQowuT1OB61PWFrXjDQ9AZor6+X7QFJ+zxAu+QAQCB90nIxuwDmuBPjTxr4nul/wCEe09ra3DFQY41kGdoJDyONoPcfd+8BzxW9HBzlG6XLHu9Eb1MVRoe5HV9kerXVtDeWk1rcJvhmRo5FyRlSMEZHPQ15H4Pt5PDvjVdNvZ2WNbuSGAS/IGOxhvCk8b/AJAMZz8o9Kq3lj431jXLe01We4M0JWVUhlT92QflbEZwrfN944IB69K6TSPAuq3uuWus65dND9lkR4rfzPNlYoeN75IHRem7I44IzUT9m74dTTjo5NapNO6S820r9lva6PKrVpY2vCNKm/ckm2/J3s/O62PR6xPFf/IHg/7CVh/6Vw1t1ieK/wDkDwf9hKw/9K4ayPoTbooooAKKKKACiiigArE0P/kMeJv+wkn/AKSW9bdYmh/8hjxN/wBhJP8A0kt6ANuiiigAooooAKKKKACiiigDjfH3g1vE1lHc2ZVdRtlIQEACZeuwt2PpzjJPrkQfD/X7aW0j0u4n23ki+fFGx4ZSBkLz2IJx7kjODjYk8ceHUuZLaPUVnmRd22BGcHjPDgbfbr14ryHX9Vtx4hsdasbqC4ulcTzRhX2pKJC4HIGVwR0J6HnoTrClPEYinQkvhUn6J7fe1p6M8DF1aVLGQrUmm1fmV+mi+/8AyPf65H4h6VaXnhm4vJbV5prYKwMQ+YLuAY/QAlvbB7E10mmXv9paTZ33l+X9pgSbZnO3coOM9+tWqzcVe0uj/Lz6ep7FalDEUnCWz/pM4r4datpv/CKWlgl4nnQsyFZMIWLOWAAzz1x/+sZ7KWWOCJ5ZZFjjRSzu5wFA5JJ7CvJdc+HOr6XrJufDEYmtZVbEbumYc8FTvOGHPB6jHqAToWHw0vp7OObUr6zS7kG6RGshIU9F3BgDx7fiRzWlanKL9opqSfyl81a3z09DzKNfHUl7H2XNy6Xvb89H/WhY1L4s2ISSHR7C5u7ncyo0q7YyMHDAAliOhxhTjuK52LU/HPii6W3W/ktUeUOFgHl+WpOOqDdtGf4j6Z5r0bTPBmjafbwo9pHcSpyzODsZvUISVAz0Hbryea3oYYreIRQxpHGvREUAD8BUvEVFpSjGPm/ef6Jfc/8AJ/VcdXadWoorsv6X6nm+gfC2GLbLqoDHB/d53HJBGePlGDgj73vXfadpNnpcCxWsWMZy7HLEkDJz2ztHA44q7WVq/iTR9B2DUr+KB3xtj5ZyDnnaoJxwecYrKNGVSalJucu71fy7eiSR1UMDhsKubqur3+/p8rGrRXk138QPE3iK7Nv4X06WKJHVTIsQlfkkDeSCiA8demD82KoatY+PtXlt9N1eZtsrYEKSwjcOuWSM/MBt6kYGOortlhFSXNWmor11+7r6EVMzpxi5Qi2u9tP6+Q9NM/4RTx9NEXeHSluoJEL5VNrOCpyxwQm5l3E+vqa9lryweANc1zVPL1q8nisLUBVlkmE0lx8xyV5+UYzy3TI+Xkgep1zTvN+2m/el07JJJX83q32vboZ5XSqQ9pOUeVSeifRGJ4y/5EbxB/2Dbn/0U1bdYnjL/kRvEH/YNuf/AEU1bdSesFFFFABRRRQAUUUUAFFFFABRRRQAUUUUAFFFFABRRRQAUUUUAFFFFABRRRQAUUUUAFFFFABRRRQAUUUUAFFFFABWJrn/ACGPDP8A2En/APSS4rbrE1z/AJDHhn/sJP8A+klxQBt0UUUAFcn4w8dW3hSWC2+ytd3cq+YYw+wKnIyWweSQePY5xxnrK8m+K8c2n+IdG1i3m2zbCsY2A7GicMG54PL9Mdu+a6sHThUrKMzkx1WdKi5w8h8vxkkMTiLQ1SQqdjPdbgD2JGwZHtkfWopPG3j6+sgbXQ2jWVQ0dxb2ErHHBBXcWUgj2PBr02xvXbRLS81EJayvBG86v8gjcgZHzdOTjBqsurTag80WlwZMTbHmuFZUVsE428E8jB6EZBwRRUx2Goy5VTV+127/ANfcclSM1ZTrO72SVn9y/Pp3PPT4R8dx2q3Fz4oFsu0FhNqUw2E9iQCM544JFU7PwV4g8QXQXVb+5nhhdkWWd3ZF5wSN+GPK4IAB6ZIr0uz0JzcLd6rdve3IUqEIxEgZQGAXvxkds56Zrarn+u4utr/DXklf79bfLXzM45c61nO8Y9r3b9ei9Ff1OAtPhbZrqHm6hfNd2QyVs44zCgPQHIY+54xz+R1f+FceE/8AoFf+TEv/AMVXVUyWWOCJ5ZZFjjRSzu5wFA5JJ7CrhWqQiowk0l2/r8dzvp4HDUo8sYK3nr+ZQ0fw/pegRSxaXZrbrKwZyGLFiOmSxJwPTpyfU1pVzWrePPDuk24kbUYrt2+7FZsJWPIz0OB1zyRnBxmuYvPjFZpKBZaRPNHt5aaYREH0wA3HTnP4VrHDYis+blb9f+CEsVhqK5eZL0/4B6ZRXlKeLPHHitpJ/DlitraQttOPLYkkDgtJgEjr8oGAwz2oktPinfKLWaZoY5GAaRZIIygyOdyfMB645x61f1JrSc4p9r6kfX4vWEJNd0tD068vrPT4hLe3cFtGW2h5pAgJ64ye/B/KsDVfiD4b0pTnUFupNoYR2n70sCcfeHyg98Eg4/CuYsvhfqGoXbzeKNYludqBIjBOzv1zy0i8Ac8Ad+2ObMHgfwdZXMtrsvNVujj9yJCSnODym0Dk87jxjt3mf1OjrVnf06+hlUxOISvZRT2u9fuMuP4meJ9UuJm0fQYpYU25RYZZ2TI/iZSByQccD9KpS+GPEHiSeKbX9Wf7Q6b0s44zLLFkqPmjG1IgRgkkj3Gc49Qhsr24ijSZ1sLVFUJaWZwQBtwpfjAGCMKBx3NX7Wzt7GAQ2sKRRjsoxk4xk+p46ms/r03/ALvBQXd6v5L/AD+4yWFrV/4knbz0+6K/XbscT4f+G1jZGC4v4w0iRbWQOSWYjlic4HJIwvYDk8k91DDFbxCKGNI416IigAfgKfRXNy3k5yd5Pq9/+G8louiO/D4Olh/gWr3fV/122CiiiqOkKxLX/kedV/7Btl/6Nuq26xLX/kedV/7Btl/6NuqANuiiigAooooAKKKKAMTxl/yI3iD/ALBtz/6KatusTxl/yI3iD/sG3P8A6KatugAooooAyPEviG28M6O9/co0h3eXFEvWRyCQM9hwST6DucA8H/wuX/qA/wDk5/8AYVv/ABSsvtXgqSbzNv2WeObGM7snZj2+/n8Kl+GuoXuoeD4TergQOYIH2bd8SgAH0ODlcj+765r0KUKMcP7WUeZ3tu0edVnWlifZQlyq19kzlYPiN4v1LzJtN0CKe2DlVMdtLLt77SynBOCOw+lJFoHxC1WBtSu9bfT9wDFJrt4cKFHOyMbV46g4OQcivRrnV97z22mx/aruLKsB9yNsEgMffBHHcYJGaRdGFxcQXepSme4hO6NVJVIz8pwAMZwwOCecHBzgVyvMldrDU1fv0+//AC+djndKVR8sZudvO0fPVXu12Xpoeb2HhHxNrgMN5rs9xp74Yu1xK0TgH+62CxBU/KQvTORxnbT4XLLeQNqGrGeziYE2sVv5QYAdM7iQP1xnGOtehUVmqlRyVSbvJbaLS/ZdPXfzNqeVUE1Kr70l1f6Lt9/qcr/wrjwn/wBAr/yYl/8Aiq09H8LaLoEssumWKwSSqFZy7OcdcAsTgfTrgegrXrIvvFWgacsputXs1aFtskayh3U5wRsXLZB68cVr7SvU927f3s7PZUKXvcqXnojXorza9+MOnps+w6Vcz5zv8+RYsemMbs9/Ss9vHnivxRcLb+GtM+zbMGRlxKQcN953ARQccZGcjg84rVYCva8lZd2zCWYUE7Rd32SPWaiubq3s7dri6nighTG6SVwqjJwMk8dTXl0sfxXmieJiwV1Kko1spwfQjkH3HNPj+Gev6ndxf8JDr3nW0XI2zSTPyRkDeAFyB156Dg0/qtOOs6i+WovrdSWlOk7+eh2Oo+OvDemRb5NVgnYqxVLVvNLEdvlyAT23ED9a46b4pavqV2YfD2hebs3MQ6vM7JkANtTG335PUc+ui3w28JaTIk99eXTxgMfKuJ1AfA/2VDHGQeD6V0tg00Numn6NpQs7KAbElugUAwecJ95sg5ySMnOeaznicFQfLFOcu3/AX66eZhOrXlLknJR8o6v/AIHroec3WieL/FkTX+v3Y07TkYN5dxlAg3MMrEOSwyQN2CcgZNa2k/DiDy1U2wJSUt9uu1YM+DwFgzgLxyHzkNn2Hc2uh28M4urp3vbzr50/O05z8q9FGeRjpnrWpWFTFYmuuVv2ce0dH83/AJfeKnl3tHzVr/fdv1fT5a/3ipYaZbaajiBTvkO6SR2LPI3qSfxPpyat0UVnCEYR5YqyPUhTjTiowVkgoooqizEuv+R50r/sG3v/AKNta26xLr/kedK/7Bt7/wCjbWtugAooooAKKKKACiiigDE8G/8AIjeH/wDsG23/AKKWtusTwb/yI3h//sG23/opa26ACqWr6rbaJpVxqN4WEEC5bYuSSSAAB6kkD055xV2uf8cWq3vg7ULd5DGGCfMF3ch1I4yO4x/j0pqUIvmqO0Vv6dTLEVPZ0pVOyb+5HGf8Ll/6gP8A5Of/AGFQn4m+Jby6P9n6JbrCy7kWRHcgBcklgVBHBPQcVf8Ah5Gms2Vzav8AajpdliGFGYiKYtuZsjHJBIbrkZHTiu9tNI06x2G2s4UZM7X25cZ6/Mee/rWtTENStCgo/wCJtvy91bel79DxqH1/EwjNT5YvutfuX+fyPIGuvHHiK6nnTUJ4XjAIt7aVkGwsfuqnXBIGTluR1wcWLfwx441K2uEn1PUQmAjRSzyASKwOeHIBHGD9a9koqHicU9OZR/wxX4X5v1NllVSTvUrN+mn53PKdO+E0hWF724UblPmKeqHJxgKcHgD+LufSuth+H+giyW3ubd7gDk/vWjXPGflQgYyM8569a6mismpSmqlSTlJbNvb0Wy+SRvRyrC03zOPM/PX8NvwOdsfAvhrTr2K8tdLVZ4W3Rs0ruFPY4ZiMjt6HmuirNvvEOjaa0qXmqWcMkS7niaZd4GM/dzknHQYya5Wf4qaY3nJpunX15KjbVJURxtzjO7JKjGSMr9cV0SVWa553suren3s2lWw2GTu1E7yivNW+I99qhjsNMsYo7+cgIsUn2hsEHOOFVSOuSSAAcjFTef8AEWL5Us5Zh13Sy2qke2BWEubaMW/uX3OTSfyZz/2pTl/ChKa8lp+Nj0SsW58X+HbW3aaTWrFkXGRFMJG5OOFXJP4CuPXw1431iALqt3ZRwTvmaCWR5Co3f3Fyh6ZAzjp07bsfw60WGeOWJ7hNp+ZV8sBxkcE7M447EUXnF2lH/wAmVvvSf5MPrOMqfw6Nv8T/AMjntX+LDPdpaeHdP+0OXCLJOrHzDkjCopB5+Ugk57bax7rV/Fvi77TaXV3baPbwoRNE5aASHkFccuxIJBXpwMjOM+mf8Ilof/Pj/wCRX/xrQh02wt5RLDZW0ci9HSJQR+IFaxxdWK9ylGL7tuX6RMXhsfVf72aS8m/8l+ep5jovgbREeR2+16/vUrGscLW0UbAZ+Zy3U8Y5454ORXcafpd+tnFap5ekafEhRLW2IeTB65c5AOecjk5Oeea6CisKrr4h3r1G/JaL8NfxOill8YfFL5LRffrL5c1vIq2OnWemxGO0t0iU9SOS3XqTyep61aoopxjGC5YqyO+EIwiowVkuwVieK/8AkDwf9hKw/wDSuGtusTxX/wAgeD/sJWH/AKVw1RRt0UUUAFFFFABRRRQAViaH/wAhjxN/2Ek/9JLetusTQ/8AkMeJv+wkn/pJb0AbdFFFABXmd98YLaG9lis9Ja5t1bCTNP5Zceu3acD0749OlelO6xozuwVFBLMxwAPU14z4MjUeIJfD9pJcyW9zuN3cINhCIrbeASBy20g5HzY5OCNaU6cVJOHPK10r20W7b6dPm9u3l5jiatOcKdF6yv2/Xoab/FDXNQMQ0nQY0yGLGVmlDADOQRtAwAc9fwxWfd65448SuIoXNmIwG8qx3KW68kqWbuBjOOnGa9WstF03TyGtbONHBJDkbmGRjhjkir9Z/WK/2Iwj8nJ/e2v/AEky+pY2qv3ta3kl+un5HjdloHjy7kkVtV1SLam4b7iVdxyBgbiBnnPXtVm2+FV/d5uL+8IuHmJkMp3Eg4O44J3EktnkdOvOa9bopuviXvUa9El+l/xKjlEH/EnKX4f8H8Tk7H4d6Da2fkTW5mYrtdhI8e75iecNnoQOSeB2ycyxfDzwrDKkq6SpZGDAPNIwyPUFsEex4rp6q3up6fpuz7dfW1r5mdnnyqm7HXGTz1H506Upw0pt6+bu/Xq/mdscHhqUdIJfL9WWqK4y/wDiXotvdSWtjHc6jOqnBt1Hl7gSMFiemcfMARg96yJfihcSJ5EOmQRXkh2xRiY3Db8gbSiqvJ6D5hyRSlCUXyvftu/Wy1t8jOrmWFpvlc9eyu/yPSqK84iuviGYklitbmZZFDYuDaxFR9MZB9QeRTG0Px5qwnluJre1WYeXJb3N2zBxjHCx5QAg4x35zWa9o9o/NuK/C9/w/wAzL+0akvgoT+aSX5/odrdeJtCs/OFxrFijw7vMj89S4I6jaDnPHTGa47Wvi3YWzNFo9q14204nlJjQHAwQuNzDJOQdvTg85rStvhppC26rdN5swzueKJEU88YUhiOPc1rQeDtDhgji+yF9ihdzSMC2B1IBA/IAVUa3Lr7K/rKy/CL/AEInLMqitGMY+r/yTPPLzxJ451yePTXjTRdw3O5U2uV3Dku53cEdF5IzwabongjSoZfO1C4m1do8rLaafA5QE5AJk4yMDtjn1AOfU4dC0mCIRpp1sVHQvGHP5nJNaFaPGYtx5afLTXkm397t+REcvrzlzVpJv5v/ACX4O/Y57StIubC2Fnp1tb6TYbi20HzZyd3JJOVyVHfdjgfTXsdPt9PiKQJ8zcySty8h5OWbuck/nVqiudU1zc8m5S7s9GlhoU2nu136ei2XySCiiitDoMTxl/yI3iD/ALBtz/6KatusTxl/yI3iD/sG3P8A6KatugAooooAKKKKACiiigAooooAKKKKACiiigAooooAKKKKACiiigAooooAKKKKACiiigAooooAKKKKACiiigAooooAKxNc/wCQx4Z/7CT/APpJcVt1ia5/yGPDP/YSf/0kuKANuiiigArg/ilb2txo1kJiEdLjfvCFmEYU7gCBxyUz9M9q7yqOqaTa6vbeTchhwQHQ4YAjDDPoRwR0NTKVSK5qTtL+r287bX0vucuOpVKuHlCnu/6/4bzOZ8GPpmo+HV1CS5aaG1XyStyuxbVUj2lepGNpyTnBGCeQauy/EPwrDK8TaspZGKkpDIwyPQhcEe44rFk+FNhJIzG7GNx2gQbcLkkA7WAJA4zjnFMPwytoHZIbOwuI+CHuJp1fOBnhGAAznHX60Up4aldSpz36cr+d73fq0jy6U8Xh6ahGjbu781/PR3+8sS/Frw9HK6LBqEiqxAdIkww9RlgcH3ANZtz8TNX1O4ZfDOgy3EMWPMeWF5W5HGVQ4XkN3Ofatq28IS2tusMei+GmRc4MsLyNyc8s2SfxNaVnY65p8RisrTQbaMtuKQxugJ6ZwO/A/Ktvr2GjrGjJ+pp7bFS0lzL0icWmpfFDVWkubW0a1j3bfJMMUQUgDoJfmI9+RnP0pkXw28QeIHe+8Rat5Fy33UYeeyjJJHDBVHcBSRz2rv8AyPEdx8kt5YWijnfbxNIxPph+Mf4UqabrIdS+vlkyNwW0jBI9jzij+1qq/hUbeaUb/i/0BUXN+/CpJebil9zkmc/pnwq0KxuLe4nlubySLBaOUr5TtjuoGcZ5xk+hz36qK10jQ0d4YLHT0lIDMiJEHIzgHGM9/wBaqp4eCurHVtWcAglWujg+xwM1Lb+HNHtt3l6fCd2M+YPM/LdnFc9TFYyt8S+9/ol/kdNKnVh/DpRj6v8AyX6oSTxFp4eSK3eS8mQAmO1jMhI45BHHf1/Wo3vdaujiz02O3QgMst7J1GOhRckHnv6VroixoqIoVFACqowAPQU6s3Sqy+KdvRW/O/6Gzo1p/HUt/hVvxd391jKfRBdljqV5PdBgQYVYxRfeyMKpzx7k1oQW0FqhS3gjhQnJWNAoJ9eKloq4UacHdLXv1+/c1p4elTfNFa993971CiiitTYKKKKACiiigArEtf8AkedV/wCwbZf+jbqtusS1/wCR51X/ALBtl/6NuqANuiiigAooooAKKKKAMTxl/wAiN4g/7Btz/wCimrbrE8Zf8iN4g/7Btz/6KatugAooooAx/Fdml/4T1W3kj8zNs7qucfOo3L/48Aa4L4dxxySzaJ/aT4hb7VNbonyzHhWUt/dHyAg9c/XHqU0KXEEkMq7o5FKMM4yCMGuIv/hpa3N0slveJGnG8TWqyuxB5+bIwMYHQ1lVdSdqT1hvZO2vS/deX3nj5hh6868KtOPMlur2v6+X9M0T438IaUxtE1OFfLCj9zG8inCgD5lBDcADqemO1Z9z8WPDsFw0caX1wgxiWKIBW47bmB9uRVT/AIVLp/8Az9/+Q2/+Lq1ZfDW1sN/k3Fs2/GfPsVm6em8nHXtW8a+GgrKjP/yRf+3EKvmOyo2Xly//ACRl33xVuLy4itfDekSzzPz/AKQhZjgEkBEOegBzn1471U/t34l6vd7bTTpbLamSn2RY0PPXdNnnkcA9unWuzs/B8VqzuLsQuRgPYWsVq2O4LKMkdOOnFXP+Ed/6jOr/APgV/wDWq/r3L/Cw/wD4E1f82vxDkxtTWaa9HFflf8zz5PAvi3xTeyS+Jb5rVY1/dlysoJOAQqIwVRgDJ4yccHkjasfhHo0KxNeXl5cyK2XClY0cZ6YwSBjg/Nn6V0//AAjv/UZ1f/wK/wDrUf8ACK6U/wA1zHNdTH7000zF29M4I7cfhUyzLHSVoQUV62X4JsqOEne7pXfeUv8AJP8AIkGneHtIuI7gWel2U3PlyCKONumDg4B6H9aV/EukLceQLwPISABEjPknoAVBB/CnweH9ItkKJp8BBOf3i7z+bZNX4YYreIRQxpHGvREUAD8BXI3ipu7aX3v/ACO2McV05Yr0b/8Akfv/AAMtdWvrnYbTRbnaW2u106w7enOOSRz6fnQLLVr2Ipf3yW68jbYAqT0IJdskdDwAPr2rXoo9g5fxJN/gvwt+LK+rOX8Wbl5bL8LP72yhaaNp9lcPcQWwE7HJkdi7Z5ycsSRnJz61foorWFOEFaCsvI3p0oU1y00kvLQKKKKssKKKKACiiigDEuv+R50r/sG3v/o21rbrEuv+R50r/sG3v/o21rboAKKKKACiiigAooooAxPBv/IjeH/+wbbf+ilrbrE8G/8AIjeH/wDsG23/AKKWtugAqlq2n/2ppk1l5vleZt+fbuxhgemR6VdoqZwjOLhLZ6EVKcakHCaumrP5nmHw7MOg65qenXLCOS6dFjXIbYyFwUYgnBySAeQSpGc4B7XVvFug6JcC31DUoopj1jUM7LwD8wUErwRjOM1k+JvAUOu6iuoWl62n3TZ8+QIZPN+UKvBYBcAEcetZ7fC22mQ/aL6N5SxYsltsB/Js5655weOBjnRzkmpVW5q3TSXbro/W6v2uePTWOwsPY04KaWzulp5q61+aLl78UvDNrs8mW5vN2c+RCRt+u/b19s9Kzbz4tWcsQi0fS7ye9kbZGkygDJ4HCkljnHy8Z9RVqz+GNnYymWK5gZiu3E1mJRj6OxGeOvWtSz8INZXcdxBdWcUiH78GlwxuAeDhgOMjIqvrVBbUJv1cf0kP2uYy+KDXpy//ACRyL+JviNqjR2trorWchbPmCzZAQAeC0pKgfkcgVj3g8X+IJ49O1XUC0JG4x27RyeYNwyNsPDMMbgGIxt6jPPq6+HLFthu3ub5o23I11Mz7enGOBjj0rUhhit4hFDGkca9ERQAPwFP67Xf8OnCHnbmf6JfiN4LFVVac7L1v+GiX3s8s0P4UyeaJNVkCorfcGCT07AkevJJ+leg2HhvR9NgjigsIP3bB1Z0DMGGDuBPQ5GeMc1q0VhJSnLnqycn3f6LRL5JHVh8uoUNUrvu9X/kvkgoooqjvCiiigAooooAKKKKACiiigArE8V/8geD/ALCVh/6Vw1t1ieK/+QPB/wBhKw/9K4aANuiiigAooooAKKKKACsTQ/8AkMeJv+wkn/pJb1t1iaH/AMhjxN/2Ek/9JLegDbooooAiuYFurWa3ckJKjIxXqARjivIbfTz4T8f2l9eowRGbzViXccMpTzFA5ZcsCcc9eM8V7HWH4m8M2/iSzRGlMF3CcwXABby/mUn5cgNnaOvTrUqMlVVSErOzT7NPo/zuvxPNx+DlWca1J+/Dbs/J/oT6v4k0fQdg1K/igd8bY+Wcg552qCccHnGKwrz4oeGLaIPFcz3bFsbIYGBA9fn2jH455rNHwsWTAutUimGzaSLPa7EYwS28nt+tPi+FNhDKkq3SlkYMA8BYZHqC+CPY8VpGtSgrVKcm/wC642/Fp/gYTxOYt6UbfNP/ANuX5DLn4v6QtuzWun30swxtSXYinnnLAsRx7GsiTxt4+vrIG10No1lUNHcW9hKxxwQV3FlII9jwa6z/AIQZP+eumf8Agng/wrWfw3bXDsb26vbxCS3lzTnYG9QFxjuPTmrWNiv4eH1/vNfo5fkTbH1d0184r8U5P8DyzVJ/H+oAaZeXLP5jMrRW8kO44BDBhFzjBOQfy4rR034USyzCW5umW2P3RLHskxt6lAx7npuB4/CvU7SwtLBNlrbxwggA7FwWx0yep/GrFKWKxNSPK2oLtBW/Hf5qxccq9o+bETb8rv8APf7rGJp/hLRNOtmgj0+GVX++ZkVt34YwPTgdq2Ioo4IkiijWONFCoiDAUDgADsKfRWMYRgrRR6dKhTpLlpxSXkFFFFUahRRRQAUUUUAFFFFABRRRQBieMv8AkRvEH/YNuf8A0U1bdYnjL/kRvEH/AGDbn/0U1bdABRRRQAUUUUAFFFFABRRRQAUUUUAFFFFABRRRQAUUUUAFFFFABRRRQAUUUUAFFFFABRRRQAUUUUAFFFFABRRRQAVia5/yGPDP/YSf/wBJLituqOp6TaavHCl2Jv3EvmxNDcSQuj7WXIZGB+6zDr3oAvUVif8ACKad/wA/Osf+Dm7/APjtH/CKad/z86x/4Obv/wCO0AbdFYn/AAimnf8APzrH/g5u/wD47R/wimnf8/Osf+Dm7/8AjtAG3RWJ/wAIpp3/AD86x/4Obv8A+O0f8Ipp3/PzrH/g5u//AI7QBt0Vif8ACKad/wA/Osf+Dm7/APjtH/CKad/z86x/4Obv/wCO0AbdFYn/AAimnf8APzrH/g5u/wD47R/wimnf8/Osf+Dm7/8AjtAG3RWJ/wAIpp3/AD86x/4Obv8A+O0f8Ipp3/PzrH/g5u//AI7QBt0Vif8ACKad/wA/Osf+Dm7/APjtH/CKad/z86x/4Obv/wCO0AbdFYn/AAimnf8APzrH/g5u/wD47R/wimnf8/Osf+Dm7/8AjtAG3RWJ/wAIpp3/AD86x/4Obv8A+O0f8Ipp3/PzrH/g5u//AI7QBt0Vif8ACKad/wA/Osf+Dm7/APjtH/CKad/z86x/4Obv/wCO0AbdFYn/AAimnf8APzrH/g5u/wD47R/wimnf8/Osf+Dm7/8AjtAG3WJa/wDI86r/ANg2y/8ARt1R/wAIpp3/AD86x/4Obv8A+O1a03Q7LSp557b7S006okklxdyzsVUsVGZGbABduB60AaNFFFABRRRQAUUUUAYnjL/kRvEH/YNuf/RTVt1Be2cGoWNxZXSeZb3ETRSpkjcjDBGRyOD2rL/4RTTv+fnWP/Bzd/8Ax2gDborE/wCEU07/AJ+dY/8ABzd//HaP+EU07/n51j/wc3f/AMdoA26KxP8AhFNO/wCfnWP/AAc3f/x2j/hFNO/5+dY/8HN3/wDHaANuisT/AIRTTv8An51j/wAHN3/8do/4RTTv+fnWP/Bzd/8Ax2gDborE/wCEU07/AJ+dY/8ABzd//HaP+EU07/n51j/wc3f/AMdoA26KxP8AhFNO/wCfnWP/AAc3f/x2j/hFNO/5+dY/8HN3/wDHaANuisT/AIRTTv8An51j/wAHN3/8do/4RTTv+fnWP/Bzd/8Ax2gDborE/wCEU07/AJ+dY/8ABzd//HaP+EU07/n51j/wc3f/AMdoA26KxP8AhFNO/wCfnWP/AAc3f/x2j/hFNO/5+dY/8HN3/wDHaANuisT/AIRTTv8An51j/wAHN3/8do/4RTTv+fnWP/Bzd/8Ax2gDborE/wCEU07/AJ+dY/8ABzd//HaP+EU07/n51j/wc3f/AMdoA26KxP8AhFNO/wCfnWP/AAc3f/x2j/hFNO/5+dY/8HN3/wDHaAC6/wCR50r/ALBt7/6Nta26y7Hw9p+n3wvYTeSXAiaJXub6efajFSwAkdgMlF6egrUoAKKKKACiiigAooooAxPBv/IjeH/+wbbf+ilrbrAh8HaTbQRwQSarFDGoRI01e7VUUDAAAl4AHapP+EU07/n51j/wc3f/AMdoA26KxP8AhFNO/wCfnWP/AAc3f/x2j/hFNO/5+dY/8HN3/wDHaANuisT/AIRTTv8An51j/wAHN3/8do/4RTTv+fnWP/Bzd/8Ax2gDborE/wCEU07/AJ+dY/8ABzd//HaP+EU07/n51j/wc3f/AMdoA26KxP8AhFNO/wCfnWP/AAc3f/x2j/hFNO/5+dY/8HN3/wDHaANuisT/AIRTTv8An51j/wAHN3/8do/4RTTv+fnWP/Bzd/8Ax2gDborE/wCEU07/AJ+dY/8ABzd//HaP+EU07/n51j/wc3f/AMdoA26KxP8AhFNO/wCfnWP/AAc3f/x2j/hFNO/5+dY/8HN3/wDHaANuisT/AIRTTv8An51j/wAHN3/8do/4RTTv+fnWP/Bzd/8Ax2gDborE/wCEU07/AJ+dY/8ABzd//HaP+EU07/n51j/wc3f/AMdoA26KxP8AhFNO/wCfnWP/AAc3f/x2j/hFNO/5+dY/8HN3/wDHaANusTxX/wAgeD/sJWH/AKVw0f8ACKad/wA/Osf+Dm7/APjtA8KaX5kTu+pS+VKkqrNqlzIm9GDKSrSEHDAHkdqANuiiigAooooAKKKKACsTQ/8AkMeJv+wkn/pJb1t1j3HhnTbm9uLstfxTXDB5fs+o3EKuwUKDtRwM7VUZx2oA2KKxP+EU07/n51j/AMHN3/8AHaP+EU07/n51j/wc3f8A8doA26KxP+EU07/n51j/AMHN3/8AHaP+EU07/n51j/wc3f8A8doA26KxP+EU07/n51j/AMHN3/8AHaP+EU07/n51j/wc3f8A8doA26KxP+EU07/n51j/AMHN3/8AHaP+EU07/n51j/wc3f8A8doA26KxP+EU07/n51j/AMHN3/8AHaP+EU07/n51j/wc3f8A8doA26KxP+EU07/n51j/AMHN3/8AHaP+EU07/n51j/wc3f8A8doA26KxP+EU07/n51j/AMHN3/8AHaP+EU07/n51j/wc3f8A8doA26KxP+EU07/n51j/AMHN3/8AHaP+EU07/n51j/wc3f8A8doA26KxP+EU07/n51j/AMHN3/8AHaP+EU07/n51j/wc3f8A8doA26KxP+EU07/n51j/AMHN3/8AHaP+EU07/n51j/wc3f8A8doA26KxP+EU07/n51j/AMHN3/8AHaP+EU07/n51j/wc3f8A8doAPGX/ACI3iD/sG3P/AKKatusCbwdpNzBJBPJqssMilHjfV7tldSMEEGXkEdq36ACiiigAooooAKKKKACiiigAooooAKKKKACiiigAooooAKKKKACiiigAooooAKKKKACiiigAooooAKKKKACiiigAooooAKKKKACiiigAooooAKKKKACiiigAooooAKKKKACiiigAooooAKKKKACiiigAooooAKKKKACiiigAooooAKKKKACiiigAooooAKKKKACiiigAooooAKKKKACiiigAooooAKKKKACiiigAooooAKKKKACiiigAooooAKKKKACiiigAooooAKKKKACiiigAooooAKKKKACiiigAooooAKKKKACiiigAooooAKKKKACiiigAooooAKKKKACiiigAooooAKKKKACiiigAooooAKKKKACiiigAooooAKKKKACiiigAooooAKKKKACiiigAooooAKKKKACiiigAooooAKKKKACiiigAooooAKKKKACiiigAooooAKKKKACiiigAooooAKKKKACiiigAooooAKKKKACiiigAoqrqGo2ul24nvJCkbOsa4RnLMxwAAoJJJrJtvG3h+7uJIIL5nkiuFtZR9nlAjmZtqo5K4Vi3GDjmgDoKKKKACiiigAooqjqms6doun3N/qN3Hb21soaZ252AnAyBzyeBQBeopsciTRJLGwZHUMrDoQehp1ABRUN3dwWFnNd3L7IIUMkj4J2qBknA56UzT7+11SwgvrGZZrWdA8Ui9GU9DQBZooooAKKa7pGAXZVBIUZOMk9BVHTtb07Vri9t7G6Waayl8m5QAgxv6HI9qANCiiszU/EWk6NJ5eoX0cLiIzMpBJSMEKXbAO1ckDccCgDTopqOkkayRsrIwBVlOQQe4p1ABRRRQAUUUUAFFFFABRRRQAUUUUAFFFZmp+INM0dyl9cNGwhadtsTvtjX7zttBwo7k0AadFZGleJ9H1uSJNPuzMZomniPkuqyRqQpZSwAYAsBx61r0AFFFFABRRRQAUVn3Wu6XZXthZ3F7Elxfu0dqmc+ayjLAY9P/rVoUAFFFUNU1rTtEjgk1G5W3SeZYI2ZSQ0jdFyBwT70AX6KKKACiioLq9t7KCWa4lCJFG0r9yEXqcDnAoAnoqrpupWer6dBqFhOs9pOu6OVc4YevNWqACis8a7pTa1/YyahbvqXlmQ2yuC6qMZJA6dR1pv/AAkGk/2l/Z/26P7T5vkbecebt3+Xu6b9vO3Occ4oA0qKKKACiiigAooooAKKKKACiiigAooooAKKpX+q2emNAt1I4edikSRxPIzkDJwqgnoM1n6X4y0DWntxp1/9oFxI0ULrDIEd1Usyhiu3IAJxntQBu0UUUAFFFFABRRWfqeu6Xo8Mc2oXsUEclwtsrMc5lb7q8d6ANCiiigAoqlqurWOh6dLqGpXAt7SLHmSspIXJwM4B7kVbjkSaJJY2DI6hlI7g9KAHUUUUAFFNaREKhmALZ2jPJ4zwO9UtI1rTtesjeaXdLc24doy6gjDDqOR1FAF+iis+513SrPVLXTLjULeO/ujiG2LjzH4J4XrjAPPSgDQorPudd0qz1S10y41C3jv7o4hti48x+CeF64wDz0rQoAKKKKACiiigAooooAKKKKACiiigAooqve3tvp1lLeXcoit4V3O5BOB+FAFiiudfx14djuLq3e+kWa0jEtzGbWYNChAIZxtyowQcn1roqACiiigAooooAKKgury2soJZrmdIo4YmmkLH7qKMs30FN07ULTVtOt9QsZ1ntbhBJFIucMp780AWaKKRiFUsc4AzwM0ALRVHSNZ0/XbAX2mXS3NsWZBIoIGQcEc+hq9QAUUU13SNC8jKiKMlmOAKAHUVnwa3p1zrNzpEV0rahbIsk0GCGRT0PIxg57VoUAFFUdW1rTNCsmvNVvrezt1/jmcKCfQep9hzVXW/FWh+HLKG81fUobSCc4iaTOX4zwByfyoA2KKhtLu3v7OG7tJknt5kDxyxtlXU8gg1NQAUUUUAFFFFABRRRQAUUUUAFFFFABRRRQAUUUUAFFFFABRRRQAUUUUAFFFFABRRRQAUUUUAFFFFABRRRQAUUUUAFFFFABRRRQAUUUUANaNHKFlDFDuXI6HGM/qa8t+FUaS+KPiGrqGH9vO2CM8h3IP5ivVCAQQRkGqNjoulaXNNNp+mWVpLOczPb26xtIeuWIAz+NAHA+F5tc8QeMvE0E3iC7hstI1ZRFbxqhDx4bMbMRnb06HPXrxjnNE8Za9cReC/O1eV5L3W7m1uQduZYlYYUjHb1HrXsdppWnWFxcXFnp9rbTXLbp5IYVRpW9WIGWP1qonhXw9Hdm6TQtMFwZvP837Im/zP7+cZ3e9AHkGseLfEdnc+I7mHW7pV03xFBawQEIU8pi2Vb5ckfjXWrrGqa7488RaVHrf9kSaPNaSW8bKCksBGZSwON27IGf4flxjJJ7OTwt4em87zdB0t/PlE0u6zjPmSDOHbjluTyeeTUtxoGj3epQalcaXZTX1uAIbiSBWkjx0wxGRjt6UAeXz+M9SHjTT4rXWhdQv4jk0+XYAsfklRiLYeSyd5BjJPBPbKvLu+s9B+KGox6ndG6tdS2ReY4cbQUAypBBGOMdMV7CfDOgNM0raJpplecXLObRMmUZxITj73J5680648OaHdvdPc6Lp0z3e37Q0lqjGbGMb8j5sYGM+lAHlGteNfEMFr4yv4rqSCTQY9M+xRAfI/mkeYzr/Huzj2HTB5pvi7xP4hh1rxettq95ZR6fpNtewQJtxHKxTcDlSccnivW30DR5JoZX0uyaSFVWNjAvyhTlQOOinkenam3HhzQ7ye4nudG06eW5UJPJLaozSqMYDEj5gMDg+goAztQupb74Z3V3MQZZ9HeVyBgbmhJP8AOvPdF12/ttD+HGgW04tbfU9PlLSmQx75Fj+RA4Bxyc4HU4HQkH142Fm2n/2e1pAbLy/K+zmMeXsxjbtxjGO1UrjwzoN1psOmz6Lp8ljC26K2a2Qxxn1VcYH4UAeZ6vq/imDxDpWk3eumOZtAuZ7t9PZTHJPGHw6ll4+6M4A5z0qxo/iHxFq+keBbi6u52sr22uG1BrNf38kiKRGcL823IGSoxkjdwa9Il8P6LPMk02kWEkscPkI72yFlixjYCRwuCRjpzXN+I/hzpGuy6XG2n2f9m6ekypYRhrZQ0hU7leLBX7pyuMHPtQBxlzF4jEnw2h8S6jeR6jc3k73aiVRtIU7PujGQp98EmsK61TU/D+p+MNU0zUJ4JY/E0ETRgKUlVtwIfIyePcV6/oXgrTdK0SLTLuGLUIYbl7iBLpPOFuSeFQvkjaO+c9TxnFPg07wXq0txDb2egXskz/aJ0jihkLsD99gAckbup9femk3qhOSTsx9u5Pjy7T/hJElAskP9i7VzD83+uzndz0xjv9K4r4kaNfabe654khktp7XUtEfSGtZHZZfOc4j8oBTvJJ+7x65r0tNNsY9QfUEs7db14xE1wsYEjIDkKW649qe9layXcd1JbxPcRgiOVkBZAeuD1H4UhmV4M0260jwVounXx/0q2s4o5RnO1goyufbp+FblFFABRRRQAUUUUAFFFFABRRRQAUUUUAFc/wCOI0HgTxLJtG86TcqWxzgRPgfqa6Cobq0tr62ktry3iuLeQbXimQOrD0IPBoA8/wDArGH4HWF3EdlxDpc7Ryr95D8x4P1A/KufXU/EqfBeXxjJ4lvJL59PUpGEQJG4mxvGFyTt4Oc9T7Y9ag0jTLXTm063060hsWBVraOBViIPUbQMYNJHo+mQ6W2lxadaR6eylDapCoiKnqNgGMH6UAebW3iXVpvFPie0GpStb23h6O7hUEfu5jGGLA49ecdOazfBvirxDLrvhX7Xqlzfpqmiz3M8EgTBkRm27dqjB4A716lbeF/D9mrrbaHpsIkh8h/LtUG+P+4eOV9jxT7fw7odnPbz22jadBNbKUgkitUVolOchSB8o5PA9TQB574W8Qanq3g7/hLZvFUVsTZXa3dvPEHSG4VmKMFzkBFA+UD5hjOSc1naP4q1bULjXrT+1Lh7c+GUv4pA43rNs5kXGSm7723PGR0PA9Si8NaFBPeTxaNp6S3qlbp1tkBmB6h+PmB7g9ada+HtEsZUltNH0+3kSIwK8VsiFYyclAQOFyTx0oA8k0XUL7TNJ+GJtbuecXiymaFyH3EQ5CjIyv4c81b8LeMdfvJ/AlzcXMlw3iF9QW/hI+VBG3yFB/BtAxx15zk816bF4Y0CD7N5Wh6ZH9lYvb7bSMeSx6lOPlJwOR6VPb6LpdrdvdW+nWsVw+7dIkKhjuOW5x3PJ9T1oA8Y8OeLfEktx4WubjW7mcXuuXNhNDIE2NEMY6KDkZ65rs/i/wD8i/ov/Yds/wD0I11kXhbw9D5PlaDpcfkSGaHbZxjy3OMsvHDcDkc8Crd/pWnarHHHqNha3iRuJEW4hWQKw6MAwOD70Aeey694h1bxv4j07T7+1s5dHmtGhhupTGjQEbpWYBTu3A4z/D8uMZyeW1jxb4js7nxHcw63dKum+IoLWCAhCnlMWyrfLkj8a9ln0HR7rVIdTn0uylv4ABFcvApkTHTDYyMdvSopPC3h6bzvN0HS38+UTS7rOM+ZIM4duOW5PJ55NAHB+Irrxlc6v4ntdLnuftcMtkmkLbY8lUY5l808gHGSd/IG0rwealzHM3xA8dxTahdyLbaHGI1eQYIMTEjGMYySeMc5NbWufCvT9c1vVNTuUie6vCvkXSySwvahYwg+VGCyEYyCcHnHQV16eHdKIje5sba7uVthavdXEKvLJHjBDMRkg85HTk0AeSfDTVdTsNT8E6UmoTSafqGjTSyW0gXYjI7YK4GR09TmvT/CLl9PvSfEia9i9lHnqqr5PI/c/KSPl9ff0xTbeLwZZ6lbx20egwX9sTBAsSwrLESSCigcryTwO5NbNlp1lpkUkVhZwWsckjSusMYQM7dWOOpPrTcWt0JST2Z59OAP2jbXAAz4bJOP+u7VwZh1H+yhFtk/tD/hZOffOzOfpjnPTHtXvH9iaUdTGp/2ZZf2gBj7V9nXzcem/Gf1p39laf8A2j/aH2G3+2/89/LG/pjr1zjj6cUhlyiiigAooooAKKKKACiiigAooooAKKKKAGmNDIshUF1BAbHIBxn+Qry34CRpJ8NVLqCVv5ip7g4AyPwJ/OvUpI0ljaORFdGGGVhkEe4qpp2j6XpEDwaZptnZQuctHbQLGrH1IUDNAHl/hG98Raz4M1XX7rxJel7Br+KO3VECvtT5CxxklTyO3A465Twp4q1nUfE/gq1uNTkli1DQ3uLuPj95ICwDHA4PHbHSvUrHSdN0u3e30/T7S0hkYs8dvCsasT1JAABNVLLwt4e06aOay0LTbeWLd5ckVqism7rggZGaAPIfDni3xJLceFrm41u5nF7rlzYTQyBNjRDGOig5Geua6vwtrWp+JNX1C+l10WLaXrU9rc6fIo2NbhQsa4OMHcCd/UncOgArtIvC3h6HyfK0HS4/IkM0O2zjHlucZZeOG4HI54FSjQdHXV21ddLshqTLta7EC+aRjH3sZ6cfSgDy/wAK+L9U1Lxl4ftf7aN7a6ja3n2iZAFSZo3bbIkZyYwMbecZwTjoTh6TqGoWXw30zUYtTuXurjxMsU3msJAymZs5DA8nGc9eOK9ptvDOg2ckElrommwSW7M8LRWqKY2b7xUgcE98daa/hfw/Irq+haYyvN9oYNaRkNL/AHzx97k89eaAPLz418RAHVfNl8//AITH+xvsWPk+zbPubcfez827rn24rP1jxb4js7nxHcw63dKum+IoLWCAhCnlMWyrfLkj8a9oGi6WNQ+3jTrX7Xu3ef5S792Nuc4644z1xxVeTwt4em87zdB0t/PlE0u6zjPmSDOHbjluTyeeTQBz/wAXv+SU6/8A9cV/9GLWFf63rl34oh8M6XexWMq+H0u7JpZPLWSfcBuJ2ncFAxt6feJzgY9KvdOstSs2s7+zt7q1bG6GeJXQ45GVIxVW88OaHqAtReaPYXAtP+PcS26N5Q9FyOBwOB6CgDyTxX4m8R2+reLUh1ya3XTtItryFLUqYxKxTdgspJU5P51uarq3im9uR9mmudsvhoXVklioLG+bGDIBkhew3fJjd3HHf3HhzQ7ye4nudG06eW5UJPJLaozSqMYDEj5gMDg+grmPEHw00rXtbS+urK2mt4rNLW2t1eS2+zhWY5BiI3D5h8pHG3g8mgDDhh1QfFXwtaatqV19pXQWlnUSjb5+4bwMDBBIx7gCuR8D6rqejp4Z+x6hMtvqHiG6tbi2IUxshxz0znnrmvZ9I8K2Gn6Xpdtdxxajc6dHshvLqIPKvrtY5K+nXoByahn0/wAF6TLbw3FnoFlJC/2iBJIoYyjE/fUEDBJXqPT2ppN6ITkkrsfoTltf19T4kTUws8eLJVUHT/lPyEg5OevOOnrmuV8dAD4tfDkgDJlvcn1/dpXoNtp1lZ3Nzc21nBDPdMHuJI4wrSkDALEdfxqK60TSr29ivbvTLKe7h/1U8turun+6xGR+FIZwfjoAfFr4ckAZMt7k+v7tK9KqjdaJpV7exXt3pllPdw/6qeW3V3T/AHWIyPwq9QAUUUUAFFFFABRRRQAUUUUAFFFFABTXjSVdrqGXIOCO4OR+op1FAHlfh5El/aB8bRyKGRrC2VlIyCDHFkVZln1zWPitrvh+38QXen2FvZQXEYhRGKuSuQCwPB5z/hkHvIdE0m21KTUYNLsor6UYkuUt0WV/qwGT09afHpWnRalJqUen2qX8q7ZLpYVErj0L4yRwO9AHjet+Mdes7TxEYtXmSS08TxWdv93KwsDlORyPrzxVjxt4j1+z8R+NIbLWru1g0zTILu2jj2YWQsgPJUnByeM16lc+FvD15dzXd1oWmz3ExUyyy2qOzlehJI5x/Sn3HhzQrua4mudF06aW5QJO8lqjNKoxgMSPmAwOD6CgDgJ/EOr674ntfD66u2kTXHh6O/tZ0UYkuWYEkg/eAAYbemNxOcDGZ408aappl/qX2DXkuJrGfTwqwKESISDDqwJPmF/vcZ2gdQeD6jd+G9Cv47SO70bT50s8C2WS2RhCPRQRwOBwPQUXXhvQr2a4mu9F06eW5CrO8tqjNKFxtDEjnGBjPoKAPOL17n/hY3jyQajdI1po0cluok+Vf3bNgAjGAecfnmsnTvF2vXemx27XkttHZ+DH1aKSJQnmXAOAxwMFVxjb065B4x7DPoOj3U7T3Gk2M0zQ/ZzJJbozGL+5kj7vt0qN/DWhPbQ2zaNYeRApSKL7MgVFPVQMYAPGR0NAHld14q8Q6nqOgKdSudPF/wCGZb+4jgCjMyoxDDcDtzgHjt+deg/DvVrzXPh/oupahL5t3PBmWTAG4gkZ478VsXOhaReXQurrSrGe4WIwiWW3RnEZBBTJGdpBPHTmprTT7LT7JbOytLe2tVBCwQxhEAPXCgYoA8S8N+IbvQfhxoEdvIIIb/xHJa3NwW2hIzIxI3YO3djG7sM49Rv6zqHinTNT8JaXda2qSXmqz200lm4ctBw0auWTG8A4Jx7816H/AMI1oI0qTSxounrp8jbntVtkEbN6lQMZ96d/wjuieXZp/Y+n7LLm1H2ZMQd/k4+X8KAPLdD8SeJ9Q8F6W5v5ZgPERsbyZcfaHtg3Rcck+pUbsAkdCag8UL4jTwej6vfX8aXHiiOK1SRwrGz3/u94ABB4zhvQE813niL4f6RrOmWmnW9hY21jDeC7mtIofJWdtjL96PBRvmB3D0weDTvD3gHStFsL+wkt47jTruVJF0+4LXEMO0AceYSSSRnPHbjigDzLxXPfaT428b3+m6pdW9zZaNayRzIVLOQU+8SDkfTGa9MtL2W91jwxczeJI7aS408yyaRsTN2zICXBzkbTzwO31q/qOmeEbR3fVLHQ4Wu4xEzXUUSmZFxhTuHzAYXjtxV2zsdEuTZahZWthL9mjaK0uIEQ+UnQqjDoOMYH0p8rte2guZXtfU5D43AH4R62SBkGDB9P38dX/FuoaXYeCxHey2EVxqFp9it2vJEjQl053M3RR94/TjJwK6fUNL0/Vrf7PqVha3sGc+XcwrIufowIqre+GdA1KOBL7Q9Nukt12wrPaRuI19FyOB9KQyp4Is9N0/wbpllpF9HfWVvF5SXUbBllZSQzAjjG7d0roKgs7O10+0jtLK2htraMYSGGMIijrwo4FT0AFFFFABRRRQAUUUUAFFFFABRRRQAUUUUAFFFFABRRRQAUUUUAFFFFABRRRQAUUUUAFFFFABRRRQAUUUUAFFFFABRRRQAVzviiytdQvfDlre20NzbvqTb4pow6Ni1uCMg8HkA/hXRVia5/yGPDP/YSf/0kuKAD/hDfC3/Qt6P/AOAMX/xNH/CG+Fv+hb0f/wAAYv8A4mtuigDE/wCEN8Lf9C3o/wD4Axf/ABNH/CG+Fv8AoW9H/wDAGL/4mtuigDE/4Q3wt/0Lej/+AMX/AMTR/wAIb4W/6FvR/wDwBi/+JrbooAxP+EN8Lf8AQt6P/wCAMX/xNH/CG+Fv+hb0f/wBi/8Aia26KAMT/hDfC3/Qt6P/AOAMX/xNH/CG+Fv+hb0f/wAAYv8A4mpv+En0D/oOaZ/4Fx/41U1bxno+kwQy+a16JTwLMrJtGM7mOQoHTqf5HDknFpS0v30MZ4ijBc0pJL1Jf+EN8Lf9C3o//gDF/wDE0f8ACG+Fv+hb0f8A8AYv/iazZPiJpEIiM0F5EJB1dUAU5Pyk7+uBn05HOeKyb/4r2EJuEtLUyMi/umd+GO3I4UEYzx17dqyhUjUdqfvf4U5eW6ujllmuDS0nf0u/yOo/4Q3wt/0Lej/+AMX/AMTR/wAIb4W/6FvR/wDwBi/+JrzS/wDipqNwAtvGYgVKvsIXP0yCQevOfTgYyakniTU/EmNO0rTrqe4Yht885uHi5Ayp2qEU5wxbI6dMZrdYXGS2pWXeTSX4Xf4HM84jJ2pQb9dL/dd/geg3Fj8PbVkWTS9ALOCQI7KOQ4GM/dU46iucvtc8A2uPK8LaTIclXD2kKlT9FVvf0qKx8Ba/4j1ZrjxW32aFFP8AqfKDysSTxsBUc8liMnge47Hw94D0bw3eteWvnz3BXaj3DKxjHfbgDBPTPXH1OVPDcvx1te0V/wC3O6/8lBPMa70ahH01/G/5f5nn9j4CbxS7alHZQWEYA8pktUtY3BG7KKqZIwfvHrxycVW8ReBF8MWMN9d3Ebo1wkagqJlDctlkZQCPlPHP0Ne4VleJdN/tfw1qNiIvNklgbyk3bcyAZTnI/iA68etOk5xml7SSj6r/ACt+FvKwVMpjyOXPJzXW/UxfD2ieFNc0S3vR4b0XzGQCULp8YUPgE4yOnOR7H1rU/wCEN8Lf9C3o/wD4Axf/ABNcV8J7t08yzbZtliaVcA5wjgfTq5/T3r1Cso3vKL6Nr1s2r/h9+h15diZYjDqct9U/k7GJ/wAIb4W/6FvR/wDwBi/+Jo/4Q3wt/wBC3o//AIAxf/E1t0VR3GJ/whvhb/oW9H/8AYv/AImoNHsrXTPFeqWOn20NpZixtJhb28YjjEjPcBm2jA3EIgJ6kKPQV0VYlr/yPOq/9g2y/wDRt1QBt0UUUAFFFFABRRRQBieMv+RG8Qf9g25/9FNR/wAIb4W/6FvR/wDwBi/+Jo8Zf8iN4g/7Btz/AOimrboAxP8AhDfC3/Qt6P8A+AMX/wATR/whvhb/AKFvR/8AwBi/+JrbooAxP+EN8Lf9C3o//gDF/wDE0f8ACG+Fv+hb0f8A8AYv/ia26KAMT/hDfC3/AELej/8AgDF/8TR/whvhb/oW9H/8AYv/AImtuigDE/4Q3wt/0Lej/wDgDF/8TR/whvhb/oW9H/8AAGL/AOJrbqgdc0gTyQHVbHzoyQ8f2hNykHBBGcjBoeibeyJlOMVeTsU/+EN8Lf8AQt6P/wCAMX/xNH/CG+Fv+hb0f/wBi/8AiasXXiDS7W1ln+2QzbFyI4ZFZ2PoBnr+nrislfHmmG2Eptb1XMmzySibgMff+9jHbrn2rCWJoR+KcV81/mc1TH4Wm7TqJfNF7/hDfC3/AELej/8AgDF/8TR/whvhb/oW9H/8AYv/AImufvvifp0Cq1nAtwoBMgkuFjYAdNoG7cevp2rNvfi5CsSfZLNC+75tzM2Fwe2F7471rGTn/Di5eif+Vl87GEs3wi2lf0T/AMrHZf8ACG+Fv+hb0f8A8AYv/iaq33h7wXpsQku9C0SJT0BsYyW6dAFyeo6V51dfEnV9ReS3topt8xVbdY3wyvkdAgBbPICknqOSRkpaeDPGWryQxXSPZWM5DSM0igIuD1jB3E4JABGecHHJrb6rin8SUF3k9fkle/3r9DnlmlWq+XDU7+b6fJf5o3NT1n4f2DbI/C+lzOH2nNlCoAwTu+6T6du9Ydr4fi8cXX2jTNB0y0gtMoXS3FtEzdeGUFi3Q88AehPPeaN8N9C0XU47+M3NzLFzGLl1ZUbswAUcjtnp16gEdfUOlCNmpyk//AV9y1/8m0Ljg8TX/wB5qado6fjv+J5J4m+HtjoOhTaiJjIkTL5gUFWAJAyuSQTkjg44zzxg7PgfTfCOtaDbxtomjzXkCBJS1hGGbHAY5BJOMZOevPQiu/lijnieKWNZI3Uq6OMhgeCCO4rx/wCHNte6X4xl0+7SWCWMlZIif9hj9CDhTnocA+lErxw7nzt2cdG3LSTUdL3as33t5X1MalJZfiISo35ZtRabb3dr3fr+Z6R/whvhb/oW9H/8AYv/AImj/hDfC3/Qt6P/AOAMX/xNbdFI90xP+EN8Lf8AQt6P/wCAMX/xNH/CG+Fv+hb0f/wBi/8Aia26KAOat9MsNH8ZWMGl2NtYw3Gn3TzR2sSxLIySW4UsFAyQHfBPTcfU10tYl1/yPOlf9g29/wDRtrW3QAUUUUAFFFFABRRRQBxnhPwn4cufBuhzz+H9Klmk0+B3kezjZnYxqSSSOST3rY/4Q3wt/wBC3o//AIAxf/E0eDf+RG8P/wDYNtv/AEUtbdAGJ/whvhb/AKFvR/8AwBi/+Jo/4Q3wt/0Lej/+AMX/AMTW3RQBif8ACG+Fv+hb0f8A8AYv/iaP+EN8Lf8AQt6P/wCAMX/xNbdFAGJ/whvhb/oW9H/8AYv/AImj/hDfC3/Qt6P/AOAMX/xNbdFAGJ/whvhb/oW9H/8AAGL/AOJo/wCEN8Lf9C3o/wD4Axf/ABNX7rVtNsZ1gu9QtLeZwCscsyozAnAIBOeoNV7jxHo9tt8zUITuzjyz5n57c4qKlSFJXqNL10MamIo0/jml6tIg/wCEN8Lf9C3o/wD4Axf/ABNH/CG+Fv8AoW9H/wDAGL/4ms1PiBp7LITYaghVcgFY8ucgYGH6855wMA98A1Lr4m6WIFexjE0hIys8yxALjrkbjnpxipVelL4ZJ+jv99r2OV5rg0r+0T9NfyN3/hDfC3/Qt6P/AOAMX/xNH/CG+Fv+hb0f/wAAYv8A4muW/wCFo/8AUPsf/Bl/9rqK8+LEMVuwhs4jcDbwJTIvUZ6KM8Z7iqU+ZqME232Tf/DersiP7YwfSV/k/wDI6uXwl4TgieWXw9oscaKWd3sogFA5JJ28CsPVV+H+m2TzLo2g3D7A0ax2cRViTgZcKQBnqew5xWJew+O/E1v5bWMkVpPIdpuGWHy1z/EgO75SMgkE4APJ5O4vwu0mV4JL6+1C6kTaXUuqRueM4ULlQcdjn371apzbXM1Ffe7ei0XzenZkPFYyvpQp8q7y3+S/r0ONnt9O8YzR2Gh+F7C2IO2ZrezjKK2cgvLsBVflONuCRkckgVvQ/CeEWGXe3S5CnEKFzHkfdG/IOOn8PHoa9KiijgiSKKNY40UKiIMBQOAAOwp9JxtpGUl/281/6Tb+upSyuNTXETc36tL5JWPHvh4vhe+MunajpemTTFg0DXVlE0mT95S+Pm56ZGe390V6N/whvhb/AKFvR/8AwBi/+JrzHxFbTaH8UZZbZPIW4IuYzkNuyMluc4/eK3Ht6V7TV1vdruN7ppSXezurPzTT/W7FllWpeeHqO/JbXyd/8vusYn/CG+Fv+hb0f/wBi/8AiaP+EN8Lf9C3o/8A4Axf/E1t0VJ6pif8Ib4W/wChb0f/AMAYv/iazta0DRtItLW90zSLCyu11CzRZ7a2SNwr3MaMAygHBVmUjuCR0NdZWJ4r/wCQPB/2ErD/ANK4aANuiiigAooooAKKKKACuTstA0bVdf8AEk+o6RYXky6giCS4tkkYL9ltzjLA8ZJ4966ysTQ/+Qx4m/7CSf8ApJb0AH/CG+Fv+hb0f/wBi/8AiaP+EN8Lf9C3o/8A4Axf/E1t0UAYn/CG+Fv+hb0f/wAAYv8A4mj/AIQ3wt/0Lej/APgDF/8AE1t0UAYn/CG+Fv8AoW9H/wDAGL/4mj/hDfC3/Qt6P/4Axf8AxNbdFAGJ/wAIb4W/6FvR/wDwBi/+Jo/4Q3wt/wBC3o//AIAxf/E1t1Wu9SsbBo1vL23t2lJEYmlVC5GM4yeeo/OgTairszf+EN8Lf9C3o/8A4Axf/E0f8Ib4W/6FvR//AABi/wDiamuPEmjWrIsmowFnBIEZ8w4GM/dzjqKz/wDhONK+3/Ztlz5X/P1sHl9M9M7/AG+719uaweKoJ2c4r5o5Z4/CwdpVIp+qLX/CG+Fv+hb0f/wBi/8AiaP+EN8Lf9C3o/8A4Axf/E1kS/ES0ETmLSdQeQKdiuYlBPYE7zge+D9Kzf8AhZWof9Cz/wCT6/8AxNWq9B7VYf8Agcf8zGWb4Fb1UdT/AMIb4W/6FvR//AGL/wCJo/4Q3wt/0Lej/wDgDF/8TXKH4ptGGM+kQRMn34zf/P0zwNmDx71VXXvGHiNLufR7W4e0dh5JXZDGF5+67YZiCMNg9R2BxVPmavTXN+X/AIF8PW++q1VyHm1B6UU5vsk/1sb1/afD3TYJpJ9L0BjEzI0cVpC7hlBJXAHB4PWuG1DUdE1gppOjeD9IF7cqUzb2sbsG4PDbVAGN2W6gc8EZHSWHwwS/sEm1+9uVvX5aG1ZAkY7Lyp3EZPPvjnqe/sbG202yis7OFYbeJdqIvQD+p7k9Sa09mlZzlr2W3/gVrv5Wv6byqeNxP8SXs49lv9/T5WPOrH4SwC3Iumt7dwx2pbl5Fx65O3BznjH41k+C9J0KLxXqOlana6febSYR9tt1kYSI2BsYjG05bsDkL+PsdeTfEqwuLbxfp2pxW2y3nRIXnVRhpNzAhvfYRjPYcdOHTjPkmozezaTk2tNbe83b1WvrsYYrCRwUViaF7x3u27+t72O+/wCEN8Lf9C3o/wD4Axf/ABNH/CG+Fv8AoW9H/wDAGL/4mtHTZnuNKs5pW3SSQI7HGMkqCatVlGSlFSXU9uE1OKkupif8Ib4W/wChb0f/AMAYv/iaP+EN8Lf9C3o//gDF/wDE1t0VRRyHibwzoOneFNYvrHRNNtby2sZpoLiC0jSSKRUJVlYDKsCAQRyCK6+sTxl/yI3iD/sG3P8A6KatugAooooAKKKKACiiigAooooAKKKKACiiigAooooAKKKKACiiigAooooAKKKKACiiigAooooAKKKKACiiigAooooAKxNc/wCQx4Z/7CT/APpJcVt1ia5/yGPDP/YSf/0kuKANuiivP9e8ba3a+L5tF0uxtXjhEYZ5Ud2ZmUNwFI/vAAc9Ovo7Llcm7JK7bOfE4mnhoc9R6Hc3V5b2MBmupkijHdjjJxnA9Tx0Fc1q/j/StKRDzIXUPHuJUSLkrkYBPUHqAODz0zzT+FPF3iG3t5bq+W1hkbewuZXadAWyTtA2qSMHaCMcDjoLuk/CPTLW4MmpXst+g+7EqeSvQ53YJJ7EYI6d6KdFzu60+RdEtZffrFemvr0POdbH13+7hyR7u1/Xr91n+hVvPinCLgRxy5t5I93m21uTJExH3SJCAxBwCcYI6YPTJi8beMNWspTY2d7MhBj823gDhWx6qnBGQa9Cs/AnhixlMsWjwMxXbiYtKMfRyRnjr1rfiijgiSKKNY40UKiIMBQOAAOwq3Swcdoyk/OTX4RaQLLsRN3q1X8m/wDgfkeU/Y/iX/z7y/8Agcv/AMcq9Z+CPEGsYvNdurSC5UARh4zcSKATwTvAHqME9e1el0VlKnRasqaXpf8AVmiybDfau12bONi+HdoIkEurag8gUb2QRKCe5A2HA9sn61LY/DrRrO6M8k19eKST5NxMPLyTnJVQAe/ByDk5FdbRShTpwvyQSv2SX5I6IZbhIO8aa+452z8CeGLGUyxaPAzFduJi0ox9HJGeOvWtCLw7okEqSxaNp8ciMGR0tUBUjkEHHBrSorZ1akt5P7zpjRpx2il8gooorM0Ciqt7qen6bs+3X1ta+ZnZ58qpux1xk89R+dcX4k+JthYw+RoTR398ZNnKN5aYPJzxvz0G04756A606FSo/dX+RjVxFKim5ysd9XPar410XTJZrb7UtxeRqSYIeduDg7m+6uMHOTkeh4B84ju/G3i/UjPDc3Vmu0L5dq7RIgwe27qSDyxye3YV2ekfDTRrPTmt79GvHkIZjvZAMdvlIzz6+3AqJukvchLmflql89m12XXe255yx1bFXjhI/wDbz2X+b8tfM5TQJ/Ec3ju31Oz0u4Szu3IkdrZliaJ23uwJ4H94HOTgdc4PsFMiijgiSKKNY40UKiIMBQOAAOwp9OTjyxhBWSVvN+b8zsweFWGp8ilcKKKKg6wrEtf+R51X/sG2X/o26rbrEtf+R51X/sG2X/o26oA26KKKACiiigAooooAxPGX/IjeIP8AsG3P/opq26xPGX/IjeIP+wbc/wDopq26ACiuO8eeLr3wumnpYW0M012z8yhiAF28AAgkksO/bpzxiW2n+Oddi/tFtQNrLJtaJDO0UKoSTtCJkt6ZbnBGCcZqpwcYxk95bL8L+SXV/dd6HDXx0adT2UIuUuyO6vde02wR2luQxQlSsQ3kNz8pxwCcHrjofQ1y198UtJgwIFMm4HPdlPrgcH6bh0OccE0bP4UF7m1m1jWHukQAy26RlQTjlQ+7OMjk4BI9DyOktvAHha1uFmj0iJnXOBLI8i8jHKsSD+IoVGN/3tR+kV+sv0SOa2Y1tW1Bfe/v1/Q4o/ErXdVIg0nT3knU73WC3LNs6erYGSO1SyTfEfVYYbiGxuIUAb5XmSFjzjlcow6d/WvTbOxs9PiMVlaQW0ZbcUhjCAnpnA78D8qsUnTw6ekG/wDFKT/BNL8BrK5SX76rJ/Npfdt+B5Va+EvGetXYbVriOwjQYMruJ3Yc4AG49D6kfe71tQ/DOF4Auoa1ezSK+5Xt0SEAYx0wxzye/fpXd0VPJRTvCnFP/Cr/AHu7/EunlGDhq4Xfd7nFJ8MdIDqZNR1aaMEbopLkbXHcHCg4PTgitb/hCPDP2/7b/Y1t5v8AdwfL6Y/1edn6deetb9FaKrOPwu3pp+R1QweHp/DBfcZqeHdEjWRU0bT1WRdrgWqAMMg4PHIyAfqBV+KKOCJIoo1jjRQqIgwFA4AA7Cn0UnKT3ZuoxjsgooqveX1np8QlvbuC2jLbQ80gQE9cZPfg/lSSb0Q20ldliiuO1z4j6JpaNHZSjUrwMqrDATtOec+Zgr09MnPHrjizqfjnxjeQ/ZjLZRxrgi0ZoV5PVvmznjjJA44686+yUFzVZKKe1936Ld/I4K+ZUKT5E+aT6LU9J1nxdomhSGC8vAbrBxbQgySE4BAwPuk5GN2M5ry7ULzxBrXiEahotjP9p+0qxmtUZkjkChAhY/LwuA2cA55AGRXa6H8N7OzMtxq8rX93Nku+9gQxzlg2Q2T+HU9eDXYWNjbabZRWdnCsNvEu1EXoB/U9yepNRGVNVFNJtR79X3a7Louu7taxzzw+Ixsoyre5FapLe/Rv+vVFiiiioPYCiiigDEuv+R50r/sG3v8A6Nta26xLr/kedK/7Bt7/AOjbWtugAooooAKKKKACiiigDE8G/wDIjeH/APsG23/opa26xPBv/IjeH/8AsG23/opaq+OPElx4X0FL21gilmknWFfNztXILEkDBPC46jr7Yq6cHUkox3ZFSpGnBzlsjpaqXmqWGnqxvLyCDahch3AO0d8dT0NefQS+M/FDw3EUqWZjjJwjyQ25ySOoyXbI9wAD0JBJD8Lb66ZJdS10IzcTQ2sR2lMn5QxI7HqVOM96yheo7wklHu7669Et156Ltfc8z6/Xr64anePd6L5I6i88c6HZqjGd5FY4yqbQD/wLH6elYOofEaS4v7e10GGOUyKxIeFp3ZhzgLG3GBznnPPTHOtF8NfCscSI2nNIyqAXe4kyx9ThgMn2AFdFZaZp+m7/ALDY21r5mN/kRKm7HTOBz1P501Ttq6jfpFL83L8R+wx9T+JVUV/dX+dzz+C78f3rSzR/bBGXO0C2ggC99oWYbiBxzk59cg0kmk+OfETRWuqxxWtsOZWllR43GRkeWn3jkBhnpjqM8+l0UcsXrLX52/CNl+FuxX9lxkrVKk5estPuRwdr8MoVSeO71edopBhY7WFIlUYwfvb+vtjv606T4V6PMu2XUtXdQc4adCM/98V3VFVTfs3eCSfkl/V/M1hlmEh8NNHMP8PPCrrGp0lQEXaMTSAkZJ5Ibk89TzjA6AVpf8IxoH/QD0z/AMBI/wDCtWitHWqPeT+86VQpR2ivuIra1t7O3W3tYIoIUztjiQKoycnAHHU1LRRWTdzVK2iCimSyxwRPLLIscaKWd3OAoHJJPYVh3vjTw/ZJkajHdSFWZYrP9+xx2+XIGcgDcQKai2rozqVYU1ebS9TfrP1bW9M0O3E2pXkVuh+6GOWbkA7VHJxkZwOK8xu/FfjLxNG9pYWf2KN2LhrYP5yoDwCQc+mSFGfocVb0j4d6nqs8d94lvpZSFAVZZGkfbnOOTwOT16HOQapuhHefM+0dX9+y+bPNeae1fLhYuT/D+vmiv4q1i+8UyNPpGm3U1vbq0Nu8UTM778bpCByo+Qbe/c9cD0bw3Pqdz4dsptYi8q/ZMyrt2nqcEjsSMEjjBJ4HSp9N0aw0gSixtxEZW3OxZmJ9BliTgZOB0GT6mr1RHSLuldu9/K1kv63etlsbYPCVKU5Vqsrylvbby+5fqFFFFB6AVieK/wDkDwf9hKw/9K4a26xPFf8AyB4P+wlYf+lcNAG3RRRQAUUUUAFFFFABWJof/IY8Tf8AYST/ANJLetusTQ/+Qx4m/wCwkn/pJb0AbdFVdTvf7N0m8vvL8z7NA82zON21ScZ7dK8zsvEfjDxaiw2scUBBVmFtmIbCw+Z3JJA4OApyfm4YU3FqHN8vV/1v0RyYnGQw7UbNyeyXU9RnuYLVA9xPHChOA0jhQT6c1knxdoW+RPt4LRsUbEbnBHvj9e45rjD8OfEGpzyzatr0MTllZDAryknbtPLFSOMdz1PSt61+Gvh2O1iS9t5L25C/vLiSaRTIfXAbAHYD0xyetJ0521ml6Jy/WK+5/ecyq5hUfuQjFf3rv8rFTVPiKqWDNp9mYbksAragVWPHf7jEk8dOOue2DQ+3fETUr0JGBYgR5xFaDYcHnLS9+RwD0B44NdxY+HtG01ons9Ls4ZIl2pKsK7wMY+9jJOOpzk1pVK9qtpL/AMBX4czl+Nw+p4uprVrW/wAKt+dzzSe18f6jb/YbqCV7a5GyfzZ4IwoJGfmj+Yr1yMcjt1Bms/hfIFjF5rAWJ49s8FpbBNxwc4Yk9z12jIHQdvRaKq0e1/XX8HdL5JbLsUsqoN81W83/AHm2cJL8KdGnx5uo6tJjpvnQ4/8AHK0bb4deGYNMWxksPtADmQzSuRKx92XBxjsOO+M811VFbLEVVFRUrJdtPyOmGCw8PhgjIi8KeHoYkiXRNPKooUF7ZGOB6kjJPueav29jZ2ks0ttaQQyTtumeOMKZDycsR1PJ6+pqxRWbnKW7NlThHZBRRRUlhRWJceL/AA9bIrNq9rLubaFt385s4J+6mTjjrjFcLqfjnxJrry2Wh6Y1pDLmNZGybjGeWGPu/L6Akc4PpfKov95JR9Xb89/kcWIzDD0Pilr26npeoanZaTaNdX91Fbwj+KRsZOCcAdScA8Dk15v4q8SReKJbW00y3lubKCUTK6RMZLiUK2FjTrgAkkkckegJMem/D/W9Zlgl8S39zJAnISadnYA9QuSSDwuc4x6HGK9D0vw/pmjtvs7YJL5YiMhJJ2jsOwzxnGM4HoMZ1HCa5KTeujltp/dvrfzei3V91xVHicfH2cVyQe7e7Xkv1+65kfD1dZXwxt1pJ0lE7CFZ12uIsDAx1AzuwD2xjjFdVRRVzkpSbSt5I9alTVOCgnsFFFFSaGJ4y/5EbxB/2Dbn/wBFNW3WJ4y/5EbxB/2Dbn/0U1bdABRRRQAUUUUAFFFFABRRRQAUUUUAFFFFABRRRQAUUUUAFFFFABRRRQAUUUUAFFFFABRRRQAUUUUAFFFFABRRRQAVia5/yGPDP/YSf/0kuK26xNc/5DHhn/sJP/6SXFAG3Xk3xa/d30LLwZIY0f3AaQgfnXrNcN8SdFt7vR31GV2UwhUdiRtRcnBx1J3MBx61Ep8k4TtdKSbS10T7dbb/ACPLziEpYVuKvZpv0R20Usc8SSxSLJG6hkdDkMDyCD3FPrjfAeoWVh4TtLC6vIIriAyb1d9o5kYjBPXgg8fjW9deI9Hs0V5b+FgzBB5RMpyfULkge54pOvQbfJNNd7o6aWOoTpKo5rVd0alFeb3vxIupxPaWdjHaXDt5cDvMJpeThSIlXljnpk8+o6x/2B4s8SLDBrF1c/YyodjIUhjcEqcGNPmLDqAwGCvUZqueG619Ff7npH/ybz21OZ5rTm7YeLm/Jafe9DvLnXdIs7hre61WxgmTG6OW4RWGRkZBOehp9nrGmahKYrLUrO5kC7ikM6uQOmcA9OR+dcR/wqXT/wDn7/8AIbf/ABdc3rXhK98Kana3enTtBLuJguEJ2ZH8LZzhipJxyCARzzT9vQ2nGcfNqNl68sm0jGrmOJo+/WotR73Tt9zZ7RRVLS9UtdYsVurViVJ2ujcNG3dWHY8/QggjIINXae+qPYjKM4qUXdM8nuvHXiDW9Wuv7EYW2lWbHfPHCGLISFUsXHBJ6AAEZOc4JrU+1fEdflGnM4HAZp7YE+5Ark/EWkv4b8dSrFHLb6fekmIjhHDAEoAvGA+Pl7YU+hr2q1uoL22S5tpVlhf7rqeOuD+IOQR2IrTGRpvEKNvc5Ytatatyvdxabei9DwKFOpicRUp1qkk420Umurv8tv6Z55LH8Qbt0mlspY3t/njVL6NBIcjghOG9cNxgH1wT+zfHer3e67SWy2pgP/aXloeem2HPPJ5I7delek0Vj7Oktk//AAOp/wDJnb/ZVN71Jv8A7eZwFj8OftFxLda7Mss0nB2SNMzYACkvIM9MjGPTntXQad4N0TTR+7tBIdxb97gjkY+6AFP4it+iolQpyd5K/q2/zbNaeWYWDvyXfd6/mNRFjRURQqKAFVRgAegp1FFanelYKKKKACiiigArEtf+R51X/sG2X/o26rbrEtf+R51X/sG2X/o26oA26KKKACiiigAooooAxPGX/IjeIP8AsG3P/opq26xPGX/IjeIP+wbc/wDopq26AON+JEUY8Px3flr9ogkYxSEcrlGzj2OBx7D0qb4ayxyeBLBUkVmjaVXAOSp8xjg+hwQfoRWv4h0lNZ0iW3YMzKC8aggBm2kAHPY5rgPhbcWOnS6p5l5HHHcLE8RlYKcAuCDnuCfx7d8TCcYKp7R2+Gz6ddL9N20vXzPFlL2GZc89FNWT9P6/E9Uoqne6tp+m2P228vIYbYjKyM4w3BOF/vEgHAGSe1cZffE4R3bx2GiXFxAgJM88nkA4J5AKnjGDzg+wxVpaXbSXdtJfez0a+MoUFepJI7+qt7qen6bs+3X1ta+ZnZ58qpux1xk89R+decwp8QPEEBkN+YLK4dSptlSLCEg5Vjh9oBHIJyM9ehsQ/CSyWFBLe5kx8x2E8/UMM/kKXtKS7y/wr9ZOK+65yf2hVqK+HouXm7L87XO2i8RaJPKkUWs6fJI7BURLpCWJ4AAzya0q8k8R/Dq30bSnvYRJcRRgmUxKQ8ajndgk5HY+mc9Mkd54V1u11HS7a1F00t3DboJDKfmlwoBkHJyCe/uM9RUutSbUUpRb6SS1tro02vxuPDY+Uq3sK8OSXTz9N0b9edeMPGGsr4jXw94eURXUQ3yzSbPm+Tfgb/lCheSTzkdsc+i15P8AFHSbey1zTdajjlX7RJtuX5KApt2/Qlc8d9vTrXXheXnd1d2dl52NMynUhh3Kn03728i7Z3vxAmsori3DX6yAkyZt41BBIwAQD+fpVSW1+JckruLWRQzE4F6ox+UgH5AV6B4cv7a+0WBbeTebdEgl+Uja4RSRz14I5HFa1cNGNOcFOrFSbSd3e2uuiTsvktjko5bCvSjOdWUrpP4tPkeV22m/Eie4WOT/AEdDnMst6Sq8d9rk+3ArTt/BGt6lex/8JLe2lxaRq20Rs8jgnHA3jCjgEnnpjHceg0VcqVF/DBL0v/mbRyjDL4rv1Zz+meDdJ01ACj3TKfla42nAxjG1QFx9R/St5EWNFRFCooAVVGAB6CnUUoUqcG3CKV+yS/I7qOHo0ValFL0QUUUVZsFFFFABRRRQBiXX/I86V/2Db3/0ba1t1iXX/I86V/2Db3/0ba1t0AFFFFABRRRQAUUUUAYng3/kRvD/AP2Dbb/0UtJ4wRZPC92rDIBjb8RIpH6il8G/8iN4f/7Btt/6KWreu2L6jot1axH946gqPUgggfjjH41hiVJ0ZqG9nb1sc2NhKeGqRhu4u33HIfCS4Wbw7fK0qtP9taR1BGQGRMEjsCQfyPpXf15T4AspbDx7fNMqxia2lCqFCYbzEJTb2IweB2Htx6jc3VvZ27XF1PFBCmN0krhVGTgZJ46muupVpV5KpQd4u3y8vl2OfK60amFi1stP67EtFcLqPxNs0miTRbGXVEYHfLkwoh9MsvJ/Lt1zxkx6n428RCe6sZJY7GbISG0WIbUII+WZ8ZYEHJU8H0yMTJKDtN2fbd/crtfOy8wqZnQjLkhecu0Vc9IvL6z0+IS3t3BbRltoeaQICeuMnvwfyql/wk+gf9BzTP8AwLj/AMa5C2+GPmOtxe3UHnSOXuV2NOX57SOQckdyvU98cv1n4a6aljLPZh2aJC5hKAl8dl2AHOM8c5OOlZuqoq7hJry5b/ddr8fx0MpYvGqLmqGi6XVz0GiuD+HWuRNYnR5r8zyRyMLRnxzGAP3YPcrgnH90jHAOO8qrxesXdfd+HR910O7DYiGIpKrDr+HkcR488Y3mgy2ul6TEsmo3Sk8oXKA/Ku1ehYtnHX7vIOaxLGf4kXTXAa7bdbuEdI47YknuAx+XI+px399H4raC1/o8OqW1u0lxaMRKUAz5JBJJ7kKQPoGY+pGv4J1myvtO+yJL/pq5nlD8NKrHIk9T2BJ5BHPUZ3rVOWnThSS1vd2TeltNdr37bJ211PMr+0qY32EpuKaurO23T1/yZgSyfEd7eSD7DIwZWUSG4t0bB7/LjB+hB9+9UpbD4lRyuixtIqsQHS94YeozIDg+4Br1aisFCj1gn6uT/OWnyN5ZTTl8U5v1lc8wXwD4svL/AMy/1uzVHJ3yIGlcccYDKM9hy3Sukg+H2kxy77i4v7pdpASSYIAeOf3YUk8dzjk11dFS6dG/MqcU/KKT++1y6eVYOD5uRN+eoyGGK3iEUMaRxr0RFAA/AU+iimkkrI9BJJWQUUUUxhRRRQAVieK/+QPB/wBhKw/9K4a26xPFf/IHg/7CVh/6Vw0AbdFFFABRRRQAUUUUAFYmh/8AIY8Tf9hJP/SS3rbrE0P/AJDHib/sJJ/6SW9AGxLFHPE8UsayRupV0cZDA8EEdxXk/wAPZY4fH9zA0ioBYGKFScE4KNgepwGP0B9K9brxzVtFn03x9oebcJEl5EqsANzp53yu5HUnOOg4UCilKKxMYzdlKMkv8Ts1+CaXrbqePmTcMRRq20V183a36nsdFFchrHxD0uxYwaaj6rdAgFbc/ulzj70nI6E9M8gg4pqLab6L7vm+h6davTox5qkrI6+mSyxwRPLLIscaKWd3OAoHJJPYV5uvirxP4lvCmjQ/ZBbJmaCAxzMSSR80jgIvThev3vwIPAmta27X2t3EENw4AC3AN045bI4ZVQc5AXjnt0pPrbX8vx39Y3Rw/wBoup/u1Nz89l97O2/4SfQP+g5pn/gXH/jWhbXVveW63FrPFPC+dskThlODg4I46iuLn+GWmtYhImT7TtwzNEoRjjnAHK5Puce9YngvUYvCN9eWGqi4tI7mVAI5CCls/wAwJY54VvlAcDBAGTgZpRqQleLi4vS17NPy01v8vLdoiOPrU6sYYmHKpbO+l+x6pWB4x8Sf8IvoLXywedNI4hhU/dDkE5bvgBT069OM5G/WB400aHW/C95BJFLJLCjT24izu81VO0Ad85Ix7+uDW1Hk9pHn2uejX5/ZS5N7HA6bqvxD1G5hhTUFUywrOuIoGOxhkE4Hy8Y4Yg8j1rZ/4uHH/wA/UrL/ANeaq5/mAfzqr8K9StLe2+xSS4uLk7YkCk5K72IJAwOOecZr06sqkp1ak+fRJySSVtE2r331t3t2PGwWHliqXtZVpLVqyltZ29b9fmeY2UXxBsN/k6fctvxnz9Rjm6em8nHXtUv/AAjfjy7tNtxqNiElTEkMtzM3BHKtgEH0PJFek0VLp0W7uF/Vyf5yZ1LKaNrSlJrzkzkLb4eaenkteX99dFB86b1iR2xjPyAMBnnG706109lYWunW4gs4EhjGMhRyxAAyT1JwByeeKsUURhCHwRS9El+R2UMJQofwoJeiCiiiqOgKKKKACiiigDE8Zf8AIjeIP+wbc/8Aopq26xPGX/IjeIP+wbc/+imrboAKKKKACiiigAooooAKKKKACiiigAooooAKKKKACiiigAooooAKKKKACiiigAooooAKKKKACiiigAooooAKKKKACsTXP+Qx4Z/7CT/+klxW3WJrn/IY8M/9hJ//AEkuKANuqup6fb6tplxYXS7oZ0KNwCRnoRkEZB5B7ECrVFNNp3Qmk1ZnkSfCvxBFcCKPWLZLQPgMryBgmeuzGM45xnr371v6b8LrWGVm1bVbrUYu0PMSHr97DEnsRgjp3rvqK2niJSd7JPvZX9b7nBDK8LGXNyXfmV7GxttNsorOzhWG3iXaiL0A/qe5PUmrFFFYttu7O9JJWQVT1bT11XSbqxdgvnxMiuV3bGx8rAeoOCPcVcooTs7hKKkmnszx/wAGa/c+HNVudGu5hJHBO0Uo5KgKdpZTjPBHpyMD0x7BXlXxP8Py2d/D4ossfeRZ1KF9rj7rnOV24CqQcDIHXca6b4e67/a2hJBK37+EcAnquccck8HI9htor01SmqsX7lR7fyytdr0er+/ueJgpywmIeFm9HrH/AC+e/k0+5t+IdEh8Q6PLYTOYmYh4plUFonByGGfyOMHBIyM1wnhjxJJ4Z1U6RrvmW0FxjaZCAlvN/GPZGyDuzjPPRia9PriviPoMGpaKb0sEngKqGZ8AgnCj67m/In2qXNQcZT+FXv6Pe3o0n6JrqdGYU5U2sXS+KG/nHr92/wDSO1orkfAHiOPV9Cgs7m+M2rWyH7QkgIcAOQpOR83G3J55Izya66tKkHTk4s9ClVjVgpx2YUUUVBoFFUNU1rTtFhWTULuOAOcIpyXc5A+VRkt1HQHGa43UPib9nEhj0wRRniKS4nG/OByY1ByATyA2cDtSckmk3q9l1fot38jkxGOw+HaVWVm+m7+5HfSyxwRPLLIscaKWd3OAoHJJPYVgXnjvwxYyiKXWIGYruzCGlGPqgIzx061x1j4W1rxhBBf6xqdzLZSSrII5JDGJEAA3rGFwuQSB0z16HNX/APhVVjD+8jeG4YdIphIiN9Sr5HrVqrRg/fjN+iS/9Kafytfo1c45Y7FTXNRou3d/5XT+652+lavYa3ZC8065W4gLFdwBBBHUEHkH69iD3q7Xkeh3w+Hur32nz2csstw0WVeQKWQFhvjOMPndwCQflIOD09aR1kRXRgyMAVZTkEeopTcOb3L289H9367PodWCxixEbPSa3XYdWJa/8jzqv/YNsv8A0bdVt1iWv/I86r/2DbL/ANG3VI7TbooooAKKKKACiiigDE8Zf8iN4g/7Btz/AOimrbrE8Zf8iN4g/wCwbc/+imrboAK8s1L4Xalb6s8/h3UY7a1Yh0WSZ0eNs9AVByB2J5/LJ9TorWlWlTvbZ99Uc+Iw1PEJKotjz2z+G14fLOoeIHZCv72O3t1U5I6K5z0Pfb+Vdppej2GjRPFYwmNZG3MWkZyT9WJOPbp19avUVgoU18MVH0SX5JEYfAYbDu9KCTCiiiqOsK8YvJrjwH8Q5hGdtlcP50aJtRPLdumOQACCvb7oOOBXs9cX8R/DMOs6DJqEYijvbFGl8xgcvEoJZMj8xnPPHGSa3oqE70qm0tPR9H8mefmWHdWjeHxR1R1tndRX1nFdQnMcqhhyMj2OO46GpJYo54niljWSN1KujjIYHggjuK8/+F+vm709tOuHJdCTGWPUjqBk+mD0/vGvQ65ablrGfxRdn6r+rryNcFiViaCm99n6rf8ArseVpef8K/8AGJjkklbSZwkNxJJDlzhSUfPBbGSCRkcNxnAHp9rcw3lpDdW774ZkWSNsEZUjIODz0NYPjTw+Nf0OSNP9fCCycEk8cgAd8gEfTHeud+GOuosE+gX93K1/FKWgWZiQ0QVQFQn02k444OR3xpRipU3D7Ufxj/8AavT0scWFk8JXeFl8L1j6dvk9Pu7notFFFI9gKKKr319babZS3l5MsNvEu53boB/U9gOpNNJt2Qm0ldliiuAv/ijb29062+lyyWyZBmnl8ksefuptJwQMgnGenBrLt9P1z4hJLdz38sGnlljVVLR28oBySsfVsN1JPJ6HjCmi1d7eSv8A8C/le/3M86eZ0m+SgnOXl/nsdpe+N/DNhs87WbZt+ceQTN09dgOOveruj+INL1+KWXS7xbhYmCuApUqT0yGAOD69OD6GuN/4VLp//P3/AOQ2/wDi6xLdU+G3imV5rORxcQtFBIZNsLruU53YJB+UZB6Z7jBNKpSnFqMJp+fK190W2YfX8VSkpYilyw772+5v8j1+iq9ldx39jDdxZCSoGAJBK+xwSMjoeeoqxWaaauj2IyUkpR2ZiXX/ACPOlf8AYNvf/RtrW3WJdf8AI86V/wBg29/9G2tbdMYUUUUAFFFFABRRRQBieDf+RG8P/wDYNtv/AEUtbdYng3/kRvD/AP2Dbb/0UtbdAHn/AIp8B6lqGqy3uiX0FulyMzwzZUK/95NqnryT0OcnJzxDZ/DW5by5rzULOGctmX7La7jjPO12PUjuV4z3r0ailONOe8FfvZa+vf5nnTynCTqOpKGrMvTPD2m6UVe3g3TBQpmkO5jgEZ9ATk52gZ/AVqUUUoQjBWgrLyO2lSp0o8tOKS8tAoooqjQ8r8Vx3HhTx5a6vbNCYNQkLrEI/uSBQrHH+1uySOTubuAT6ZY3sOo2UV3ASY5BkbhgjnBB/EGsrxd4eXxN4flsA6pOGEsDvnCuPXHYgkd8Zzg4rifhnr09vcS6JfKY9r7ArptKP0AOe/ykYx1A96dZWisQnppGS872jL/21/I8ZyeCxmv8Op+Ev+D/AJdj1OvK/EOn3fg7xDHrGmrL9lQmQBAFVkLZeAnGAAOV44HQErmvVKr31lDqNlLaTgmOQYO04I5yCPxAqJOSXNDdar/L0aun5PvY7MdhXXp3g7TjrF+f+T2K+jazZa9pkd/YS74n4IPDI3dWHYj/AOuMgg1oV5P4S1C28JeKtQ0+41IppDu8S7wdguFcLz12/KDycDGMk4Br1itZqPxQ+F99/NPzWzKwWKWIpcz3WjXmFFFFQdYUUyWWOCJ5ZZFjjRSzu5wFA5JJ7CuR1X4jaVYS+XbKboA/PLu2R9G+6cEt93ggbSOjE8Um7K/9f8H0MK+JpUI81WVv67bnY1lal4l0TSPNF9qdtFJFjfFvDSDOMfIMt3B6dOa89j8R+IvHGpPa6MXtYYgzGRZGjSLBOxmcDcxIP3cYOBxwTXQWPw10wWUX28K13t/em3RVTPouVJwOmT164HSnLnp/HB+l0n/XqcX16vWV8NTuu70/Dc2tK8Y6BrV6LOw1FZbgqWVDG6FgOuNwGT3wOcA+lbteTeJ/DFt4R1PT9atbGaaxgmjklkSQbkdWyAVxgKeBn1+oz6B4b8Qw+I9Oa6ijEZVypQOG47EdDg+4HII7ZNTcbRaTV+9t/Jr8tHbWxeFxkpTdGuuWfTzXl/XyNmsTxX/yB4P+wlYf+lcNbdYniv8A5A8H/YSsP/SuGpPRNuiiigAooooAKKKKACsTQ/8AkMeJv+wkn/pJb1t1iaH/AMhjxN/2Ek/9JLegDbrlfF3hOXXWhvdPuFg1GFfLHnEmKSPOSpHOD3yB7HsR1VFFk9JK67PVGVehTrwdOorpnm8fw+1m/bdrF/pu6NFjhKwvOQoz8vzFdoHYDPU9K6XRvBmmaQIJCGnuYWLq7HYqkjnCLxjOSM5Iz1ro6Kj2VPpFf5ehy0cswtJ80YXfnr+YUUUVZ3hXC/EmydbC31aNIjHCwhu90YJMTEAHOcnByMc/fJruqr31jbalZS2d5Cs1vKu10boR/Q9weoNDhCfu1FeL3/rv28zmxeHjiaMqUuv9Io+Htbj13ThOAqyrgSKrZHTIYex7fj1xmtavH/D2oXHgnxnc6HeXAngBCGTLY2kBgcc4IU5x2+YDOc17BURhOk/ZVHdq2vdPZ/P80zny7Ezq03Tq/HHR/o/n+aZwfj/RmjCa5YFkvUkjxtiDKHTLK54wDwFyeD8o7YO74T8U2nifTFkibF5EifaothUI5z0zkEEqSOTxjPNbrosiMjqGRgQysMgj0NeSkJ4I+IBma5u00zzB9oUKQHVkIVyo4ZQzEE+qtgZ4rSklzShL7Wq/xaK3/bySt2a8zGq3g8T7VfBUdn5Pv8/08z1yimRSxzxJLFIskbqGR0OQwPIIPcU+keuFFFFABRXK674703SJXtoVN1cqxVvm8uJGGMhpCMZ68KG5BBxXNXfjHU/Ft6mj6ErwM43PJA7AptPVpOMRnIzt54wCd2KFrLlSb9Fe3q9l82rnn1syoU5ezi+aXZK/47fid/qGuaVpO4X+o21u4TzPLkkAcrzyF6noeg5rNsfHXhrUb2KztdUVp5m2xq0ToGPYZZQMnt6niuftPhfbyyrdancZuHZnmEbGTcSTzvfrnqcr3P1rG8V/D6DSLKS/tYZLm2VmabyuJIU6hgOjD16Y64xnF050m+V053/7c/Lmd16O77bHNUxuOivaextH1Tdvk/67HrdFc34W8YW3icSiOAwOg3Bd+7K8ZzwMEE9PQggnnHSVmmn/AF/Wp6lGvTrw56bujE8Zf8iN4g/7Btz/AOimrbrE8Zf8iN4g/wCwbc/+imrbpmoUUUUAFFFFABRRRQAUUUUAFFFFABRRRQAUUUUAFFFFABRRRQAUUUUAFFFFABRRRQAUUUUAFFFFABRRRQAUUUUAFYmuf8hjwz/2En/9JLitusTXP+Qx4Z/7CT/+klxQBt0UUUAFFFFABRRRQAUUUUARXVtDeWk1rcJvhmRo5FyRlSMEZHPQ15ZBDP8ADjxNIjNNdaa8RliOMExZ+dckY3qdpwODx93dXoOseKdF0CWKLU75YJJVLKgRnOOmSFBwPr1wfQ1ynifxV4c1/RmtrfUtwWRWkJgkVQpBU5JA9e2Sew9FiFUjh3LkbjdPbqmrW8+nnex4+aul7PnUkpws1qr+nzO6sb621KyivLOZZreVdyOvQj+h7EdQamdFkRkdQyMCGVhkEehrzX4O3kj6fqlkQvlwypKpA5JcEHPt8g/WvTK3xNH2VSVPsejhqvt6Km1ueVJaQeHfivCLOO4jhdxHJGD/AKxZVwrDpuQOeTzjbnkjNeq1zfi3wlD4jt1mhcW+qW4/0e4x1/2H9VP6Z+oPK23gfWdadbXxAqQW9ihitnSYurDP8CAjAwBy2DjaMccZO8Yx3lFK2lrr72k12s7paW0u/Ngq+ClKnTpucW7qzSt5O+yXT7jqvEXjbS/DV7BZ3cd1NcTJvCW8YYgZwM5I6kHpnp9M8qmveNvEdzLcaTC1jbog224jjfccc5kcYDHPTsMcdztaP8N9L024kkmc3KlQEQAx7TzkkhiTnjjOBjOM9Oxhhit4hFDGkca9ERQAPwFJ1JPSEbLu7N+ltYrt1fZrc09ljcS71H7OPZP3vv2/M8/0v4f31y63GuXwIkYGaIZkmmTbgLJKT17HaDwPlI7dzZaZp+m7/sNjbWvmY3+REqbsdM4HPU/nVqmSyxwRPLLIscaKWd3OAoHJJPYULS9uu/n69zrw+Do4dPkWr3fV/MfRXn2u/E+1jWCDw4i6jdzttG6OQBDlcDbgFy2SBgjBHeufOv8AxEuLpVEht3nZitv5EW6MDnBQguBjpuGSOeetdEsM6cPaVpKC/vOxjWzOhS8/Q6/4laEmreGWuUhlkvLMhofLPZmUPkemOc9tvXGc2vA+rWl9pL2ELkz2LbZgRx8xLAg9+49cg+2eOi+HHiFbaWWG8t0vLrcLiWed95BYHnaGByQDnJP49O38I+EbbwnZTRRTNcXE7AzTEbQwGdoC5OAMn1JJPsBj7lRKfNpG6irWbu1dtdFponrq7pHLh1WrYxYl0+RWad935/gjoqxLX/kedV/7Btl/6Nuq26xLX/kedV/7Btl/6Nuqk9o26KKKACiiigAooooAxPGX/IjeIP8AsG3P/opq26xPGX/IjeIP+wbc/wDopq26ACiiigAooooAKKKKACiis/Vtb0zQ7cTaleRW6H7oY5ZuQDtUcnGRnA4pxi5OyV2KUlFXk7I4XXNAvvDWsXOs6ZdTFLyWSQuYwwtZGHcdCG3NyQMYAJJIrtdC8RaZ4jtGuNOn37MCSNhteMkZwR+fIyDg4JxXP6p458K6nplxZR6j5ksqFY08iUZfqvO3+9j2rkfhxrEll41u9MESvHqDvucnBQxh2BHqOox7jnjBdPD1HXq86afKpdttH07W+7zPCpVYYfHOFKScKlnve0tvx0PY68t8bxWmn+O9Ju/spiIaK58xVwJmWQl0BOBuwFP1POM5PqVZHiXw9beJtHewuXaM7vMilXrG4BAOO45II9D2OCCCjzpt2a2fb/Nd11R6WOwzr0rR+Jar1NO3njuraK4hJMUqB0JUgkEZHB5H41meIfEuneGbJbm/diXbbHDGAXkPfAJHA7k8fiQD57F4B8SS3Z0i8kim0eObzVuJJiN/bIUHO7BPBGOCN2MGtu1+FemQTh5J/MTBBUR8n6FiQPypSl7KVpxcv8Ljb72015+6cv1vGyjaNDXvdW/Gz/rqZN5438QeI9Vih8MRy2loFJ3SRIzykAljg5HGCAF/E8gC3b+ANS1e5a81y/mW5DgF5NsjMh5ITBxGASduBwc8Y699aaXYWDu9pZwQu5JZkQBjk569cdOPYelW6Up1Jyu/dXZfq93+C8hxy6dV82Km5eS0j/X3ehRsdG03TG32dnFHJtK+bjLlSdxBY8kZ7Z9PSr1FcRr3xM0XT7KcaZcLfXysY0jCtsB/vFsAFR/snnjHByNKVGdT3aa/4B3SnRw8NbRX9bI7esLxfoUfiHw5c2hjZ50Uy2wV9p80KdvXjBzg57Ht1Hn9xrvxInilv/KGn24bb5ckUUQBC5wol+c569+c46YqOx8B+JNXnm1jUWjF9I29RdsVyenICkjHYYA4GOOmk4rDu/OnNbJau/n2Xm9Dz6+YKadKFJyb6bad+v4m98MdQKQS6PcSHz1hW4SPZj5clTzjqPkGD/jXodcn4Q8Fr4clmv7q6N3qVwgR5ACEReCVUd+R1OOAMAc56yufkUNE79Xba7d3byXQ6cto1KOGjTq7q/53MS6/5HnSv+wbe/8Ao21rbrEuv+R50r/sG3v/AKNta26DuCiiigAooooAKKKKAMTwb/yI3h//ALBtt/6KWtusTwb/AMiN4f8A+wbbf+ilrboAKKKKACiiigAooooAK4Txp4e+y3UniiyklSVAv2uNdxJUYAkXHQrgZ7bQTwRz2d9fW2m2Ut5eTLDbxLud26Af1PYDqTXPL8RvCjMFXVCWJwALaXJP/fNV7CVWnKPK3Fqzt/Xz8tzixsKFak6VaSV/PbzJvCvieDXIHtJXK6laqBNG5GZB2kGMDB4yAOCcehPR14jHqENt8VrO409YijXYiA2EDbIxXpx/Awx6cemK9upRi/Y06j+1FP8Arye68mZZXipYiheerWl+/n8zhPilawHw/BdyWZlKXCxySIPmjjIbnPb5tuM+uO9dB4U1W31Xw9ZtFdG4lihSOZ3PzFgMFjnnkgnP17g1p31jbalZS2d5Cs1vKu10boR/Q9weoNeWT/D3xFpGoyQaPMtzpl0THJum8srGcAiTp6/w5ztzjoKuNNSh7js1q09n6dpfg9n0aivCth67r0Y8yluv1/r5np2r6rbaJpVxqN4WEEC5bYuSSSAAB6kkD055xXnGs/FG51FBaeGrSaKVgGNxOF3KATkBeV9OSe5GM4NWD8JIBegi7Vrcr82QwKn2XPPbq3c12mh+G9O0CFVtIVWTbtaQDBbhQfzKg85xk0oV4Je5BuXeVkl8k3e3qk+5Mp47ENxjH2a7uz+63/A9TiR4V8WeI5VGu3o8qPBDSgFAw3A7YVwrHqNxI4YEZxXX6L4Q0rSLS3SS3jvbuIhzd3EYeQv1ypOSoB6AHj3OSd+ipUpdXr/X3LyVl1tc6qGApUnzu8pd3q/+AFFc7r3jXRdAae3uLpWvo4jItsAxLHGVUsAQpPHXsQeledXXxE8WarKG06OOzhBYr5cQbcueAWfIJHsB349NlQfJ7SbUY95OyFicxw+H+OR7FdW0N5aTWtwm+GZGjkXJGVIwRkc9DXmPhCePwr4mu9LujdR28t49pbeYp5yR5bEccEZwQMfN2BJqufCXivxZKtxrlwWMClYlmHkp2OMBc89yF7deMVu6N8P7r+3Y9Y169SeWCXzIYIGYruyCGZzgk5ySMckDnHFY3hUtCMrxTu3Z7rZRvq731dkku559SpWxlanOlTaUXfmemnod9WJ4r/5A8H/YSsP/AErhrbrE8V/8geD/ALCVh/6Vw0j3jbooooAKKKKACiiigArE0P8A5DHib/sJJ/6SW9bdYmh/8hjxN/2Ek/8ASS3oA26KKKACiiigAooooAKKKZLLHBE8ssixxopZ3c4Cgckk9hQBzHjjwrJ4ks4J7ado72x3yQIFBEhIB2nJGCSq85wOcg9qnhXxPDEU0nVbporp5BHaJLFsG0KB5fThgQfvYJLADJ4F6X4h+FYZXibVlLIxUlIZGGR6ELgj3HFeceNdetJfE9lrGlt5pjdJ42kBCsV24ypAYAlQPwPrxo6FaVejGSaT5lt0acvwa+5vueFja1OjXhiKUk23aSve6tv8rHt1cv8AEG1jm8IXkzWYuZIArqMEkLuXeeOg25PtjPat7TL3+0tJs77y/L+0wJNsznbuUHGe/WrVQ4q9pq9v0/rc9erTjXpOD2aOO+HGoWE3ha3sLWctJbF9yOMNhnLfpuAP/wBcZ66WWOCJ5ZZFjjRSzu5wFA5JJ7CvL9W+H2r6JqP2/wAJzu6u5zbeYEaJcdmJG4dR2IBHXk1ZtPhPA1qhvJ4Y7jHzrCHdAfYlgf0/PrVVUoNybc09rWv/ANvJuNn5q6e+h5lGvjKMFRdHmcdLppadN/69CTVvifFdWtxbeHbW5lvNxRbiWMCNRz84yeTxwGA9+mDTTRvGXiW3gh1ee48iQnLOEijQZB3NENrOQRwGHX0B3V2uh+E9N0S1iRYY5p0+YzNEq5fC5IA6crkdSMnmt2plOUnZLlj5bv1fbyVvO5aweIxGuKnZfyxdvv8A+B95zGj+B9Nsbcf2iE1S5OQZLiIbMZ4xHyox68nk84OK6eisjWPFOi6BLFFqd8sEkqllQIznHTJCg4H164PoaIQb9yC+SX5JHfCnRw0LRSjH7jXoryS88f8AijW52/sG0W0sTMUiuJEXJwudru58sEjnHXoMnvXg0jxj44SJdWuW+xRMWUsFjUtjGflGG6EZ5xz0zW1SjCjpVmk+28vuRxTzWmnyU4uT6W6/16FgWlt4C8dTTvmDSiyNCW/eNtYEHGDnCksOcnAzzjn1uvM9P+GFzNdRf2zdWy2EDApaWZY+YOeGYgEduRknJ6HmvTKxabbqTd5Sd35JJJfOyu99XZPQMso1aaqSqR5VJ3S7dP0MTxl/yI3iD/sG3P8A6KatusTxl/yI3iD/ALBtz/6KatukeoFFFFABRRRQAUUUUAFFFFABRRRQAUUUUAFFFFABRRRQAUUUUAFFFFABRRRQAUUUUAFFFFABRRRQAUUUUAFFFFABWJrn/IY8M/8AYSf/ANJLitusTXP+Qx4Z/wCwk/8A6SXFAG3RRRQAVyfjDx1beFJYLb7K13dyr5hjD7AqcjJbB5JB49jnHGesrzD4nwQWmrafrAmIuooSqoHwQytmMgDnqznr/Dx0NaUpU4yvUV+yXV9F82cWYV5UMO6kN9PxY8fFW7ntGli0KOFTlVmmu8ordASAgJGcdMfUU+813xpe2z2IsXgmlATfbWEyEE9lkYlV9Nx6deMV2XhiOMeGtMmSNUeW0idyO5Ybjz1xlmOPetes26jld+75Kz+Tck79btWv2XXmhhcVVipVazV+iSX4/roecReC/FMkSO3iTUI2ZQSj6g+VPocAjI9iRUF78NdY1LZ9u1qW68vOzz7p32564yvHQflXp1FSvap3VSX3/wDAKeU0WrOUvvPLLb4USQM5ka1uAyFQJZpAFP8AeG0Dke+R7V0Vh8NtCtrZ4buI3QY9neIY99rZbn1J9sd+xpksscETyyyLHGilndzgKByST2FP945KUpyk1tdv8trlUsqw1OXM1e3d3/Db7yrpWkWGiWQs9Otlt4AxbaCSST1JJ5J+vYAdqu1zWrePPDuk24kbUYrt2+7FZsJWPIz0OB1zyRnBxmuYm+L8TXZjsdDmnj/gLzhHbjn5QrY79zXUsNXqJza+b0/M3njMNRXK5JW7f8A9Morxq58ceNNUvN2nxizjZtkcCRIxPPGd4JJ5A4wDjoKtm3+I+rkW819cxIp3lo0EB9PvAJnr0z79qxl7COkqsb9k+Z/ckzk/tmhJ2ppyfkr/AJanqF7qen6bs+3X1ta+ZnZ58qpux1xk89R+dc/rPxC8P6TbyGO9ivbkJujhtm3hznABcZVffJzjseM8zb/C27vbgXWs6m0szrl2dzIxOMAH6D/aPT0ro9L+Heh6eFMkRuJFBGT8o5PUY+bpx1NT7WkvgjKXraK/WX/kv46B9Zx1XSnS5V3k/wBN/wADkpfiR4n1KZ4tL0iCFJVAh3IzuCQBkMSFY5OQNv4Gqi+CvFniW5Eur3UxQOxBuHICZ5bap+6DwPlXH5V67aWFpYJstbeOEEAHYuC2OmT1P41Yq/rFf7Fof4Vd/e7/AJIX9nVq3+8VW/Jf1+iOH0v4ZaVaFJLn95IAhKoDjco55bJ5Ppt/DjHYWlhaWCbLW3jhBAB2Lgtjpk9T+NWKKw9nHm53rLu9X97O2hgqFB3px177v72FFFFWdQViWv8AyPOq/wDYNsv/AEbdVt1iWv8AyPOq/wDYNsv/AEbdUAbdFFFABRRRQAUUUUAYnjL/AJEbxB/2Dbn/ANFNW3WJ4y/5EbxB/wBg25/9FNW3QAUUUUAZHiXxDbeGdHe/uUaQ7vLiiXrI5BIGew4JJ9B3OAeKg+LMtwhkGgqkSkK0j3uFBPT/AJZ/T863viPp0Wo+FwJrkQLBcJLzj5+CpUZPHDE556VH8OLh9Q8O/bJ7KKF1laCGQR4Z4gFx8x6gHK8cfKBjitOaHs3GEbyVrt30T2t3bs/Td9n5OIq4ieL+r0pcul72v/TMiLx54juB59tob3NrIzbGt7OVwuGxjfnD9+Rjp0HQJa+H/GWoWy3kt9NA0xL+XNqM8TgEnGUQFVOMcDp0wOg9KorJxi+//gTX/pPL/W+upf8AZrn/ABqspfO35Hm0/gTXtS8uHUryKe2DhmEmozy7e24Ky4JwT3H1qs/wkMd5viuYpoVYMEldlDDqVIAJA7cNn3r1Kihc8VaE5L/t6T/NsTyfDP8Amv8A4m/zOG0/4cafDdRXM0MEDIxDRWzyMrrxjlySpzkHHbpjmui0fwtougSyy6ZYrBJKoVnLs5x1wCxOB9OuB6CtesK+8ZeHrGylum1azmEa58u3nSR3PYKoPJ/T1wKqlCpd8rcm7Xu2722N6eFw2G95JJ93v/XobtFebXvxh09Nn2HSrmfOd/nyLFj0xjdnv6VkXfxD8S67KDocEenxQxs0gZ433nj+KQAZxjCgZ69e3S8HUiuapaK7tpIipmeGgviv6f1Y9gqveX1np8QlvbuC2jLbQ80gQE9cZPfg/lXltrcfEjVI1jN3NHHOh+YW6KcEHkOFAHsQw9ua0YPhzqGoy27a/qs91EiZ2yXDSMjHbkAHgZwecnoOD25uegpWUub/AAq/4u0fxMlmbq6UKcpfgvv2/E6jUPHHhzT0BbU4biRgdkVqfOZyO3y5AJyAMkfzrkV+IXibU7tI9L0K3hUjGyffIxYZJI27TjGOx78+nTW/w/0S3duLh4mXHleYEXOR82UCtnjHXHtXTQwxW8QihjSONeiIoAH4CpVSdvdil63l+C5Vf7x+zx9b4pKmvLV/oeSv4Q8Y+JmR9YvpfKd92yRtqLgYzs42nqOF7571saZ8J7KAo97cmVgTuRVz7DBPHvyv+Nei0U5TrTXLOo7dl7q/8ltp63COU0W71W5vzf8Alb8bmfY6JYWEpmih3XB5aeUl3J5ycnoTk5xjNaFFFRCnCmuWCsj0KdKFKPLTSS8goooqzQxLr/kedK/7Bt7/AOjbWtusS6/5HnSv+wbe/wDo21rboAKKKKACiiigAooooAxPBv8AyI3h/wD7Btt/6KWtusTwb/yI3h//ALBtt/6KWtugAqlq+q22iaVcajeFhBAuW2LkkkgAAepJA9OecVdrG8WafHqnhXUrSV2RTCXDL1BT5x+GVGfanFwTTn8PX06mdaThTlJbpM4mH4uTXDbYvDpbkAn7ZgAnpk7MVYj8c+IdQVrnTtPge1LbVEVrNdFTgEhmUrg85xgcEU/4Y3C3J1Gza2h26ayJbylcyANvDDPYEqTgY5Zuua9Ep1m5P3VyLTazdmr68ya+5ad2eThoYvFUo1XWcU+iSv8Af/wDzK10fxb4jeXUJr/VNL805EL3JhUdRhUUEgDH8QBOQeck1K/g3xXJC8E2qCeJwUYSapcYdTxhhtxyOvavSKKhpt6ydui5mrfNNP8AE3/sqk1785P/ALef6Hnf/CpdP/5+/wDyG3/xdath8OdEtPKaVWmkj6lcID6dPm/8e579cV19FZulzfHKUvWUmvubZUcpwcXfkv6tv8G2YemeD9B0e/8At1lp4S6wQJWkeQjPUjcTg+/Xk+tblZt94h0bTWlS81SzhkiXc8TTLvAxn7uck46DGTXJXnxUsQrf2XpV9fFZCm8jy0IHcH5j6cEDg9uldbhVmuaW3d/5s2lXw2GjZtRX9dEd/RXlGo/EbxDqFqE0vSV09s4aWRxI/YjaGAA7g5B69sVDZan8Sb9EeG4fa7bVY2se084zuCEYz79qz/crSVWCfbmu/uVzlec4Xm5YNy9P6uetSyxwRPLLIscaKWd3OAoHJJPYVkXPi/w7a27TSa1Ysi4yIphI3Jxwq5J/AVwyfD3xFqsQj1nWrl4RICI5rhn2/wC0BlgTgnHI7+tb9j8NNGsxExkmaRH3MV2gOP7vIJAI4ODn6UvaUvsJy+XKvx97/wAlY1i8XV/hUrectPw3/Azr74jX9zc+ToWlxtEZQkdzdlsSgjAxGMNySMcn6ZPFV7Dxj4v837VcXFlb+WV8oBrWIkgBkIILuD1yQR976V6Lp+nWmlWi2tnF5cQJOCxYknuSSSfxNWqXPPvb0/Vu7v6W9A+pV6v+8VXbtHRffu/wOO0j4caPprO86i5fJ2HBTaMDvknPXvjB6d66m0sLSwTZa28cIIAOxcFsdMnqfxqxRWapR5udq8u71f3vU66ODoUNacEn36/e9QooorQ6QrE8V/8AIHg/7CVh/wClcNbdYniv/kDwf9hKw/8ASuGgDbooooAKKKKACiiigArE0P8A5DHib/sJJ/6SW9bdYmh/8hjxN/2Ek/8ASS3oA26KKKACvOZvissmoTQaZosl5AjYWcz+XuHrgqcDg4yc/Q8V6NXknhO1k0jx/DokcMd1bxLL50rQ5KlScSf7J3KoB/2sdcVSlZOMYpye172SSbb01fRJXW55mY168JU6dF2cna+5qP8AELVb26W203ToPNVWaRI1kuzgEDkIFK8nvn8O6MvivxbebfM1DSUtoxl0D2kcjH0ByzH9Bjtnn0iisuWWj5nfysl67X+9sX9n1Z/xq0n6WS/A87/4QjxP/wBDRff+B8v/AMTVaz+EcIRvtd4m7PyhVZuPrlfyx+Pp6bRTXtbW9pL72vysx/2Th38bk/WT/Q4nT/hjo1pv8/M5LKylQUIxnIzk9cjkYPHWtEfD/wALi6FwdKVpA+/55pGBOc8qWwR7EYrpapXmsaZp8oivdSs7aQruCTTqhI6ZwT04P5VdLni7wbu+t2397bZtDA4WitIL1ev4u7LtFcPqPxT0Szup7W2hur2WMlUeFV8uRvQNnOM8ZAPqM8ZxLz4oatcWkkNl4fktrmQbY5nkLhCe+CgB/E49c9K1eHnH47R9Wl+YquZYWnpKZ6nRXj9hq/xH1HmC5YruCbvs0RXP1CEDt1x1rWk8JeMNTjmkv9amLyHa1u10Yo3XABBWMFcEZz6/rWUpUU7Rmpf4bv8AHSP3swjmsai/c05S+Wn37HZy+K/D0MTytrenlUUsQlyjHA9ADkn2HNctrXxIaGR4tIs42j4C3l6xiTd1I8sgMRjjORznsObcfwy0eKFUjubyF9u13hKAtnryVJH510Wl+HtK0Z3ksLNI5ZPvSsS8hHHG9iTjgcZxxQpdYq3rq/uVkvvkvIbWYVtNKa+9/wCRw+fGnii4SJ5brTYUALmCF7RVbBwSz/O2eRhcjoSB1q3pvwr06BUa8l8xzGA6oMgNxnlsgjr/AAj8OlegUVElKSs5O3rb7+WyfzRSyulJ3rSc35v9FZGZZeHtI08g21hEpGCpbLbcdMZzj8K06KKUKcIK0Fb0O6nSp0ly04pLyVgoooqzQxPGX/IjeIP+wbc/+imrbrE8Zf8AIjeIP+wbc/8Aopq26ACiiigAooooAKKKKACiiigAooooAKKKKACiiigAooooAKKKKACiiigAooooAKKKKACiiigAooooAKKKKACiiigArE1z/kMeGf8AsJP/AOklxW3WJrn/ACGPDP8A2En/APSS4oA26KKKACvPPihosl5aRXsbKxG2JUPBDDc2c+43D8vw9DqK5tobu3e3uIxJE4wynvWdSMmlKm7STTXqu/l38jkx2F+s0HTTs916o57wjrmnzeC7Od5xbx2USWtw1wRGI5EVVIJPHORj6jvxUf8Awsfwn/0Ff/JeX/4msK9+FUMqymG7hJLkxIYPL2qegLKeSOuSOfQZ4IvhqkcSI2naVIyqAXe4ucsfU4YDJ9gBW/1jD3bqwnd9kmvvv/X4nAsVjoJQdK1l63+5luX4teHo5XRYNQkVWIDpEmGHqMsDg+4BrGn+J+u38876FoYks4Bl2kieVgMnDNsIC5A6c9Dya6S28AWaRLFIlikBUhoorJGYEjnEsm5+p6n8McY1NP8AB2h6cqiKyR2Uk5k5DE+q/dP5dqr61TX8Oi/+3mvyV/0H/wAKNXT4V8l91ub8bfI87g8TfEDWZ5JrL9xHgfu4rVWVO3dWYZwTz71NH8Nda1i/mvNbuyJ5WVpJCwJPrgDOcDGB8o6D6esoixoqIoVFACqowAPQU6pdeu9pKP8AhSX4u7+5otZXKp/vFVy8tl+r+5o4ez+F2i26MJnklcnqAAAPo273ro4PDWjWzl0sIySMfvCXH5MSK1aK5pUKcnzTXM+7vJ/e7nTTy7C09VTV/PV/e7kUFtBaoUt4I4UJyVjQKCfXipaKK1SSVkdiioqyCiiimMKKKKACiiigAooooAKxLX/kedV/7Btl/wCjbqtusS1/5HnVf+wbZf8Ao26oA26KKKACiiigAooooAxPGX/IjeIP+wbc/wDopq26xPGX/IjeIP8AsG3P/opq26ACiiigDnvGtj9u8NyjBYRMJGUAncuCp6dOGJz7VzXwqu47S2vtCmDLerKbofL8rxkIuQfYjv6j3x6NXGaz8PLLVb4zRypbwFTuhERb5yc7gdw2jAA2gAVnFzpzk1rGSV11utmr6bOzWnTU8nE4etTxKxVBc2lmr2+ab0L1z4/8LWtw0MmrxM64yYo3kXkZ4ZQQfwNZdz8WPDsFw0caX1wgxiWKIBW47bmB9uRVT/hUun/8/f8A5Db/AOLq1ZfC7R7ff58jS7sY2oBj/vrd/St1iKCWlKbfm4JfhJszdfM5OypW+a/+Sf5GTqfxYmnwugaS8mMF5LpScdeNqH6c7vXjvVJfE/j/AFqXzLJEtkVBuWC2DjJzgnIdgT+A4r0m38OaPbbvL0+E7sZ8weZ+W7OK1KX1ira0YRj98n97svw/zLWEx1TWrV5f8P8Anp+R5RceBPFPiG7Euu3zOVXK75FCIeAQoXIGcdlGcZPNW7P4SQCI/artd+7jaGbj65X37V6ZRUOVaWkqsreT5f8A0mxSyeg3eo5Sfm/8rHM2XgTRLGSR0ikYSJsZSwUEZB52gE8ge1bNppGnWOw21nCjJna+3LjPX5jz39au0VksPST5uVX79fv3OulgsPSd4QSfe2v3hRRRWx1BRRRQAUUUUAFFFFABRRRQBiXX/I86V/2Db3/0ba1t1iXX/I86V/2Db3/0ba1t0AFFFFABRRRQAUUUUAYng3/kRvD/AP2Dbb/0UtbdYng3/kRvD/8A2Dbb/wBFLW3QAVBeW/2uxuLbds86No92M4yMZxU9FKUVJNMUoqScXszzvwNCND8SanYXMckc96UKrtyFZAxYE+4bIPTr7Z6XUPG3hzS7trW71SJZl+8saNJtIJBBKggHIPB5qpr/AIMTVtQF9aXgs5nJNxuiMomO1VXjcNuAO3Xv0rHf4U2Uu0yXabgMHZblAfwD1nRlOlaNdOaSSTja+mmqlZfNN330dzw6Sx+Eh7CnT54rZ3W3mm1r5l69+KXhm12eTLc3m7OfIhI2/Xft6+2elY+pfFyKSJY9D0yaW5bvdAALjHRUJLcZ7jHHWtGy+F2lW0khll81HTbgRDI5ByCxbHTsAffGQeg0/wAJ6LpsapFZpJgEZlAbqc9Puj8BXT9Yp/8ALui/+3pJfhG9/vRonmdXSyh62/S5wtv4p8d68qxWdtbWhDqWkhgLNg54O4sAPrjp161afwz4p8SXMNp4illNnFvcyO0Spu6AqkRyx/3iMDPrg+l0Vm51JP3nb/CuX8U+b/ya3karLZT/AI9WUvJaL/P8ThrL4Z2VvEBLfSiUcB7WFI8rxwdwck5HXNdTDoWkwRCNNOtio6F4w5/M5JrQorN0acnzOKb72V/v3Oill+Fpaxpr8397GQwxW8QihjSONeiIoAH4Cn0UVaSSsjrSSVkFFFFMYUUUUAFFFFABRRRQAVieK/8AkDwf9hKw/wDSuGtusTxX/wAgeD/sJWH/AKVw0AbdFFFABRRRQAUUUUAFYmh/8hjxN/2Ek/8ASS3rbrE0P/kMeJv+wkn/AKSW9AG3RRRQAV5fq8UHhj4h2utX7lLYySMHC5LK4I4GedpfnvjnHQH1CsPxN4Zt/EdmimU295CCLe5ALGLcRu+XIByBjnp1FJQvUjO9rX+aas099H3s2t1qcOPw0q0Yzp/HB3Xn5P1J9X8SaPoOwalfxQO+NsfLOQc87VBOODzjFYV58UPDFtEHiuZ7ti2NkMDAgevz7Rj8c81Qf4WWs4BuL2NpMklktimSfo9SWnwq0iGbfPM8igcKq45/4EWB/Kqp16Sj+8pT5vJxt+d7fL5HK8RmUnZUbfNP9f0I5fi1pkkL/YNL1G4uAAVjdVUEZGckFiPyNUP+Eq8dX1jvTT4raNzhZ7WykmcY9BllPQjn39q7rTvDWkaUiC2sogy4IZxuII7jPAOeeMVrUOrJ/DFRX/gT+96L/wABZosNjaq/e1eX/D/m/wDI80m03x1qyLY33nm3kBErS3EMKdDwfJyxB5GORyM+ou2fwvtYn/0m9RkVRsNvarG6sCMHcxfPft+Nd9RUuKe/5u33bfclfqUsqw7d6t5v+82/+AYdh4S0mxSPdC1zImf3lwdxbOeqjC9/Tt681pQ6bYW8olhsraORejpEoI/ECrVFZxw9GHwwS9EkdVPCUKXwQS9EgooorU6AooooAKKKKACiiigAooooAxPGX/IjeIP+wbc/+imrbrE8Zf8AIjeIP+wbc/8Aopq26ACiiigAooooAKKKKACiiigAooooAKKKKACiiigAooooAKKKKACiiigAooooAKKKKACiiigAooooAKKKKACiiigArE1z/kMeGf8AsJP/AOklxW3VHU9JtNXjhS7E37iXzYmhuJIXR9rLkMjA/dZh170AXqKxP+EU07/n51j/AMHN3/8AHaP+EU07/n51j/wc3f8A8doA26KxP+EU07/n51j/AMHN3/8AHaP+EU07/n51j/wc3f8A8doA26KxP+EU07/n51j/AMHN3/8AHaP+EU07/n51j/wc3f8A8doA26KxP+EU07/n51j/AMHN3/8AHaP+EU07/n51j/wc3f8A8doA26KxP+EU07/n51j/AMHN3/8AHaP+EU07/n51j/wc3f8A8doA26KxP+EU07/n51j/AMHN3/8AHaP+EU07/n51j/wc3f8A8doA26KxP+EU07/n51j/AMHN3/8AHaP+EU07/n51j/wc3f8A8doA26KxP+EU07/n51j/AMHN3/8AHaP+EU07/n51j/wc3f8A8doA26KxP+EU07/n51j/AMHN3/8AHaP+EU07/n51j/wc3f8A8doA26KxP+EU07/n51j/AMHN3/8AHaP+EU07/n51j/wc3f8A8doA26KxP+EU07/n51j/AMHN3/8AHaP+EU07/n51j/wc3f8A8doA26xLX/kedV/7Btl/6NuqP+EU07/n51j/AMHN3/8AHatabodlpU889t9paadUSSS4u5Z2KqWKjMjNgAu3A9aANGiiigAooooAKKKKAMTxl/yI3iD/ALBtz/6KatuoL2zg1CxuLK6TzLe4iaKVMkbkYYIyORwe1Zf/AAimnf8APzrH/g5u/wD47QBt0Vif8Ipp3/PzrH/g5u//AI7R/wAIpp3/AD86x/4Obv8A+O0AbdFYn/CKad/z86x/4Obv/wCO0f8ACKad/wA/Osf+Dm7/APjtAG3RWJ/wimnf8/Osf+Dm7/8AjtH/AAimnf8APzrH/g5u/wD47QBt0Vif8Ipp3/PzrH/g5u//AI7R/wAIpp3/AD86x/4Obv8A+O0AbdFYn/CKad/z86x/4Obv/wCO0f8ACKad/wA/Osf+Dm7/APjtAG3RWJ/wimnf8/Osf+Dm7/8AjtH/AAimnf8APzrH/g5u/wD47QBt0Vif8Ipp3/PzrH/g5u//AI7R/wAIpp3/AD86x/4Obv8A+O0AbdFYn/CKad/z86x/4Obv/wCO0f8ACKad/wA/Osf+Dm7/APjtAG3RWJ/wimnf8/Osf+Dm7/8AjtH/AAimnf8APzrH/g5u/wD47QBt0Vif8Ipp3/PzrH/g5u//AI7R/wAIpp3/AD86x/4Obv8A+O0AbdFYn/CKad/z86x/4Obv/wCO0f8ACKad/wA/Osf+Dm7/APjtABdf8jzpX/YNvf8A0ba1t1l2Ph7T9Pvhewm8kuBE0Svc308+1GKlgBI7AZKL09BWpQAUUUUAFFFFABRRRQBieDf+RG8P/wDYNtv/AEUtbdYEPg7SbaCOCCTVYoY1CJGmr3aqigYAAEvAA7VJ/wAIpp3/AD86x/4Obv8A+O0AbdFYn/CKad/z86x/4Obv/wCO0f8ACKad/wA/Osf+Dm7/APjtAG3RWJ/wimnf8/Osf+Dm7/8AjtH/AAimnf8APzrH/g5u/wD47QBt0Vif8Ipp3/PzrH/g5u//AI7R/wAIpp3/AD86x/4Obv8A+O0AbdFYn/CKad/z86x/4Obv/wCO0f8ACKad/wA/Osf+Dm7/APjtAG3RWJ/wimnf8/Osf+Dm7/8AjtH/AAimnf8APzrH/g5u/wD47QBt0Vif8Ipp3/PzrH/g5u//AI7R/wAIpp3/AD86x/4Obv8A+O0AbdFYn/CKad/z86x/4Obv/wCO0f8ACKad/wA/Osf+Dm7/APjtAG3RWJ/wimnf8/Osf+Dm7/8AjtH/AAimnf8APzrH/g5u/wD47QBt0Vif8Ipp3/PzrH/g5u//AI7R/wAIpp3/AD86x/4Obv8A+O0AbdFYn/CKad/z86x/4Obv/wCO0f8ACKad/wA/Osf+Dm7/APjtAG3WJ4r/AOQPB/2ErD/0rho/4RTTv+fnWP8Awc3f/wAdoHhTS/Mid31KXypUlVZtUuZE3owZSVaQg4YA8jtQBt0UUUAFFFFABRRRQAViaH/yGPE3/YST/wBJLetuse48M6bc3txdlr+Ka4YPL9n1G4hV2ChQdqOBnaqjOO1AGxRWJ/wimnf8/Osf+Dm7/wDjtH/CKad/z86x/wCDm7/+O0AbdFYn/CKad/z86x/4Obv/AOO0f8Ipp3/PzrH/AIObv/47QBt0Vif8Ipp3/PzrH/g5u/8A47R/wimnf8/Osf8Ag5u//jtAG3RWJ/wimnf8/Osf+Dm7/wDjtH/CKad/z86x/wCDm7/+O0AbdFYn/CKad/z86x/4Obv/AOO0f8Ipp3/PzrH/AIObv/47QBt0Vif8Ipp3/PzrH/g5u/8A47R/wimnf8/Osf8Ag5u//jtAG3RWJ/wimnf8/Osf+Dm7/wDjtH/CKad/z86x/wCDm7/+O0AbdFYn/CKad/z86x/4Obv/AOO0f8Ipp3/PzrH/AIObv/47QBt0Vif8Ipp3/PzrH/g5u/8A47R/wimnf8/Osf8Ag5u//jtAG3RWJ/wimnf8/Osf+Dm7/wDjtH/CKad/z86x/wCDm7/+O0AbdFYn/CKad/z86x/4Obv/AOO0f8Ipp3/PzrH/AIObv/47QAeMv+RG8Qf9g25/9FNW3WBN4O0m5gkgnk1WWGRSjxvq92yupGCCDLyCO1b9ABRRRQAUUUUAFFFFABRRRQAUUUUAFFFFABRRRQAUUUUAFFFFABRRRQAUUUUAFFFFABRRRQAUUUUAFFFFABRRRQAUUUUAFFFFABRRRQAUUUUAFFFFABRRRQAUUUUAFFFFABRRRQAUUUUAFFFFABRRRQAUUUUAFFFFABRRRQAUUUUAFFFFABRRRQAUUUUAFFFFABRRRQAUUUUAFFFFABRRRQAUUUUAFFFFABRRRQAUUUUAFFFFABRRRQAUUUUAFFFFABRRRQAUUUUAFFFFABRRRQAUUUUAFFFFABRRRQAUUUUAFFFFABRRRQAUUUUAFFFFABRRRQAUUUUAFFFFABRRRQAUUUUAFFFFABRRRQAUUUUAFFFFABRRRQAUUUUAFFFFABRRRQAUUUUAFFFFABRRRQAUUUUAFFFFABRRRQAUUUUAFFFFABRRRQAUUUUAFFFFABRRRQAUUUUAFFFFABRRRQAUUUUAFFFFABRRRQAUUUUAFFFFABRRRQAUVyuuePdO8PIZb+y1AW/2sWSTrEpWSYgnC5YEjg84xkEZrc03UhqIuQbS5tZLeXyZI7hQDnarZBUkEYYcg+vpQBeooooAKKKKACiobu7t7G2a4upkihUgF2OBknAH1JIA+tU7bWoLnXr3SEgulms445HleEiJg/QK/QkY5/8ArGgDSooooAKKyJPEdlF4rh8OOswvprY3UZ2jYUBwec9c9sVr0AFFFFABRWBrfjHSNCsFvbiR5YDeCyZoFD7ZTxg89jwcdDW/QAUUjMEUsegGTgZrD0fxdpGuw6nNYyzNFps7QXDSQshDqMsApG7jOOnWgDdorndA8Z6Z4h1W/wBLghvbW/sQrS297bmJ9rdGAPY/1FdFQAUUUUAFFFFABRRRQAUUUUAFFFFABRRWPrXiKDRBM01neTxwWz3c8kCKVijXqSWYc8HAGScGgDYorA0DxbaeI0tJbSzvY7e7t3uIJ5o1COqsqnoxIOWHBA71v0AFFFFABRRRQAUVjy+JbBLjSooVuLpNUd0gnt4i8Y2jJLMOAD2Pf6c1sUAFFFZHiDxHZeGre0nv1mMVzcpao0ShsO/3c89OOtAGvRRRQAUUVQvtXs9PS682TdLbWzXUkKYLiMZ5x+Bx64PpQBforP0LWrTxDolpq1jv+y3Sb4/MXa2M45H4VoUAFFYo8VaW3iweGlkmOp/ZzclDCyqEBAzuIAOT6Z6GpdT8RabpOqaZpt1MRealKYreJRknCklj6AY6+pFAGrRRRQAUUUUAFFFFABRRRQAUUUUAFFFFABRVHUNT+wS20K2d1dS3BYIluqnAAySxYgAdOSepFYnh3x5pvieK1uNOs782tzO9ulw8ShA6qWIbDEjgHkjGeKAOpooooAKKKKACiisfUfEthp9sk4W4u0a8WyP2SIylJCcHdjoAep7HjrxQBsUUUUAFFZniHXrTwzodzq9+sptbYAyeUoZgCQM4yM8kVfgmS4t45487JEDrn0IzQBJRRRQAUVBLeW8NzDbPKouJwxiiz8zhRkkD2yOfcetZ3hrxLYeKtLbUNOEwhWZ4WEq7WDLwe5oA2KKKxdQ8VaXpniDTdDuJJhf6izC3QQttO0ZJ3Y28cd88jigDaormPEPjrTfDmpJYXFnqd1O0YkIsrRpgoJIAYjoeDxXTA5UEgjI6HtQAtFFFABRRRQAUUUUAFFFFABRRRQAUUVW1C9TTrCW7kjllWMZ8uFdzsc4AUdySaALNFcifiFYDVdT0v+y9Ua90yAXF3CscbGNCoYHh/m4I4XJrruooAKKKKACiiigAoqnd6pa2ZuEdy80Fu1y8ESl5PLGeQo5OSCAO5HFGlajFq+lWuowxTRRXMYkVJ02OoPZh2NAFyiikYkKSASQOg70ALRWT4b8R2PinSF1PTxKIDI8eJV2sGU4PGT3rWoAKKKhu7u3sbZri6mSKFSAXY4GScAfUkgD60ATUVj2viWwu/FF94djEwv7KFJpdyjYUbGCDn3rYoAKKyPEniXTPCejyapqskqW0eATHEznJOAOBxkkDJwOam1DXNP0vTY7+9m8qGUosQ2lnkdvuoqjJZj6DJoA0aKit5WngWR4JIC3PlyY3D64JH61LQAUUUUAFFFFABRRRQAUUUUAFFFFABRRRQAUUUUAFFFFABRRRQAUUUUAFFFFABRRRQAUUUUAFFFFABRRRQAUUUUAFFFFABRRVW/1Ow0qBZ9RvrazhZtgkuJVjUtgnGWI5wDx7UAWqKxP+Ey8Lf9DJo/8A4HRf/FUf8Jl4W/6GTR//AAOi/wDiqAOF+PEsUfhfQ0aRFb+24HwSAcBZMn6c1e+Mt69r4Msp7S9e2kk1K3CzwybTtOc4PcY/Cus/4TLwt/0Mmj/+B0X/AMVR/wAJl4W/6GTR/wDwOi/+KoA4fxRa23hLxH4Okh1C7i02fVJ3uprq8d0O9BhWZj93I4BPr71xJ1m5b4Qxz/2pcrOPE3lCX7QyyCPd93OcgY7V7afGHhVsbvEejHBzzfRdf++qX/hMvC3/AEMmj/8AgdF/8VQB5FPrGq6foPxJg0e7upUstTj2Kk7SSQws370oxJI4Bye3J963dX1XQNO0K1v9I1+8uNP1LW7d0hSQG2QsPmgdsHZFxuZeSOOOa9A/4TLwt/0Mmj/+B0X/AMVSL4w8KooVfEejKo6AX0QA/wDHqAPFJ7p774YoL65kmTTvFoicyOw8iHfwGycqozxnpVzxZq2o2eqePIfDl9NsisLFo1gnZjFGceY6DPB2nkjnBz717B/wmXhb/oZNH/8AA6L/AOKo/wCEy8Lf9DJo/wD4HRf/ABVAHlPiTUb22sPiSmn3TpolrFZmwlilOyKYqm8RMD3zkgHqffnX+Ht66/EjULGO/mmt5NEs7kxyXDSgylVy3zE88/rXfL4w8KIoVPEejKo6AX0QH/oVL/wmXhb/AKGTR/8AwOi/+KoA5HV5wnx30xYnja4GgzBEZhy28kD8cVzXhXUJtT8KXGpXHiIpqtvp19FqunujCZpcsVkkO75NpA2naAAdox0r1P8A4TLwt/0Mmj/+B0X/AMVSDxh4VBJHiPRgW6kX0XP/AI9QB5D4D1G5/wCEm8GKmrXBl1DRJzcmW5aUO4Z9pKsSMjH6H3rS8Dwtq+o+GHOv2txJapdtqTpqW6TUGZj5TBA2/wCUDPzgEDjFelv4w8LOjL/wk2kDIxkX8WR/49XHado3w60+bTZhrnh5ptPkEsdyktvHcSsAQDLIDl+uT0yetAHnDpZQ/B+GEyCO8TxGsdwhkIdMSvgEZ+U4yfWuz0O9sltviXYalq19Do9pdnDwXDvLAjA7ihO49R7jrnvXpCeL/DMjBU8RaQzHoFvYyT/49VW38e+FbtnQazbIAuWNwDCuMgfecAd+lWqc5JyS0REqkItRbSbNXRntv7A0+S2uJZrT7LG0U05O902jDMTzkjk5rzb4ba3pmmD4gahd3kSWsWv3MzyA7sRluGwMkj3Fd7/wmXhb/oZNH/8AA6L/AOKoPjLwsRg+JNHx/wBf0X/xVQWct4Xgul+KOs39nqkeraNqOnxztdBYyYpQ21Ig6AAjZuOPoTycn0SsJPF/hSNAieItFVR0C3sQA/8AHqd/wmXhb/oZNH/8Dov/AIqgDborE/4TLwt/0Mmj/wDgdF/8VWjYanYarA0+nX1teQq2wyW8qyKGwDjKk84I496ALVFFFABRRRQAUUUUAFFMmmitoJJ55UihjUu8jsFVFAySSegA71j/APCZeFv+hk0f/wADov8A4qgDbrnvHckcXw/8RtI6oDplyuWOMkxNgVN/wmXhb/oZNH/8Dov/AIqj/hMvC3/QyaP/AOB0X/xVAHIeCJ4v+FB28iyqDFpk4LBvuMN/fselctBYyv8AASfxJFqOpT6u+mBGk+1u2wLNnIGflIA6jnGc9Tn1j/hMvC3/AEMmj/8AgdF/8VQfGXhYjB8SaP8A+B0X/wAVQB5fp+upe+KPFZg1QzWg8MRyxlZyUEgjG5l5xuz1I5z71n+BNTu08SeDTDqM889/odw1wk10ziWRWfZkM3HK+3Q16+PGPhVVAHiPRgBwAL6Lj/x6l/4TLwt/0Mmj/wDgdF/8VQB5l4R1azu/Cd1rF9r2qW3iGzsL2LVLWFt0obczCVoyOGUY2ngDheMYqh4d1STVL7W7OO6lktr3wos8cAkYmWULtLnpmQ/xFRjORzjJ9bHjDwqCxHiPRgW6kX0XP/j1L/wmXhb/AKGTR/8AwOi/+KoA8f0a+hs9O+F40u8VZpvOS4jW4IWRxEMK4zjhsDHYmrnhDUtZk1DwKTcTy6jdPqX9vpIxLbVfC+cp+7t4C5xjoODivVP+Ey8Lf9DJo/8A4HRf/FUg8YeFAxYeI9GDN1Ivosn/AMeoA8Q8MarOlx4Pu/7WuWnm8Q3NtIXu3YND8oClS2Mc+nce1ejfGOaOLw9onmSIn/E8tD8zAcAkmuq/4TLwt/0Mmj/+B0X/AMVR/wAJl4W/6GTR/wDwOi/+KoA89vL66v8A4ka9pd7rw0i7hms5tILxlzJEBlliAYBtxJDAZJzjnbgchruqz29z4pvItVuUms/E9ulttu3CxoS24Bc4xwe3avcD4w8Klgx8R6MWHQ/bosj/AMepf+Ey8Lf9DJo//gdF/wDFUAeZ+KRPfeJPFOmjxFZxX00tiNPmlv1h+wIMNIu0sG+ZefkBDbhnBHDry3sLP4jeOVnby2OhI9r5srZcCFgxGT8wH41t6rpvw+1i+1K5vdf8P3L6hjfJcSW8ssACBMROTlBgZ74JJrqrTxR4TtbWC0t/EWkeXEixRr9vjJwBgD73NAHknw2ujZ+JfAtvb3sojvdFn+0wm4Zldld9vyk4GMcYA7+9epeBJNIl0vUDo2pahfwjUZxLJfMzMkuRuRdwHyjjH1PfNSf8J/4W+1/Zv7Xi8zf5efLfZnOPv42498475qyPGPhYdPEmjDvxfRf/ABVXOnOHxJoiFSE/gafocbcXVuf2j7VRPFkeHjERvHD+cx2/XHOKwdfm8Sr8RvCM2peHoYrh9SmMco1BX85NuAuNvyBVOcc5JPck16j/AMJl4W/6GTR//A6L/wCKo/4TLwt/0Mmj/wDgdF/8VUFm3RWJ/wAJl4W/6GTR/wDwOi/+Ko/4TLwt/wBDJo//AIHRf/FUAbdFUdP1nS9X8z+zdSs73yseZ9mnWTZnOM7ScZwfyNXqACiiigAooooAKKKKACisT/hMvC3/AEMmj/8AgdF/8VR/wmXhb/oZNH/8Dov/AIqgDZkeOJGkkZUVRksxwAPrXlnwBkhf4bOm9GKXsxZcg7QQOvpXdf8ACZeFv+hk0f8A8Dov/iqP+Ey8Lf8AQyaP/wCB0X/xVAHmPgOwOs+BdY1iTUdQur+0k1CG2QXbsqqUwo2A4J7g9enoMVfBOvm+8XeBov7VedX0OVbtTOWDSjdw4zgsPfnpXrH/AAmXhb/oZNH/APA6L/4qkXxh4VUYXxHowHoL6L/4qgDxDwxqs6XHg+7/ALWuWnm8Q3NtIXu3YND8oClS2Mc+nce1dl4Vv4dT8V6kut6rd2fiLTdZnZLRHIM9qVARAmDujAGeOn3v4s133/CZeFv+hk0f/wADov8A4qk/4TDwrv3/APCR6NuxjP26LOP++qAPJvBniH7d428MGHU7qW0vbe+gme5kKy3JVmKmXGF3jIwBkhdvPOBk6fcW+l/DjTTDdm11GPxQsVyBOUdV818qwzwMckH8a9w/4TLwt/0Mmj/+B0X/AMVR/wAJl4W/6GTR/wDwOi/+KoA8n/tTX/tnmieb/hIT40+z+SHO77F5edm3P+p2856d855rG13VZ7e58U3kWq3KTWfie3S223bhY0JbcAucY4PbtXuH/CYeFN+//hI9G3Yxu+3RZx/31S/8Jl4W/wChk0f/AMDov/iqAMH4wSIvwo10s6gNEgUk9SZFxiuV1zUZLjxVZaTe62ukadd+H0OmXr58tbjcMupDKPMAAxz04H3ufSP+Ey8Lf9DJo/8A4HRf/FUh8YeFWILeI9GODkZvouD/AN9UAeNeM7yddd8apJq1z5lpo1rNFsneECfMYLiMNwxz07ZrZ12+nvLyEXOu2zNe+Fl+xxzXy2/2e6cgCf5iASSD8yksNpGMEZ9N/wCEy8Lf9DJo/wD4HRf/ABVc1rC+BNb1ltSvde8O3btbrAIr2S3uEjALHdGGPysdxz1BwOOKAMCPT7bT/il4Qj1C7WcHQfLF0ZmKTzhgSVYnnJ5x6GuN8IXgsJPCNxa30kUlx4juoJgtw214jt4K5xg59PT2r2bRNa8GaBo1rpVj4j0kW1smxN9/ET1zzz6k9OKsXXj3wvZyKkms27llDhoA0y4P+0gI7dKqEJTdoq5E6kIK83b1IfDUmkP4n8ULp+pahc3i3EX22C5ZjHbttOBECAACM5wT0HbFc148urdPi38O1eeJWjlvC4LgFdyIBn0z2rsz4w8LozA+I9HVs/MPtsQOf++qP+Ey8Lf9DJo//gdF/wDFVJZ594v060n8QazqfhnxhfWvi202O2med+7nYINsYiIG7cABxkZPNeswmQwxmUKJCo3hegOOcVi/8Jf4U37/APhItG34xu+2xZx6fep3/CZeFv8AoZNH/wDA6L/4qgDborE/4TLwt/0Mmj/+B0X/AMVU9n4m0HULpLWy1vTbm4fOyKG7jd2wMnAByeAT+FAGpRRRQAUUUUAFFFFABRRWXeeJtB0+6e1vdb022uExvimu40dcjIyCcjgg/jQBqUEA9axP+Ey8Lf8AQyaP/wCB0X/xVH/CZeFv+hk0f/wOi/8AiqAOE8M3ED/tDeMlE0bb7K3VQGB3ERx5A9cd6RrKPX/jR4h0i61K9js0sLeVYLa7aIeYCpz8p/Me+T2rvP8AhMvC3/QyaP8A+B0X/wAVR/wmXhb/AKGTR/8AwOi/+KoA8V8Sa3PYr4ns21OeC7i8UQtDF57K6QMOwzkIfy5HtVrx9ev/AMJT48VdSuI1tdKtprdIrt0VJdyfMAGAzz+tevjxh4VDFh4j0bJ6n7dFz/49S/8ACZeFv+hk0f8A8Dov/iqAPNdQ1ddR8R6Xp3iPV57DS9R8OxNY3yTeWouyyszh+nmYHHtwPvc5fj7xC1tqutJZarf/AGrT5tOcSXBKNADw3lgAYVgcuWwMkDBzkeunxh4VbG7xHoxwcjN9Fwf++qX/AITLwt/0Mmj/APgdF/8AFUAeaamLGD4i+O5p5hFJJoaT2jtMVLERNlkOeceo6GsSz1fUbjSYG1G/l+xp4LmnsZGnI3XgIBYNnmUcAdx2617N/wAJl4W/6GTR/wDwOi/+KpG8YeFGxu8R6McHIzfRcH/vqgDyPU73UbnWvD0Gt3lzBcS+FJpryIXDQ7pQjEM4Uj5uM816R8L9Qmv/AIZaHd3dy08ptyJJZH3E7WI5PsB3rV/4TLwt/wBDJo//AIHRf/FUf8Jl4W/6GTR//A6L/wCKoA8Z0bWZ9N+FuhzxT7NMPiNl1OVMsqQmRj8+DnYTtz6jA74OxrObTUPA1mviV9Qs7rVpwJ7eVoVeBsFYwwc71XO0HPt2r01vGPhVlKt4j0YgjBBvouf/AB6lHjLwsBgeJNHx/wBf0X/xVAHkGiarcSfD/Smn1wLZ2/icwTRXF1t+0W4Jbyt7HGMZO1iAQMZ6CneINOEXgNb+41CK7tpfFMdwphvDMlral/kjZgxUbQexwNw5r0TxDf8AgzxJBaRXniXRXjtpxOIZbqCSKU7SuJEY4YfMT2wQD2pnh648CeGmvX0/XdBga9kV5UguYYohtGAFRTgD8ySTzQB5j4za0j8U+OJ7O7eI2+i2r2rw3LKQcx4OQeeo65616VY3ul3ev+DprzVtQ/tmfS2kgt43b7PODGC7SADBI5I5HI+lbV1468L2ixs+t2kiyZ2m3bzxx1zszj8f6U6Lxr4WmiSb+39Nj3A7RPcLE+M4+65BHT0q3Tmo8zTt3IVWDlyJq/Y5v44Sxx/CXWI3kRXkMARS2CxE0ZOPXgZrM8Ww/bfF3w9nubmRND2Tq1zDKUWOcw/uzvHQkjg/Wu7/AOEy8Lf9DJo//gdF/wDFUjeMPCrqVbxHozKeoN9Ef/Zqgsy/hjfaxqPgOxudblea6LSBJ5Fw0sYchHP1HfuMHvmuwrE/4TLwt/0Mmj/+B0X/AMVR/wAJl4W/6GTR/wDwOi/+KoA26Kx4fFnhy5njgg8QaVLNIwRI0vI2Z2JwAADySe1bFABRRRQAUUUUAFFFFABRRRQAUUUUAFFFFABRRRQAUUUUAFFFFABRRRQAUUUUAFFFFABRRRQAUUUUAFFFFABRRRQAVia5/wAhjwz/ANhJ/wD0kuK26xNc/wCQx4Z/7CT/APpJcUAbdFFFABRRRQAUUUUAFFFVZ9TsLWcQXF9bQzFd4jklVWK5xnBOcZ70N2V2TKUYq8nYtUVzd3460G0gjlNzI4dgoAiKkcE87sAdKzLz4maYkQNlGs0m7lZp1iAHrkbuenGPxrFV6b2d/T/M4pZng471F8tfyO3orz5/ihGFj2WVoWK/ODqGApyeB8nIxg545JGOMnPk+I2t3N6I7CLRgsjBYoWkeVyTgYyCMknpgVopwe7t95k85wa2lf5P/I9RorzpvEvj1FLNotoVUZIS0nLEew3cmoZtT8a69ItjDZ3FqOGaVIHtEI3DO53O4Y6/IcnJ4IFNSjL4Hzel/wA3ZL5tD/tWk/gjKT7JP/hjt9V8RaZo0iRXlxtmddyxqpYkdBnHC5PAyRk59DXDar8TLq6nWy0CyMs7k7SgMrkAg8ADH3d2fvYqxpnw7vrzU5LvxXfJex7cLFDK/wC8OAMsxAIA2g4Hf0xg9do/hbRdAlll0yxWCSVQrOXZzjrgFicD6dcD0FaeygnepK/lHb5y0f3JerIcMdiXeT9nHst/v/yt8zi9P8I6z4mm/tLxCI7YErsimj82Zoz8xGcgR9TgY4OcqMc1vGnhLTvDemW+qWMVyWjnVWeMhWiz0kBUDGCABnuRyO/qlZ+uaf8A2toN/YBYmeeB0TzRlQ5Hyk8HocHPbFZ06VJVE0ml5OS/G9/8wnlGHVJqKfN3u73+8zfCHia38Q6REfO33kSAThgAWIABbA45PYdM+mCeiryH4ZPcRaqtibSWJ4JpjO5BBIKAbGGONrIOvdu3f16nJONWpTbvyu1++ifTTrY2y3ETrUXz6uLtfvon+tn5hRRRQegFYlr/AMjzqv8A2DbL/wBG3VbdYlr/AMjzqv8A2DbL/wBG3VAG3RRRQAUUUUAFFFFAGJ4y/wCRG8Qf9g25/wDRTVt1ieMv+RG8Qf8AYNuf/RTVt0AFFFFABRRRQAUUUUAFFVb3U9P03Z9uvra18zOzz5VTdjrjJ56j86yf+E38OmUoNQ3YYpvWCQoSDjhwu089wee1EvdjzPRdzKpXpU/4kkvVpHQUVy+pePdFsUAjmM0rqxRSDGuRjgsw4zkdAe/FZI+KNklmZJraJZg+PLjuQ67fXO3Oc9tvvmsVXhJXi737Ju/pa9/kck81wcXb2ifpd/lc76ivM7r4ovOu7TooI1iUtMZYpJgBkAH5du0ZOOc8kfjLF4w8VTxJLFpyyRuoZHTSbkhgeQQd3IrTnsruMl/25P8A+RM/7Xwzdo8z/wC3Zf5Ho9U9T1Wy0e0+1X9wIYtwQEgsWY9AAMkn2A7H0rgbnxJ4vvYWsRpV2huB5YntbCWF4ySB96QkDOT83GOvHUN/4QTxDqtzbf2pqQSyx+8V7l550Uj5lBYFQTwDyQCARnHNQ95rRpd3p+fvf+S/pceYTqaYem2+7Vl+Oppa78Rra3a2h0UC8nkZco0T5bJK7VXg7sj9MdTxiWWh+JfGryT6yG09IV2xvcwEvvIGTGmV2jABz6gdecdzpng/QdHv/t1lp4S6wQJWkeQjPUjcTg+/Xk+tblNwpbu8n3elvRLR+ruxf2fUrvmxcr/3VdI868Y+D7TT/Ccl3aRvc3FoNzmZN7SIThvu427Qc5AHCnPqL/gDxRbalpttpm4CaCHCgsMgAkBMYHRcYIzkDJOQa7avFPC9vc6D4rk0C8iXzxeW8rOj5GFJxjjkESg9iMcj0TpQp4Wcqas4tOy2abs9Nl3ujnxNKOAqxrUFyxejS2/4d9/+Ce10UUUHuhRRRQBiXX/I86V/2Db3/wBG2tbdYl1/yPOlf9g29/8ARtrW3QAUUUUAFFFFABRRRQBieDf+RG8P/wDYNtv/AEUtbdYng3/kRvD/AP2Dbb/0UtbdABRRRQAUUUUAFFFRXN1b2du1xdTxQQpjdJK4VRk4GSeOpoSvogbtqyWisKfxl4ft3CHUUmyM7raN51+hZAQD7Zz+dNbxnof2dporppcKSEWJgzEfw8gAHtyR74qKlWFL+JJL1djmnjcNDSVSK+aN+ivPY/ihxKLjTIIJVHyxvfDJbI4PycDBJyM9h64qXvxRuBCptrbT4SGG5muDP8vThQEPXHOegPFNSi3ZO/prf0te9+ltzlecYJbTv8n/AJHptFebW3jXxNeW63FrZRTwvnbJFpdwynBwcENjqKWXxf4uCMn9iXD71IElvpkytGexw5IP/wBboaOa7tGMr/4ZL8Wkvx/EP7WoNaRk/wDt1noF9fW2m2Ut5eTLDbxLud26Af1PYDqTXMX/AMQtHGmyTaZdJPORiPzY3jQc43EsBkD0HU4HGcjGPhXxbqQRrq+EUcsgaaO6unlOM5z5S/u85AYBWA4HToOjTwD4cEkUs1gbiWMqd8srkOwAGWXO05wMjGD6U1eS193z0b/8B2+bl/26S62NxF1ShyLvLf5Jfqck0nibx01vC1m9rY/KZJnRo7d0J3BwjHMuQvA7EjkZzW9F8ONMGlG3mdZLvczLP5QCISMACMk4XgEjOSc8jPHaUUpU4PRL722/+B8rL73e4ZXQ1lWvOT6v9Ox5j8NtdS3ubnRbh5Lcbv3VrOxzDICQyjIz8xPQ9GB7tXp1eM+MbSXQ/iOt8sRjgvcSRNATH8+ApJOMbg+HIHXI5BOR69YTtdada3DgB5YkdgvQEgHitKy5K3Le6klJX1fZpvd2fV6u+rb1MstqShOeFm78u3p/W3kWKKKKk9cKxPFf/IHg/wCwlYf+lcNbdYniv/kDwf8AYSsP/SuGgDbooooAKKKKACiiigArE0P/AJDHib/sJJ/6SW9bdYmh/wDIY8Tf9hJP/SS3oA26KKKACiiigAooooAKKZLLHBE8ssixxopZ3c4Cgckk9hWHe+N/DNhs87WbZt+ceQTN09dgOOverjTnP4VcidSEPiaRv0VzaePfDkqB476V1PRltJiD/wCOVkn4ko2pyRRaPcS2CMV+0CVVkOB18tsYyfUg4Ofas5SjC/PJRt3aX52OapmOEp/FUX3ndUV5tL8VcW7OtjaISvysLwyFSehKbFJAPUZBxmmW/jrxFdyzRW1rBNJA22ZI9MuGMZ5GGAfg8Hr6Ghysr2fyjJ/kmYPOMLe0W36Rf+R6ZRXnf/CWeLv+gX/5SLn/AOKqr/YXizxH9pu5ry8t45uDb3M7wQyKeGURrllAAx8w5yD82SaSqRbtaX/gMl/6Uor8RPNIy0pU5Sf+Fr8WdNP4/wBAAuYrO9F3dxK5SJEcLIyg4G/btwTxuzjmuRn1rxh4ohTTYrLbHcFopJ4IWS2K9yZGz90gggdfmUg8V0+k/D7S7XShbahH9okcfvBG7Io9gVwTxgZPJxnjOK6yKKOCJIoo1jjRQqIgwFA4AA7CqUrybatHor6+rat9y+97KVQxeJ/3iXJHtHd+r/yOPsvh1YxW0kV9dNcBhhUiiWKNRkHO07sng98c9M81zfgeaHw7411HR5DNDvbyShj+WRlYCOQZ5UEE8ZP3xyQMj1evKvilY3Frrum68U32Sqlu4STa+4MzY6HGVJ5wehyOmbw+HT5oUvdlJeib31WzvtfddGZYrBU8LBVsNGzi/v8AX/Pc9VorK8N3rX+g20skgeVQUcg5OQcDPuRg/jWrWFKoqtONSOzVz1qFWNalGrHZpP7wooorQ1MTxl/yI3iD/sG3P/opq26xPGX/ACI3iD/sG3P/AKKatugAooooAKKKKACiiigAooooAKKKKACiiigAooooAKKKKACiiigAooooAKKKKACiiigAooooAKKKKACiiigAooooAKxNc/5DHhn/ALCT/wDpJcVt1ia5/wAhjwz/ANhJ/wD0kuKANuiivNfE/ifxBY+MLi0huhaafAkRTMSAS7gOSzjgbiwzkAbeccmnb3XLt+Otkl5ttJHNisVDC0/aTTa20O+vtW0/TF3Xt3FD0O1m+Y5OBhep5rFvfHmg2TRq1w8hcEjam0DGO7Y9a5qP4balq0cNxrOsmF5CHuLWGLdjJyRvLct7kEA5xkddzSfhr4d0u4MzQS3r/wAIvGDqvBB+UAA9e4PQYxSVKTjepUSfZK/p7zaXro/J9TiU8xq7RjBeer/P9ClefE6zSUCytoJo9vLTXYiIPpgK3HTnP4Vkxnx74isZJotQmht5WyBFCkOBkEeW5IYp0wwPI79a9Fs9H0zT5TLZabZ20hXaXhgVCR1xkDpwPyq7SXPFe5N+to/qn+BX1LE1P41d2/upL/M86Twf4uhZHXXpJjjLLLqU4APtheR16j0qax+HEs6TS6xqki3Ex3Oth8o3ZJLFnBLE5GTgfjXf0UuWLd5avz189novkillWGveacvVtnKr8OfC5RfOsJJ5AoDSyXMm5yBjJwwGfoAKt6f4J8OaXdrdWmlxLMv3WkdpNpBBBAYkA5A5HNb9Fb+3q25eZ29TrjhqMfhgvuRSs9H0zT5TLZabZ20hXaXhgVCR1xkDpwPyq7RRWbberNlFJWQUUUUhhRWRqPijRdKuha3d8ouMZMUaNK6jg/MEBK9RjOM1yOvePr28iW18N2s8Uzz+Wbq4jUcZAGxDkncT3Ge2Mnh+6mlOSjfu7HJXx2HoX55q/br9x6LXF6p8RtNjNzbaSDeXMaHExGLdGyR8zZyRxn5QQfXqRzsHgLXvEeorqHiS8+YoB8wGcYOAFXGPcfLySeea7bS/Bmiadp8drJp9rdMADI80IYMwHUA5x/PpknrQ5QatTu33asl3snZv8F1u9jl9vi8SrUY8i7y/Rf0vM4jw/pHit9f0/VLeMQ2M8guLi6MkY+0K/wAzkoCT8wPAxwSOmBj1eiijSySVvzfm+7/pHXhMJHCw5Itu+uvcKKKKR1BWJa/8jzqv/YNsv/Rt1W3WJa/8jzqv/YNsv/Rt1QBt0UUUAFFFFABRRRQBieMv+RG8Qf8AYNuf/RTVt1ieMv8AkRvEH/YNuf8A0U1bdABTXdY0Z3YKiglmY4AHqa4n4ieINX0Y6VbaRMsMl28m9zGHOF28cggD5iTxnge+cnTfCeqeJLQapca1EHmB2XJAuHYbjkYBCoueignGeikGipGUYrls2/wW135X7Xb7aM86vjpRquhRhzTXnZL5nZ33ivSLHK/ahcSgK3l25DnBOM5zgdCeT2rCvfifpEEKvbRtMdwDK0irhT3GCxPOOMdM+mC6x+GGjW91bXV5c3l/LCAWSd1Mbkeq4zjPOMn0Oec9NbaFpFncLcWulWMEyZ2yRW6KwyMHBAz0NL2Tv71S/orfi2/y07MhQzCprKah6K/5nBL4o8S+JL95dAW4Fmq42wxR7VYYzuklGCx3dBjAA4PJp9t4U8YNCrtqlyu4f6u51SUSIckc+XuUjoevf8vSqKHHS13b1s/vjy/hbz6gss5ta1WUn62X3LY8+s/AmsXd4Ztd1SJgq7EeAtLMUyTt3yDgA47HPPQ81rQ/DvQFikS6S6vDI25mmuGXsABhNq9vTNdXRRGMIS54RSffr9+/4m1PLMLTd1BN93q/xOYi+HnhWGVJV0lSyMGAeaRhkeoLYI9jxW7/AGZp/wBv+3/Ybb7b/wA/HlL5nTH3sZ6cfSrVFayq1JfFJv5nVGjTh8MUvkFFFFZmgUUVn6rrmm6IkTahciLzmKxqEZ2YgZOFUE4Hc4wMj1otcmU4wXNJ2RoUVwut/EWKCArpMG+UsAtxeDy4cYyeCQ5PbGB69BzlL4N1/wAU3UNz4ivpGhjjHleZGseA2Sf3a4wfu5ztPTrjASqUrX5r+SV/l2T9Wjz55nTcuTDp1H5bfN7I6TWfH+k6XeS2ECTX99HuVordflRhjAZzwOTgkZxg59K4MaR4k8SXLavYRK1xdzL5moJIIki24AEfO4quAMjJ+U9T07/RPA2l6VbNHcRQ3rMoVhJCvl8HqEOecbckk9OMZNdLFFHBEkUUaxxooVEQYCgcAAdhVKXvJ20T2722vt115dtrtmUsHXxbTxT5YrVRX4XY+iiikeuFFFFAGJdf8jzpX/YNvf8A0ba1t1iXX/I86V/2Db3/ANG2tbdABRRRQAUUUUAFFFFAGJ4N/wCRG8P/APYNtv8A0UtbdYng3/kRvD//AGDbb/0UtUvHuq6ro/h5J9IGLh7hImk8sN5anPPPAyQq5PHzeuKqEeaSje3qZ1aipQc5bI6isu/8RaVp1pcTy3sL+RkNHFIrPuBwVxnrng5wB3wAa4PT9K1jxoTc3Wox7LZTCl26I58zJ3BYlICHpknBI28MMEa9r8MLABXv9Tv7mQtmZY2EUUo9CoBIGAAfmz9Kyg5T10S873fyW2ndp9HFdPNhjMXiFzUKVovZye/yX+ZJdfEmxhgLJp90khICfaXSNCfQsrMRxk9O2KxpPF/iLxLeCHw+DbtAv72OBFmVyQSMyuu1QQMDIHOevFdvF4U8PQxJEuiaeVRQoL2yMcD1JGSfc81r1aTWrlr5JJfc+b879mivquMqaVa1l/dVvxd2eaw+GvGV00lxJqV3Ezu26K51F0IPByohyoHJGOOnQDrNB4K8S39xENb1i2aGMcSRF5Zeo3AbwAuQOuD0HBr0SipcISXvrm9bv8Hp66a9bj/snDv425erbOVtvh9osUkkk73t2zAKDJOU2gZ6eXtz175pW+HPhRmLNpZLE5JNzLkn/vquporSnJ0/4fu+mn5HTDBYaCtGmvuRmv4d0SRY1fRtPZY12oDaoQoyTgccDJJ+pNaVFFJyb3Z0KMY7IKKKKRQUVWv9Rs9MtjcXtxHBFnALnljgnao6seDgDJNc9f8Aj/R7SBZITJOXDbSy+UqsBwGL4Iz7A9OlTKcYW5na5z1sVQofxZpfP9Dqqw9f8WaV4b2Jeyu9zIMx20K7pHGcZx0H4kZwcZxXDW0HiTx1Cq3N5NJo0824ukSQxLtJO3Gd7gHgdRkcnIyOk0L4e6fpNw8tw0V0BjylEJTbzn5juO7t7deD2pzUdotvz91fj73y5fmcSxuIrr/Zqbs/tS0X3bs5LUZ9Y8d6s91aWB8mwVjaWr7VYbjjfIWIwSV6Z/h4zgk+j+GLXULLw1YW2quGvIotr4IOBk7QSOpC4BPqOp61oWtla2KMlpbQ26OxdlijCBmPUnHfgc1PTu3dy62+SXRfe2+rfyNsJgnSqSrVJc05b9vkgooopHeFYniv/kDwf9hKw/8ASuGtusTxX/yB4P8AsJWH/pXDQBt0UUUAFFFFABRRRQAViaH/AMhjxN/2Ek/9JLetusTQ/wDkMeJv+wkn/pJb0AbdFUtYvJNP0S/vYgrSW9tJKgcZBKqSM+3FeV6e/iLxtJDYXOqRuohWeYSlVTYXGMRoB5hwP4uAcfMpIzXLon30/C/3L/hrs4sVjVQlGmouUpbJf5nql5rGmafKIr3UrO2kK7gk06oSOmcE9OD+Vc03xJ0r7Q0Kafqj4YhX8lEV8dxucH3xjPtVax+GscBlFxrE5RiCiWsCRKnr97f146Y7+tdFaeFdEtNOgsTp1vcRwqAGuYlkZj6kkdf0HQYHFRefZfe3+Fo7dru/ddcebMKmyjD1fM/0OMuviDqupxGy0+0Swviw+432qXA5IWMIM8c55wM8dw9dG8cajcE3dzdROq7RI16IIiAT0WDnJznkdsZ4GfRooo4IkiijWONFCoiDAUDgADsKfSabVm38tPua9775P87r+zqlTXEVpPyXur8P8zzaTwf4zvIjaXesWjWjsAxa4mkZVzkEAgBmHBGccgc963LHwDY27RPdX15dsq/vEbYiOcYJwq7gM8gbvxNdbRUzo0Zq0qcX6pP87lxyrCJ3lDm9dfzOebwP4eaRn+xSBmOTtupVBOMdA3sKvQ+HdHh08WP9nW8lsH8zZOvm5fpuJfJJxxk9uOladFXFKFuXSx1QwtCm7wgl6JDIoo4IkiijWONFCoiDAUDgADsKfRRTNwoopksscETyyyLHGilndzgKByST2FAD6K5OT4i+HygNnJc3z7sFIIGBUYJyS+0Y49c1y41DxT45S4itpBDprsIJorXaFVW5+aVuWIBAYJnjtzVNKLcZuzW61b+5bX6N2XmcFXMaMHyw9+XaOv5bHf674i0zw5aLcajPs35Ecajc8hAzgD8uTgDIyRmvOtf1PUPHt/b6fZWM0dhEfOWCRVEszKOS3OEABKjJxlh1JAG/YfDGxtLkM14xgx8yRR7HY5HBcknaR2GD3BFdnbafZWTyPa2lvA0uPMaKMKXx0zgc4yalVJW9xcvn9r7tUvW8vKz1WE6WMxa5an7uHa95P57L8TE8FafqmnaJJHqyiOZ7hnjhEm/ykwAFyOOoJ44+b1JFdHRRQkkkoqyWyPRo0o0acacdkrBRRRQamJ4y/wCRG8Qf9g25/wDRTVt1ieMv+RG8Qf8AYNuf/RTVt0AFFFFABRRRQAUUUUAFFFFABRRRQAUUUUAFFFFABRRRQAUUUUAFFFFABRRRQAUUUUAFFFFABRRRQAUUUUAFFFFABWJrn/IY8M/9hJ//AEkuK26xNc/5DHhn/sJP/wCklxQBt15b8WZG3RIkMX+qUvJt+cqWOAT3AIGB/tH1r1KuM+JWnR3nh0TyOY1hcKz5GFDEDJ/4EFH4n6jObcXCdrpSi2rX0TXRdt15o8zN4SlhJcvRp/JPX/P5HV2N9balZRXlnMs1vKu5HXoR/Q9iOoNWK5HwJcQad4As2vZ4rdYGkWVpXChCZWwCTwM5H5j1q1f+OdEs3WOCdtQlOCVstsgUHPJbIUdOmc8jit5qK5pRfurr0t3vsdMcXSVGNWpJJNJ7nSVFc3VvZ27XF1PFBCmN0krhVGTgZJ46mvNpfFHi7V4Ght9NaKC6bZHJYwOzxgkggzE7FIIwW7cn5eoltvAuvak9qdZ1BFhjUON8zXU6MSu4AuNqkgdRkZHQ1G/w6rvsvv3fyTOX+0ZVNMNTcvPZfe/0OkufH/ha1uGhk1eJnXGTFG8i8jPDKCD+BqxpXjHQNavRZ2GorLcFSyoY3QsB1xuAye+BzgH0qvZeB9Ktd/nPc3m7GPPcDb9NgXr756VyvjfwrbacbW/skniCttFxGSTBJvyhJBzjJwD2x1yeYdbk/iU9O8Zc1vPl5ItrvZ39TOrisfQj7WrCPKt7Nt2+49PorK8P65D4g0wXccTwyKxjmhfrHIACRnoRgggjqCOnStWrPWhONSKnF3TPEbnxL4j8Xa5ImnalLaWwm2W8MUohbaxwuQDljxySSAT1GRXVf8If4ri+VNclmHXdLqk6ke2AtZPiDS5vDPxA/tlbUGxu5RJEwc7TLwzKxOdpZlYjr146ED07StTt9Y0yC/td4ilBwJF2spBIII9QQR+Fa4qbqVeVaQSVknbe97tWb1T6ngYfD+3r1KeIk+Zdm1p3OBfwZ4uuTHJd6jpss1sA1s0kk0hV8r/EwyvAzkZOQPqD/hBPFGoXpl1PW7SICPaJIladjg5A+cDjk9/w5r0qiseSl1gn6q/4O6O7+x8K/iTfq2cZpnw8tYMtqt/cag/IUJm3QA47Ick8Hvjnp3ro9O0LS9JO6ysoopNpUy43SMCc4LnLEdOp7D0rQooiox0gkvRJL7kdVHB4eh/Cgl8gooopnSFFFFABRRRQAViWv/I86r/2DbL/ANG3VbdYlr/yPOq/9g2y/wDRt1QBt0UUUAFFFFABRRRQBieMv+RG8Qf9g25/9FNW3WJ4y/5EbxB/2Dbn/wBFNW3QBzHj6KeTwxI1vGrPHIGyQpK8EAjPQ5IHHYntmqnwxvra48F2trFMrT2rOs0Y6oWdmGR6EHr06+hrqNRsU1LTp7SQ4WVcA/3T1B/A4Nef/Cu3W1udZ2MPKnEMkHPLL8+eOvG4CppyhGU4zdubla82rpr7ndL/ABPueRO9LMoye042+7X/AC/E9KorA1Dxt4d020a4fVbafHCx20gldjgnACnjp1OB05rlv+E78Sapdyto2hKllFwxnhklkPJwdqEYyO3PIPJrWUHCPNPRefX0W7+R2VsdQo6Slr2WrPSKxrnxZoVqkbtqMcqyZ2tbK044652A4/H+lcXD4W8W6rbLJc6mVjuWDyC8nkLIM5yIANikEBgueOAcdBtWfw202GSOW61DUrpwP3iGfy43bHJAUAgZ5ADfnWbUnqtF57v5Lb5tPujm+s4yr/Bpcq7yf6L+vI0P+E88NCWOJ9RMTSNtUy28qDPuWUADnqeBXR1wninwVaJoxl0rTnnkiOZITM7s6c5KhicuM8YIJGRycCrvgrxDDdwR6FJEYrqxtkCHO5ZolAXeDj5Tnqp9RgnnCjK/uyVpeq1XddVa6un6rS9nQxdaNf2GKSTezV7Pvv2Ouryjx54n1ebxT/YFhdSWMNuVLSwyFXkJQNkkYOADgL68ntj1evNviVo8kV/Ya7Zac0hTet7LEuTtAG0sB6Lv+b2AJ6V0UW1zci97lfL/AIraFZqqv1WTpPVCp4K8VmBWPiW+EhUEq2oSDnHQ4Bx+v41HeeBfEWoRCK9uoLmMNuCTancOAemcFOvJ/Ou08P6/b67bSmP5bi3KpOhwMMVByBknackAn0PpWxXNBucVNyk76r3mt9fstGNLLsNXpqalJp/3n+h5qngTxFcLFZXl/Y/2bGQVjeSW58vC4G1W2j26jAJ/HQ0z4bpa3Ob7VDc2gBxbQwfZxk9PmVi2BzwCPr1B7qim4Qe8U/XXXvd3d/Pc1jlOETu43fm2/wAzI0zwxomjyebZadCk24uJmzJICRg4dssOO2e59a16KKtyct2ehCEYK0VZBRQTgZPSikUFFFFABRRRQBiXX/I86V/2Db3/ANG2tbdYl1/yPOlf9g29/wDRtrW3QAUUUUAFFFFABRRRQBieDf8AkRvD/wD2Dbb/ANFLVvXIo5tBv1ljV1EDsAwyMgZB+oIBHuKqeDf+RG8P/wDYNtv/AEUtbLosiMjqGRgQysMgj0NTOPNFxXUzqw54Sh3TRwfwxvLcWuq6eZQLtb15zCeG8tgoDD1GR29vUV31eXeC0t7Tx/qOZ4wY45bR9zBSzrKoXAJ6sF6D0rur7xVoGnLKbrV7NWhbbJGsod1OcEbFy2QevHFXC9RRSXvJJNdns1/l3VmeflddfVYqpZOOj+Rr0V51cfELUtSuIl8PaS5hCF5GuoGeRhkDKpG2cDI56HPbHNSLSPGevm6upJpYEnyPKvZpIYipJUqsC5IXA/j5OQeeaGrXtq/L9Xtp1V7+RUsyg3y0Iub8tvv2O5vPFOh2LMk2pQNIjlHihJldSOuVTJGMY5HWqMnj7w1Cu6W/kRScZa0mAz/3xWbafDWzSO3+2apfTvEfmWErBG4z02qMgYwPveuMVd1PwVpY0e7SwsnN0InaENcO259pwp3sRg9MHjnt1qXzpqyT+b/NxX5ESqZlZyUILyu2/wADp4pY54klikWSN1DI6HIYHkEHuKfXnnw91mKzJ0KcSpJNK8kKNkiF9uXhIx8hGGYD/e6Ec+h0JqSutv6/U7MJiY4mkqkfmuz6o87+I/irUNNvLPRdLnNvNcpvlmCjO1iVUK3UchiSBkfLg9ags/B/ii5soLj/AISm+PmoHH+nSrwRkcYP862viLoNzq+kW93YW4nvbCXzVTJ3MmPmCgdTkKcdeDjk4MngrxTBq9rFp5QpPDbq8ZHKyRjC5z2YEgEe4I7gaVpzapxpvlVne1r3XnvtsvJ9jzK1N1Mb7OtJqLXu2dtexiT+BPEs0EkT+I7uVHUq0cl/IVYEdD8vQ1FP8P8AXBZyadBdW7WGSI4ZL+cIRuyCYwpA55xnr3716bRWa5tOacnb+81/6S1+J0/2TQe7k/8At5nn0Hwx2XGZNYCW7DEkdpaLEzcHGGLNjr6fl1robfwR4btrhp10qKWRl2k3DNMMcdnJGeOvWugoqoPkd4aPy0b9Wt/mb0cvwtHWEF+f5hRRRSOwKKKKACiiigArE8V/8geD/sJWH/pXDW3WJ4r/AOQPB/2ErD/0rhoA26KKKACiiigAooooAKxND/5DHib/ALCSf+klvW3WJof/ACGPE3/YST/0kt6ANuvMdBubLTPipdwSPFbRywSW1umNq7vNyqDsOFIH4DuK9OrzXxdZQ/8ACwNKuRKVeOW3uJAxAUL5m0nPYYjz+B9azc4U6kZ1HaOqb7XVk/vsvmeVmj9m6Vf+WX56HpVFUrzWNM0+URXupWdtIV3BJp1QkdM4J6cH8q4/VPiOrSJb6FZtO0jKq3NwjKjE4ICJw8hPIxxzjqK15Wld6L+vv9Fq+h2V8XRoK9SVvz+472s/UNc0rSdwv9RtrdwnmeXJIA5XnkL1PQ9BzXCLL408T3hCQTacLZOHkMtnE7En+EZZ+MdTgY7Z5vab8PJ2Es+r6q4uJm3slkqhQ2TklnUlieDnA5z1qWpr7P3u1/uUmvmkcn13EVf93pad5Oy/Vmn/AMLH8J/9BX/yXl/+Jrd0rV7DW7IXmnXK3EBYruAIII6gg8g/XsQe9Zy+DtGWCOMwSMyhcyGQ7nxjOccc98AdeMVxWiXq+AtUvItQ054YbiSNZ5UfKoBuxIgx86EvjjBGOmQRSVVXUJQs3ompJq/Z3UWr9LXu9CPrmJoVIrFxioy0ur6Ppe/c9TrmPHniG58N+HPtVmim4mlECO3IjJVjux3Py8Dpk9+h6esjxRpEet+HL2za2W4mMTNbqTgiUKdhB7HP6Eg8E1vRcVUi57XPSrqbpSUHZ2OA0Pwz4t1XTUvZPEd9GJM7VN9IDwcHpn6duh+taK+EvF4UA6sWIHU6vc5P/jtN8Ca/HpwTSNStZ7W9urnDNKNgEnljAYNggsFXGAclgPr6PWF6lRXrN362bik1o7crWna97qz6njYHB0sTRU5ylzbP3mrNb7WPMbLwBr2m7/sM1ta+Zjf5Gozpux0zhOep/Op4vhYqRJi8tI2KgurWhmw3fDFwSPwFej0UON92/nKT/ByaOpZPhdmm15yf+Zgw+DNCiMTSWf2h41Ckzuzq/HVkzsJ7/d69MYFbcUUcESRRRrHGihURBgKBwAB2FPopxioR5Yqy7LY76VClRVqcUl5KwUUUUzUKKKKACiiigDE8Zf8AIjeIP+wbc/8Aopq26xPGX/IjeIP+wbc/+imrboAKKKKACiiigAooooAKKKKACiiigAooooAKKKKACiiigAooooAKKKKACiiigAooooAKKKKACiiigAooooAKKKKACsTXP+Qx4Z/7CT/+klxW3WJrn/IY8M/9hJ//AEkuKANuorq2hvLSa1uE3wzI0ci5IypGCMjnoalooTtqgavozz9fhrcLcjHiKb7KH/1ZtVL7M9N+euO+OvOO1bVj4E0e0nMs/n35wAEu2VkHX+BQFPX+IHoMYrpqKlU6alzRhFPuopP70jhp5Zg6cuaNNXGRRRwRJFFGscaKFREGAoHAAHYU+iiqO4KgvbVb6xuLR3dEniaJmjOGUMMZB9eanooE0mrM848Fajcab4kvNAv73aIXkRUkiCGZ9y7HHHGVHAzg5HqM+j15/wCP9BlhvIPFGn+Ys0BVLsRL/wAsxn97xySvHrwAeAtdV4d1VdV0mJ2lD3MahJwcZ3f3iAAOcZ4GOo7Vm+SlUVOOikrpf+lL5XuvJpbI8rAy+rVXg5esfTt8vy9C1qumW+saZPYXW8RSgZMbbWUgggg+oIB/CvNNG1a68C63PbavAVtLhgbny8ssLdFmQd0bvxnjHVdter1y/jrSY9S0IzfZp7iaBgEihBYsrMobKgHOB83HI29cZzpdpppXt07rqvXZrzS6XT0zChKyxNL44fiuq/y8zqKK4n4ea7BNpsWgySTve2cRcPIMrJFvO0o2TwAUGDjHQdOO2qpJJ6O66Puu52YevGvTVSGzCiiipNgorD1nxdpGhyi3nnM14TgWtuA8nbqM4Xg5+YjjOM1x7eP/ABDd3E6Wejh1VVzHawvcSQ7lOCzDC5yDwVHUdcGiV1p1tdLq15Lt57eZxV8woUJcjd5dlqz0LUNTstJtGur+6it4R/FI2MnBOAOpOAeBya5K8+Kvhu2lCRG8u1K53ww4APp85U5/DHNZuheBbrUzFqmvHYZW3m3lDPcbdoC7pScqeOmCQOMg9OpuvBOg3UBiaz28ghg5Yg+wbI/Snz8jtKnf/t635Jpv5282c7rY+rHmpwUV5vX8Fb7yz4e8S6d4msmubB2BRtskMgAeM9sgE8HsRx+IIGvXkUV5ffDfWJ7R7O28u8dWFwQwjnRS3A5/dn5sH72M5wRgn1i2uYbu3S4t5BJE4yrDvTqOKnZJq+qv29Vo/wA11s9DfBYv2ydOorTW6/UlrEtf+R51X/sG2X/o26rbrEtf+R51X/sG2X/o26qTuNuiiigAooooAKKKKAMTxl/yI3iD/sG3P/opq26xPGX/ACI3iD/sG3P/AKKatugBskaSxtHIiujDBVhkGvBYPDts3gyPVVvruJ2WQGE2LtGz72UfvuFVcbc5JAOfpXvUhcRsY1VnxwGbAP44P8q5HSdC1zTfBg0Ax6az+XLGZjcOVAdmOdvljON3TNYVU29uj6X7fj5no4T2LouNX+eDte2ylf5aq66mLb+GdHsltVwk98tks1zGLlIYpNwI+V1XdyysVwR05PTPT2Guad9m04abaQ27amrzRxSYgBZNqsDgHL8gYx0B9KpWvhrVfDstnJok1vdKtolrcxXbMgfaSVdSAcY3MMelaeqaTPqdrb21/aWeoQFHM6uxjZZCRtMZwcAfMOoOMdaiEXHVKz/rruyIYLLqM70YqzvqtHs909tbWV1pp10YusajJ4lsLIWccUM1g1zIkkmHU7owQeOq7jx3z2xVX4jjb4G1CUcSR+WUccFcyKDg9uOKfYaFqlhfaRcG4huTb2T2lw80jbsM6sCvHzY245x61a8X6Rd674autMsjAss+z5pnKquHDdgfSqak6ck9/wDgHRTlRp4yjKLXKmrv0lu7+RlW2yXxrajQPMjsrZJI9UQApHuKjy12n+PPOQOneuWvPEK6B46nuYJUe2a5xI7YZjE0mJQFAz8ro2Mc/KucjOe8vNIvk1q31nTfs8d06iK9gkkYRzx9juCk7l7HHQ4rl9f8Ja0bG5itxbS29vNLf2jqWM8ZbLPCBt+dWJ45GeM5xipdJyaVtU7p+fT5PZ/ecuPo0MTCFXRyppNJys9G+a7XXXTRpxsrNqx195rjxNfCysXvfsOPPWNsMSQG2oMHc20g446jnPQfW3kkuksLJrlrRFadWfYwLLuCKMHLYxwcDkc+nCeBrzWU1C8tLFbYiUK0sV0rIbZkAQjCjkjCjadpPGD1NdlbaVqOlavqFzZmG5hvgjsJpCjRyqu0ngHKkAE+hqoznLutdfLcMPPC16KqQs7pPd76cyl2a97tfz0v54NZPhbX7fUtIt7iTRri38xIzKP30OBwepUxuxHIzgHk5Jr0HT/F1vqllpc1vEqS6ikrRRzy7BmMhWXODk5PAxyMntWPc+CZ4bOC3giguoLTS5bdAz7ZJJiyvkAqVAJUjr0Y1yPhKSCFV8L6tp9tJBdSySr9okKMJTsUIDt+VxtYHkcnHXAJTdV+416fm1301fpotEYxhgMJW9hGypyd4666891Zu2lou2m9tD0nUNY1GK90GKCzjT7c7ebHNJtZSImbZwD3HX2x3zTD4nunN99n0WZ0sZnind5kUKFQPnvnOcYHt+DBoWpwWnh8pcQ3N1prsZDcSMA4aNk4YAkkbh1HOO1WNP0e8jXXIrvyFj1Cd5UaJyxUNGqcgqOflz1PWn77f9dv8zvawqjeydl3evvPzv8ADaw+LxEJf7Df7Nth1aLerGTmI+UZMEY54GM5p1vrsl0bGaHT5pLG9YrFOmWKjBIZ1x8qnHBz3GQKybTQdZ8nw/Dcx2Kx6UDE+yZiZU8kxbh8owec4/WqsGo3HguwXTtW1DTvsdkm6ExyE3U8eSEURHjPGC2cYB9yHT9rOSik/u9P+CKvTwlODkmtPPzlr625dPw3LrazcT6d4mfUtPjnsrKSWJoo5clkESEjkDqCxznvgA9avN4gtba3gihSCPbaJcOJ5xFHDG2FUFyDyTwOOx6cZ83fxJrmoNr9lpemo1rqbyyGN4nknVWVYycIeMDaeQfvd6m03wV4h114tU1FfKXakBjufknCKANyDbhCMEA498H+ISmtd11fz79flc4543C1oNYZKUuiu1G/LHd306/PRnQz/FzQo4rZooLuZpQfNRVAMRA6HJAPPp2/Ktvwn4z0/wAVxSiFWt7uE/PbyMC23+8D3HOPY9eozjW3w8S1l0xikNx5dxLPeNJO6l96kBV2rg4yOflzjtnA5u9h1b4e+JptTFvbmzvXkWKdQ0iorEERv0PG1T74OCeRTpOrJ2cPud+nblX536JMxx1WNCDqKK5Uujbd+drZ9OWz7nsNFUtI1OHV9MgvIWQ+YoLqjbgjY5XOBnHrgZ4PertaJqSujOE4zipxd0zEuv8AkedK/wCwbe/+jbWtusS6/wCR50r/ALBt7/6Nta26ZQUUUUAFFFFABRRRQBieDf8AkRvD/wD2Dbb/ANFLW3WJ4N/5Ebw//wBg22/9FLW3QByGv+BV1fWTqlnqLWU8igXCmLzUl24CnG4YOBjj9Octs/h3p0PlyTzyPcBt0rwosayjOdpBBIB4z82fcV2NFRUpQqO84pvbZarz7/M4Z5bhJ1HUlBNv+vQqWOl2OmIVsrSKHcqq7KvzOFGBubqx9ySat0UVZ2xioq0VZBRRRQM838a20+h+IY9ZsbiaO4vjtSRo1aOCVY9o5IIG5eMYzwfw9Bs7y31C0jurWUSwyDKsP1BHUEHgg8gjBql4h0SHxDo8thM5iZiHimVQWicHIYZ/I4wcEjIzXH+CtXm07UptH1M/ZSzbVt5Hz5M248DjGHByOQCQMZL1ErRlzfzaejtZfel6XXeSPIv9Txjv8FX8Jf8AB/M9ErzLxXod1oOurrWloVglnFwXLkrFcZOQ2MHZIDt6nkkcZAr02o7iCO6tpbeYExSoUcBiCQRg8jkfhVO/K0v6a2f9brR6M7MZhViafLezWqfZ9DM8Oa/b+JNJW9gjeJlYxTQuOY5ABlc9+o59+xyBr15LpN9B4K8X3sl5HexWUgaBwU64lwk7DjIKhvmUHqcZzXrVW7NcyVvLs1uv8u6afUnA4p16fv8AxLRrz/4IUUUVJ2hRVXUNTstJtGur+6it4R/FI2MnBOAOpOAeBya4LUPibLc3Ai8P2HmxCURtc3CMQ5JIASNTuOflxznnBA61ag3Hm6d/082+iWr6HNiMXRw6vUl/n9x6PXNX3jzQbNZfKuJL2SMgbLOJpAxOOj/cOAcn5v14rk/sfiXxvfvDfW8unW0agmWeF1RWG4KYo2IJY5zuzxnBPQHqbXwFo0dtEt2k11cqgWS4854jIck/dRgAOTj27nrWfvreNvV6/cr6P1T20105FicXXu6EFFd5dfkv1ING+JGha1qcdhGLm2ll4jNyiqrt2UEMeT2z16dSAevrzbxl4cl0ae017SbKOe2sWWWS3JYtGykt5gOclem4dtoPqR0vhDxSniWwd3MK3KMcpHkZXjBwehGcHk9AeMgVc3pGTjy387q/a9k726NLyuVhsXUVT2GKVpdLbP0f/AOkrE8V/wDIHg/7CVh/6Vw1t1ieK/8AkDwf9hKw/wDSuGpPSNuiiigAooooAKKKKACsTQ/+Qx4m/wCwkn/pJb1t1iaH/wAhjxN/2Ek/9JLegDbrA8R+FrfXxFMsv2W/h4S5VN2UzyjDI3L+PB5HfO/RRumnszOrShWg4VFdM4a0+G1qjSPd3u6ViCklrbrEynnOS2/Ofw710WleGNJ0cRNb2ivcRji5m/eS5xgnceRnngYHJ45rXoqYQjD4Vb+tvTyMKGAw1B3pwSf4/ewoooqjrCuK+JNgsmjw6mz4SzYxzITgNFKVU9ATkMEPUcZrtaZLFHPE8UsayRupV0cZDA8EEdxRaL0ls/608+z6GGJoRxFGVKXVGN4S1abWPD0M9zIslyjNHK6JtDEHhh25UqeOMkjjGBuV5lpczeBvE0+nTeb/AGa2FW4liJadApYbcdShbBxnvwCRj02ojNuUoy3X49mvJr7tnqjny/ESq03TqfHDR/o/n/mcb460Ge8FvqenQTyXsWI5fJkwViG5g6ju6tyNvPzHg8YveEPEv9vWbwSxyi7tEjE0rBdk27dh1x67ScYGM45xXSV5TqSR+FviHHd/2ayWseZbUR9JIzHtkRPdWZiF+g+UEGr2vJ7W1/R/o/LX7Jhiv9jrLEx+GTSl+kvl1PVqKr2N9balZRXlnMs1vKu5HXoR/Q9iOoNWKbTTsz1U01dBRRUVzdW9nbtcXU8UEKY3SSuFUZOBknjqaSV9ENu2rJaK4DWviVHHPJaaHBHcOjFWvLhsW4IwTtxy/G7uOmRkVSu/+En8XXCaTdWs1vbnDTSG2eGBdpPzfNkyHkfJkqcA8YJon7klBq77Lou76L5u/ZM82rmdJS9nSTnLsv1eyOq1Xxz4d0eWWC51BXuI1JMMKmQ5GRtyOA2RjBIx3xWVY/FTw9e3sVsyXlsJG2+dcIgRT23EMcD36Dvgc1c0jwFpunwMt0zXbsc4AMUadfuKDkZ4zknkZGM1k+NfBQfTFudEsopJIA3m2zhnaRTjlCTkMMHgdc+oAN05XnyOno+vPr93Lb8fmZVKuZKPtOSNl0u2/wArfieg0VxngjxqfEe+2ulRLlACpGBuAAyCM8nOTkAZGeBjns6zT1aas1uuzPQw+Ip4iHPT2MTxl/yI3iD/ALBtz/6KatusTxl/yI3iD/sG3P8A6KatumbhRRRQAUUUUAFFFFABRRRQAUUUUAFFFFABRRRQAUUUUAFFFFABRRRQAUUUUAFFFFABRRRQAUUUUAFFFFABRRRQAVia5/yGPDP/AGEn/wDSS4rbrE1z/kMeGf8AsJP/AOklxQBt0UUUAFFFFABRRRQAUUVVvdT0/Tdn26+trXzM7PPlVN2OuMnnqPzppNuyE2krsnlijnieKWNZI3Uq6OMhgeCCO4rzHVbG58Da9Bd6dDJLYhS0CsxwQc74C2STxhlyP4R97Ya6XWPiN4e0eWKLz2vmdSxNkUkCD3O4DJ5468c4yM49/wDEXR9Z0i7t4rDUNrIf3kqKqKRzkkMTxwcAc/SliaNSFB1XHbVX7/8AB2807Hj5nUw8qblzpThqn59vnsdpo2s2WvaZHf2Eu+J+CDwyN3Vh2I/+uMgg1oV5r8IZZ3s9XTYyWQnR4QRwHIO4BscnAT9PWvSq2xFP2dRxR6OFrOtRjUa1Z5TrV/D4c+KAury3VIQRPb7CFDLImyQnHfdubnGSDkgHNejya5pMNvBcTalaQxTgmJpZlTfjrjJHTPPpVTxN4ZsvFGmG1uhslTJguFGWib+oPcd/YgEclo3wymimmj1q8hubOMbbURJ8+M9TuHy8Y45+vHMSjFR54fOP6x0tq9Wn1bd+j8/2eKwtWXsIqUZO+9rN7/1/wzv+IviXY6PewWunwR6q0ibmeC5XapJwFBAbJ4PHHbrnjm7EeM/GV4b/AO3zWNtjyxHaTtEgK7QRgE4PzZO7J4IHQAd1pvgjRNLuRcQwu0qsGUs20KQcg4XAP45/U10CIsaKiKFRQAqqMAD0FL20nDlhHk893/kvxK+rYrEP9/Llj2W/3/8ADnGaT8ONOskj+2SG4VZPMNuFAiPA4bILNhgT1GeARjiu1oqlqOr6dpEXm6hewWylWZRI4BcL12jqx5HAyeRUwh9mOv5t933b6t6nbQw9HCwtTVl1/wCCy7RXlus/Ey71NYbbwvbzRSO22Wa5iTKEkbcHcVA+9ktxj061jWVl441mVZo9X1A+czF/KncLG3J28YQdjgHGCPpW06dOkv39RRfbeX3LU46ubUYS5IXk/L9Or+47Xx7Fpuv+Hb6C0ktLzVLAGVI45lMsQVgJOAc9M5B744zinfDjUPO0qfTZGla4szG0m45A3r0Bz6qxPbn61jWXwpkt4N39qRw3eceasJlwMDpkrjv2PHeu20Dw5p/hu0eCyV2aVt8s8pDSSHtuOB0zwPr3JJzk41LWvyxva+93a/pGy0W7e9ra50KeIrYtYicORJNb6v8ArzNesS1/5HnVf+wbZf8Ao26rbrEtf+R51X/sG2X/AKNuqk9k26KKKACiiigAooooAxPGX/IjeIP+wbc/+imrbrE8Zf8AIjeIP+wbc/8Aopq26ACiiigAooooAKKKKACiq95fWenxCW9u4LaMttDzSBAT1xk9+D+VYWrePPDuk24kbUYrt2+7FZsJWPIz0OB1zyRnBxmrhSnPSKuZzqwgryaRh+J/Ck1hdTatpEt1Gk7yS3Qilw0Ttj94hHzAcNnk/eHGM46bw54ntfEcdwsUUsNzalVnikHQkcFT3U4ODweOgyKwIvijoV8TCNP1F0f5H3xR7cHjB+fv+tct8PdXum8dSwWal7K8Qm4zHnaEQ7Wz2+bjnj5vXGFDD1frFRNact35NNb+cl9/KeJTrUqWOSoSvGfxJdH0fzv+B7HXmPj9m0nxbpmqy2ROn7opDMgAzOjE/MR3KhRz2HH3a9OrP1nRrLXtMksL+LfE/II4ZG7Mp7Ef/WOQSKcOTm9/by3XmvNf8Bnq4zD/AFik4LR7r1RHB4j0ebT4706jbRQPgZmlVME5IByevB+uOMisnXvH2k6Tao1lLFql1I2I7e1mDcDqWIztGPbJ/MjnbT4YX9tqsiJrITSQ2UAXdMRnO3BG1TyfmGegO3nA6Sz8CadaXcc73d5chDnypzGUb64QE+vX9KiSqU3Zcs/O7X3rlf3c3zRxKpmUo8qhFPvf8bWf5nF3mpeL/GF8s1gLnTLSLagitpjuBYHliME8r3wFHvnO3onw1jhu/t+q3MksztvZN252J5O9/fnOBn/a5xXfQwxW8QihjSONeiIoAH4Cn1MpVakeWpL3bW5UrL57t/N/IqGWKb58TLnfbZfd/S8iK2tobS3S3t4xHEgwqjtUtV7y+s9PiEt7dwW0ZbaHmkCAnrjJ78H8q4PWPiWtxZSw+HrK6e5dikd1NEFiA5y4yeTxwCB156YOkado30jFdXokdlbE0MLD32kl0PRK53xONG1nT7rQ7m90/wC3SLiCGadVdJiP3ZxncDkjoOQccg4rz2DT/iBrVyLhtRv4xKgclJWiTGBjAG1PTp15PNadn8Kbibfc6jqKm6c7yXUy5YnJLDIyfxIOTVxq4eDTjNyf91O33uy/G/kee8wniI8tGk5J99Fb1en4lj4V6hthfTZWlMrw/aEUnhVVtuevGdy445C+wr0msLw94Ws/D4eZZHub2VQslzKADgAfKoH3Vzzj8ycCt2sVG1+7bb7XbbsttFey0R15dQqUMOqdTfX8XcxLr/kedK/7Bt7/AOjbWtusS6/5HnSv+wbe/wDo21rbpncFFFFABRRRQAUUUUAYng3/AJEbw/8A9g22/wDRS1t1ieDf+RG8P/8AYNtv/RS1t0AFFFFABRRRQAUUUyWWOCJ5ZZFjjRSzu5wFA5JJ7CgB9cd428Nfa7SfVdOtfM1BVAlhVQftKDjBH94DODzkcYPGNS+8ZeHrGylum1azmEa58u3nSR3PYKoPJ/T1wK59Pi1ocrhI7HVHY9FWFCT/AOP1r9VnOD5oXj1vt3/rtucGMnhatN0q0lZ/1cv+EPFMN9HDpV3L/pqRDyZGYn7SgHXJ6uByw7/eHcL11eOzayuo/EzSLrSI5EMk6MyhFJCOAJMgZH3d5J9DnNexVjTjP2MJz3d/nZtJ/NJP5meVYidWi1N3cW1fuls/mcZ8TIv+KZjuDbiaKG4Xz+mRGwK8Z5+8U6eg9Ku+Etc06XwtYK15bo1vbiNg0oHyxrjdzjjaMn05GeK6OWKOeJ4pY1kjdSro4yGB4II7ivNL74WXMOrCbQ9TS3s5Hy8UwJMS8dOu/q2M47cnrWipqUXyy5Zed7P7r2fnZ3WjTshYilXpV3iMOr3Vmv1/r/hus1fxrommaVcXkWoWd5JGvyW8FyhdySAB16c8nnAycGuC1Txt4k8SvFpul2TaZ5rIMiYiVjns524Xlc4GffBxXZRfD/T45Udr/UJFVgSjtHhh6HCA4PsQa6W1sbSyUraWsFupABEUYQEDp0pU6tSG0I373cvwtH9fw1mVLH13abUF5a3/AAR5rpnw71HU76C78RXlxcKqKSZJizYKkhQGBPDHkHHfivRdK0m00ayFpZIUiB3HcxJJwBn26dBgegq7TJZY4InllkWONFLO7nAUDkknsKh885c1STk/Pp6JaI6cNgaWHfNvLu9x9Fcdq3xD022luLPTFkv7tYiUlgCvArkEqGbcOOmcfTrxXJxJ4+8VD7Ut/NbwBmKC1cRKMtjbkEbgNpHJYj6k1bVODtVmovtq3/4Crv8AAzrZnRpy5Ie9LstX+B6hqN9plpF5WqXdnDHOrLsupFUSDoww3Uc8/WvMPD8TeFfH11byxywWj3vkQRK+dyyEhOp5GGQnvx6itOH4aXl/i41nVXnugihGnZpyvU4OSOMnpkjr+Ozofw/s9Mv4r+9ujf3EBP2dfKEcUXTBCZPzDnBJ9OMgGpco1IezjdRum21ZuzuuVdNrNytpeyZx1Y4rGVINU+VRad21fTy3/I7CsTxX/wAgeD/sJWH/AKVw1t1ieK/+QPB/2ErD/wBK4aD3TbooooAKKKKACiiigArE0P8A5DHib/sJJ/6SW9bdYmh/8hjxN/2Ek/8ASS3oA26KKKACiiigAooooAKKKyJfFfh6GJ5W1vTyqKWIS5RjgegByT7DmqjGUvhVyZTjH4nYr+KfDEPiO0jIkeK+tQ7WsqvgBiOjcHKkhc8Z4+uec8J+IG0RotE1mG7hnmuFij3tvWJyAojAzlUyo24yPm7Dk2T8VdDaeSKC01O42k4aKBSGAPUAsDj6gVyfjfxPb3l7aX9ilxBeRhCiz7D5ZRywYKNw6n159ODkqQqKrTpP4m7W626/JfFd7arqeFjcTQp1Y16M1z3s13X/AAN7nstc942s7i98KXS2Vt9ou4iksKAZbKsC23vnbuGByQSO9a+mT3FzpNncXcXlXMsCPLHtK7HKgkYPIwc8GrVFknZq57VSEa1Nwe0l+Zw/w48Qafd6LHpcX7q4hLsI2I53MWOPpk8eg+uOhl8V+HoYnlbW9PKopYhLlGOB6AHJPsOa5HxB8MRLefbvDlwllM7kyQSMREB/s4BI5H3Tkc8YAxWjbfDqBbdVutYvpZhnc8SRIp54wpViOPc0VIODvTakn3bTXk/dlf1/Pc8yk8fRiqMYKSjs27adOn9fng6l4+1nXVfS9F0uSxmuJBGlxLMA+wnGQCBtPIyQTjPrg0ln8PtZ1cxNr2ozzoqBlM8zvs3AEhVJzkEAHOPxxXo2l6TaaRaLb2qdBhpG5eQ88se/U+wzgADirtTKpWlHlT5F/dun/wCBPX7rFLLqlezxc2/JaL07/kZei+H7DQrcR2se6TG1p5FXzGXPAJAHA7AAD8ea1KK5rUvHGkWEsMcPnah5qlt9ltkRQPViwXPB4znj3GZ92Cvol8kv8julKhhaerUY/cdLVe8vrPT4hLe3cFtGW2h5pAgJ64ye/B/KvLDfeNPGM8kmn3htrHfuCWcgXysD7pkGNx5BI3d846Ysw/DnWtWMTa7q1xIsbHaJpjIQCB0GT1IAPzDp7Vpz0Iuzk2+yTf4tKP4nD/ajqaUKcpdnbT79vxMy+h07QPHj6rZm3bSCkd1H9kcMuN+GUc4yWjfABwOBx0HstcNp3wz0+2u45b24+1QQsHitliEcZPPMgyS56dx05yCRXc0pPnm6j3dvkkrK/d9+nTXd3l2Hq03UqVFy8zvbsYnjL/kRvEH/AGDbn/0U1bdYnjL/AJEbxB/2Dbn/ANFNW3SPTCiiigAooooAKKKKACiiigAooooAKKKKACiiigAooooAKKKKACiiigAooooAKKKKACiiigAooooAKKKKACiiigArE1z/AJDHhn/sJP8A+klxW3WJrn/IY8M/9hJ//SS4oA26KKKACuH8c+Obnw1e2un6faRzXcqCVmmBK7SSoAAIJJIP0988dxXmvxStIIZ7LVfLBnSCSPdnJyCuzg8cFm/P2FXTqQhK81fol3b0X4nBmVadHDSnB6q34uwxPGPjKewMv9kg78qv2SxlcjtuVslcjOeQRxj1w+5tvH2oQvp9zbSSWdwAkjyzwRFQTzkx87cdcckZHOcV3Ph+Z7jw3pc8mDJJZxO21QoyUBOAOB9BWjUOLv8AvNX5NxXytZq3m2+7ZjDL51YJ1a0nddHZfgecRfCazMSGW5VJCo3qiswB7gHcMj3wPpT/APhUun/8/f8A5Db/AOLr0Sio5Zf8/J/+Bz/+SK/sfB/yv/wKX+ZxkPwz0KOFEfzXYDBbagz/AOOn9ST7mt9fDeigy50y2kEpyyyIHXrngNkD8K1Kzb7xDo2mtKl5qlnDJEu54mmXeBjP3c5Jx0GMmiOHjKfMld7938uxtHBYSj7ygl5v/gl22tbezt1t7WCKCFM7Y4kCqMnJwBx1NS1xWo/EvSIbUSaVDc6pKTjbHE0aKePvMy8cE4wD05xXPTfEjxPNKZLPRrOKA/dScszj1ydy989h/WtpJR1qzUf8UktfmyKuaYOjo5r5f1Y9WorxqdPiDrlwl19ovbcS/wCrjgZ4o1Ukkfd4xz94knGMmtCP4f8AiPVl8nWdYu3gV1YLNcFwDyCQMsCQD7daTnh1/wAvOZ/3U3+O3469DFZrzu1KnKXy0+/ZHd6t4t0HRLgW+oalFFMesahnZeAfmCgleCMZxmsPUviPp620g0eGa8lMe5J5IzHApzg7i2Dx1wBz0yOcO0z4Z6JYuJJw1w4bIB+VenHckHPOQR2rctPC2iWU/nxafG0oYOrzEylGByCm8nb+GOg9BU86fwxa/wAVn/5Kn/7d8ir5hV2UYLz1a+7T8TiftXxA1SW5UrcwIV2mK1gSEKCMZV5cMT1+6SQe44FXtP8AhnA0r3GqzJJLKC0iR5kO/dnd5j9cjr8oOT14r0CilJOStJv5aL7lZffd+Y1ldOTvXk5vzen3Iz7XQtLssGCxhDBt4ZhvYH2JyR0rQooqYU4U1aCSXkd9OlTpLlpxSXkrBRRRVmgViWv/ACPOq/8AYNsv/Rt1W3WJa/8AI86r/wBg2y/9G3VAG3RRRQAUUUUAFFFFAGJ4y/5EbxB/2Dbn/wBFNW3WJ4y/5EbxB/2Dbn/0U1bdABRRRQBgeMfEn/CL6C18sHnTSOIYVP3Q5BOW74AU9OvTjORydh448U3Nkt2dIjuEf7q2lnLIe3UhiBwc4rpPHumxaj4aJlYj7NPHOoGCGOdpBHphj+n0qp8M7u5vPC0kk7hkF3IIVDKxRDg7TjkcluvOCO2KcrVI+zjpazk+tndJL1s7vfTpc8fEOtVxnsIzcVy30/r1MtNU+IN4PtFtpMqQuSVWUwxMOem1/mHtntzTLb4Xpe263WpTeVezZeZNzSkMTnl9w3H1Prnk9a9JorNU4xXuOUfSc9f/ACa34Gn9k0ZfxZSl6yf6M8rT4Rsl0N13G8AbGWY5K+uAo59s/jWpb/CnTIrmKSScSojhmjMbAMAeR9/vXoFFOXtJO8qkn/29Jfgml94RyfCp3ab+b/z/ADMGw8HaJYwtF9jS4U9rhVdQODjbjb1Gc4zWpZaZp+m7/sNjbWvmY3+REqbsdM4HPU/nRe6np+m7Pt19bWvmZ2efKqbsdcZPPUfnXM3XxK8Ox2sr2VxJe3IX93bxwyKZD6ZK4A7k+meD0rSjQlGDVOPu7vt6v/NnQlhcLGytG3odhRXm3/Ce+JtSkiTSfD0MZ2ln852mOOMHC7SPyPUdKrXcXjzxJNkyz6cbcY8u0V4EbPOcswLHjHBIGO2Tmeeit5r/ALdvL/0m5zvNqD/hJz9E2epVm6x4g0vQIopdUvFt1lYqgKlixHXAUE4Hr05HqK4dfAvie4s/Lu/Ed24kQiSNr2TBB6qRgjpweSKs2Pwp06FonubgyEL86qvU49SSOv8As/lS9rST0UpeiS/GTX5N+QPG4melKg/nZL9P8y5ffFDQIEC2H2nUZ2VtqQxMoBA4DFgCAfUA4weKxbXVviDrkgngRLSAIcJBAmJMHkhpMjPOPvdunWuzsfCOiWEPlJYxyjaVPnAMCCc/d+7+Qrcp+0m1aMVH/wAmf3tJL7n6h9XxlfWtPkXaO/3v/g+p5xp3w4ubqUXmsXzCdyC5J8+c4Hy5kbKqRwMBWGBwe47Cw8M6Rp8UaJZxzPG4kE1wBI+8Y+YE/dPGcLgDsBWvRSaTlzPfvu/vep0Ucvw9F80Y3fd6v72FFFFM7AooooAxLr/kedK/7Bt7/wCjbWtusS6/5HnSv+wbe/8Ao21rboAKKKKACiiigAooooAxPBv/ACI3h/8A7Btt/wCilrbrE8G/8iN4f/7Btt/6KWtugArN8QaxHoGhXWqSxNKsCjEanBYkhQM9hkjJ9Ox6VpVk+KLGHUfC+p20wyjW7MOTwyjcp49CAfwpxlCLTqfCt/TqZ1pONOUlukzgdK8f+LNWDNBp1iyKCT5dtK7EDuFD5POB+NXf7U8eX8r3Njp9ykW/YYJo4oVGB1XzPn9Dk5HJ/B/wuu3lm1u1wFgtmhSNcDI++D82Mn7o69Pzr0SpmpTnz1FZNaRWiSavq1q3bdp2T2PGweHrYqjGrVqyV+idvx3PM7f4eXmuyzajr222u5m3EeaZnJ5HOCFAwBgAkY44xirH/CpdP/5+/wDyG3/xdeiUUnF9JyS/xz/+SOlZPhOqbffml/mefwfCjTI50eS5ZkB5VY8E/wDfRYfp+XWuisPB2iafEsa2aShXMg81VPJAHIAAOMAjIODW9Ve8vrPT4hLe3cFtGW2h5pAgJ64ye/B/Kp9iptc15Pzbl+bZrDLsJS95Q++7/Nsis9H0zT5TLZabZ20hXaXhgVCR1xkDpwPyq7XMX3xC8MWLSo2prNJGudtujSBzjICsBtJ7dcZ64rmLz4narOzR6XoPlkOSJLtiQyf7o24PT+I9+vWumdOaXNVfKu8nb8x1cfhcOvekl6Hp1FeY3Fz8QNfVbUx/2YpQuxtomjY8rwXc8Ef7LDPPUdJYvBfi0QI7eJLtpeCUfUJVH0OAf0JrLnpdJXfknb73aP4mX9pcz/dU5SXpb8zv9Q1Oy0m0a6v7qK3hH8UjYycE4A6k4B4HJrnJviT4ZWItb3c13KPuwwW772+m4AcdevasfTvhZbRtFLeyQqcMJYYlMg9trt07E/L6j3rqLfwdoVtHEiWI/dkEZdsEg55AOOT1GMH0pOpp7sHfzaX4Lmv96v3QvbZhV+Cmof4nd/hc42XxZ4v8Q3jxaFZfYrQSjZK0IeUL0w+cqM8noMY69y8eBte8QXBufEF+/mRkiMT7XUH5eVjQhQCBzyDkcg5r0iC3htYRDbwxwxAkhI1CgEnJ4HuSakqueo3q7Lslb73q3562fYFl0qmuJqOXktF/n+Jg6d4O0ewhlia3F4shHF2iuFA6KowAAPpn1JwMbcUUcESRRRrHGihURBgKBwAB2FPoqYxUVyxVkd9KhTox5acUl5BRRRTNQrE8V/8AIHg/7CVh/wClcNbdYniv/kDwf9hKw/8ASuGgDbooooAKKKKACiiigArE0P8A5DHib/sJJ/6SW9bdYmh/8hjxN/2Ek/8ASS3oA26KKKACvLoPiNr+sapLHo2m2v2TdiPzo3eQgf7rAE4ycDp69z6jXlPhlZ9H+I8ei2Nwy6eiTLJHI65kC78Hnq2QDxyBu6DNNSdnThbmfV62STb06vZLp18n5eY1KqnSp05cvM7Nl7+3fG2qTCC3068tXjBYyRWixJIOP+e+cEegPqfo3/hENd8UXpbxI8kcUEeIXmZC24nkBIiFxwMk4PQcjp6VRU8ttm/vaf3q1vlp0tYf9mKf8WpKS7Xsvwsed/8ACpdP/wCfv/yG3/xdX7T4Z6RHaol25mnA+aSOJIw3/AcHHHv/AIV2tFQ6fMrSlJ+spP8ANu36/IqOU4NfYv6tv82ZFv4X0S2ZWTT42KjA84mTHv8AMTz79etTJ4f0WOdZ00iwWZWDrItsgYNnOQcZznvV6WWOCJ5ZZFjjRSzu5wFA5JJ7CsC88d+GLGURS6xAzFd2YQ0ox9UBGeOnWtaNBrSjH7l/kdHs8NQW0Y/cjoqK87vPibK01ymmaOZLdRiK8uJvLU8ffKbcle/XOPQmobjX/Gt5BJZSadJBJMRGHsrKVWAOORI52r15J6DuDyFJxi+W932Wr+aV7fOxzSzXDJuMG5Ndk2elUyWWOCJ5ZZFjjRSzu5wFA5JJ7CvPv+EO8Vxfc16efPXzdTnXH02rTE+Gk960l3qV5D9uZvvsZLoMAAAWLlST2x2wOaj2i6Rlbv7v5OV193yYvr2IekKEvm0v1NuX4leFY4nddRaRlUkIlvJlj6DKgZPuQK53UPHPiPWLiWHw5pskFuEB82aAvOCOSdoyMfw9G+uTx1Fn4C0CzZ2Fq0jMMZZtpA/4CB+vpXQW9pbWaMltbxQKzbmESBQTgDJx3wAPwrRVXe8IJer5n9ySS/H0F7PH1lapJQXldv8A4H3s85PhXxZ4gulXXLoCGIj57gqyE/PgpDGQpPI+ZiDg8dMV0OmeANJs3Wa+aXU5gBn7VgxBsEErGBt5z33Y45zzXV0UX15uvf8Ay7eisvI1pZdQhLnkuaXeWr/yIra1t7O3W3tYIoIUztjiQKoycnAHHU1LRRSbud6VtEFFFFAGJ4y/5EbxB/2Dbn/0U1bdYnjL/kRvEH/YNuf/AEU1bdABRRRQAUUUUAFFFFABRRRQAUUUUAFFFFABRRRQAUUUUAFFFFABRRRQAUUUUAFFFFABRRRQAUUUUAFFFFABRRRQAVia5/yGPDP/AGEn/wDSS4rbrE1z/kMeGf8AsJP/AOklxQBt0UUUAFct4+01tR8OsEhDtG2WbaCUXacn6Z2n8M9q6mmSxRzxPFLGskbqVdHGQwPBBHcVnVg5wcU7Pv2fRnPiqCxFGVJu1zjPDXjLSLXwnbLqVwljLZIts0Uhy8gUBQ6JjcVPHbjn0zVb/hbugf8APnqf/fqP/wCLrUn+H+kXNzPNNLdOsr7xEfL2R8k4UbOBzj6YqP8A4VtoH9yX8o//AImtY17N+0pXflLT8UmedfM4xUVGOnW+5z7fGAPcNHbaBJKu47M3OGYdiVCHBx2yfrVdPEnjrX74vpqLZQZUCOOFZNoJOCxYHnHBztHHQc16DbeGNFtDmLT4sBdoV8uAPYMSBWoiLGioihUUAKqjAA9BTlXqP+HCMPvk/wAbJfcylhcfV0q1eVf3d/vsvyZ5wnhnxteSSXV1rU6zF8eWbxoEK7RyFiBA/TkH8b2nfDqP7M0upXbpfySMzyWjBsgnOC8iksT1J4/TJ7uis5R51ap73rt/4D8P4Gqyqg3epef+J3/Db8DHt/Cui2tw08dirOy7SJXaRccdFYkA8dQM/nWrDDFbxCKGNI416IigAfgKfRSjThH4UkdtOhSpfw4peisFFFFWahRRRQAUUUUAFFFFABRRRQAViWv/ACPOq/8AYNsv/Rt1W3WJa/8AI86r/wBg2y/9G3VAG3RRRQAUUUUAFFFFAGJ4y/5EbxB/2Dbn/wBFNW3WJ4y/5EbxB/2Dbn/0U1bdABRRRQBQ1mwbU9IuLNHCPIBtZhxkEHn8q4H4fa1ZaF9u0e/eK0jeVrqC4llCxsDtXZlsfMMA988+nPptc/qXg/TtS1D7YzzQMw+dIAirI3PzN8pJbnrnsKyfPCTnBJ3Vmm2r21VnrZq73XXpuebi8NW9tHE4ezklZp9V09LamNc/Fjw7BcNHGl9cIMYliiAVuO25gfbkVny/FoSTP9g8P3NxbggLI8u1icDOQFYD8zXSWXgTQrLftt2k34+823GP93Hr3rWttF0y0CCGxgBjOVYoGYHOc7jzW3t+1JfOTf4JL8zNRzKe7jH8X+X6nn934u8Y622zRtNFgkYBd1AuGJ54ztIAP+7n5evali8PePNXljnv9bubb930jl8kY7DCd+e654x6V6dRS9pXatzJf4YpfjLmf4lf2fVm71qzfpov1PPrD4aJPcSXWu3T3NwSQHErSs4wACzOPTjGOw5roLTwVodpFCgtmkMT71ZpCMnJOCq4UjnGMYPfNdDRUSpxm7z971bdvS97fI2p5bhYa8l33ev5hRRRVncFFFFABRRRQAUUUUAFFFFABRRRQBiXX/I86V/2Db3/ANG2tbdYl1/yPOlf9g29/wDRtrW3QAUUUUAFFFFABRRRQBieDf8AkRvD/wD2Dbb/ANFLW3WJ4N/5Ebw//wBg22/9FLW3QAVFcwLdWs1u5ISVGRivUAjHFS0Umk1ZiklJWZ5h4TlHhDxPqNnqaCCK92M1xJKgSFwGbDHOMENwfXA71t6h8UfDthdtbo1zebeGktowUzkjALMM9OoyORzWrrnhHT9duEuJHmtZgGDSWuxWk3BR8xKknAUYPaqI+HWgeaJHjkkO7cwfZ831wuaKc5QSVWPP0unZ2Wivpq7dV9x4tOjj8ND2NJJxT0betvP/ADMa4+Llo7IumaNeXTYJcSsIyo4xjbuz+naqt3498R6t5VppOmxafcSglWeTzpGxg/Ku3jjOcqePTFd3B4a0a2culhGSRj94S4/JiRWrVe1m9oRj83L8+VfgzZYfH1E/aVVH0V/x0secPpHjzUGjtr3VLmOMtu86B4oAhAP3inzEH0GRnr61LD8P76/vIv7fvTdW0IJjb7ZJM5PHZ12jOMnr0xjuPQqKztN/FNv0fL+EeVfhYpZXSbvUnKXq/wDKxzdr4E0C1ieMWjPv6tvKHHp8mP8AHmt23s7W03fZraGHdjd5aBc46ZxU9FKNGnF3S179fvOulhKFHWnBJ+mv3hRRRWh0BRRRQAUUUUAFFFFABRRRQAVieK/+QPB/2ErD/wBK4a26xPFf/IHg/wCwlYf+lcNAG3RRRQAUUUUAFFFFABWJof8AyGPE3/YST/0kt626xND/AOQx4m/7CSf+klvQBt0UUUAFeYa3aT+GvHVtr72z3EPmytiMgM6Mp3YGeq7+nG72r0+s/V9GtdZtDDcAo+MJOir5kYyCdpYHGdoBrOcZ3U6btJX32d1Zp26NfNbnBj8LKvBSpu04u67ejMXV/iH4d0jYv2z7bI2DsssSYHPJbIXt0znkcVkTfFazliU6Zo1/cuXCkS7Y0A/3gW56du/Wta3+HmhQzRyyJNcMgHMzKSxAwCSADn8a2rbQNJtAPKsIMq4dWdd7BhgggtkjBANaKq7JKmvVyv8Agkr/AHox/wCFKo/swX3/AKfqcTJ8S7yRRDFpltb3bsFRGuDO2SRgeWqgsT2we/4VFJb+P7yyCS3GoSJMocNB9nt2A4IHUOp9enoe9emUVKU93L7krfK6cl/4EN4CtU/jV5P/AA2j/mebt8P9ZvnW21XVWurMNv3TXssrKcHBCEAe3XoT9K37L4faDYyh1ilcBNm1mA9OcqAc8evf6V1NFTKmpq022uzba+5u33I0hleFTvKPN/ibf56Fax0+10y2+z2cQji3FsZJJJPJJPJ/wwOgqzRRVpJKyO6MYwSjFWSCiiimUFFFFABRRRQAUUUUAFFFFAGJ4y/5EbxB/wBg25/9FNW3WJ4y/wCRG8Qf9g25/wDRTVt0AFFFFABRRRQAUUUUAFFFFABRRRQAUUUUAFFFFABRRRQAUUUUAFFFFABRRRQAUUUUAFFFFABRRRQAUUUUAFFFFABWJrn/ACGPDP8A2En/APSS4rbqrf6ZYarAsGo2NteQq28R3ESyKGwRnDA84J596ALVFYn/AAhvhb/oW9H/APAGL/4mj/hDfC3/AELej/8AgDF/8TQBt0Vif8Ib4W/6FvR//AGL/wCJo/4Q3wt/0Lej/wDgDF/8TQBt0Vif8Ib4W/6FvR//AABi/wDiaP8AhDfC3/Qt6P8A+AMX/wATQBt0Vif8Ib4W/wChb0f/AMAYv/iaP+EN8Lf9C3o//gDF/wDE0AbdFYn/AAhvhb/oW9H/APAGL/4mj/hDfC3/AELej/8AgDF/8TQBt0Vif8Ib4W/6FvR//AGL/wCJo/4Q3wt/0Lej/wDgDF/8TQBt0Vif8Ib4W/6FvR//AABi/wDiaP8AhDfC3/Qt6P8A+AMX/wATQBt0Vif8Ib4W/wChb0f/AMAYv/iaP+EN8Lf9C3o//gDF/wDE0AbdFYn/AAhvhb/oW9H/APAGL/4mj/hDfC3/AELej/8AgDF/8TQBt0Vif8Ib4W/6FvR//AGL/wCJo/4Q3wt/0Lej/wDgDF/8TQBt0Vif8Ib4W/6FvR//AABi/wDiaP8AhDfC3/Qt6P8A+AMX/wATQBt1iWv/ACPOq/8AYNsv/Rt1R/whvhb/AKFvR/8AwBi/+Jq7p+jaXpHmf2bptnZebjzPs0Cx78ZxnaBnGT+ZoAvUUUUAFFFFABRRRQBieMv+RG8Qf9g25/8ARTVt0yaGK5gkgniSWGRSjxuoZXUjBBB6gjtWP/whvhb/AKFvR/8AwBi/+JoA26KxP+EN8Lf9C3o//gDF/wDE0f8ACG+Fv+hb0f8A8AYv/iaANuisT/hDfC3/AELej/8AgDF/8TR/whvhb/oW9H/8AYv/AImgDborE/4Q3wt/0Lej/wDgDF/8TR/whvhb/oW9H/8AAGL/AOJoA26KxP8AhDfC3/Qt6P8A+AMX/wATR/whvhb/AKFvR/8AwBi/+JoA26KxP+EN8Lf9C3o//gDF/wDE0f8ACG+Fv+hb0f8A8AYv/iaANuisT/hDfC3/AELej/8AgDF/8TR/whvhb/oW9H/8AYv/AImgDborE/4Q3wt/0Lej/wDgDF/8TR/whvhb/oW9H/8AAGL/AOJoA26KxP8AhDfC3/Qt6P8A+AMX/wATR/whvhb/AKFvR/8AwBi/+JoA26KxP+EN8Lf9C3o//gDF/wDE0f8ACG+Fv+hb0f8A8AYv/iaANuisT/hDfC3/AELej/8AgDF/8TR/whvhb/oW9H/8AYv/AImgDborE/4Q3wt/0Lej/wDgDF/8TR/whvhb/oW9H/8AAGL/AOJoALr/AJHnSv8AsG3v/o21rbrOsNA0bSp2n07SLCzmZdhkt7ZI2K5BxlQOMgce1aNABRRRQAUUUUAFFFFAGJ4N/wCRG8P/APYNtv8A0UtbdYn/AAhvhb/oW9H/APAGL/4mj/hDfC3/AELej/8AgDF/8TQBt0Vif8Ib4W/6FvR//AGL/wCJo/4Q3wt/0Lej/wDgDF/8TQBt0Vif8Ib4W/6FvR//AABi/wDiaP8AhDfC3/Qt6P8A+AMX/wATQBt0Vif8Ib4W/wChb0f/AMAYv/iaP+EN8Lf9C3o//gDF/wDE0AbdFYn/AAhvhb/oW9H/APAGL/4mj/hDfC3/AELej/8AgDF/8TQBt0Vif8Ib4W/6FvR//AGL/wCJo/4Q3wt/0Lej/wDgDF/8TQBt0Vif8Ib4W/6FvR//AABi/wDiaP8AhDfC3/Qt6P8A+AMX/wATQBt0Vif8Ib4W/wChb0f/AMAYv/iaP+EN8Lf9C3o//gDF/wDE0AbdFYn/AAhvhb/oW9H/APAGL/4mj/hDfC3/AELej/8AgDF/8TQBt0Vif8Ib4W/6FvR//AGL/wCJo/4Q3wt/0Lej/wDgDF/8TQBt0Vif8Ib4W/6FvR//AABi/wDiaP8AhDfC3/Qt6P8A+AMX/wATQBt1ieK/+QPB/wBhKw/9K4aP+EN8Lf8AQt6P/wCAMX/xNPh8J+HLaeOeDw/pUU0bB0kSzjVkYHIIIHBB70AbFFFFABRRRQAUUUUAFYmh/wDIY8Tf9hJP/SS3rbrLvPDOg6hdPdXuiabc3D43yzWkbu2BgZJGTwAPwoA1KKxP+EN8Lf8AQt6P/wCAMX/xNH/CG+Fv+hb0f/wBi/8AiaANuisT/hDfC3/Qt6P/AOAMX/xNH/CG+Fv+hb0f/wAAYv8A4mgDborE/wCEN8Lf9C3o/wD4Axf/ABNH/CG+Fv8AoW9H/wDAGL/4mgDborE/4Q3wt/0Lej/+AMX/AMTR/wAIb4W/6FvR/wDwBi/+JoA26KxP+EN8Lf8AQt6P/wCAMX/xNH/CG+Fv+hb0f/wBi/8AiaANuisT/hDfC3/Qt6P/AOAMX/xNH/CG+Fv+hb0f/wAAYv8A4mgDborE/wCEN8Lf9C3o/wD4Axf/ABNH/CG+Fv8AoW9H/wDAGL/4mgDborE/4Q3wt/0Lej/+AMX/AMTR/wAIb4W/6FvR/wDwBi/+JoA26KxP+EN8Lf8AQt6P/wCAMX/xNH/CG+Fv+hb0f/wBi/8AiaANuisT/hDfC3/Qt6P/AOAMX/xNH/CG+Fv+hb0f/wAAYv8A4mgDborE/wCEN8Lf9C3o/wD4Axf/ABNH/CG+Fv8AoW9H/wDAGL/4mgA8Zf8AIjeIP+wbc/8Aopq26xP+EN8Lf9C3o/8A4Axf/E1t0AFFFFABRRRQAUUUUAFFFFABRRRQAUUUUAFFFFABRRRQAUUUUAFFFFABRRRQAUUUUAFFFFABRRRQAUUUUAFFFFABRRRQAUUUUAFFFFABRRRQAUUUUAFFFFABRRRQAUUUUAFFFFABRRRQAUUUUAFFFFABRRRQAUUUUAFFFFABRRRQAUUUUAFFFFABRRRQAUUUUAFFFFABRRRQAUUUUAFFFFABRRRQAUUUUAFFFFABRRRQAUUUUAFFFFABRRRQAUUUUAFFFFABRRRQAUUUUAFFFFABRRRQAUUUUAFFFFABRRRQAUUUUAFFFFABRRRQAUUUUAFFFFABRRRQAUUUUAFFFFABRRRQAUUUUAFFFFABRRRQAUUUUAFFFFABRRRQAUUUUAFFFFABRRRQAUUUUAFFFFABRRRQAUUUUAFFFFABRRRQAUUUUAFFFFABRRRQAUUUUAFFFFABRRRQAUUUUAFFFFABRRRQAUUUUAFFFFABRRRQAUUUUAFFFFABRRRQAUUUUAFFFFABRRRQAUUUUAFFFFABRRRQAUUUUAFFFFABRRRQAUUUUAFFFFABRRRQAUUUUAFFFFABRRRQAUUUUAFFFFABRRRQAUUUUAFFFFABRRRQAUUUUAFFFFABRRRQAUUUUAFFFFABRRRQAUUUUAFFFFABRRRQAUUUUAFFFFABRRRQAUUUUAFFFFABRRRQAUUUUAFFFFABRRRQAUUUUAFFFFABRRRQAUUUUAFFFFABRRRQAUUUUAFFFFABRRRQAUUUUAFFFFABRRRQAUUUUAFFFFABRRRQAUUUUAFFFFABRRRQAUUUUAFFFFABRRRQAUUUUAFFFFABRRRQAUUUUAFFFFABRRRQAUUUUAFFFFABRRRQAUUUUAFFFFABRRRQAUUUUAFFFFABRRRQAUUUUAFFFFABRRRQAUUUUAFFFFABRRRQAUUUUAFFFFABRRRQAUUUUAFFFFABRRRQAUUUUAFFFFABRRRQAUUUUAFFFFABRRRQAUUUUAFFFFABRRRQAUUUUAFFFFABRRRQAUUUUAFFFFABRRRQAUUUUAFFFFABRRRQAUUUUAFFFFABRRRQAUUUUAFFFFABRRRQAUUUUAFFFFABRRRQAUUUUAFFFFABRRRQAUUUUAFFFFABRRRQAUUUUAFFFFABRRRQAUUUUAFFFFABRRRQAUUUUAFFFFABRRRQAUUUUAFFFFABRRRQAUUUUAFFFFABRRRQAUUUUAFFFFABRRRQAUUUUAFFFFABRRRQAUUUUAFFFFABRRRQAUUUUAFFFFABRRRQAUUUUAFFFFABRRRQAUUUUAFFFFABRRRQAUUUUAFFFFABRRRQAUUUUAFFFFABRRRQAUUUUAFFFFABRRRQAUUUUAFFFFABRRRQAUUUUAFFFFABRRRQAUUUUAFFFFABRRRQAUUUUAFFFFABRRRQAUUUUAFFFFABRRRQAUUUUAFFFFABRRRQAUUUUAFFFFABRRRQAUUUUAFFFFABRRRQAUUUUAFFFFABRRRQAUUUUAFFFFABRRRQAUUUUAFFFFABRRRQAUUUUAFFFFABRRRQAUUUUAFFFFABRRRQAUUUUAFFFFABRRRQAUUUUAFFFFABRRRQAUUUUAFFFFABRRRQAUUUUAFFFFABRRRQAUUUUAFFFFABRRRQAUUUUAFFFFABRRRQAUUUUAFFFFABRRRQAUUUUAFFFFABRRRQAUUUUAFFFFABRRRQAUUUUAFFFFABRRRQAUUUUAFFFFABRRRQAUUUUAFFFFABRRRQAUUUUAFFFFABRRRQAUUUUAFFFFABRRRQAUUUUAFFFFABRRRQAUUUUAFFFFABRRRQAUUUUAFFFFABRRRQAUUUUAFFFFABRRRQAUUUUAFFFFABRRRQAUUUUAFFFFABRRRQAUUUUAFFFFABRRRQAUUUUAFFFFABRRRQAUUUUAFFFFABRRRQAUUUUAFFFFABRRRQAUUUUAFFFFABRRRQAUUUUAFFFFABRRRQAUUUUAFFFFABRRRQAUUUUAFFFFABRRRQAUUUUAFFFFABRRRQAUUUUAFFFFABRRRQAUUUUAf/2Q==;" vertex="1" parent="1">
          <mxGeometry x="600" y="410" width="1210" height="800" as="geometry" />
        </mxCell>
        <mxCell id="3CZfS8LkYhQUTR-pmk5H-9" value="&lt;font color=&quot;#000000&quot; face=&quot;Tahoma&quot;&gt;&lt;b&gt;&lt;font style=&quot;font-size: 37px&quot;&gt;Reconstruction Performance of Different CMax&amp;nbsp;&lt;/font&gt;&lt;br&gt;&lt;/b&gt;&lt;/font&gt;" style="text;html=1;strokeColor=none;fillColor=default;align=center;verticalAlign=middle;whiteSpace=wrap;rounded=0;fontSize=24;fontColor=#F19C99;" vertex="1" parent="1">
          <mxGeometry x="700" y="410" width="1040" height="30" as="geometry" />
        </mxCell>
        <mxCell id="3CZfS8LkYhQUTR-pmk5H-12" value="&lt;font face=&quot;Tahoma&quot;&gt;&lt;b&gt;&lt;font style=&quot;font-size: 28px&quot; color=&quot;#cc0066&quot;&gt;Cmax = 14&lt;br&gt;Best Reconstruction&lt;/font&gt;&lt;br&gt;&lt;/b&gt;&lt;/font&gt;" style="text;html=1;strokeColor=none;fillColor=default;align=center;verticalAlign=middle;whiteSpace=wrap;rounded=0;fontSize=24;fontColor=#F19C99;" vertex="1" parent="1">
          <mxGeometry x="900" y="1150" width="390" height="30" as="geometry" />
        </mxCell>
      </root>
    </mxGraphModel>
  </diagram>
</mxfile>
